<svg width="480" height="589" viewBox="0 0 480 589" fill="none" xmlns="http://www.w3.org/2000/svg">
<g style="mix-blend-mode:plus-lighter" opacity="0.04">
<mask id="mask0_297_20347" style="mask-type:luminance" maskUnits="userSpaceOnUse" x="-10" y="-1" width="739" height="590">
<path d="M718.69 1.27857L-9.29175 -0.725586L0.263858 586.692L728.245 588.696L718.69 1.27857Z" fill="white"/>
</mask>
<g mask="url(#mask0_297_20347)">
<g style="mix-blend-mode:multiply">
<path d="M378.422 -59.5772C374.965 -29.3299 370.029 0.487659 363.666 29.6652C360.833 42.6342 357.604 55.765 351.107 66.103C334.482 92.5312 302.174 93.1852 274.143 87.2592C248.326 81.8136 222.738 72.5289 198.105 59.6784C173.694 46.9462 149.794 30.5521 124.207 25.0726C98.6283 19.5932 69.9128 28.0179 58.2638 55.2696C51.3371 71.4829 51.5001 92.0437 55.9827 110.837C60.4652 129.63 68.9251 146.935 78.1053 163.271C88.6222 181.98 100.631 200.92 103.561 222.831C106.593 245.515 98.2989 268.641 83.2628 279.47C61.8697 294.878 33.6412 284.982 8.01207 279.046C-24.5511 271.491 -58.9177 271.372 -86.9206 289.226C-114.923 307.092 -134.786 346.124 -128.886 387.077" stroke="white" stroke-miterlimit="10"/>
<path d="M371.819 -65.7734C368.456 -36.2001 363.6 -7.06825 357.307 21.3999C354.503 34.055 351.312 46.8602 344.986 56.9783C328.834 82.863 297.678 84.1206 270.52 79.0299C264.073 77.8235 257.635 76.3596 251.219 74.6615C232.751 69.759 214.474 62.8433 196.674 54.0098C172.913 42.2043 149.606 26.8414 124.675 21.8097C99.7513 16.7664 72.6549 25.576 60.1305 50.8951C55.4212 60.4248 52.4685 70.7019 51.695 81.8107C51.1626 89.3726 51.4846 97.2319 52.6648 105.049C53.2036 108.624 53.8999 112.199 54.7638 115.787C58.2378 130.14 64.4603 144.203 71.1344 157.577C71.7928 158.904 72.4595 160.219 73.1364 161.546C83.5461 182.073 94.4882 203.059 96.619 225.953C98.7498 248.846 91.0432 270.386 76.4314 281.056C55.6464 296.247 28.3571 287.326 3.64855 282.307C1.70366 281.91 -0.248014 281.548 -2.20731 281.21C-31.7929 276.105 -62.2225 277.953 -87.1091 294.866C-113.64 312.895 -132.184 351.097 -126.019 390.899" stroke="#F9F9F9" stroke-miterlimit="10"/>
<path d="M365.228 -71.9688C361.97 -43.0697 357.183 -14.6123 350.952 13.1461C348.177 25.4871 345.022 37.9548 338.879 47.8763C323.19 73.217 293.183 75.0903 266.894 70.8117C260.649 69.7937 254.415 68.5414 248.202 67.0551C230.303 62.7522 212.562 56.4827 195.244 48.3532C172.134 37.4865 149.419 23.1552 125.15 18.5598C100.89 13.9527 75.2288 23.0996 62.0037 46.5448C56.6693 56.0022 52.416 65.3251 50.5569 76.1017C49.2888 83.4499 48.8295 91.2592 49.3651 99.2849C49.6039 102.952 50.0419 106.691 50.6958 110.477C53.3132 125.647 59.5856 141.012 66.2141 155.525C66.87 156.969 67.5342 158.401 68.1986 159.834C78.5005 182.178 88.4006 205.118 89.7233 229.1C90.9004 250.481 83.8441 272.144 69.6574 282.678C49.4708 297.664 23.1185 289.719 -0.654254 285.606C-2.52559 285.28 -4.4037 284.989 -6.28941 284.721C-34.7323 280.7 -63.7346 283.457 -87.2403 300.533C-112.303 318.736 -129.542 356.097 -123.106 394.735" stroke="#F4F4F4" stroke-miterlimit="10"/>
<path d="M358.642 -78.1659C355.479 -49.9297 350.771 -22.1706 344.611 4.88946C341.874 16.9161 338.739 29.0578 332.776 38.7592C317.549 63.5556 288.687 66.0329 263.276 62.5902C257.242 61.7723 251.21 60.7202 245.19 59.4338C227.858 55.7309 210.643 50.1193 193.816 42.6825C171.354 32.7549 149.228 19.4439 125.612 15.2849C102.004 11.1259 77.622 20.5505 63.851 42.1688C57.859 51.5772 52.3552 59.9223 49.4156 70.3783C47.405 77.5009 46.1684 85.272 46.071 93.5062C46.0212 97.2778 46.191 101.156 46.6273 105.153C48.3818 121.14 54.7026 137.796 61.2959 153.47C61.9485 155.02 62.601 156.57 63.2628 158.12C73.4658 182.283 82.34 207.094 82.8254 232.234C83.2201 252.911 76.6361 273.901 62.8718 284.274C43.2906 299.043 17.8634 292.075 -4.98479 288.88C-6.78278 288.625 -8.58753 288.404 -10.3999 288.207C-37.7135 285.257 -65.2829 288.936 -87.4206 306.186C-111.029 324.565 -126.949 361.083 -120.242 398.568" stroke="#EEEEEE" stroke-miterlimit="10"/>
<path d="M352.064 -84.3569C349.005 -56.7958 344.375 -29.7236 338.268 -3.3741C335.559 8.3381 332.461 20.1419 326.68 29.6465C311.914 53.91 284.195 56.9914 259.657 54.3615C253.825 53.7438 247.994 52.8917 242.176 51.8172C225.411 48.7144 208.728 43.7493 192.391 37.0171C170.576 28.0173 149.039 15.7504 126.073 12.0278C103.116 8.30535 79.8661 17.9367 65.7045 37.7986C59.0135 47.1811 52.3009 54.5366 48.2939 64.6602C45.5439 71.5571 43.5425 79.29 42.8046 87.721C42.4572 91.5852 42.3699 95.6147 42.5895 99.8218C43.4937 116.627 49.8535 134.586 56.4004 151.398C57.0504 153.065 57.7004 154.732 58.3504 156.4C68.4456 182.393 76.339 209.018 75.9577 235.376C75.6728 255.325 69.4592 275.652 56.1171 285.877C37.1399 300.429 12.6444 294.437 -9.29117 292.161C-11.0152 291.987 -12.7477 291.826 -14.4869 291.699C-40.6737 289.833 -66.8149 294.435 -87.5908 311.835C-109.742 330.376 -124.356 366.063 -117.387 402.395" stroke="#E9E9E9" stroke-miterlimit="10"/>
<path d="M345.483 -90.5538C342.518 -63.668 337.967 -37.283 331.932 -11.6326C329.252 -0.235002 326.182 11.2425 320.581 20.5267C306.275 44.2454 279.695 47.9428 256.021 46.1375C250.397 45.7083 244.769 45.0682 239.142 44.1937C222.942 41.6912 206.781 37.3845 190.932 31.3454C169.762 23.2853 148.812 12.0394 126.496 8.76517C104.198 5.47936 81.9319 15.223 67.5185 33.4341C60.1051 42.8021 52.2152 49.1446 47.1372 58.9472C43.6611 65.6303 40.8781 73.3013 39.5134 81.9526C38.8789 85.9095 38.5263 90.0905 38.5299 94.5078C38.5871 112.13 44.9936 131.381 51.4952 149.355C52.1418 151.128 52.7801 152.913 53.4275 154.697C63.4134 182.509 70.3728 210.914 69.0938 238.524C68.2042 257.723 62.2888 277.422 49.3763 287.486C31.0016 301.821 7.42586 296.806 -13.5814 295.449C-15.2417 295.346 -16.8912 295.266 -18.5483 295.21C-43.6035 294.417 -68.3302 299.941 -87.7482 317.503C-108.445 336.219 -121.768 371.062 -114.531 406.241" stroke="#E3E3E3" stroke-miterlimit="10"/>
<path d="M338.915 -96.7427C336.054 -70.5325 331.573 -44.8234 325.6 -19.8842C322.949 -8.80137 319.917 2.34969 314.496 11.4252C300.648 34.5987 275.212 38.9005 252.399 37.9201C246.976 37.6911 241.547 37.2395 236.122 36.5887C220.485 34.6866 204.854 31.0268 189.483 25.6927C168.957 18.5726 148.593 8.35975 126.924 5.52232C105.274 2.67327 83.891 12.4464 69.3254 29.0888C61.1463 38.4304 52.1407 43.7715 45.9966 53.2532C41.7878 59.7104 38.2468 67.3432 36.2471 76.1913C35.3183 80.2525 34.71 84.5733 34.5077 89.201C33.7214 107.641 40.1645 128.184 46.6287 147.309C47.2726 149.199 47.9083 151.101 48.543 152.991C58.4284 182.622 64.4913 212.772 62.2664 241.681C60.8483 260.13 55.1567 279.199 42.6643 289.115C24.8823 303.244 2.23191 299.194 -17.8592 298.756C-19.4468 298.724 -21.0237 298.715 -22.6081 298.73C-46.5436 299.02 -69.8525 305.455 -87.9082 323.18C-107.157 342.07 -119.184 376.069 -111.68 410.094" stroke="#DEDEDE" stroke-miterlimit="10"/>
<path d="M332.361 -102.935C329.594 -77.4009 325.192 -52.3797 319.291 -28.1519C316.668 -17.384 313.673 -6.57124 308.423 2.29537C295.041 24.9234 270.728 29.8415 248.78 29.6744C243.566 29.6458 238.337 29.3945 233.103 28.9439C218.026 27.6424 202.924 24.6414 188.029 20.0008C168.144 13.8092 148.364 4.62967 127.342 2.24084C106.346 -0.171294 83.1488 6.20611 71.1275 24.6928C60.8542 31.6567 52.0625 38.3592 44.8566 47.5081C39.9277 53.7395 35.6139 61.3338 32.992 70.3906C31.7786 74.5445 30.9073 79.0167 30.4909 83.8547C28.8646 103.113 35.3443 124.959 41.7616 145.235C42.3937 147.242 43.0258 149.25 43.6579 151.257C53.433 182.709 58.666 214.592 55.4442 244.8C53.5558 262.51 48.031 280.927 35.9666 290.694C18.7837 304.605 -2.95274 301.532 -22.1309 302.013C-23.6462 302.052 -25.1506 302.114 -26.6626 302.199C-49.4741 303.563 -71.388 310.92 -88.0865 328.807C-105.893 347.859 -116.638 381.026 -108.868 413.896" stroke="#D8D8D8" stroke-miterlimit="10"/>
<path d="M325.809 -109.122C323.145 -84.2645 318.813 -59.9315 312.974 -36.4037C310.38 -25.9509 307.414 -15.4648 302.352 -6.80712C289.426 15.2753 266.241 20.7979 245.149 21.4677C240.133 21.6277 235.104 21.5885 230.07 21.3499C215.553 20.6492 200.968 18.2954 186.557 14.3601C167.312 9.10909 148.115 0.963176 127.736 -1.0004C107.385 -2.96383 84.9769 3.11397 72.9043 20.3484C61.7694 26.9217 51.9771 32.9865 43.7148 41.8025C38.0611 47.8197 32.9957 55.3639 29.7445 64.6176C28.2388 68.8642 27.1156 73.4996 26.4851 78.5363C24.0225 98.6131 30.5463 121.751 36.9161 143.178C37.5447 145.291 38.174 147.416 38.7951 149.553C48.4602 182.835 52.9192 216.429 48.6519 247.96C46.3584 264.919 40.9378 282.706 29.2904 292.312C12.7052 306.006 -8.11115 303.911 -26.3795 305.311C-27.8225 305.42 -29.2548 305.553 -30.6939 305.721C-52.3935 308.169 -72.8999 316.437 -88.2548 334.498C-104.633 353.725 -114.083 386.047 -106.058 417.762" stroke="#D2D2D2" stroke-miterlimit="10"/>
<path d="M319.273 -115.318C316.712 -91.1369 312.449 -67.4924 306.683 -44.6649C304.119 -34.5154 301.19 -24.368 296.297 -15.9311C283.827 5.6171 261.765 11.7444 241.533 13.2279C236.725 13.5885 231.894 13.7496 227.049 13.7113C213.09 13.6114 199.031 11.9167 185.094 8.68706C166.487 4.37676 147.87 -2.74701 128.134 -4.26178C108.425 -5.78814 86.7951 0.00160161 74.6724 15.9835C62.6814 22.1777 51.884 27.593 42.5806 36.0878C36.2141 41.8791 30.3827 49.3731 26.516 58.8472C24.7293 63.1982 23.3446 67.9735 22.5111 73.2206C19.2159 94.1157 25.7737 118.546 32.1055 141.135C32.7312 143.366 33.3578 145.608 33.9662 147.851C43.529 182.954 47.2823 218.283 41.9088 251.112C39.2506 267.345 33.8953 284.465 22.6643 293.923C6.67501 307.398 -13.2336 306.281 -30.5954 308.601C-31.9665 308.781 -33.3269 308.984 -34.6941 309.223C-55.2776 312.744 -74.3904 321.936 -88.4079 340.158C-103.356 359.547 -111.525 391.025 -103.237 421.596" stroke="#CDCDCD" stroke-miterlimit="10"/>
<path d="M312.731 -121.508C310.264 -97.9917 306.08 -75.0358 300.375 -52.9323C297.84 -43.0982 294.948 -33.2894 290.234 -25.0499C278.217 -4.04786 257.275 2.69598 237.902 5.00505C233.291 5.55428 228.658 5.92753 224.012 6.10141C210.608 6.60251 197.072 5.55534 183.607 3.03135C165.644 -0.349654 147.598 -6.42762 128.502 -7.50523C109.443 -8.59436 88.5798 -3.09283 76.4163 11.6244C63.574 17.4395 51.7869 22.2169 41.4289 30.3787C34.3443 35.9439 27.7697 43.3995 23.28 53.0705C21.2037 57.5142 19.5688 62.441 18.524 67.8986C14.4002 89.6121 20.9919 115.347 27.2745 139.075C27.8975 141.423 28.5113 143.772 29.1169 146.131C38.5678 183.055 41.6923 220.143 35.1442 254.258C32.1686 269.765 26.8341 286.231 16.0275 295.539C0.623778 308.808 -18.3714 308.669 -34.831 311.897C-36.1305 312.148 -37.4185 312.434 -38.7148 312.731C-58.1949 317.338 -75.9108 327.452 -88.5881 345.825C-102.11 365.388 -109.014 396.02 -100.464 425.435" stroke="#C7C7C7" stroke-miterlimit="10"/>
<path d="M306.205 -127.707C303.841 -104.868 299.726 -82.6008 294.094 -61.1981C291.587 -51.6793 288.725 -42.1977 284.187 -34.1791C272.622 -13.7234 252.805 -6.37469 234.268 -3.23999C229.863 -2.49024 225.427 -1.91652 220.96 -1.54231C208.111 -0.42838 195.086 -0.839702 182.101 -2.65779C164.772 -5.09763 147.301 -10.1529 128.845 -10.7816C110.423 -11.4334 90.3425 -6.23186 78.132 7.24382C64.4426 12.668 51.6625 16.8074 40.2745 24.6478C32.4766 29.9987 25.1531 37.404 20.0534 47.2838C17.6989 51.832 15.8052 56.8986 14.5501 62.5667C9.60178 85.0987 16.2347 112.126 22.4692 137.018C23.0884 139.471 23.7002 141.949 24.2939 144.426C33.6323 183.17 36.2052 222.053 28.4127 257.408C25.1503 272.211 19.8073 287.987 9.4145 297.146C-5.39712 310.197 -23.4822 311.036 -39.0424 315.184C-40.2697 315.517 -41.4872 315.862 -42.7023 316.243C-61.0751 321.923 -77.409 332.96 -88.7603 351.494C-100.863 371.232 -106.497 401.018 -97.6976 429.277" stroke="#C2C2C2" stroke-miterlimit="10"/>
<path d="M299.693 -133.899C297.422 -111.737 293.385 -90.159 287.817 -69.4574C285.339 -60.2541 282.514 -51.1113 278.155 -43.2903C267.04 -23.3812 248.334 -15.4158 230.648 -11.467C226.439 -10.5167 222.199 -9.75425 217.93 -9.15611C205.632 -7.44098 193.126 -7.19279 180.61 -8.31662C163.912 -9.8151 147.016 -13.8358 129.196 -14.0271C111.419 -14.2416 92.1005 -9.32842 79.8433 2.89368C65.3128 7.93859 51.5445 11.4281 39.1234 18.947C30.6244 24.0718 22.5568 31.4387 16.8413 41.5272C14.2003 46.1681 12.059 51.3863 10.6037 57.265C4.83487 80.6156 11.4998 108.948 17.6932 134.979C18.3095 137.55 18.9085 140.133 19.4993 142.728C28.7346 183.304 30.8326 224.018 21.7273 260.577C18.2077 274.688 12.8296 289.774 2.84835 298.772C-11.3733 311.605 -28.5611 313.422 -43.2257 318.49C-44.382 318.894 -45.5284 319.31 -46.6725 319.761C-63.9509 326.526 -78.9008 338.476 -88.932 357.171C-99.6229 377.071 -104.002 406.023 -94.936 433.113" stroke="#BCBCBC" stroke-miterlimit="10"/>
<path d="M293.192 -140.087C291.023 -118.602 287.056 -97.714 281.559 -77.7254C279.111 -68.8377 276.315 -60.0222 272.131 -52.4223C261.474 -33.0599 243.864 -24.4896 227.028 -19.7031C223.022 -18.5639 218.978 -17.5892 214.895 -16.7906C203.147 -14.4742 191.149 -13.5781 179.109 -13.9958C163.039 -14.5645 146.716 -17.5504 129.529 -17.3043C112.387 -17.0696 95.3235 -9.35248 81.5408 -1.5001C67.758 6.35228 51.4333 6.01676 37.9835 13.1908C28.7783 18.0894 19.9701 25.4061 13.6511 35.7034C10.7341 40.437 8.33822 45.8186 6.67402 51.896C0.088907 76.0654 6.78422 105.69 12.9279 132.873C13.5322 135.562 14.1372 138.262 14.7153 140.963C23.8371 183.36 25.557 225.976 15.0514 263.68C11.3049 277.123 5.86277 291.483 -3.69863 300.332C-17.3325 312.946 -33.627 315.742 -47.3909 321.73C-48.4764 322.205 -49.5521 322.691 -50.6255 323.213C-66.8153 331.052 -80.3867 343.925 -89.1042 362.782C-98.3978 382.856 -101.51 410.961 -92.1973 436.894" stroke="#B7B7B7" stroke-miterlimit="10"/>
<path d="M286.695 -146.282C284.618 -125.475 280.738 -105.277 275.296 -85.9894C272.877 -77.4174 270.119 -68.9293 266.111 -61.5388C255.901 -42.7117 239.393 -33.5364 223.391 -27.9355C219.589 -26.5958 215.731 -25.4205 211.844 -24.4097C200.642 -21.4919 189.16 -19.936 177.584 -19.6592C162.14 -19.2862 146.388 -21.2371 129.833 -20.5535C113.331 -19.8813 96.7695 -12.7002 83.206 -5.85448C67.9906 1.82664 51.2916 0.632893 36.8297 7.48541C26.9326 12.1696 17.388 19.4361 10.46 29.9421C7.26036 34.7802 4.61876 40.3017 2.74752 46.5897C-4.65851 71.5778 2.08415 102.496 8.17834 130.842C8.7788 133.636 9.37186 136.455 9.94769 139.284C18.9556 183.503 20.3931 228.091 8.39932 266.859C4.43797 279.656 -1.07711 293.278 -10.2292 301.978C-23.2857 314.385 -38.6734 318.148 -51.5586 325.056C-52.5737 325.602 -53.5782 326.171 -54.582 326.752C-69.6782 335.677 -81.8965 349.462 -89.2878 368.492C-97.1818 388.739 -99.043 415.998 -89.4846 440.774" stroke="#B1B1B1" stroke-miterlimit="10"/>
<path d="M280.199 -152.472C278.223 -132.344 274.414 -112.823 269.044 -94.2492C266.654 -85.9929 263.933 -77.844 260.091 -70.6631C250.327 -52.3831 234.915 -42.591 219.754 -36.1639C216.145 -34.6236 212.49 -33.2478 208.787 -32.0364C198.13 -28.5171 187.161 -26.3132 176.048 -25.33C161.227 -24.0152 146.043 -24.9426 130.117 -23.8098C114.243 -22.7001 98.2049 -16.1136 84.8373 -10.2162C68.6568 -3.07923 51.136 -4.75842 35.6501 1.77245C25.0553 6.23045 14.7794 13.4583 7.25402 24.1615C3.78154 29.0924 0.887395 34.7655 -1.18979 41.264C-9.40341 67.0711 -2.63146 99.294 3.42034 128.78C4.01772 131.692 4.60692 134.616 5.17078 137.563C14.0733 183.603 15.3163 230.259 1.75618 270.006C-2.39987 282.171 -8.00586 295.043 -16.7512 303.581C-29.2246 315.77 -43.7269 320.512 -55.7288 328.34C-56.6738 328.957 -57.6083 329.597 -58.5413 330.26C-72.559 340.259 -83.4123 354.968 -89.5028 374.159C-96.0052 394.568 -96.6297 420.991 -86.8093 444.61" stroke="#ABABAB" stroke-miterlimit="10"/>
<path d="M273.717 -158.666C271.842 -139.215 268.101 -120.385 262.795 -102.524C260.433 -94.584 257.742 -86.7626 254.083 -79.7912C244.763 -62.0586 230.441 -51.6614 216.117 -44.408C212.709 -42.6788 209.238 -41.0907 205.729 -39.667C195.614 -35.5461 185.147 -32.6824 174.512 -31.0043C160.311 -28.7592 145.701 -28.6396 130.392 -27.0692C115.144 -25.5219 99.6333 -19.5771 86.4637 -14.5931C69.3088 -8.09422 50.9785 -10.1533 34.4921 -3.95576C23.2037 0.27598 12.2098 7.46546 4.0823 18.3774C0.329605 23.4011 -2.80673 29.2257 -5.07979 35.9349C-14.0966 62.561 -7.29698 96.0771 -1.29535 126.727C-0.701104 129.756 -0.123955 132.798 0.436078 135.851C9.22469 183.724 10.3871 232.541 -4.84594 273.151C-9.18408 284.718 -14.8921 296.792 -23.2227 305.181C-35.1155 317.152 -48.7369 322.872 -59.8509 331.621C-60.7262 332.309 -61.591 333.019 -62.4542 333.754C-75.3892 344.839 -84.8943 360.459 -89.6907 379.812C-94.8078 400.394 -94.1939 425.97 -84.131 448.43" stroke="#A6A6A6" stroke-miterlimit="10"/>
<path d="M267.243 -164.843C265.46 -146.059 261.797 -127.93 256.563 -110.772C254.239 -103.147 251.578 -95.6539 248.082 -88.9039C239.203 -71.7188 225.976 -60.7047 212.465 -52.6368C209.249 -50.7069 205.978 -48.9298 202.653 -47.2938C193.076 -42.5714 183.117 -39.0594 172.941 -36.663C159.357 -33.4758 145.309 -32.3324 130.624 -30.3126C116.007 -28.3277 101.027 -23.0599 88.0405 -18.9426C69.9173 -13.211 50.7811 -15.5326 33.2916 -9.65677C21.3227 -5.65127 9.59625 1.48784 0.878793 12.6086C-3.14289 17.7368 -6.52979 23.7014 -9.00662 30.6212C-18.8224 58.0663 -11.995 92.8874 -6.03632 124.677C-5.446 127.813 -4.87197 130.972 -4.32392 134.142C4.35888 183.837 5.5293 234.946 -11.4638 276.312C-15.9732 287.292 -21.7914 298.569 -29.719 306.797C-41.0422 318.56 -53.7703 325.248 -64.0191 334.918C-64.825 335.676 -65.6205 336.457 -66.4055 337.263C-78.2732 349.422 -86.4269 365.978 -89.9369 385.48C-93.6763 406.236 -91.8393 430.964 -81.5261 452.266" stroke="#A0A0A0" stroke-miterlimit="10"/>
<path d="M260.777 -171.035C259.094 -152.929 255.5 -135.491 250.329 -119.047C248.035 -111.738 245.401 -104.584 242.088 -98.0323C233.648 -81.3948 221.5 -69.7756 208.818 -60.8696C205.8 -58.7507 202.712 -56.7613 199.579 -54.913C190.538 -49.5889 181.084 -45.4168 171.363 -42.3255C158.394 -38.1961 144.905 -36.0171 130.838 -33.5713C116.842 -31.137 102.432 -26.593 89.5856 -23.3076C70.4937 -18.4372 50.5715 -20.9276 32.084 -15.3852C19.4304 -11.5943 6.98442 -4.50536 -2.31966 6.8243C-6.61849 12.0452 -10.2449 18.1615 -12.9244 25.2919C-23.5357 53.5443 -16.6722 89.6706 -10.7641 122.624C-10.177 125.877 -9.61495 129.153 -9.06108 132.441C-0.493128 183.958 0.809488 237.5 -18.042 279.47C-22.728 289.898 -28.6407 300.331 -36.1747 308.42C-46.923 319.965 -58.7788 327.644 -68.1589 338.222C-68.8951 339.063 -69.6216 339.915 -70.3377 340.791C-81.1343 354.037 -87.9545 371.504 -90.1754 391.168C-92.554 412.085 -89.4819 435.977 -78.9198 456.121" stroke="#9B9B9B" stroke-miterlimit="10"/>
<path d="M254.313 -177.222C252.72 -159.795 249.205 -143.035 244.105 -127.306C241.839 -120.313 239.244 -113.487 236.093 -107.156C228.099 -91.055 217.015 -78.8307 205.155 -69.1098C202.327 -66.7904 199.437 -64.6003 196.485 -62.5513C187.977 -56.6255 179.016 -51.8051 169.757 -48.007C157.397 -42.947 144.464 -39.7322 131.014 -36.8371C117.642 -33.9649 103.825 -30.1566 91.0919 -27.6916C71.0545 -23.8116 50.324 -26.3299 30.8524 -21.121C17.5256 -17.5563 4.36463 -10.506 -5.53277 1.02069C-10.0985 6.33441 -13.9714 12.6141 -16.8445 19.9434C-28.2465 49.0149 -21.357 86.4345 -15.5001 120.54C-14.925 123.91 -14.358 127.293 -13.8161 130.698C-5.36266 184.037 -3.83118 240.153 -24.6375 282.596C-29.4887 292.496 -35.514 302.073 -42.6403 310.001C-52.8169 321.327 -63.8064 329.984 -72.3133 341.484C-72.9809 342.395 -73.6477 343.318 -74.2864 344.265C-84.0278 358.585 -89.5123 376.977 -90.4599 396.801C-91.4756 417.892 -87.1851 440.924 -76.3829 459.92" stroke="#959595" stroke-miterlimit="10"/>
<path d="M247.848 -183.409C246.355 -166.661 242.908 -150.592 237.871 -135.565C235.634 -128.888 233.076 -122.402 230.096 -116.269C222.537 -100.716 212.52 -87.8749 201.469 -77.3276C198.838 -74.8074 196.128 -72.4167 193.365 -70.1553C185.387 -63.6278 176.924 -58.1589 168.115 -53.6541C156.362 -47.6517 143.981 -43.401 131.143 -40.0681C118.382 -36.7583 105.189 -33.709 92.5437 -32.0295C71.5674 -29.2455 50.038 -31.698 29.5701 -26.8108C15.5644 -23.4726 1.69161 -16.4608 -8.7868 -4.72522C-13.6174 0.693036 -17.7372 7.11257 -20.8111 14.6525C-33.0003 44.5431 -26.0842 83.2679 -20.2694 118.525C-19.6982 122.001 -19.1431 125.501 -18.6043 129.024C-10.2551 184.196 -8.40694 243.041 -31.2586 285.781C-36.2897 295.187 -42.4121 303.861 -49.1412 311.639C-58.7495 322.746 -68.8692 332.383 -76.5257 344.803C-77.1251 345.785 -77.7238 346.779 -78.2944 347.797C-86.9772 363.203 -91.143 382.506 -90.8235 402.503C-90.4834 423.767 -84.9887 445.951 -73.939 463.788" stroke="#909090" stroke-miterlimit="10"/>
<path d="M241.384 -189.588C237.408 -143.926 217.515 -103.866 190.231 -77.7876C162.948 -51.7091 128.768 -38.9284 93.9504 -36.4073C72.0673 -34.825 49.7045 -37.106 28.2617 -32.5407C6.81883 -27.9753 -14.4204 -15.2297 -24.7939 9.3098C-37.7672 40.0194 -30.8162 80.0376 -25.0519 116.447C-15.5704 176.322 -11.3095 243.316 -37.8842 288.913C-51.1195 311.63 -70.9431 326.754 -82.3138 351.288C-98.0734 385.291 -93.4429 435.248 -71.5321 467.591" stroke="#8A8A8A" stroke-miterlimit="10"/>
</g>
<g style="mix-blend-mode:multiply">
<path d="M91.7213 592.651C104.695 567.679 118.988 543.807 134.496 521.188C141.394 511.136 148.726 501.133 158.436 495.182C183.238 479.957 215.429 495.041 241.329 513.849C265.183 531.169 287.591 551.739 307.926 574.997C328.083 598.045 346.582 624.075 370.18 641.3C393.787 658.525 424.871 665.015 445.003 646.668C456.984 635.749 463.307 617.547 464.795 598.831C466.283 580.103 463.369 560.757 459.431 541.918C454.92 520.341 448.998 497.836 453.014 477.12C457.165 455.672 472.673 439.314 490.982 437.063C517.029 433.867 541.863 456.254 565.37 473.92C595.233 496.358 629.228 513.128 662.598 510.961C695.96 508.805 727.948 484.042 735.031 445.107" stroke="white" stroke-miterlimit="10"/>
<path d="M95.7784 601.071C108.501 576.5 122.623 553.09 137.976 531.013C144.804 521.203 152.067 511.455 161.598 505.594C180.742 493.827 204.288 499.986 225.875 511.802C231.755 515.012 237.496 518.651 242.962 522.453C266.465 538.818 288.609 558.436 308.794 580.72C328.792 602.805 347.141 627.977 370.461 644.574C383.532 653.876 398.668 660.279 413.179 661.5C425.821 662.558 438.059 659.576 447.829 650.959C449.577 649.42 451.208 647.73 452.725 645.911C462.093 634.66 467.063 618.439 468.51 601.814C468.973 596.474 469.107 591.086 468.99 585.673C468.677 571.553 466.686 557.261 464.289 543.292C460.501 521.121 455.983 498.423 460.7 477.754C465.417 457.085 480.238 441.326 498.095 439.014C523.503 435.732 547.761 456.839 570.675 473.272C572.477 474.562 574.306 475.841 576.133 477.085C603.864 495.953 634.631 509.1 664.639 506.285C696.641 503.283 727.077 478.647 733.507 440.587" stroke="#F9F9F9" stroke-miterlimit="10"/>
<path d="M100.239 609.474C112.713 585.299 126.638 562.355 141.844 540.804C148.597 531.223 155.797 521.737 165.144 515.967C183.92 504.379 206.938 509.955 228.108 521.005C233.88 524.006 239.521 527.426 244.907 531.007C268.045 546.434 289.919 565.092 309.932 586.406C329.758 607.532 347.962 631.829 370.961 647.826C384.495 657.239 400.018 663.915 414.984 665.418C427.985 666.712 440.684 663.917 450.822 655.24C452.634 653.69 454.339 651.975 455.926 650.109C465.699 638.647 470.78 621.919 472.397 604.764C472.914 599.26 473.102 593.706 473.051 588.152C472.92 573.642 471.264 558.927 469.313 544.617C466.26 521.859 463.11 498.973 468.55 478.311C473.717 458.696 487.945 443.24 505.34 440.867C530.094 437.499 553.759 457.331 576.067 472.532C577.821 473.73 579.602 474.904 581.382 476.055C608.35 493.459 638.007 505.138 666.728 501.535C697.344 497.698 726.22 473.171 731.996 435.976" stroke="#F4F4F4" stroke-miterlimit="10"/>
<path d="M104.756 617.895C116.982 594.128 130.717 571.64 145.758 550.614C152.446 541.274 159.562 532.04 168.734 526.371C187.151 514.975 209.63 519.956 230.394 530.251C236.067 533.055 241.608 536.242 246.914 539.603C269.685 554.079 291.288 571.776 311.127 592.131C330.78 612.299 348.856 635.708 371.526 651.116C385.528 660.628 401.427 667.589 416.837 669.374C430.194 670.904 443.36 668.285 453.865 659.548C455.751 657.985 457.518 656.248 459.168 654.346C469.334 642.66 474.526 625.437 476.312 607.752C476.884 602.093 477.127 596.375 477.151 590.667C477.201 575.757 475.87 560.641 474.363 545.978C472.033 522.621 470.234 499.592 476.423 478.914C482.017 460.214 495.673 445.215 512.615 442.78C536.714 439.325 559.786 457.88 581.488 471.85C583.194 472.954 584.919 474.036 586.659 475.082C612.873 491.01 641.419 501.22 668.837 496.828C698.065 492.154 725.373 467.736 730.495 431.408" stroke="#EEEEEE" stroke-miterlimit="10"/>
<path d="M109.27 626.315C121.237 602.946 134.793 580.914 149.677 560.416C156.29 551.304 163.334 542.346 172.321 536.755C190.37 525.551 212.32 529.936 232.677 539.476C238.243 542.07 243.693 545.037 248.909 548.177C271.315 561.713 292.647 578.448 312.312 597.831C331.782 617.038 349.738 639.535 372.071 654.376C386.541 663.988 402.814 671.221 418.667 673.301C432.38 675.078 446.002 672.636 456.872 663.827C458.821 662.253 460.662 660.492 462.374 658.555C472.941 646.645 478.242 628.914 480.188 610.699C480.804 604.875 481.112 599.004 481.201 593.142C481.442 577.843 480.426 562.315 479.372 547.299C477.764 523.343 477.285 500.196 484.238 479.479C490.22 461.683 503.353 447.141 519.823 444.656C543.269 441.114 565.748 458.38 586.845 471.128C588.504 472.128 590.181 473.116 591.864 474.069C617.315 488.531 644.764 497.271 670.889 492.089C698.734 486.578 724.485 462.271 728.955 426.81" stroke="#E9E9E9" stroke-miterlimit="10"/>
<path d="M113.775 634.742C125.494 611.771 138.862 590.208 153.589 570.238C160.128 561.367 167.098 552.662 175.911 547.173C193.603 536.161 215.015 539.951 234.967 548.734C240.424 551.118 245.775 553.864 250.912 556.795C272.952 569.378 294.006 585.162 313.496 603.572C332.792 621.805 350.628 643.389 372.615 657.662C387.55 667.362 404.198 674.891 420.492 677.253C434.56 679.266 448.638 677.012 459.882 668.144C461.904 666.558 463.808 664.773 465.592 662.801C476.56 650.679 481.961 632.441 484.085 613.696C484.756 607.719 485.117 601.67 485.282 595.668C485.703 579.979 484.991 564.027 484.409 548.671C483.483 524.115 484.331 500.85 492.084 480.096C498.406 463.204 511.055 449.132 527.063 446.574C549.856 442.946 571.745 458.932 592.237 470.446C593.848 471.352 595.477 472.236 597.114 473.096C621.804 486.09 648.156 493.346 672.981 487.374C699.455 481.026 723.634 456.817 727.463 422.238" stroke="#E3E3E3" stroke-miterlimit="10"/>
<path d="M118.277 643.162C129.748 620.589 142.927 599.484 157.489 580.054C163.953 571.425 170.849 562.974 179.489 557.575C196.813 546.755 217.699 549.949 237.245 557.963C242.604 560.138 247.856 562.662 252.912 565.372C274.588 577.013 295.372 591.833 314.688 609.256C333.811 626.527 351.533 647.161 373.177 660.901C388.586 670.688 405.607 678.513 422.332 681.159C436.754 683.419 451.285 681.342 462.901 672.403C464.996 670.793 466.963 668.996 468.809 666.989C480.167 654.644 485.687 635.91 487.97 616.635C488.695 610.493 489.111 604.291 489.34 598.135C489.942 582.045 489.553 565.694 489.421 549.973C489.213 524.806 491.311 501.448 499.899 480.644C506.51 464.634 518.726 451.045 534.283 448.437C556.425 444.722 577.723 459.428 597.611 469.694C599.176 470.508 600.757 471.286 602.337 472.053C626.277 483.566 651.526 489.361 675.064 482.598C700.159 475.401 722.789 451.316 725.969 417.608" stroke="#DEDEDE" stroke-miterlimit="10"/>
<path d="M122.769 651.597C133.982 629.424 146.984 608.79 161.389 589.889C167.788 581.49 174.601 573.304 183.066 567.996C200.034 557.369 220.394 559.965 239.527 567.222C244.778 569.187 249.931 571.502 254.907 573.979C276.218 584.665 296.733 598.519 315.876 614.979C334.827 631.287 352.445 650.97 373.728 664.175C389.618 674.038 406.993 682.171 424.156 685.1C438.93 687.596 453.923 685.695 465.893 676.709C468.051 675.088 470.09 673.267 471.998 671.225C483.756 658.667 489.374 639.416 491.825 619.621C492.604 613.315 493.075 606.96 493.379 600.65C494.17 584.171 494.093 567.396 494.412 551.335C494.921 525.569 498.236 502.105 507.686 481.252C514.546 466.113 526.378 453.032 541.465 450.362C562.948 446.56 583.668 459.984 602.954 469.014C604.47 469.723 606.005 470.419 607.537 471.081C630.72 481.124 654.876 485.433 677.121 477.879C700.841 469.844 721.924 445.871 724.447 413.035" stroke="#D8D8D8" stroke-miterlimit="10"/>
<path d="M127.261 660.039C138.227 638.267 151.04 618.092 165.28 599.722C171.604 591.565 178.344 583.632 186.627 578.427C203.238 567.993 223.057 570.039 241.784 576.489C246.928 578.256 251.991 580.338 256.887 582.594C277.835 592.336 298.081 605.224 317.05 620.708C335.828 636.051 353.351 654.759 374.275 667.453C390.634 677.392 408.371 685.821 425.972 689.045C441.098 691.788 456.543 690.065 468.883 681.007C471.113 679.374 473.214 677.519 475.194 675.453C487.339 662.672 493.076 642.925 495.695 622.601C496.528 616.141 497.053 609.621 497.421 603.158C498.391 586.279 498.637 569.104 499.395 552.69C500.62 526.325 505.11 502.755 515.458 481.843C522.527 467.564 534.004 454.99 548.633 452.258C569.467 448.37 589.599 460.512 608.284 468.304C609.754 468.919 611.231 469.511 612.717 470.079C635.143 478.65 658.2 481.484 679.174 473.14C701.521 464.266 721.052 440.406 722.937 408.443" stroke="#D2D2D2" stroke-miterlimit="10"/>
<path d="M131.753 668.478C142.472 647.107 155.089 627.404 169.182 609.565C175.431 601.639 182.098 593.972 190.207 588.857C206.454 578.617 225.749 580.065 244.073 585.757C249.11 587.314 254.074 589.174 258.891 591.208C279.475 599.993 299.444 611.927 318.249 626.434C336.855 640.799 354.281 658.532 374.838 670.725C391.684 680.728 409.764 689.476 427.81 692.984C443.286 695.963 459.182 694.428 471.892 685.312C474.185 683.668 476.367 681.789 478.399 679.687C490.94 666.683 496.776 646.429 499.562 625.586C500.44 618.962 501.028 612.277 501.471 605.673C502.62 588.404 503.186 570.806 504.393 554.051C506.331 527.088 511.956 503.389 523.238 482.453C530.476 469.011 541.65 456.981 555.82 454.187C576.007 450.213 595.562 461.059 613.638 467.625C615.062 468.146 616.492 468.632 617.93 469.107C639.611 476.206 661.572 477.553 681.257 468.417C702.245 458.704 720.227 434.957 721.467 403.869" stroke="#CDCDCD" stroke-miterlimit="10"/>
<path d="M136.237 676.917C146.7 655.947 159.138 636.705 173.076 619.409C179.261 611.725 185.844 604.313 193.781 599.301C209.672 589.243 228.436 590.116 246.357 595.025C251.287 596.383 256.162 598.01 260.899 599.822C281.122 607.662 300.822 618.628 319.454 632.157C337.878 645.557 355.227 662.29 375.417 673.994C392.739 684.048 411.17 693.128 429.651 696.919C445.477 700.147 461.82 698.777 474.889 689.602C477.255 687.946 479.498 686.043 481.592 683.907C494.529 670.691 500.472 649.93 503.415 628.546C504.347 621.768 504.989 614.918 505.505 608.161C506.842 590.492 507.729 572.493 509.373 555.386C512.033 527.824 518.74 503.973 530.994 483.037C538.38 470.41 549.261 458.935 562.975 456.091C582.515 452.031 601.485 461.592 618.954 466.919C620.329 467.335 621.713 467.739 623.095 468.109C644.022 473.723 664.899 473.604 683.309 463.677C702.93 453.113 719.367 429.491 719.964 399.279" stroke="#C7C7C7" stroke-miterlimit="10"/>
<path d="M140.725 685.362C150.942 664.794 163.194 646.025 176.966 629.249C183.076 621.809 189.587 614.662 197.341 609.73C212.868 599.866 231.11 600.141 248.63 604.29C253.462 605.438 258.238 606.842 262.888 608.444C282.749 615.327 302.18 625.325 320.631 637.875C338.883 650.308 356.141 666.016 375.959 677.255C393.762 687.349 412.545 696.76 431.45 700.846C447.623 704.31 464.423 703.13 477.85 693.884C480.288 692.216 482.593 690.29 484.756 688.107C498.077 674.668 504.129 653.412 507.248 631.498C508.233 624.554 508.929 617.551 509.51 610.641C511.026 592.583 512.231 574.162 514.321 556.714C517.692 528.553 525.456 504.516 538.702 483.614C546.205 471.779 556.824 460.895 570.08 457.978C588.975 453.831 607.361 462.107 624.233 466.194C625.562 466.516 626.899 466.816 628.234 467.092C648.41 471.232 668.204 469.624 685.332 458.904C703.59 447.501 718.494 423.993 718.449 394.658" stroke="#C2C2C2" stroke-miterlimit="10"/>
<path d="M145.186 693.815C155.148 673.65 167.223 655.354 180.839 639.111C186.874 631.902 193.312 625.022 200.894 620.181C216.067 610.511 233.788 610.188 250.898 613.576C255.624 614.513 260.302 615.695 264.881 617.075C284.382 623.011 303.547 632.041 321.824 643.612C339.905 655.077 357.084 669.773 376.519 680.533C394.812 690.656 413.927 700.421 433.264 704.791C449.784 708.503 467.03 707.5 480.814 698.196C483.314 696.516 485.69 694.566 487.914 692.348C501.628 678.686 507.788 656.923 511.064 634.491C512.102 627.394 512.851 620.215 513.506 613.163C515.2 594.716 516.753 575.895 519.259 558.084C523.387 529.336 532.106 505.053 546.401 484.234C553.991 473.179 564.387 462.887 577.189 459.92C595.44 455.687 613.244 462.676 629.521 465.523C630.803 465.752 632.093 465.946 633.372 466.128C652.799 468.793 671.513 465.707 687.371 454.195C704.27 441.953 717.636 418.559 716.959 390.101" stroke="#BCBCBC" stroke-miterlimit="10"/>
<path d="M149.662 702.253C159.378 682.491 171.266 664.657 184.718 648.958C190.689 641.993 197.043 635.368 204.454 630.63C219.264 621.154 236.466 620.233 253.176 622.848C257.795 623.575 262.385 624.546 266.875 625.692C286.016 630.682 304.914 638.742 323.019 649.333C340.928 659.83 358.026 673.489 377.091 683.794C396.155 694.098 415.317 704.065 435.084 708.718C451.95 712.667 469.64 711.853 483.789 702.479C486.361 700.787 488.798 698.814 491.083 696.56C505.189 682.687 511.446 660.418 514.888 637.455C515.97 630.194 516.783 622.861 517.501 615.656C519.372 596.809 521.243 577.576 524.184 559.424C529.028 530.078 538.698 505.514 554.08 484.825C561.745 474.516 571.92 464.851 584.269 461.835C601.878 457.515 619.1 463.218 634.783 464.823C636.018 464.947 637.262 465.059 638.494 465.135C657.181 466.313 674.81 461.748 689.401 449.444C704.952 436.362 716.784 413.083 715.459 385.503" stroke="#B7B7B7" stroke-miterlimit="10"/>
<path d="M154.131 710.712C163.603 691.354 175.304 673.994 188.601 658.829C194.497 652.095 200.779 645.737 208.008 641.091C222.466 631.81 239.14 630.289 255.442 632.143C259.964 632.659 264.447 633.408 268.858 634.332C287.639 638.362 306.262 645.464 324.204 655.075C341.942 664.592 358.968 677.213 377.644 687.074C396.321 696.934 416.687 707.716 436.883 712.665C454.083 716.85 472.226 716.213 486.74 706.792C489.372 705.077 491.882 703.093 494.236 700.803C508.723 686.708 515.096 663.932 518.704 640.451C519.84 633.036 520.706 625.538 521.497 618.181C523.555 598.945 525.743 579.301 529.117 560.797C534.666 530.853 545.251 505.937 561.76 485.449C569.479 475.862 579.455 466.86 591.36 463.782C608.328 459.376 624.97 463.78 640.06 464.155C641.249 464.185 642.437 464.192 643.622 464.175C661.564 463.876 678.109 457.832 691.436 444.735C705.635 430.813 715.945 407.649 713.982 380.948" stroke="#B1B1B1" stroke-miterlimit="10"/>
<path d="M158.591 719.175C167.808 700.232 179.329 683.323 192.468 668.69C198.29 662.2 204.497 656.098 211.553 651.543C225.648 642.456 241.809 640.324 257.702 641.429C262.118 641.733 266.512 642.26 270.843 642.962C289.263 646.044 307.615 652.165 325.383 660.807C342.947 669.354 359.887 680.926 378.192 690.343C397.935 700.504 418.04 711.368 438.66 716.601C456.201 721.034 474.791 720.575 489.646 711.084C492.349 709.357 494.919 707.349 497.333 705.025C512.208 690.717 518.677 667.434 522.448 643.411C523.636 635.831 524.556 628.18 525.411 620.669C527.644 601.032 530.148 580.976 533.964 562.131C540.215 531.588 551.668 506.263 569.339 486.021C577.108 477.122 586.896 468.807 598.336 465.667C614.661 461.175 630.722 464.29 645.218 463.423C646.361 463.36 647.501 463.261 648.641 463.15C665.835 461.374 681.305 453.838 693.37 439.948C706.216 425.174 714.998 402.137 712.409 376.314" stroke="#ABABAB" stroke-miterlimit="10"/>
<path d="M163.024 727.657C171.993 709.116 183.315 692.681 196.292 678.582C202.046 672.335 208.168 666.488 215.051 662.036C228.788 653.144 244.416 650.412 259.905 650.754C264.212 650.848 268.506 651.152 272.757 651.632C290.809 653.754 308.888 658.916 326.466 666.577C343.841 674.155 360.709 684.666 378.62 693.65C398.841 703.793 419.258 715.059 440.302 720.577C458.175 725.246 477.196 724.977 492.406 715.426C495.178 713.688 497.808 711.656 500.281 709.296C515.527 694.765 522.11 670.985 526.034 646.43C527.275 638.686 528.247 630.869 529.175 623.216C531.584 603.189 534.402 582.721 538.656 563.523C545.607 532.39 557.877 506.549 576.746 486.659C584.542 478.436 594.149 470.831 605.133 467.629C620.803 463.05 636.289 464.877 650.189 462.767C651.284 462.598 652.378 462.405 653.461 462.201C669.914 458.947 684.299 449.93 695.093 435.246C706.587 419.631 713.853 396.708 710.632 371.763" stroke="#A6A6A6" stroke-miterlimit="10"/>
<path d="M167.458 736.124C176.18 717.987 187.311 702.015 200.128 688.461C205.805 682.446 211.852 676.866 218.56 672.506C231.94 663.808 247.036 660.465 262.122 660.045C266.33 659.927 270.526 660.009 274.697 660.278C292.384 661.451 310.189 665.642 327.586 672.31C344.782 678.918 361.568 688.355 379.085 696.906C399.781 707.019 420.517 718.688 441.966 724.501C460.172 729.419 479.621 729.327 495.183 719.706C498.015 717.956 500.713 715.901 503.255 713.506C518.879 698.751 525.555 674.463 529.653 649.388C530.937 641.49 531.971 633.508 532.962 625.701C535.555 605.273 538.687 584.404 543.359 564.852C551.015 533.12 564.056 506.68 584.143 487.237C591.973 479.655 601.392 472.783 611.931 469.532C626.957 464.866 641.861 465.404 655.166 462.051C656.215 461.788 657.262 461.501 658.298 461.191C674.003 456.448 687.317 445.949 696.853 430.471C707.01 414.014 712.745 391.205 708.895 367.14" stroke="#A0A0A0" stroke-miterlimit="10"/>
<path d="M171.878 744.607C180.344 726.874 191.294 711.377 203.94 698.345C209.541 692.574 215.513 687.261 222.038 682.992C235.053 674.478 249.626 670.511 264.313 669.364C268.414 669.024 272.52 668.894 276.602 668.94C293.924 669.152 311.448 672.383 328.675 678.069C345.692 683.696 362.395 692.058 379.532 700.2C400.71 710.271 421.746 722.364 443.606 728.462C462.142 733.617 482.017 733.703 497.921 724.023C500.823 722.261 503.589 720.183 506.18 717.752C522.183 702.786 528.962 677.989 533.211 652.384C534.547 644.32 535.634 636.185 536.697 628.225C539.464 607.407 542.908 586.113 548.016 566.221C556.366 533.888 570.138 506.744 591.494 487.853C599.357 480.902 608.6 474.788 618.674 471.463C633.059 466.711 647.382 465.959 660.095 461.362C661.098 461.005 662.098 460.613 663.087 460.197C678.047 453.974 690.293 441.993 698.567 425.721C707.383 408.422 711.612 385.729 707.134 362.544" stroke="#9B9B9B" stroke-miterlimit="10"/>
<path d="M176.296 753.096C184.517 735.767 195.276 720.733 207.763 708.248C213.297 702.709 219.184 697.664 225.537 693.487C238.197 685.168 252.243 680.6 266.53 678.69C270.523 678.138 274.532 677.798 278.543 677.609C295.502 676.872 312.754 679.119 329.803 683.834C346.643 688.49 363.263 695.765 380.01 703.497C401.667 713.502 423.005 726.045 445.274 732.427C464.139 737.831 484.439 738.094 500.693 728.356C503.654 726.582 506.488 724.468 509.138 722.014C525.507 706.824 532.388 681.52 536.8 655.395C538.189 647.178 539.327 638.866 540.453 630.764C543.394 609.557 547.149 587.851 552.691 567.606C561.731 534.674 576.206 506.72 598.852 488.488C606.745 482.131 615.805 476.799 625.428 473.424C639.174 468.598 652.927 466.532 665.041 460.702C665.997 460.239 666.942 459.753 667.885 459.244C682.113 451.541 693.285 438.066 700.311 421C707.79 402.859 710.51 380.282 705.415 357.977" stroke="#959595" stroke-miterlimit="10"/>
<path d="M180.711 761.572C188.677 744.648 199.258 730.09 211.585 718.14C217.043 712.846 222.855 708.056 229.035 703.971C241.333 695.847 254.872 690.679 268.741 688.006C272.628 687.243 276.548 686.679 280.47 686.268C297.067 684.569 314.05 685.856 330.921 689.588C347.584 693.272 364.131 699.448 380.491 706.782C402.632 716.698 424.262 729.713 446.94 736.379C466.132 742.019 486.865 742.473 503.449 732.664C506.479 730.878 509.371 728.741 512.087 726.24C528.832 710.839 535.815 685.027 540.388 658.371C541.828 649.989 543.019 641.523 544.217 633.268C547.34 611.66 551.396 589.554 557.37 568.956C567.108 535.424 582.256 506.545 606.205 489.088C614.144 483.304 623.005 478.789 632.187 475.352C645.297 470.439 658.474 467.083 670.001 460.008C670.911 459.452 671.81 458.871 672.706 458.256C686.195 449.074 696.299 434.116 702.081 416.255C708.228 397.261 709.454 374.812 703.727 353.389" stroke="#909090" stroke-miterlimit="10"/>
<path d="M185.128 770.039C203.077 731.654 235.415 706.399 270.964 697.313C306.513 688.227 344.986 694.431 380.981 710.055C403.603 719.87 425.525 733.357 448.61 740.319C471.695 747.281 497.074 746.883 515.038 730.478C537.531 709.944 542.691 670.962 547.969 635.774C556.632 577.909 572.746 516.422 613.525 489.691C633.835 476.378 658.506 473.143 677.484 457.259C703.795 435.236 714.347 388.641 702.037 348.779" stroke="#8A8A8A" stroke-miterlimit="10"/>
</g>
<g style="mix-blend-mode:multiply">
<path d="M-262.587 -74.0552C-245.861 -95.3197 -227.969 -115.24 -209.053 -133.678C-200.641 -141.867 -191.797 -149.926 -181.184 -153.543C-154.059 -162.805 -124.037 -141.179 -100.896 -117.346C-79.5763 -95.3958 -60.1939 -70.6181 -43.2803 -43.6903C-26.5197 -17.0077 -11.8654 12.1759 9.21371 33.9851C30.3024 55.7945 60.4806 68.8832 83.4039 55.5741C97.0387 47.6578 106.099 31.4693 110.383 13.7192C114.667 -4.03096 114.644 -23.3518 113.511 -42.4111C112.213 -64.2282 109.643 -87.2619 116.752 -106.392C124.117 -126.184 142.099 -138.59 160.788 -136.743C187.372 -134.119 208.914 -107.05 229.832 -84.8459C256.414 -56.6321 287.981 -32.9856 321.74 -27.752C355.499 -22.5185 391.26 -39.4212 404.166 -75.4444" stroke="#8A8A8A" stroke-miterlimit="10"/>
<path d="M-260.465 -64.9791C-244.03 -85.9019 -226.374 -105.399 -207.666 -123.333C-199.349 -131.311 -190.605 -139.112 -180.174 -142.683C-159.217 -149.848 -136.515 -138.734 -116.617 -122.601C-111.198 -118.21 -105.981 -113.449 -101.071 -108.572C-79.9385 -87.618 -60.649 -63.8362 -43.7232 -37.8928C-26.9602 -12.1945 -12.3044 16.1319 8.60157 37.2596C20.3275 49.1037 34.5476 58.6126 48.9358 62.9709C61.4685 66.7608 74.1834 66.5747 85.2671 60.4026C87.2426 59.2971 89.1385 58.0284 90.9354 56.5963C102.018 47.796 109.425 33.2311 113.358 17.4958C114.627 12.4443 115.559 7.26308 116.248 2.02233C118.038 -11.6664 118.186 -25.9107 117.863 -39.9134C117.375 -62.1384 116.231 -85.0415 124.05 -103.953C131.813 -122.738 149.092 -134.83 167.347 -133.148C193.326 -130.749 214.508 -105.05 235.04 -84.1687C236.663 -82.5201 238.293 -80.8948 239.95 -79.2926C264.954 -55.0027 293.848 -35.5638 324.378 -31.6984C356.931 -27.5777 391.144 -44.6818 403.276 -80.0012" stroke="#909090" stroke-miterlimit="10"/>
<path d="M-258.351 -55.889C-242.206 -76.4584 -224.786 -95.5328 -206.29 -112.985C-198.075 -120.741 -189.423 -128.308 -179.173 -131.821C-158.579 -138.869 -136.28 -128.446 -116.654 -113.133C-111.297 -108.965 -106.142 -104.438 -101.266 -99.7959C-80.3226 -79.8484 -61.1251 -57.0508 -44.1968 -32.0917C-27.4304 -7.36591 -12.7566 20.0687 7.95867 40.538C20.1591 52.5905 34.7498 62.4357 49.569 67.167C62.4407 71.2716 75.6252 71.3555 87.101 65.2107C89.1553 64.1175 91.1185 62.8379 92.9915 61.3834C104.522 52.472 112.119 37.4591 116.306 21.2649C117.651 16.0758 118.669 10.7571 119.444 5.39049C121.478 -8.62994 122.004 -23.1818 122.179 -37.4217C122.504 -60.0425 122.76 -82.8032 131.307 -101.531C139.854 -120.259 156.031 -131.098 173.864 -129.57C199.238 -127.385 220.058 -103.067 240.205 -83.5074C241.791 -81.9642 243.395 -80.4441 245.018 -78.9356C269.521 -56.2367 297.576 -38.459 326.971 -35.624C358.308 -32.6039 390.979 -49.9322 402.339 -84.5245" stroke="#959595" stroke-miterlimit="10"/>
<path d="M-255.878 -46.8419C-240.032 -67.0749 -222.856 -85.7313 -204.59 -102.696C-196.472 -110.231 -187.936 -117.566 -177.863 -121.021C-157.633 -127.955 -135.76 -118.221 -116.406 -103.735C-111.114 -99.7887 -106.015 -95.4945 -101.185 -91.0855C-80.4411 -72.128 -61.3376 -50.3199 -44.4161 -26.3383C-27.6556 -2.57851 -12.9634 23.9599 7.55066 43.7879C20.2184 56.0401 35.1732 66.2356 50.4061 71.341C63.6198 75.7612 77.2492 76.1266 89.1211 70.0073C91.2523 68.9147 93.2916 67.6239 95.231 66.1582C107.204 57.1217 114.996 41.6571 119.436 25C120.856 19.6721 121.95 14.2145 122.83 8.72084C125.107 -5.6348 126.02 -20.5094 126.696 -34.9785C127.832 -58.0124 129.463 -80.6019 138.771 -99.1736C147.19 -115.972 163.166 -127.439 180.567 -126.053C205.332 -124.092 225.771 -101.138 245.52 -82.8946C247.079 -81.4563 248.646 -80.0411 250.232 -78.6374C274.222 -57.5232 301.432 -41.4016 329.665 -39.6077C359.769 -37.6872 390.891 -55.2325 401.462 -89.1187" stroke="#9B9B9B" stroke-miterlimit="10"/>
<path d="M-253.213 -37.8106C-237.679 -57.6986 -220.743 -75.9514 -202.702 -92.4309C-194.685 -99.7578 -186.256 -106.85 -176.373 -110.249C-156.521 -117.069 -135.079 -108.022 -115.995 -94.3502C-110.778 -90.6246 -105.736 -86.5627 -100.945 -82.386C-80.4061 -64.4159 -61.4109 -43.5828 -44.5022 -20.587C-27.7536 2.19864 -13.0282 27.8448 7.25168 47.0574C20.3916 59.4994 35.6974 70.0583 51.3502 75.5502C64.8915 80.2749 78.9714 80.9218 91.2361 74.8274C93.4341 73.735 95.5497 72.4444 97.5637 70.9558C109.976 61.8045 117.963 45.886 122.643 28.7635C124.138 23.2842 125.317 17.687 126.283 12.0654C128.802 -2.62756 130.094 -17.8155 131.279 -32.5274C133.227 -55.9777 136.195 -78.3878 146.289 -96.8176C154.963 -112.651 170.359 -123.774 187.312 -122.553C211.45 -120.816 231.511 -99.2217 250.856 -82.3045C252.378 -80.9708 253.918 -79.6603 255.476 -78.3613C278.955 -58.8288 305.293 -44.3612 332.366 -43.6082C361.227 -42.7988 390.782 -60.5638 400.572 -93.7369" stroke="#A0A0A0" stroke-miterlimit="10"/>
<path d="M-250.551 -28.7664C-235.32 -48.321 -218.633 -66.1584 -200.817 -82.1525C-192.899 -89.2598 -184.589 -96.1207 -174.885 -99.4625C-155.413 -106.181 -134.392 -97.8102 -115.595 -84.9522C-110.445 -81.4591 -105.46 -77.618 -100.717 -73.6737C-80.3737 -56.6912 -61.4972 -36.8448 -44.5909 -14.8234C-27.8533 6.99946 -13.0878 31.7183 6.94915 50.3269C20.562 62.9705 36.2184 73.8928 52.2891 79.748C66.1684 84.7889 80.6986 85.7174 93.3463 79.6477C95.6206 78.5556 97.8029 77.2653 99.8915 75.7536C112.753 66.4877 120.913 50.1034 125.845 32.5154C127.415 26.8965 128.679 21.1596 129.731 15.41C132.492 0.379698 134.141 -15.145 135.855 -30.0764C138.577 -53.9435 142.891 -76.1741 153.81 -94.4617C162.689 -109.354 177.544 -120.12 194.06 -119.053C217.572 -117.529 237.255 -97.2944 256.196 -81.7032C257.691 -80.4741 259.193 -79.2683 260.714 -78.074C283.674 -60.1121 309.149 -47.3104 335.062 -47.5985C362.691 -47.8887 390.671 -65.8735 399.678 -98.3566" stroke="#A6A6A6" stroke-miterlimit="10"/>
<path d="M-247.893 -19.7379C-232.965 -38.9589 -216.526 -56.3693 -198.935 -71.8779C-191.126 -78.7655 -182.914 -85.3835 -173.391 -88.6802C-154.297 -95.2849 -133.698 -87.5903 -115.179 -75.5581C-110.105 -72.2859 -105.178 -68.689 -100.472 -64.9654C-80.3341 -48.9707 -61.5667 -30.1113 -44.6724 -9.06446C-27.9458 11.7954 -13.1308 35.5867 6.65379 53.5912C20.7471 66.4131 36.7453 77.7105 53.2354 83.9524C67.4525 89.3096 82.4223 90.508 95.4625 84.4631C97.8139 83.383 100.071 82.0697 102.225 80.5466C115.525 71.1658 123.879 54.3274 129.052 36.2622C130.697 30.5036 132.046 24.6271 133.193 18.7495C136.196 3.38176 138.233 -12.4564 140.438 -27.6192C143.97 -51.9029 149.565 -73.9427 161.325 -92.0996C170.371 -106.062 184.724 -116.46 200.803 -115.547C223.689 -114.247 242.994 -95.3726 261.532 -81.096C262.99 -79.9717 264.466 -78.8589 265.948 -77.781C288.387 -61.4015 313.001 -50.2661 337.755 -51.5839C364.143 -52.974 390.556 -71.1901 398.783 -102.96" stroke="#ABABAB" stroke-miterlimit="10"/>
<path d="M-245.236 -10.7036C-230.61 -29.5793 -214.421 -46.5858 -197.064 -61.6089C-189.356 -68.2884 -181.261 -74.6634 -171.917 -77.9033C-153.202 -84.3945 -133.034 -77.3876 -114.784 -66.1813C-109.776 -63.1302 -104.907 -59.7658 -100.248 -56.2746C-80.3158 -41.2679 -61.6576 -23.3958 -44.7744 -3.3121C-28.0598 16.5729 -13.1865 39.425 6.33793 56.8484C20.9123 69.8604 37.2513 81.5213 54.1597 88.1382C68.7048 93.8118 84.1341 95.292 97.5568 89.2718C99.9749 88.1919 102.308 86.879 104.537 85.3328C118.275 75.8256 126.813 58.5329 132.237 40.0137C133.958 34.1153 135.381 28.0875 136.623 22.0819C139.869 6.37664 142.283 -9.78667 144.996 -25.1808C149.34 -49.8812 156.174 -71.742 168.825 -89.7563C177.995 -102.824 191.897 -112.819 207.531 -112.047C229.792 -110.96 248.728 -93.458 266.854 -80.4963C268.284 -79.4767 269.723 -78.4687 271.168 -77.4955C293.088 -62.6989 316.839 -53.2185 340.435 -55.5777C365.582 -58.0796 390.44 -76.5038 397.877 -107.572" stroke="#B1B1B1" stroke-miterlimit="10"/>
<path d="M-242.238 -1.67596C-227.922 -20.2225 -211.99 -36.8174 -194.866 -51.3582C-187.261 -57.8196 -179.278 -63.9647 -170.128 -67.1486C-151.801 -73.5278 -132.081 -67.1725 -114.112 -56.8132C-109.181 -53.9708 -104.373 -50.8499 -99.7644 -47.5906C-80.0488 -33.5804 -61.5088 -16.68 -44.6372 2.43325C-27.9428 21.3594 -13.0117 43.254 6.23452 60.1234C21.2903 73.3169 37.9523 85.3558 55.2705 92.3611C70.1443 98.3409 86.0053 100.103 99.8235 94.118C102.317 93.0382 104.725 91.7252 107.017 90.1556C121.187 80.5311 129.914 62.7799 135.576 43.7787C137.371 37.7391 138.878 31.5701 140.216 25.4349C143.702 9.39996 146.501 -7.10411 149.713 -22.7334C154.865 -47.8566 162.904 -69.567 176.46 -87.4081C185.721 -99.5956 199.187 -109.166 214.374 -108.559C236.008 -107.696 254.547 -91.5514 272.261 -79.9022C273.653 -78.9872 275.064 -78.0837 276.481 -77.215C297.869 -63.9984 320.748 -56.1715 343.173 -59.5734C367.077 -63.1765 390.349 -81.8367 397.002 -112.21" stroke="#B7B7B7" stroke-miterlimit="10"/>
<path d="M-238.976 7.32813C-224.983 -10.8801 -209.305 -27.0771 -192.421 -41.1375C-184.922 -47.3814 -177.064 -53.2975 -168.102 -56.4258C-150.168 -62.6939 -130.887 -57.0129 -113.212 -47.4766C-108.352 -44.8544 -103.605 -41.9651 -99.0487 -38.9372C-79.5564 -25.9108 -61.1429 -9.99218 -44.2994 8.15252C-27.632 26.1217 -12.6495 47.0611 6.31029 63.3668C21.8491 76.7324 38.8189 89.1746 56.5278 96.5463C71.7245 102.845 88.0101 104.89 102.206 98.9154C104.773 97.8354 107.245 96.5104 109.62 94.9289C124.225 85.1857 133.127 66.9612 139.026 47.4982C140.895 41.3164 142.486 35.0051 143.908 28.7394C147.633 12.3604 150.818 -4.46386 154.514 -20.3426C160.472 -45.8926 169.671 -67.4791 184.175 -85.1375C193.491 -96.481 206.555 -105.604 221.284 -105.151C242.274 -104.5 260.418 -89.7237 277.704 -79.3864C279.068 -78.5758 280.44 -77.7768 281.818 -77.0127C302.668 -65.3755 324.666 -59.2024 345.916 -63.6367C368.561 -68.3426 390.25 -87.2301 396.11 -116.913" stroke="#BCBCBC" stroke-miterlimit="10"/>
<path d="M-235.722 16.3488C-222.043 -1.53164 -206.627 -17.3065 -189.982 -30.8972C-182.599 -36.9234 -174.846 -42.6098 -166.081 -45.6823C-148.541 -51.839 -129.697 -46.8449 -112.317 -38.1327C-107.537 -35.731 -102.852 -33.0736 -98.3374 -30.2775C-79.068 -18.2362 -60.7808 -3.30096 -43.9558 13.8736C-27.3163 30.8726 -12.2644 50.8437 6.40175 66.6078C22.4214 80.1333 39.698 92.9787 57.8079 100.74C73.3171 107.358 90.0444 109.674 104.61 103.734C107.251 102.665 109.796 101.328 112.233 99.7232C127.263 89.8615 136.341 71.1756 142.484 51.2277C144.426 44.9039 146.091 38.4504 147.606 32.0428C151.57 15.32 155.128 -1.83582 159.329 -17.9518C166.101 -43.9163 176.416 -65.4133 191.886 -82.8647C201.217 -93.3865 213.912 -102.038 228.192 -101.727C248.54 -101.301 266.29 -87.8823 283.158 -78.8702C284.493 -78.1642 285.826 -77.4698 287.167 -76.8104C307.478 -66.7546 328.598 -62.2371 348.674 -67.7161C370.061 -73.5373 390.172 -92.6516 395.25 -121.63" stroke="#C2C2C2" stroke-miterlimit="10"/>
<path d="M-232.474 25.3629C-219.108 7.81112 -203.953 -7.55242 -187.546 -20.6491C-180.27 -26.4687 -172.64 -31.9019 -164.062 -34.9301C-146.905 -40.975 -128.518 -36.6686 -111.421 -28.7698C-106.711 -26.5888 -102.088 -24.1754 -97.6244 -21.5997C-78.5775 -10.5449 -60.4066 3.40577 -43.6192 19.6087C-27.0066 35.6477 -11.8871 54.6256 6.47726 69.8587C22.9766 83.5439 40.5593 96.7924 59.0682 104.932C74.8986 111.869 92.0483 114.467 106.99 108.538C109.695 107.47 112.313 106.133 114.823 104.504C130.274 94.5127 139.538 75.3658 145.916 54.9449C147.932 48.4791 149.679 41.8719 151.289 35.3456C155.49 18.2794 159.431 0.792392 164.127 -15.5489C171.7 -41.9392 183.097 -63.3809 199.582 -80.5776C208.916 -90.3116 221.256 -98.4449 235.087 -98.299C254.793 -98.0976 272.152 -86.0269 288.602 -78.3413C289.899 -77.7401 291.204 -77.1504 292.507 -76.5841C312.282 -68.1114 332.525 -65.251 351.43 -71.7755C371.573 -78.701 390.108 -98.0416 394.397 -126.325" stroke="#C7C7C7" stroke-miterlimit="10"/>
<path d="M-229.231 34.3862C-216.178 17.1756 -201.275 2.2126 -185.125 -10.4011C-177.955 -16.0021 -170.439 -21.2049 -162.057 -24.1772C-145.293 -30.1216 -127.341 -26.4919 -110.546 -19.4075C-105.907 -17.4592 -101.354 -15.2666 -96.9328 -12.9232C-78.0983 -2.85588 -60.0627 10.1088 -43.2938 25.339C-26.7081 40.4167 -11.5117 58.4001 6.54201 73.1013C23.5284 86.9343 41.4076 100.597 60.3153 109.127C76.466 116.382 94.0456 119.253 109.355 113.358C112.133 112.29 114.814 110.941 117.397 109.312C133.271 99.2025 142.709 79.5946 149.342 58.7012C151.439 52.0818 153.26 45.3444 154.955 38.6878C159.393 21.2784 163.746 3.48385 168.894 -13.1176C177.317 -39.9096 189.712 -61.3774 207.233 -78.2605C216.539 -87.2293 228.562 -94.8313 241.937 -94.8394C261.013 -94.8511 277.969 -84.1532 294.005 -77.7838C295.273 -77.2874 296.539 -76.8026 297.814 -76.3411C317.064 -69.4529 336.422 -68.2628 354.158 -75.8218C373.051 -83.8522 390.013 -103.43 393.523 -131.018" stroke="#CDCDCD" stroke-miterlimit="10"/>
<path d="M-225.985 43.4335C-213.253 26.553 -198.601 12.0147 -182.69 -0.126911C-175.625 -5.50896 -168.233 -10.4812 -160.037 -13.3973C-143.665 -19.2295 -126.147 -16.2771 -109.645 -10.0311C-105.076 -8.30391 -100.584 -6.34403 -96.2144 -4.23327C-77.6014 4.84551 -59.6905 16.8349 -42.9504 31.0794C-26.3925 45.1831 -11.1195 62.1709 6.62592 76.3626C24.3713 90.5544 42.2738 104.432 61.5775 113.328C78.0371 120.891 96.0472 124.056 111.731 118.185C114.584 117.129 117.337 115.768 119.982 114.116C136.286 103.888 145.899 83.8195 152.765 62.4419C154.935 55.6806 156.84 48.8013 158.627 42.0146C163.303 24.2622 168.026 6.13696 173.676 -10.7008C182.898 -37.9061 196.294 -59.4344 214.899 -75.9562C224.167 -84.1823 235.876 -91.2292 248.805 -91.3913C267.241 -91.6281 283.808 -82.2924 299.428 -77.2404C300.659 -76.8372 301.896 -76.469 303.133 -76.1125C321.849 -70.7986 340.334 -71.2799 356.905 -79.8856C374.549 -89.0333 389.944 -108.825 392.676 -135.716" stroke="#D2D2D2" stroke-miterlimit="10"/>
<path d="M-222.754 52.4662C-210.334 35.9166 -195.942 21.7918 -180.269 10.1346C-173.319 4.96002 -166.031 0.230458 -158.031 -2.62933C-142.048 -8.34901 -124.966 -6.09773 -108.754 -0.65592C-104.264 0.849788 -99.8333 2.57675 -95.5055 4.45474C-77.1145 12.5324 -59.3279 23.5455 -42.6063 36.8151C-26.0752 49.9554 -10.7275 65.9229 6.71027 79.6046C24.148 93.2863 43.1374 108.236 62.8369 117.51C79.6151 125.393 98.0433 128.829 114.101 122.981C117.017 121.925 119.843 120.564 122.56 118.888C139.284 108.543 149.07 88.0021 156.18 66.1638C158.423 59.2608 160.4 52.228 162.281 45.3113C167.193 27.216 172.297 8.77198 178.436 -8.31362C188.454 -35.9434 202.825 -57.6018 222.529 -73.6683C231.745 -81.186 243.154 -87.6422 255.638 -87.9468C273.438 -88.3971 289.613 -80.4365 304.821 -76.7028C306.023 -76.4047 307.222 -76.1415 308.421 -75.8901C326.605 -72.1633 344.219 -74.3056 359.617 -83.9585C376.016 -94.2123 389.845 -114.241 391.802 -140.422" stroke="#D8D8D8" stroke-miterlimit="10"/>
<path d="M-219.523 61.5193C-207.414 45.3127 -193.282 31.5904 -177.846 20.4182C-171.001 15.463 -163.828 10.9646 -156.022 8.16121C-140.429 2.55424 -123.78 4.1156 -107.868 8.74087C-103.448 10.025 -99.0789 11.5072 -94.8016 13.1638C-76.6312 20.2512 -58.9697 30.2755 -42.276 42.5691C-25.7719 54.7451 -10.3401 69.6916 6.78108 82.8625C25.2546 97.0791 43.9853 112.055 64.0707 121.72C81.1665 129.921 100.022 133.641 116.444 127.817C119.432 126.76 122.331 125.399 125.109 123.7C142.252 113.225 152.222 92.2359 159.564 69.9139C161.88 62.8691 163.939 55.6946 165.903 48.6478C171.051 30.2216 176.524 11.4355 183.153 -5.886C193.966 -33.9283 209.265 -55.7984 230.108 -71.3503C239.271 -78.1825 250.391 -84.0124 262.42 -84.4828C279.584 -85.1584 295.371 -78.5624 310.165 -76.148C311.33 -75.955 312.501 -75.7969 313.661 -75.6505C331.314 -73.5121 348.069 -77.3162 362.298 -88.0051C377.463 -99.3654 389.732 -119.619 390.906 -145.101" stroke="#DEDEDE" stroke-miterlimit="10"/>
<path d="M-216.293 70.5607C-204.494 54.6861 -190.622 41.3783 -175.421 30.7033C-168.681 25.9678 -161.63 21.7125 -154.01 18.9539C-138.807 13.4599 -122.59 14.3308 -106.968 18.1273C-102.617 19.1897 -98.3189 20.4386 -94.0928 21.8621C-76.1426 27.9585 -58.6058 36.9931 -41.9297 48.3217C-25.4532 59.5209 -9.92819 73.4454 6.86846 86.1166C25.8393 100.433 44.8475 115.871 65.3264 125.913C82.7294 134.434 102.01 138.425 118.804 132.625C121.865 131.568 124.826 130.196 127.676 128.485C145.237 117.893 155.389 96.4314 162.963 73.6373C165.352 66.4508 167.493 59.1346 169.55 51.958C174.933 33.1893 180.785 14.0848 187.902 -3.47254C199.507 -31.9388 215.717 -54.1019 237.721 -69.0453C246.819 -75.2263 257.653 -80.406 269.239 -81.0308C285.768 -81.9318 301.177 -76.6895 315.55 -75.607C316.686 -75.5191 317.82 -75.4545 318.951 -75.4249C336.073 -74.8757 351.962 -80.3427 365.033 -92.0796C378.958 -104.559 389.669 -125.037 390.071 -149.819" stroke="#E3E3E3" stroke-miterlimit="10"/>
<path d="M-213.059 79.6049C-201.578 64.0743 -187.955 51.1817 -173.001 40.981C-166.367 36.4537 -159.429 32.4417 -152.003 29.7396C-137.188 24.3586 -121.402 24.5388 -106.069 27.5177C-101.798 28.3465 -97.5504 29.3737 -93.3755 30.5638C-75.645 35.6685 -58.2327 43.7128 -41.5846 54.064C-25.135 64.2973 -9.5282 77.1755 6.95581 89.3699C26.4312 103.775 45.7084 119.697 66.5796 130.118C84.2983 138.957 104.004 143.232 121.159 137.456C124.284 136.411 127.326 135.027 130.238 133.292C148.224 122.583 158.54 100.661 166.356 77.3955C168.816 70.0673 171.029 62.5978 173.179 55.2913C178.797 36.1803 185.025 16.7457 192.629 -1.04714C205.025 -29.937 222.107 -52.4983 245.296 -66.7273C254.337 -72.2684 264.887 -76.7858 276.021 -77.565C291.927 -78.6798 306.938 -74.8155 320.9 -75.0656C321.998 -75.0829 323.104 -75.1235 324.197 -75.1992C340.791 -76.2401 355.816 -83.3708 367.731 -96.1561C380.42 -109.742 389.576 -130.445 389.208 -154.526" stroke="#E9E9E9" stroke-miterlimit="10"/>
<path d="M-209.842 88.6708C-198.671 73.4731 -185.306 60.996 -170.588 51.2817C-164.068 46.9745 -157.243 43.1943 -150.002 40.5489C-135.574 35.2694 -120.222 34.7233 -105.174 36.9309C-100.973 37.5261 -96.7939 38.3313 -92.6605 39.288C-75.1397 43.4005 -57.8516 50.4538 -41.2313 59.8267C-24.8179 69.0934 -9.11139 80.9131 7.06072 92.6302C27.0481 107.112 46.584 123.518 67.8464 134.317C85.8698 143.464 105.999 148.023 123.525 142.282C126.722 141.237 129.827 139.853 132.81 138.095C151.211 127.257 161.708 104.875 169.756 81.1376C172.288 73.6679 174.583 66.0568 176.825 58.6205C182.677 39.1673 189.274 19.4146 197.362 1.37462C210.557 -27.9269 228.482 -50.9914 252.88 -64.4119C261.861 -69.3477 272.121 -73.1557 282.814 -74.0892C298.088 -75.4296 312.713 -72.9325 326.265 -74.5041C327.335 -74.6267 328.403 -74.7726 329.459 -74.9536C345.525 -77.5855 359.687 -86.3923 370.451 -100.215C381.914 -114.92 389.511 -135.847 388.375 -159.214" stroke="#EEEEEE" stroke-miterlimit="10"/>
<path d="M-206.626 97.7193C-195.763 82.8548 -182.657 70.7937 -168.174 61.5662C-161.758 57.4792 -155.047 53.9311 -147.998 51.3423C-133.948 46.1763 -119.035 44.9387 -104.284 46.316C-100.153 46.689 -96.0436 47.2605 -91.9516 47.9837C-74.6504 51.0917 -57.4854 57.165 -40.893 65.5591C-24.5063 73.8587 -8.70985 84.619 7.1415 95.8584C27.6375 110.393 47.4331 127.306 69.0865 138.496C87.4237 147.962 107.966 152.805 125.861 147.076C129.13 146.031 132.296 144.635 135.35 142.866C154.165 131.91 164.835 109.069 173.123 84.8597C175.727 77.2484 178.104 69.4958 180.429 61.9297C186.514 42.1344 193.486 22.0519 202.059 3.77671C216.041 -25.948 234.797 -49.6324 260.41 -62.1153C269.34 -66.4687 279.301 -69.5552 289.555 -70.6432C304.198 -72.1976 318.437 -71.08 331.571 -73.9739C332.604 -74.2018 333.644 -74.453 334.672 -74.7393C350.221 -78.9629 363.513 -89.4348 373.127 -104.306C383.36 -120.12 389.42 -141.27 387.507 -163.935" stroke="#F4F4F4" stroke-miterlimit="10"/>
<path d="M-203.415 106.777C-192.859 92.258 -180.011 80.6015 -165.763 71.8728C-159.451 68.0063 -152.862 64.6902 -145.997 62.1583C-132.332 57.1057 -117.857 55.1763 -103.384 55.7348C-99.3303 55.8856 -95.273 56.2116 -91.231 56.7127C-74.1478 58.8273 -57.1064 63.9085 -40.5322 71.3233C-24.1729 78.6434 -8.28661 88.3437 7.2457 99.1167C28.2578 113.693 48.3037 131.125 70.3462 142.693C88.9967 152.478 109.96 157.593 128.223 151.9C131.555 150.855 134.803 149.46 137.917 147.666C157.146 136.594 167.996 113.281 176.524 88.6006C179.2 80.8479 181.658 72.9538 184.064 65.2463C190.383 45.109 197.729 24.697 206.786 6.18663C221.553 -23.9494 241.131 -48.3705 267.974 -59.7982C276.871 -63.5805 286.526 -65.9335 296.33 -67.1762C310.345 -68.9563 324.2 -69.2072 336.926 -73.4239C337.931 -73.7571 338.933 -74.1137 339.925 -74.4937C354.949 -80.3097 367.383 -92.4473 375.851 -108.368C384.856 -125.29 389.372 -146.675 386.694 -168.637" stroke="#F9F9F9" stroke-miterlimit="10"/>
<path d="M-200.203 115.846C-176.399 82.8907 -139.894 65.8592 -102.488 65.1419C-65.081 64.4363 -26.9256 79.1446 7.3396 102.372C28.8743 116.965 49.1632 134.951 71.5845 146.898C94.0058 158.844 119.822 164.22 140.449 152.464C166.271 137.757 177.192 101.319 187.655 68.5831C204.877 14.738 230.179 -40.9203 275.474 -57.4713C298.035 -65.7122 323.549 -63.2353 345.119 -74.2505C375.039 -89.5191 392.521 -132.077 385.829 -173.319" stroke="white" stroke-miterlimit="10"/>
</g>
<g style="mix-blend-mode:multiply">
<path d="M-2.80587 597.867C-9.46857 557.995 19.0143 524.491 49.681 518.463C80.3485 512.446 112.447 525.394 143.838 533.757C175.229 542.12 210.095 545.019 234.219 522.047C265.058 492.681 268.317 430.567 300.228 402.999C325.099 381.508 359.908 388.179 388.077 404.421C404.003 413.601 418.078 428.98 433.435 439.727C503.09 488.453 514.493 587.285 571.822 602.34C633.904 618.629 664.322 580.895 673.982 554.668C686.357 521.064 704.798 433.808 640.329 372.738C614.14 347.931 588.141 321.496 567.872 288.906C537.522 240.116 532.491 165.76 564.118 125.747C585.8 98.3333 621.359 88.4653 634.924 53.2271C644.037 29.5518 640.421 -1.05955 629.414 -25.877C618.407 -50.6827 600.89 -70.3574 582.247 -86.3243" stroke="#8A8A8A" stroke-miterlimit="10"/>
<path d="M-1.10945 599.814C-6.67042 558.803 21.5249 523.553 53.0844 516.685C83.8922 509.977 116.531 522.833 148.012 532.038C179.493 541.244 213.254 545.377 237.455 524.516C268.368 497.81 273.426 438.862 305.333 411.658C330.763 390.1 364.88 394.329 393.58 408.545C410.069 416.72 425.193 431.213 441.268 442.114C509.436 488.32 521.528 583.95 577.674 598.785C638.061 614.71 668.459 579.016 678.596 553.203C691.444 520.494 708.959 436.425 647.78 376.071C622.555 351.189 597.379 324.258 577.389 291.883C547.866 244.262 542.565 172.545 572.296 132.875C592.87 105.433 627.068 94.3976 640.589 59.6181C649.877 35.8514 647.076 5.68026 637.205 -19.3046C627.253 -44.5242 610.867 -65.2921 592.799 -82.4257" stroke="#909090" stroke-miterlimit="10"/>
<path d="M0.296489 601.809C-4.15185 559.668 23.7653 522.673 56.2053 514.943C87.1346 507.568 120.293 520.297 151.857 530.37C182.678 540.204 216.059 545.788 240.335 527.025C271.31 502.991 278.149 447.1 310.111 420.365C336.046 398.67 369.538 400.494 398.726 412.721C415.783 419.868 431.921 433.511 448.711 444.557C515.286 488.362 528.069 580.666 583 595.296C641.666 610.859 672.026 577.192 682.656 551.805C695.978 520.001 712.606 439.058 654.775 379.473C630.536 354.504 606.216 327.085 586.508 294.913C557.853 248.445 552.31 179.353 580.139 140.061C599.606 112.578 632.429 100.387 645.924 66.0768C655.392 42.2062 653.42 12.4621 644.71 -12.6798C635.817 -38.3264 620.589 -60.1886 603.112 -78.4783" stroke="#959595" stroke-miterlimit="10"/>
<path d="M1.69766 603.802C-1.63803 560.52 25.9939 521.813 59.3227 513.198C90.3836 505.168 124.061 517.748 155.699 528.687C186.215 539.234 218.851 546.197 243.202 529.531C274.249 508.158 282.893 455.406 314.877 429.07C341.349 407.274 374.212 406.634 403.852 416.895C421.496 423.002 438.62 435.806 456.147 447.008C521.077 488.508 534.61 577.393 588.326 591.816C645.27 607.018 675.591 575.379 686.715 550.417C700.491 519.494 716.256 441.63 661.762 382.873C638.488 357.781 615.097 329.853 595.628 297.94C567.929 252.545 562.048 186.136 587.992 147.232C606.349 119.697 637.731 106.315 651.257 72.5101C660.857 48.512 659.779 19.2071 652.206 -6.0685C644.381 -32.1655 630.304 -55.0869 613.427 -74.5443" stroke="#9B9B9B" stroke-miterlimit="10"/>
<path d="M3.09324 605.776C0.87105 561.354 28.2277 520.948 62.4368 511.448C93.6313 502.787 127.816 515.181 159.539 527.011C189.759 538.271 221.64 546.599 246.077 532.043C277.186 513.33 287.646 463.706 319.644 437.781C346.654 415.882 378.911 412.744 408.989 421.086C427.229 426.142 445.333 438.131 463.585 449.466C526.831 488.752 541.155 574.137 593.653 588.342C648.874 603.171 679.139 573.571 690.776 549.034C705.006 519.005 719.913 444.149 668.753 386.291C646.445 361.064 623.95 332.685 604.745 300.985C577.943 256.72 571.781 192.912 595.831 154.421C613.086 126.811 643.066 112.309 656.574 78.9609C666.337 54.859 666.132 25.9462 659.688 0.54862C653.243 -24.8489 640.007 -49.9791 623.721 -70.6043" stroke="#A0A0A0" stroke-miterlimit="10"/>
<path d="M4.49107 607.769C3.39331 562.218 30.4641 520.101 65.5532 509.704C96.8819 500.422 131.573 512.62 163.381 525.329C193.304 537.29 224.463 547.066 248.942 534.549C280.157 518.59 292.402 472.023 324.412 446.474C351.968 424.485 383.625 418.802 414.116 425.248C432.968 429.229 452.028 440.427 471.015 451.894C532.535 489.061 547.688 570.84 598.96 584.839C652.455 599.307 682.673 571.734 694.814 547.622C709.49 518.475 723.549 446.556 675.724 389.678C654.38 364.293 632.775 335.475 613.854 304C587.94 260.878 581.495 199.623 603.662 161.58C619.801 133.87 648.389 118.26 661.89 85.3933C671.824 61.1992 672.492 32.6551 667.169 7.14718C661.515 -19.9205 649.702 -44.9017 634.027 -66.6827" stroke="#A6A6A6" stroke-miterlimit="10"/>
<path d="M5.88914 609.757C5.90663 563.065 32.703 519.273 68.6712 507.956C100.135 498.066 135.34 510.044 167.235 523.655C196.86 536.305 227.265 547.483 251.829 537.063C283.107 523.776 297.181 480.335 329.194 455.185C357.289 433.107 388.362 424.843 419.267 429.429C438.732 432.324 458.74 442.754 478.471 454.342C538.241 489.46 554.248 567.575 604.3 581.356C656.06 595.463 686.222 569.916 698.876 546.23C713.987 517.965 727.231 448.902 682.721 393.074C662.331 367.496 641.628 338.285 622.99 307.023C597.965 265.044 591.225 206.308 611.518 168.747C626.551 140.927 653.747 124.231 667.22 91.8223C677.325 67.5244 678.884 39.3374 674.668 13.7543C670.118 -13.8103 659.425 -39.8038 644.342 -62.7523" stroke="#ABABAB" stroke-miterlimit="10"/>
<path d="M109.557 613.746C111.273 565.846 124.752 520.18 142.205 507.743C157.175 497.075 173.507 508.652 188.034 523.054C201.354 536.247 214.845 548.735 226.521 540.257C241.379 529.483 249.78 489.042 265.303 464.073C279.187 441.73 293.648 430.674 308.152 433.297C317.458 434.975 326.969 444.596 336.21 456.211C362.381 489.118 368.397 563.518 390.787 576.875C413.737 590.397 428.33 566.682 435.042 543.332C442.956 515.831 450.402 449.391 432.579 394.815C424.171 369.064 415.69 339.547 407.912 308.541C397.687 267.759 395.808 211.455 405.308 174.266C412.479 146.189 424.936 128.29 431.993 96.2244C437.383 71.7351 439.224 43.8507 438.405 18.1567C437.507 -9.95422 433.713 -36.9426 427.567 -61.0128" stroke="#B1B1B1" stroke-miterlimit="10"/>
<path d="M8.68361 613.727C10.935 564.766 37.1917 517.635 74.9099 504.465C106.655 493.383 142.867 504.85 174.927 520.3C203.952 534.281 232.852 548.32 257.565 542.072C288.981 534.139 306.717 496.976 338.736 472.589C367.928 450.342 397.821 436.79 429.537 437.772C450.241 438.413 472.128 447.423 493.366 459.23C549.545 490.462 567.345 561.015 614.947 574.384C663.25 587.756 693.27 566.251 706.982 543.439C722.929 516.925 734.652 453.339 696.715 399.87C678.227 373.812 659.328 343.91 641.258 313.074C617.997 273.391 610.639 219.574 627.225 183.085C640.007 154.961 664.448 136.166 677.877 104.684C688.326 80.1902 691.722 52.6942 689.666 26.9604C687.379 -1.64449 678.876 -29.6275 664.989 -54.8992" stroke="#B7B7B7" stroke-miterlimit="10"/>
<path d="M10.0869 615.715C13.4655 565.614 39.4534 516.844 78.0481 502.731C109.936 491.064 146.665 502.253 178.811 518.64C207.539 533.275 235.691 548.75 260.493 544.599C291.978 539.337 311.561 505.325 343.586 481.302C373.342 458.977 402.645 442.728 434.763 441.967C456.097 441.452 478.909 449.799 500.913 461.692C555.278 491.073 573.996 557.764 620.393 570.915C666.974 583.926 696.913 564.436 711.171 542.072C727.529 516.417 738.558 455.454 703.845 403.305C686.313 376.96 668.314 346.77 650.514 316.137C628.131 277.596 620.432 226.193 635.195 190.292C646.845 161.975 669.928 142.179 683.332 111.166C693.963 86.5689 698.289 59.4188 697.296 33.6098C696.169 4.48538 688.724 -24.498 675.438 -50.925" stroke="#BCBCBC" stroke-miterlimit="10"/>
<path d="M11.504 617.691C16.0028 566.462 41.7312 516.041 81.2047 500.973C113.247 488.746 150.486 499.62 182.718 516.944C211.161 532.233 238.555 549.132 263.44 547.09C294.996 544.499 316.43 513.649 348.454 489.99C378.768 467.599 407.479 448.619 440.02 446.127C461.977 444.444 485.728 452.164 508.498 464.118C561.026 491.708 580.697 554.466 625.873 567.422C670.732 580.071 700.582 562.585 715.398 540.67C732.158 515.874 742.541 457.439 711.015 406.692C694.444 380.014 677.328 349.573 659.818 319.154C638.304 281.767 630.241 232.73 643.211 197.453C653.707 168.921 675.452 148.157 688.822 117.591C699.628 92.902 704.921 66.0863 704.964 40.2022C705.016 10.5585 698.622 -19.4134 685.926 -47.0072" stroke="#C2C2C2" stroke-miterlimit="10"/>
<path d="M12.9146 619.654C18.5342 567.286 44.0056 515.25 84.3581 499.204C116.556 486.404 154.314 496.976 186.627 515.249C214.782 531.167 241.412 549.525 266.397 549.581C298.015 549.649 321.313 521.973 353.346 498.678C384.228 476.221 412.336 454.486 445.294 450.287C467.873 447.412 492.558 454.54 516.104 466.545C566.779 492.39 587.419 551.168 631.382 563.918C674.508 576.206 704.279 560.711 719.653 539.257C736.816 515.307 746.611 459.32 718.227 410.08C702.635 383.033 686.379 352.388 669.157 322.171C648.515 285.95 640.056 239.232 651.26 204.615C660.572 175.843 681.007 154.124 694.352 124.016C705.342 99.2241 711.604 72.7546 712.676 46.8071C713.928 16.6444 708.565 -14.3277 696.472 -43.0764" stroke="#C7C7C7" stroke-miterlimit="10"/>
<path d="M14.3344 621.631C21.0862 568.136 46.2905 514.473 87.5244 497.461C119.879 484.112 158.156 494.335 190.549 513.567C218.427 530.116 244.291 549.921 269.36 552.085C301.049 554.812 326.214 530.31 358.237 507.368C389.689 484.844 417.182 460.331 450.578 454.448C473.77 450.371 499.393 456.942 523.724 468.986C572.539 493.133 594.145 548.002 636.903 560.428C679.661 572.854 707.978 558.851 723.921 537.858C741.468 514.743 750.762 461.121 725.446 413.469C710.857 386.008 695.447 355.205 678.513 325.19C658.734 290.135 649.848 245.701 659.326 211.79C667.442 182.756 686.576 160.117 699.888 130.467C711.062 105.584 718.304 79.4606 720.395 53.4263C722.858 22.7446 718.52 -9.21578 707.018 -39.1309" stroke="#CDCDCD" stroke-miterlimit="10"/>
<path d="M15.7461 623.606C23.6216 568.972 48.5787 513.706 90.6845 495.704C123.207 481.807 161.992 491.681 194.468 511.884C222.058 529.052 247.165 550.315 272.317 554.576C304.078 559.961 331.115 538.644 363.137 516.055C395.16 493.477 422.027 466.151 455.863 458.62C479.667 453.317 506.224 459.376 531.349 471.424C578.285 493.909 600.885 544.728 642.418 556.936C683.95 569.145 711.667 556.977 728.18 536.457C746.113 514.177 754.982 462.839 732.662 416.869C719.111 388.947 704.505 358.032 687.87 328.219C668.954 294.319 659.603 252.156 667.389 218.964C674.268 189.643 692.138 166.097 705.426 136.905C716.785 111.93 725.028 86.1652 728.121 60.0441C731.816 28.8672 728.483 -4.11662 717.584 -35.1863" stroke="#D2D2D2" stroke-miterlimit="10"/>
<path d="M17.1594 625.588C26.1609 569.828 50.8704 512.959 93.8486 493.955C126.538 479.509 165.842 489.011 198.393 510.209C225.713 527.995 250.044 550.705 275.29 557.086C307.124 565.13 336.034 546.997 368.047 524.76C400.642 502.128 426.871 471.978 461.167 462.798C485.575 456.27 513.069 461.854 539.005 473.87C584.054 494.751 607.655 541.451 647.97 553.453C685.904 564.751 715.382 555.1 732.478 535.064C750.794 513.595 759.327 464.495 739.92 420.276C727.453 391.87 713.608 360.879 697.261 331.257C679.202 298.533 669.354 258.595 675.486 226.145C681.087 196.514 697.741 172.096 710.985 143.351C722.53 118.296 731.783 92.8774 735.87 66.6577C740.817 34.9858 738.464 0.990292 728.167 -31.2455" stroke="#D8D8D8" stroke-miterlimit="10"/>
<path d="M18.5765 627.546C28.7046 570.647 53.1763 512.187 97.0198 492.194C129.878 477.211 169.709 486.329 202.326 508.51C229.365 526.902 252.929 551.083 278.26 559.571C310.166 570.261 340.954 555.325 372.966 533.44C406.144 510.754 431.714 477.769 466.472 466.953C491.484 459.174 519.92 464.331 546.657 476.292C589.809 495.592 614.409 538.151 653.506 549.946C689.707 560.871 719.069 553.198 736.756 533.647C755.448 512.989 763.752 466.068 747.163 423.647C735.852 394.71 722.688 363.678 706.649 334.258C689.447 302.7 679.055 264.986 683.577 233.29C687.853 203.337 703.335 178.059 716.536 149.772C728.277 124.626 738.534 99.5773 743.624 73.2474C749.836 41.104 748.462 6.07365 738.758 -27.3281" stroke="#DEDEDE" stroke-miterlimit="10"/>
<path d="M19.9941 629.526C31.2596 571.489 55.4846 511.451 100.202 490.445C133.23 474.937 173.589 483.659 206.271 506.835C233.048 525.821 255.826 551.472 281.252 562.079C313.24 575.415 345.899 563.687 377.901 542.131C411.663 519.403 436.571 483.547 471.802 471.118C497.398 462.079 526.781 466.866 554.336 478.726C595.583 496.492 621.199 534.862 659.076 546.451C693.542 557.002 722.786 551.285 741.067 532.242C760.125 512.383 768.31 467.619 754.452 427.042C744.372 397.539 731.81 366.512 716.077 337.282C700.345 308.053 688.743 271.399 691.708 240.458C694.673 209.516 708.965 184.046 722.132 156.205C734.059 130.967 745.34 106.3 751.417 79.8603C758.896 47.2457 758.501 11.1688 749.402 -23.3869" stroke="#E3E3E3" stroke-miterlimit="10"/>
<path d="M21.406 631.498C33.8019 572.335 57.7891 510.719 103.372 488.7C136.569 472.655 177.464 480.97 210.205 505.152C236.709 524.733 258.724 551.806 284.222 564.579C316.305 580.491 350.824 572.04 382.825 550.825C417.172 528.054 441.4 489.34 477.113 475.287C503.294 464.987 533.628 469.439 562 481.174C601.341 497.43 627.983 531.495 664.626 542.971C697.359 553.068 726.481 549.388 745.358 530.852C764.235 512.317 772.957 469.173 761.715 430.44C752.986 400.36 740.907 369.361 725.492 340.311C710.076 311.26 698.379 277.816 699.823 247.629C701.267 217.441 714.575 190.036 727.699 162.641C739.822 137.324 752.13 113.039 759.183 86.4649C767.95 53.4026 768.517 16.2676 760.013 -19.4538" stroke="#E9E9E9" stroke-miterlimit="10"/>
<path d="M22.8267 633.455C36.3536 573.154 60.1134 509.983 106.553 486.929C139.928 470.359 181.359 478.255 214.15 503.454C240.399 523.617 261.628 552.183 287.211 567.063C319.368 585.632 355.782 580.377 387.763 559.503C422.696 536.701 446.23 495.093 482.447 479.452C509.213 467.892 540.486 472.068 569.689 483.608C607.124 498.401 634.78 528.208 670.19 539.477C701.184 549.213 730.176 547.452 749.66 529.448C769.448 511.164 777.74 470.749 768.995 433.834C761.73 403.179 750.024 372.207 734.916 343.335C719.808 314.464 707.973 284.264 707.947 254.796C707.919 223.888 720.201 196.034 733.281 169.073C745.609 143.677 758.936 119.785 766.968 93.0779C777.026 59.5797 778.544 21.3632 770.646 -15.5117" stroke="#EEEEEE" stroke-miterlimit="10"/>
<path d="M24.2382 635.427C38.9076 574.001 62.4202 509.263 109.725 485.173C143.281 468.09 185.247 475.543 218.087 501.759C244.071 522.506 264.513 552.564 290.18 569.54C322.42 590.765 360.757 588.799 392.693 568.171C428.256 545.433 451.052 500.839 487.762 483.597C515.095 470.753 547.331 474.735 577.372 486.021C612.899 499.363 641.568 524.901 675.752 535.964C705.005 545.338 733.866 545.497 753.958 528.024C774.111 510.504 782.635 472.375 776.274 437.197C770.625 405.991 759.125 375.021 744.353 346.329C730.541 319.503 717.544 290.703 716.081 261.932C714.5 230.748 725.873 202.024 738.861 175.486C751.426 150.046 765.753 126.524 774.753 99.6593C786.114 65.737 788.584 26.4393 781.293 -11.6008" stroke="#F4F4F4" stroke-miterlimit="10"/>
<path d="M25.6507 637.401C41.4539 574.837 64.7821 508.639 112.902 483.431C146.66 465.893 189.148 472.846 222.029 500.091C247.767 521.42 267.402 552.983 293.154 572.053C325.469 595.947 365.684 597.128 397.62 576.864C433.759 554.061 455.852 506.609 493.085 487.767C520.984 473.639 554.172 477.497 585.055 488.46C618.684 500.398 648.355 521.632 681.311 532.477C708.82 541.478 737.54 543.544 758.251 526.625C778.759 509.858 787.639 474.145 783.563 440.596C779.704 408.898 768.229 377.884 753.803 349.371C740.828 323.734 727.096 297.25 724.227 269.116C721.03 237.703 731.496 208.027 744.458 181.935C757.209 156.392 772.581 133.31 782.558 106.277C795.225 71.9429 798.647 31.5408 791.954 -7.65276" stroke="#F9F9F9" stroke-miterlimit="10"/>
<path d="M27.0659 639.372C44.0043 575.671 67.0707 507.848 116.082 481.675C149.998 463.566 193.061 470.112 225.975 498.409C251.456 520.309 270.303 553.375 296.14 574.552C328.538 601.102 370.626 605.453 402.572 585.554C439.278 562.685 460.677 512.376 498.422 491.935C526.889 476.523 561.017 480.351 592.757 490.908C624.487 501.465 655.158 518.361 686.876 529.011C712.63 537.651 741.226 541.612 762.549 525.248C783.422 509.233 792.752 476.1 790.851 444.016C788.951 411.933 777.335 380.768 763.245 352.423C751.1 327.974 736.608 303.863 732.366 276.32C727.498 244.736 737.096 214.039 750.034 188.405C762.972 162.771 779.397 140.118 790.345 112.928C804.329 78.1933 808.696 36.6868 802.611 -3.67155" stroke="white" stroke-miterlimit="10"/>
</g>
<g style="mix-blend-mode:multiply">
<path d="M427.727 880.5C401.677 859.198 397.534 807.318 410.091 772.507C422.648 737.697 446.691 714.774 467.769 689.322C488.847 663.87 508.637 631.142 508.192 590.978C507.617 539.644 474.137 492.856 475.14 441.707C475.922 401.843 497.818 371.803 521.681 355.092C535.177 345.64 551.211 342.391 565.288 334.599C629.143 299.277 691.052 357.187 729.424 310.561C770.973 260.076 765.441 203.291 755.617 175.278C743.032 139.393 703.22 59.8296 635.069 81.3298C607.381 90.0591 578.884 97.457 549.879 94.8352C506.444 90.9146 461.718 43.8069 455.531 -15.7766C451.291 -56.6074 464.213 -98.9901 451.323 -137.213C442.664 -162.895 423.441 -180.743 403.665 -187.155C383.89 -193.567 363.63 -189.883 344.871 -182.48" stroke="white" stroke-miterlimit="10"/>
<path d="M430.13 880.356C404.044 857.14 398.764 804.325 411.279 768.058C423.495 732.659 447.732 709.149 469.309 684.24C490.63 659.623 510.766 628.587 511.545 589.838C512.506 540.309 481.796 493.934 483.002 443.056C484.033 402.606 504.152 371.57 527.111 352.939C540.303 342.241 556.365 337.348 570.89 328.971C632.459 293.449 692.828 348.474 730.406 302.935C770.807 253.935 766.412 198.611 757.081 170.412C745.265 134.672 706.812 58.2511 640.877 76.8863C613.697 84.5733 585.376 90.7627 556.667 87.9781C514.381 83.9932 471.066 38.983 464.09 -18.4563C459.263 -58.1985 470.796 -100.014 458.16 -137.872C449.547 -163.801 431.026 -182.161 411.765 -189.851C392.329 -197.612 372.06 -195.865 352.98 -189.873" stroke="#FBFBFB" stroke-miterlimit="10"/>
<path d="M432.464 880.224C406.328 855.093 399.92 801.356 412.394 763.609C424.868 725.861 448.698 703.524 470.786 679.157C492.346 655.363 512.84 626.032 514.84 588.687C517.335 540.974 489.305 494.977 490.783 444.382C491.993 403.333 510.415 371.255 532.479 350.764C545.377 338.784 561.464 332.282 576.43 323.308C635.755 287.727 694.573 339.726 731.366 295.274C770.628 247.759 767.36 193.909 758.535 165.513C747.469 129.941 710.36 56.6035 646.644 72.4206C619.94 79.0533 591.815 84.046 563.396 81.0986C522.248 77.0493 480.324 34.1131 472.559 -21.1701C467.134 -59.8354 477.29 -101.071 464.897 -138.576C456.328 -164.74 438.485 -183.649 419.752 -192.592C401.018 -201.535 380.379 -201.881 360.957 -197.311" stroke="#F6F6F6" stroke-miterlimit="10"/>
<path d="M434.817 880.092C408.642 853.058 401.116 798.386 413.541 759.171C425.124 722.616 449.694 697.91 472.282 674.074C494.078 651.092 514.929 623.477 518.149 587.547C522.184 541.651 496.867 496.044 498.583 445.732C500.006 404.085 516.696 370.916 537.867 348.611C550.469 335.326 566.582 327.251 581.997 317.669C639.115 282.134 696.343 331.001 732.348 287.637C770.47 241.607 768.328 189.23 760.001 160.649C749.685 125.245 713.882 54.9316 652.424 67.9778C626.179 73.5444 598.272 77.2465 570.143 74.2536C530.134 69.9874 489.575 29.2659 481.058 -23.8492C475.028 -61.4377 483.752 -102.059 471.667 -139.246C463.092 -165.632 445.978 -185.113 427.773 -195.299C408.971 -205.816 388.725 -207.874 368.981 -204.715" stroke="#F2F2F2" stroke-miterlimit="10"/>
<path d="M437.197 879.962C410.976 851.014 402.344 795.443 414.71 754.736C425.981 717.615 450.694 692.288 473.807 669.006C495.82 646.823 517.043 620.936 521.49 586.41C527.053 542.319 504.463 497.102 506.409 447.072C508.052 404.827 522.993 370.533 543.274 346.438C555.578 331.825 571.72 322.223 587.579 312.008C642.524 276.626 698.137 322.255 733.346 279.979C770.328 235.422 769.311 184.542 761.489 155.752C751.915 120.528 717.39 53.1802 658.235 63.5144C632.441 68.0147 604.766 70.5086 576.922 67.3763C538.051 63.0104 498.849 24.3746 489.582 -26.5607C482.939 -63.0959 490.29 -103.114 478.474 -139.947C469.935 -166.569 453.506 -186.645 435.832 -198.049C418.157 -209.453 397.11 -213.9 377.036 -212.164" stroke="#EEEEEE" stroke-miterlimit="10"/>
<path d="M439.596 879.829C413.34 848.966 403.604 792.496 415.902 750.296C426.879 712.622 451.714 686.66 475.351 663.934C497.579 642.55 519.218 618.415 524.836 585.28C531.987 543.029 512.069 498.178 514.234 448.419C516.098 405.576 529.271 370.098 548.692 344.284C560.698 328.329 576.876 317.213 593.162 306.366C645.965 271.23 699.923 313.527 734.353 272.339C770.195 229.266 770.292 179.872 762.975 150.873C754.141 115.829 720.857 51.3878 664.033 59.0688C638.666 62.4911 611.241 63.7767 583.693 60.5168C545.959 56.0514 508.089 19.4893 498.108 -29.2425C490.835 -64.7362 496.834 -104.128 485.278 -140.62C476.776 -167.476 461.022 -188.16 443.888 -200.759C425.701 -214.127 405.503 -219.896 385.102 -219.571" stroke="#E9E9E9" stroke-miterlimit="10"/>
<path d="M442.015 879.693C415.716 846.927 404.904 789.546 417.124 745.842C427.816 707.614 452.765 681.007 476.924 658.847C499.358 638.262 521.383 615.867 528.205 584.125C536.89 543.702 519.691 499.229 522.068 449.753C524.153 406.323 535.56 369.625 554.122 342.115C565.811 324.785 582.036 312.2 598.766 300.722C649.45 265.926 701.733 304.797 735.375 264.696C770.078 223.109 771.28 175.2 764.484 146.003C756.374 111.151 724.316 49.5343 669.85 54.6209C644.9 56.9533 617.735 57.0542 590.49 53.655C553.902 49.09 517.327 14.5898 506.651 -31.9384C498.741 -66.4023 503.399 -105.168 492.112 -141.294C483.647 -168.386 468.574 -189.711 451.974 -203.47C434.092 -218.293 413.918 -225.882 393.19 -226.98" stroke="#E5E5E5" stroke-miterlimit="10"/>
<path d="M444.422 879.547C418.087 844.867 406.194 786.599 418.328 741.391C428.737 702.621 453.78 675.356 478.469 653.75C501.107 633.942 523.521 613.31 531.546 582.971C541.76 544.364 527.285 500.282 529.872 451.076C532.185 407.048 541.794 369.108 559.518 339.937C570.891 321.219 587.174 307.201 604.335 295.056C652.935 260.672 703.516 296.046 736.372 257.032C769.946 216.93 772.234 170.518 765.958 141.1C758.561 106.439 726.391 37.8927 675.625 50.1514C651.67 55.9303 624.194 50.3102 597.235 46.7716C561.782 42.1187 526.482 9.65667 515.146 -34.6558C506.59 -68.1019 509.927 -106.217 498.891 -142.002C490.462 -169.34 476.069 -191.32 460.003 -206.215C442.425 -222.517 422.275 -231.914 401.229 -234.423" stroke="#E1E1E1" stroke-miterlimit="10"/>
<path d="M446.834 879.416C420.463 842.821 407.491 783.678 419.539 736.954C429.681 697.641 454.811 669.696 480.031 648.68C502.865 629.647 525.667 610.779 534.9 581.844C546.642 545.065 534.886 501.361 537.683 452.438C540.234 407.824 548.028 368.605 564.935 337.784C575.981 317.655 592.333 302.229 609.916 289.416C656.457 255.502 705.321 287.321 737.393 249.394C769.832 210.777 773.212 165.862 767.464 136.236C760.78 101.778 729.844 35.0694 681.421 45.7084C657.825 50.902 630.665 43.5924 604 39.9262C569.68 35.1972 535.616 4.74977 523.648 -37.3234C514.421 -69.7634 516.464 -107.228 505.686 -142.659C497.295 -170.233 483.586 -192.89 468.046 -208.911C450.778 -226.713 430.654 -237.884 409.273 -241.828" stroke="#DCDCDC" stroke-miterlimit="10"/>
<path d="M449.239 879.285C422.825 840.787 408.799 780.745 420.754 732.505C430.63 692.651 455.829 664.024 481.596 643.598C504.627 625.341 527.816 608.237 538.256 580.694C551.514 545.732 542.491 502.429 545.488 453.765C548.267 408.552 554.232 368.055 570.349 335.61C581.054 314.069 597.492 297.257 615.505 283.754C660.019 250.38 707.141 278.573 738.43 241.734C769.736 204.602 774.2 161.195 768.977 131.337C762.988 97.082 733.329 32.2941 687.217 41.2427C663.923 45.7686 637.142 36.8638 610.76 33.0464C577.571 28.2412 544.716 -0.179907 532.149 -40.037C522.234 -71.4709 523.003 -108.285 512.475 -143.363C504.129 -171.171 491.103 -194.53 476.088 -211.652C459.138 -230.968 439.022 -243.912 417.315 -249.266" stroke="#D8D8D8" stroke-miterlimit="10"/>
<path d="M451.65 879.152C425.199 838.738 410.123 777.833 421.966 728.065C431.578 687.681 456.847 658.361 483.152 638.525C506.369 621.021 529.954 605.692 541.609 579.564C556.382 546.43 550.085 503.506 553.283 455.113C556.307 409.314 560.42 367.502 575.75 333.455C586.104 310.48 602.648 292.33 621.081 278.112C663.593 245.338 708.955 269.845 739.472 234.094C769.648 198.447 775.184 156.55 770.502 126.459C765.199 92.4185 736.864 29.6455 693.018 36.7977C669.968 40.5498 643.613 30.1558 617.522 26.1873C585.462 21.3059 553.779 -5.10089 540.639 -42.7299C530.012 -73.1696 529.542 -109.321 519.255 -144.046C510.953 -172.101 498.616 -196.161 484.11 -214.372C467.492 -235.225 447.369 -249.92 425.345 -256.685" stroke="#D4D4D4" stroke-miterlimit="10"/>
<path d="M454.048 879.018C427.552 836.689 411.434 774.909 423.168 723.625C432.533 682.71 457.853 652.674 484.706 633.452C508.109 616.7 532.083 603.158 544.949 578.423C561.234 547.105 557.668 504.571 561.051 456.46C564.433 408.349 566.556 366.938 581.136 331.301C591.123 306.891 607.8 287.414 626.636 272.482C667.168 240.354 710.756 261.129 740.493 226.466C769.541 192.304 776.148 151.915 772.007 121.604C767.389 87.7783 741.004 38.7564 698.789 32.3643C675.598 28.8459 650.062 23.4592 624.252 19.3395C593.319 14.3938 562.763 -9.99887 549.101 -45.3995C537.746 -74.8334 536.048 -110.334 526.019 -144.694C517.761 -172.984 506.119 -197.78 492.113 -217.057C475.825 -239.471 455.705 -255.88 433.347 -264.068" stroke="#CFCFCF" stroke-miterlimit="10"/>
<path d="M456.465 878.884C429.933 834.653 412.784 771.998 424.399 719.186C433.517 677.741 458.881 646.989 486.29 628.368C509.87 612.357 534.249 600.614 548.317 577.282C566.104 547.781 565.274 505.637 568.848 457.797C572.352 410.814 572.716 366.351 586.555 329.124C596.167 303.267 612.995 282.487 632.231 266.817C670.808 235.384 712.661 252.473 741.565 218.804C770.469 185.134 777.146 147.246 773.554 116.703C769.601 83.0805 744.306 36.2367 704.594 27.8967C681.71 23.088 656.535 16.7403 631.022 12.4577C601.214 7.45926 571.748 -14.9194 557.59 -48.115C545.474 -76.5314 542.591 -111.393 532.801 -145.399C524.587 -173.935 513.656 -199.456 500.132 -219.8C484.199 -243.774 464.047 -261.91 441.373 -271.509" stroke="#CBCBCB" stroke-miterlimit="10"/>
<path d="M458.861 878.743C432.284 832.596 414.113 769.078 425.601 714.726C434.473 672.751 459.879 641.259 487.845 623.275C511.602 607.993 536.378 598.049 551.654 576.121C570.949 548.436 572.851 506.694 576.608 459.125C580.365 411.555 578.824 365.755 591.941 326.95C601.17 299.646 618.169 277.598 637.795 261.155C674.447 230.451 714.493 243.726 742.613 211.156C769.466 180.047 778.113 142.593 775.084 111.817C771.789 78.4092 747.572 33.591 710.376 23.4322C687.794 17.2627 662.984 10.0243 637.758 5.57888C609.073 0.527692 580.656 -19.8136 566.05 -50.8274C553.141 -78.2264 549.116 -112.449 539.565 -146.101C531.394 -174.884 521.182 -201.13 508.131 -222.54C492.56 -248.086 472.369 -267.925 449.37 -278.947" stroke="#C7C7C7" stroke-miterlimit="10"/>
<path d="M461.276 878.604C434.661 830.543 415.47 766.161 426.823 710.281C435.46 667.788 460.899 635.544 489.412 618.197C513.346 603.632 538.519 595.499 555.003 574.987C575.795 549.119 580.433 507.767 584.373 460.468C588.382 412.301 584.924 365.186 597.328 324.791C606.158 296.04 623.362 272.749 643.351 255.509C678.091 225.569 716.316 234.994 743.661 203.512C769.391 173.888 779.079 137.942 776.606 106.946C773.958 73.7531 750.836 30.8313 716.151 18.9947C693.866 11.394 669.425 3.3471 644.485 -1.26123C616.923 -6.3534 589.526 -24.6458 574.497 -53.501C560.773 -79.8476 555.622 -113.477 546.31 -146.765C538.192 -175.782 528.696 -202.776 516.109 -225.24C500.907 -252.37 480.669 -273.913 457.353 -286.346" stroke="#C2C2C2" stroke-miterlimit="10"/>
<path d="M463.671 878.474C437.018 828.497 416.807 763.252 428.036 705.845C436.444 662.821 461.901 629.825 490.98 613.127C515.089 599.28 540.659 592.957 558.358 573.849C580.646 549.786 588.017 508.847 592.131 461.808C596.392 413.054 591.009 364.601 602.719 322.629C611.151 292.431 628.57 267.919 648.922 249.859C681.772 220.719 718.16 226.258 744.741 195.864C769.351 167.726 780.063 133.288 778.168 102.06C776.167 69.0702 754.155 27.9158 721.95 14.5421C699.974 5.41609 675.896 -3.3453 651.233 -8.12833C624.79 -13.2615 598.373 -29.4582 582.952 -56.1899C568.38 -81.4489 562.146 -114.509 553.064 -147.443C544.997 -176.708 536.224 -204.449 524.093 -227.957C509.276 -256.67 488.981 -279.904 465.332 -293.761" stroke="#BEBEBE" stroke-miterlimit="10"/>
<path d="M466.078 878.342C439.379 826.462 418.176 760.354 429.252 701.395C437.433 657.853 462.914 624.07 492.551 608.044C516.829 594.903 542.804 590.402 561.708 572.71C585.489 550.451 595.599 509.927 599.887 463.158C604.409 413.83 597.078 364.027 608.111 320.466C616.129 288.821 633.799 263.123 654.494 244.219C685.477 215.915 720.004 217.521 745.821 188.227C769.313 161.562 781.046 128.633 779.722 97.1852C778.399 65.7369 757.497 24.8817 727.734 10.0882C706.093 -0.668598 682.342 -10.0273 657.963 -14.9967C633.584 -19.9662 607.175 -34.2367 591.394 -58.8916C575.946 -83.0163 568.66 -115.565 559.816 -148.123C551.8 -177.634 543.766 -206.111 532.073 -230.674C517.658 -260.971 497.281 -285.909 473.316 -301.176" stroke="#BABABA" stroke-miterlimit="10"/>
<path d="M468.477 878.205C441.74 824.411 419.538 757.451 430.463 696.952C438.426 652.892 463.915 618.322 494.117 602.957C518.57 590.52 544.914 587.772 565.049 571.554C590.293 551.03 603.167 510.99 607.628 464.48C612.41 414.566 603.126 363.437 613.484 318.286C621.079 285.182 639.028 258.347 660.039 238.551C689.183 211.095 721.788 208.697 746.881 180.561C769.209 155.311 781.992 123.962 781.263 92.2933C780.535 60.6248 760.876 21.714 733.499 5.62947C712.238 -6.8636 688.771 -16.7024 664.674 -21.87C640.578 -27.0376 615.933 -38.9615 599.805 -61.5983C583.459 -84.5299 575.153 -116.615 566.529 -148.819C558.564 -178.576 551.27 -207.79 540.013 -233.408C526.007 -265.288 505.541 -291.918 481.251 -308.608" stroke="#B5B5B5" stroke-miterlimit="10"/>
<path d="M470.88 878.072C444.096 822.363 420.911 754.552 431.686 692.513C439.431 647.923 464.928 612.566 495.688 597.885C520.307 586.131 547.066 585.229 568.395 570.427C595.138 551.719 610.743 512.08 615.369 465.841C620.419 415.341 609.169 362.886 618.869 316.145C626.034 281.594 644.297 253.656 665.605 232.923C692.923 206.349 723.645 199.983 747.969 172.935C769.182 149.171 782.958 119.318 782.824 87.4296C782.687 55.0476 764.342 18.4809 739.277 1.18716C718.463 -13.1711 695.201 -23.3611 671.403 -28.7268C647.605 -34.0925 624.7 -43.6112 608.239 -64.2767C590.974 -85.9566 581.662 -117.648 573.275 -149.487C565.37 -179.491 558.822 -209.429 547.984 -236.113C534.403 -269.577 513.838 -297.91 489.224 -316.012" stroke="#B1B1B1" stroke-miterlimit="10"/>
<path d="M473.283 877.938C446.46 820.325 422.294 751.651 432.903 688.072C440.43 642.964 465.934 606.796 497.261 592.811C522.055 581.739 549.221 582.695 571.741 569.285C599.981 552.382 618.375 513.169 623.097 467.177C628.493 416.126 615.2 362.309 624.243 313.979C630.98 277.992 649.585 248.987 671.16 227.269C696.673 201.589 725.499 191.243 749.055 165.283C769.154 143.005 783.921 114.637 784.39 82.5515C784.86 50.4662 767.917 15.1635 745.056 -3.25783C724.765 -19.61 701.64 -30.0108 678.123 -35.5747C656.129 -40.7898 633.449 -48.1932 616.652 -66.9579C598.448 -87.2922 588.202 -118.695 579.993 -150.157C572.179 -180.431 566.344 -211.07 555.933 -238.821C542.777 -273.857 522.105 -303.894 497.166 -323.419" stroke="#ADADAD" stroke-miterlimit="10"/>
<path d="M475.693 877.791C448.823 818.263 423.754 748.762 434.126 683.607C441.488 638.005 466.939 600.991 498.842 587.713C523.802 577.323 551.382 580.125 575.103 568.131C604.838 553.045 625.923 514.234 630.842 468.5C636.48 416.852 621.235 361.732 629.63 311.789C635.921 274.355 654.93 244.354 676.729 221.602C700.464 196.829 727.378 182.492 750.159 157.62C769.155 136.826 784.887 109.944 785.967 77.6499C787.037 45.6498 771.623 11.7997 750.838 -7.73814C731.197 -26.2011 708.074 -36.6724 684.844 -42.4696C663.955 -47.6788 642.209 -52.7517 625.072 -69.6861C605.926 -88.5927 594.692 -119.766 586.719 -150.875C578.948 -181.384 573.882 -212.759 563.88 -241.576C551.166 -278.184 530.369 -309.937 505.115 -330.873" stroke="#A8A8A8" stroke-miterlimit="10"/>
<path d="M478.085 877.656C451.175 816.213 425.065 745.837 435.341 679.166C442.452 633.022 467.945 595.197 500.406 582.627C525.541 572.896 553.529 577.567 578.44 566.977C609.67 553.708 633.452 515.287 638.562 469.836C644.434 417.601 627.245 361.167 635.001 309.623C640.849 270.753 660.298 239.803 682.276 215.948C704.254 192.094 729.235 173.752 751.259 149.968C769.144 130.66 785.849 105.262 787.547 72.7604C789.207 40.9394 775.474 8.47234 756.619 -12.1946C737.772 -32.8615 714.504 -43.3101 691.559 -49.3408C671.773 -54.5441 650.979 -57.2159 633.473 -72.3788C613.399 -89.7753 601.157 -120.801 593.436 -151.545C585.715 -182.3 581.418 -214.4 571.815 -244.284C559.55 -282.464 538.628 -315.92 513.04 -338.28" stroke="#A4A4A4" stroke-miterlimit="10"/>
</g>
</g>
</g>
</svg>
