<svg width="24" height="24" viewBox="0 0 24 24" fill="none" xmlns="http://www.w3.org/2000/svg">
<g clip-path="url(#clip0_794_405004)">
<path d="M20.1595 12.593H3.83945C3.54695 12.593 3.31445 12.3605 3.31445 12.068C3.31445 11.7755 3.54695 11.543 3.83945 11.543H20.152C20.4445 11.543 20.677 11.7755 20.677 12.068C20.677 12.3605 20.4445 12.593 20.152 12.593H20.1595Z" fill="black"/>
<path d="M12.0224 19.6726C11.9024 19.6726 11.7749 19.6276 11.6774 19.5451L3.41242 12.3976C3.29992 12.3001 3.23242 12.1501 3.23242 12.0001C3.23242 11.8501 3.29992 11.7001 3.41242 11.6026L11.6774 4.45505C11.8949 4.26755 12.2249 4.29005 12.4199 4.50755C12.6074 4.72505 12.5849 5.05505 12.3674 5.25005L4.55992 12.0001L12.3674 18.7501C12.5849 18.9376 12.6074 19.2676 12.4199 19.4926C12.3149 19.6126 12.1724 19.6726 12.0224 19.6726Z" fill="black"/>
</g>
<defs>
<clipPath id="clip0_794_405004">
<rect width="24" height="24" fill="white"/>
</clipPath>
</defs>
</svg>
