<svg width="20" height="20" viewBox="0 0 20 20" fill="none" xmlns="http://www.w3.org/2000/svg">
<g clip-path="url(#clip0_560_30065)">
<path d="M7.975 15.5584C8.1 15.5584 8.23333 15.5084 8.325 15.4084C8.51667 15.2168 8.51667 14.9001 8.325 14.7001L3.61667 9.99178L8.325 5.28345C8.51667 5.09178 8.51667 4.77511 8.325 4.57511C8.13333 4.37511 7.81667 4.38345 7.61667 4.57511L2.55833 9.63345C2.36667 9.82512 2.36667 10.1418 2.55833 10.3418L7.61667 15.4001C7.71667 15.5001 7.84167 15.5501 7.96667 15.5501L7.975 15.5584Z" fill="#71C6AC"/>
<path d="M3.05898 10.5H17.084C17.359 10.5 17.584 10.275 17.584 10C17.584 9.725 17.359 9.5 17.084 9.5H3.05898C2.78398 9.5 2.55898 9.725 2.55898 10C2.55898 10.275 2.78398 10.5 3.05898 10.5Z" fill="#71C6AC"/>
</g>
<defs>
<clipPath id="clip0_560_30065">
<rect width="20" height="20" fill="white" transform="matrix(-1 0 0 1 20 0)"/>
</clipPath>
</defs>
</svg>
