<svg width="16" height="12" viewBox="0 0 16 12" fill="none" xmlns="http://www.w3.org/2000/svg">
<path d="M5.975 11.558C6.1 11.558 6.23333 11.508 6.325 11.408C6.51667 11.2163 6.51667 10.8996 6.325 10.6996L1.61667 5.99129L6.325 1.28296C6.51667 1.09129 6.51667 0.774626 6.325 0.574626C6.13333 0.374626 5.81667 0.382959 5.61667 0.574626L0.558333 5.63296C0.366666 5.82463 0.366666 6.14129 0.558333 6.34129L5.61667 11.3996C5.71667 11.4996 5.84167 11.5496 5.96667 11.5496L5.975 11.558Z" fill="#71C6AC"/>
<path d="M1.05801 6.5H15.083C15.358 6.5 15.583 6.275 15.583 6C15.583 5.725 15.358 5.5 15.083 5.5H1.05801C0.783008 5.5 0.558007 5.725 0.558007 6C0.558007 6.275 0.783008 6.5 1.05801 6.5Z" fill="#71C6AC"/>
</svg>
