<svg width="24" height="24" viewBox="0 0 24 24" fill="none" xmlns="http://www.w3.org/2000/svg">
<g clip-path="url(#clip0_569_40022)">
<path d="M9.59227 11.9993L7.27477 14.3168C7.27477 14.3168 3.41977 8.99185 3.89977 7.83685C4.37977 6.68185 6.10477 4.09435 6.83977 4.15435C7.57477 4.21435 10.2973 8.12935 9.74977 8.66935C9.20227 9.20935 8.78977 9.57685 8.78977 9.57685L9.58477 11.9993H9.59227Z" fill="url(#paint0_linear_569_40022)"/>
<path d="M17.3474 11.7742H16.5974C16.5974 9.77918 14.9774 8.15918 12.9824 8.15918V7.40918C15.3899 7.40918 17.3474 9.36668 17.3474 11.7742Z" fill="black"/>
<path d="M20.5199 11.7748H19.7699C19.7699 8.03977 16.7324 5.00977 13.0049 5.00977V4.25977C17.1524 4.25977 20.5199 7.63477 20.5199 11.7748Z" fill="black"/>
<path d="M16.1246 20.3396C16.1246 20.3396 16.0571 20.3396 16.0271 20.3396C15.3071 20.2646 12.6521 19.7621 8.90965 16.5521C4.97965 13.1771 3.74215 8.78209 3.53215 7.93459C3.48715 7.73209 3.50215 7.53709 3.57715 7.35709C4.20715 5.90209 5.74465 4.55209 6.60715 3.86959C6.98965 3.56209 7.54465 3.61459 7.85965 3.98209C9.12715 5.44459 9.91465 7.28209 10.1996 8.00209C10.3271 8.32459 10.2596 8.67709 10.0346 8.93209C9.68215 9.32209 9.29965 9.65959 9.03715 9.87709C8.97715 9.92209 8.96215 9.99709 8.99215 10.0646C9.29965 10.7546 10.1246 12.4721 11.2121 13.3946C12.5021 14.4971 13.4621 14.6996 14.0996 14.8271L14.2046 14.8496C14.2646 14.8646 14.3171 14.8496 14.3546 14.7971L15.1121 13.9871C15.3821 13.6946 15.8096 13.6121 16.1696 13.7846C17.3096 14.3096 18.9221 15.3371 19.7846 15.8996C20.0096 16.0496 20.1596 16.2896 20.1896 16.5596C20.2196 16.8296 20.1296 17.0921 19.9496 17.2946C18.1421 19.2071 16.9946 19.9796 16.5896 20.2271C16.4471 20.3096 16.2971 20.3546 16.1321 20.3546L16.1246 20.3396ZM7.17715 4.40959C7.17715 4.40959 7.10215 4.42459 7.07215 4.44709C6.42715 4.95709 4.85215 6.29209 4.26715 7.64209C4.26715 7.64209 4.25215 7.69459 4.26715 7.74709C4.46215 8.54959 5.64715 12.7496 9.40465 15.9671C12.9821 19.0421 15.4421 19.5071 16.1096 19.5821C16.1471 19.5821 16.1696 19.5821 16.1996 19.5596C16.5821 19.3346 17.6546 18.6071 19.4021 16.7621C19.4471 16.7171 19.4471 16.6571 19.4471 16.6271C19.4471 16.5971 19.4321 16.5446 19.3721 16.5071C18.5321 15.9521 16.9496 14.9546 15.8546 14.4446C15.7871 14.4146 15.7121 14.4296 15.6596 14.4821L14.9021 15.2921C14.6846 15.5321 14.3621 15.6296 14.0471 15.5621L13.9496 15.5396C13.2821 15.3971 12.1646 15.1646 10.7321 13.9421C9.57715 12.9521 8.72215 11.2646 8.31715 10.3421C8.15215 9.96709 8.25715 9.53209 8.57215 9.26959C8.81215 9.06709 9.17215 8.75959 9.48715 8.39959C9.52465 8.36209 9.53215 8.29459 9.50965 8.24209C9.23965 7.55209 8.48965 5.81209 7.30465 4.43959C7.27465 4.40959 7.23715 4.38709 7.19215 4.38709L7.17715 4.40959Z" fill="black"/>
</g>
<defs>
<linearGradient id="paint0_linear_569_40022" x1="6.52477" y1="14.8568" x2="6.98227" y2="5.21935" gradientUnits="userSpaceOnUse">
<stop stop-color="#009CB5"/>
<stop offset="1" stop-color="#71C6AC"/>
</linearGradient>
<clipPath id="clip0_569_40022">
<rect width="24" height="24" fill="white"/>
</clipPath>
</defs>
</svg>
