<svg width="32" height="32" viewBox="0 0 32 32" fill="none" xmlns="http://www.w3.org/2000/svg">
<g clip-path="url(#clip0_3050_19814)">
<path d="M22.5 17.0002C22.1 14.6002 18 14.6668 16 15.0002V22.5H20.5C22 22.5 23 20.0002 22.5 17.0002Z" fill="url(#paint0_linear_3050_19814)"/>
<path d="M12 14.6698V13.3398C12 11.1298 12.67 9.33984 16 9.33984C19.33 9.33984 20 11.1298 20 13.3398V14.6698" stroke="black" stroke-linecap="round" stroke-linejoin="round"/>
<path d="M16.0002 19.4701C16.442 19.4701 16.8002 19.1119 16.8002 18.6701C16.8002 18.2283 16.442 17.8701 16.0002 17.8701C15.5584 17.8701 15.2002 18.2283 15.2002 18.6701C15.2002 19.1119 15.5584 19.4701 16.0002 19.4701Z" stroke="black" stroke-linecap="round" stroke-linejoin="round"/>
<path d="M19.3301 14.6699H12.6601C10.821 14.6699 9.33008 16.1608 9.33008 17.9999V19.3399C9.33008 21.179 10.821 22.6699 12.6601 22.6699H19.3301C21.1692 22.6699 22.6601 21.179 22.6601 19.3399V17.9999C22.6601 16.1608 21.1692 14.6699 19.3301 14.6699Z" stroke="black" stroke-linecap="round" stroke-linejoin="round"/>
<path d="M4.94016 8.54992C3.50016 10.6799 2.66016 13.2399 2.66016 15.9999C2.66016 23.3599 8.63016 29.3299 15.9902 29.3299C23.3502 29.3299 29.3202 23.3599 29.3202 15.9999C29.3202 8.63992 23.3602 2.66992 16.0002 2.66992" stroke="black" stroke-linecap="round" stroke-linejoin="round"/>
<path d="M2.75 8.0102L5.58 7.9502L5.64 10.7702" stroke="black" stroke-linecap="round" stroke-linejoin="round"/>
</g>
<defs>
<linearGradient id="paint0_linear_3050_19814" x1="19.315" y1="14.5" x2="19.315" y2="22.5" gradientUnits="userSpaceOnUse">
<stop stop-color="#08899D"/>
<stop offset="1" stop-color="#3BD1E9"/>
</linearGradient>
<clipPath id="clip0_3050_19814">
<rect width="32" height="32" fill="white"/>
</clipPath>
</defs>
</svg>
