<svg width="32" height="32" viewBox="0 0 32 32" fill="none" xmlns="http://www.w3.org/2000/svg">
<g clip-path="url(#clip0_458_59778)">
<path d="M8.9673 23.3972C8.87305 23.3972 8.77881 23.3635 8.71149 23.2895C8.57013 23.1481 8.57013 22.9125 8.71149 22.7711L22.7808 8.70856C22.9222 8.5672 23.151 8.5672 23.2991 8.70856C23.4405 8.84993 23.4405 9.08554 23.2991 9.22691L9.2231 23.2895C9.14906 23.3635 9.05481 23.3972 8.9673 23.3972Z" fill="black" stroke="black"/>
<path d="M23.0366 23.3971C22.9424 23.3971 22.8481 23.3634 22.7808 23.2894L8.71149 9.22007C8.57013 9.0787 8.57013 8.84309 8.71149 8.70173C8.85286 8.56036 9.08174 8.56036 9.22984 8.70173L23.2991 22.771C23.4405 22.9124 23.4405 23.148 23.2991 23.2894C23.2251 23.3634 23.1308 23.3971 23.0433 23.3971H23.0366Z" fill="black" stroke="black"/>
</g>
<defs>
<clipPath id="clip0_458_59778">
<rect width="32" height="32" fill="white"/>
</clipPath>
</defs>
</svg>
