<svg width="32" height="32" viewBox="0 0 32 32" fill="none" xmlns="http://www.w3.org/2000/svg">
<g clip-path="url(#clip0_3050_20238)">
<path d="M20.2204 7.75977H23.2504L25.1904 9.77977H20.1904L20.2204 7.75977Z" fill="url(#paint0_linear_3050_20238)"/>
<path d="M23.3704 27.5697H8.57035C7.21035 27.5697 6.11035 26.4697 6.11035 25.1097V6.88969C6.11035 5.52969 7.21035 4.42969 8.57035 4.42969H20.0204C20.1404 4.42969 20.2704 4.47969 20.3604 4.55969L25.7404 9.50969C25.8404 9.59969 25.9004 9.73969 25.9004 9.87969V25.0397C25.9004 26.4397 24.7604 27.5697 23.3704 27.5697ZM8.56035 5.42969C7.76035 5.42969 7.10035 6.08969 7.10035 6.88969V25.1097C7.10035 25.9197 7.76035 26.5697 8.56035 26.5697H23.3604C24.2004 26.5697 24.8904 25.8797 24.8904 25.0397V10.0997L19.8104 5.42969H8.55035H8.56035Z" fill="black"/>
<path d="M13.8307 13.8589H10.0607L9.9707 8.66895H13.8507L13.8307 13.8589Z" fill="url(#paint1_linear_3050_20238)"/>
<path d="M18.9707 17.6396H9.9707C9.6907 17.6396 9.4707 17.4196 9.4707 17.1396C9.4707 16.8596 9.6907 16.6396 9.9707 16.6396H18.9707C19.2507 16.6396 19.4707 16.8596 19.4707 17.1396C19.4707 17.4196 19.2507 17.6396 18.9707 17.6396Z" fill="black"/>
<path d="M16.6707 20.75H9.9707C9.6907 20.75 9.4707 20.53 9.4707 20.25C9.4707 19.97 9.6907 19.75 9.9707 19.75H16.6707C16.9507 19.75 17.1707 19.97 17.1707 20.25C17.1707 20.53 16.9507 20.75 16.6707 20.75Z" fill="black"/>
<path d="M13.8507 23.8701H9.9707C9.6907 23.8701 9.4707 23.6501 9.4707 23.3701C9.4707 23.0901 9.6907 22.8701 9.9707 22.8701H13.8507C14.1307 22.8701 14.3507 23.0901 14.3507 23.3701C14.3507 23.6501 14.1307 23.8701 13.8507 23.8701Z" fill="black"/>
<path d="M17.0707 14.0193H9.9707C9.6907 14.0193 9.4707 13.7993 9.4707 13.5193V8.7793C9.4707 8.4993 9.6907 8.2793 9.9707 8.2793H17.0707C17.3507 8.2793 17.5707 8.4993 17.5707 8.7793V13.5193C17.5707 13.7993 17.3507 14.0193 17.0707 14.0193ZM10.4707 13.0193H16.5707V9.2793H10.4707V13.0193Z" fill="black"/>
<path d="M25.4005 10.3797H20.0205C19.7405 10.3797 19.5205 10.1597 19.5205 9.87969V4.92969C19.5205 4.64969 19.7405 4.42969 20.0205 4.42969C20.3005 4.42969 20.5205 4.64969 20.5205 4.92969V9.37969H25.4005C25.6805 9.37969 25.9005 9.59969 25.9005 9.87969C25.9005 10.1597 25.6805 10.3797 25.4005 10.3797Z" fill="black"/>
</g>
<defs>
<linearGradient id="paint0_linear_3050_20238" x1="23.5704" y1="10.4898" x2="21.6304" y2="8.68976" gradientUnits="userSpaceOnUse">
<stop stop-color="#009CB5"/>
<stop offset="1" stop-color="#71C6AC"/>
</linearGradient>
<linearGradient id="paint1_linear_3050_20238" x1="12.3607" y1="13.5589" x2="11.6707" y2="9.64895" gradientUnits="userSpaceOnUse">
<stop stop-color="#009CB5"/>
<stop offset="1" stop-color="#71C6AC"/>
</linearGradient>
<clipPath id="clip0_3050_20238">
<rect width="32" height="32" fill="white"/>
</clipPath>
</defs>
</svg>
