<svg width="13" height="14" viewBox="0 0 13 14" fill="none" xmlns="http://www.w3.org/2000/svg">
<mask id="mask0_3282_4795" style="mask-type:luminance" maskUnits="userSpaceOnUse" x="-4" y="-7" width="21" height="21">
<path d="M16.5 -6.97559H-3.5V13.0244H16.5V-6.97559Z" fill="#D9D9D9"/>
</mask>
<g mask="url(#mask0_3282_4795)">
<path d="M1.75 13.0246C1.33 13.0246 0.98 12.8746 0.69 12.5846C0.4 12.2946 0.25 11.9346 0.25 11.5246V8.77892H1.5V11.5246C1.5 11.5846 1.53 11.6346 1.58 11.6946C1.64 11.7546 1.69 11.7746 1.75 11.7746H11.25C11.31 11.7746 11.36 11.7446 11.42 11.6946C11.48 11.6346 11.5 11.5846 11.5 11.5246V8.77892H12.75V11.5246C12.75 11.9446 12.6 12.2946 12.31 12.5846C12.02 12.8746 11.66 13.0246 11.25 13.0246H1.75ZM6.5 0.974609L10.06 4.53461L9.18 5.45461L7.12 3.39461V10.3946H5.87V3.39461L3.81 5.45461L2.93 4.53461L6.5 0.974609Z" fill="#12100A"/>
</g>
</svg>
