<svg width="120" height="79" viewBox="0 0 120 79" fill="none" xmlns="http://www.w3.org/2000/svg">
<ellipse cx="53.7017" cy="18.515" rx="2.65192" ry="2.64489" fill="#009CB5" fill-opacity="0.08"/>
<ellipse cx="109.724" cy="58.5178" rx="4.97235" ry="4.95917" fill="#009CB5" fill-opacity="0.08"/>
<ellipse cx="43.4246" cy="12.2325" rx="4.30937" ry="4.29794" fill="#009CB5" fill-opacity="0.08"/>
<ellipse cx="46.408" cy="21.1584" rx="1.32596" ry="1.32244" fill="#009CB5" fill-opacity="0.08"/>
<ellipse cx="117.348" cy="50.2533" rx="2.65192" ry="2.64489" fill="#009CB5" fill-opacity="0.08"/>
<ellipse cx="1.65745" cy="75.0486" rx="1.65745" ry="1.65306" fill="#009CB5" fill-opacity="0.08"/>
<ellipse cx="5.6351" cy="77.0329" rx="0.994471" ry="0.991833" fill="#009CB5" fill-opacity="0.08"/>
<ellipse cx="118.674" cy="58.1887" rx="1.32596" ry="1.32244" fill="#009CB5" fill-opacity="0.08"/>
<ellipse cx="31.5488" cy="49.8041" rx="30.2763" ry="28.7855" fill="#009CB5" fill-opacity="0.08"/>
<ellipse cx="86.85" cy="28.4326" rx="28.5082" ry="28.4326" fill="#009CB5" fill-opacity="0.08"/>
<path d="M60.0004 78.9995C90.9404 78.9995 116.022 78.2769 116.022 77.3855C116.022 76.4941 90.9404 75.7715 60.0004 75.7715C29.0604 75.7715 3.97852 76.4941 3.97852 77.3855C3.97852 78.2769 29.0604 78.9995 60.0004 78.9995Z" fill="#009CB5" fill-opacity="0.08"/>
<path d="M76.6326 17.0264C76.6326 17.0264 79.2274 18.232 79.8171 18.0779C80.4069 17.9237 82.6478 17.5384 82.9623 17.676C82.9623 17.676 83.3162 18.232 83.0522 18.6009C82.7826 18.9698 80.6034 19.9607 79.8171 19.9938C79.0308 20.0323 76.0429 19.4983 75.4082 19.0138L76.6382 17.0264H76.6326Z" fill="#E89F5B"/>
<path d="M82.885 17.6868C82.885 17.6868 83.8849 17.2793 84.2107 17.7363C84.5364 18.1933 84.7218 18.6503 84.6825 18.8871C84.6432 19.1183 83.9635 19.2229 83.6939 19.0412C83.4243 18.8595 82.7559 18.6063 82.7559 18.6063L82.8794 17.6923L82.885 17.6868Z" fill="#E89F5B"/>
<path d="M87.6633 74.7656C87.6633 74.7656 87.1128 75.6411 87.1016 76.6597C87.1016 76.8854 87.2869 77.0726 87.5172 77.0726H90.9604C91.2918 77.0726 91.539 76.7643 91.4603 76.4504C91.2974 75.8338 90.9548 74.8978 90.2695 74.3307C89.1742 73.4277 87.6689 74.7711 87.6689 74.7711L87.6633 74.7656Z" fill="#845151"/>
<path d="M82.2156 73.8747C82.2156 73.8747 82.019 77.0018 81.4012 77.0513C81.317 77.0568 78.2672 77.0568 78.2672 77.0568H74.3301C74.3301 77.0568 74.3975 76.1154 75.532 75.9227C76.6721 75.7301 78.5761 74.9428 79.2669 73.4673C79.9915 71.9148 82.21 73.8747 82.21 73.8747H82.2156Z" fill="#845151"/>
<path d="M83.8679 54.5449C83.7275 56.2846 83.7106 57.6554 83.896 58.3051C84.7103 61.2174 82.4301 74.3532 82.4301 74.3532C80.7507 75.1405 78.3694 74.3422 78.3694 74.3422C78.5154 72.5199 77.6336 56.2295 76.808 46.2868C76.4654 42.1137 76.207 39.1959 76.207 39.1959L86.2549 38.0508C86.2549 38.0508 84.3397 48.5055 83.8623 54.5449H83.8679Z" fill="#4A4A4A"/>
<path d="M86.2549 38.0508C86.2549 38.0508 84.3397 48.5055 83.8623 54.5449L76.808 46.2923C76.4654 42.1193 76.207 39.2014 76.207 39.2014L86.2549 38.0563V38.0508Z" fill="#575757"/>
<path d="M81.3281 40.2799C81.3281 40.2799 86.4166 69.3153 87.2872 74.9363C87.2872 74.9363 89.1912 75.4593 91.1401 74.65C91.1401 74.65 91.3928 61.1563 90.7245 57.0933C90.0561 53.0304 91.0783 40.4671 90.0056 39.3C88.9328 38.1328 81.3281 40.2854 81.3281 40.2854V40.2799Z" fill="#4A4A4A"/>
<path d="M81.8494 15.5219C81.8494 15.5219 81.4618 18.1042 81.6303 18.875C81.7988 19.6458 84.4164 20.0643 85.5117 19.4256C86.607 18.7869 86.2756 18.5501 86.2756 18.5501C86.2756 18.5501 86.1071 15.5935 85.9554 15.3843C85.8038 15.175 81.8494 15.5164 81.8494 15.5164V15.5219Z" fill="#FFB27D"/>
<path d="M90.2646 31.2684C90.6128 28.0257 90.523 25.5868 90.1972 23.7535C89.2424 18.3693 86.2488 18.1876 86.2488 18.2206C86.2488 18.9474 84.6594 19.6135 83.3732 19.5309C82.2892 19.4594 81.5928 18.6556 81.5928 18.2206C81.5928 17.7857 81.5703 18.2206 81.5366 18.2206C81.2558 18.2206 79.9752 18.2482 78.7621 18.4519C77.8803 18.6005 77.0434 18.8428 76.6447 19.2501C76.4425 19.4594 75.7123 20.0429 74.78 20.8357C72.3986 22.8562 68.6749 26.231 68.8434 28.2459C68.8434 28.2459 73.4433 31.5602 76.3582 29.4846C76.201 34.8744 75.2013 40.5835 75.4484 40.578C75.4484 40.578 77.0715 41.9598 82.014 41.9598C86.9565 41.9598 86.6644 41.7341 88.0236 41.4699C89.8714 41.112 90.6016 40.6936 90.6016 40.6936C91.0116 40.6881 90.1523 32.3915 90.2702 31.2739L90.2646 31.2684Z" fill="#9A594C"/>
<path d="M90.5941 40.6858C90.5941 40.6858 89.8584 41.1097 88.0162 41.462C85.4663 40.3554 80.4003 37.4927 80.2037 32.681C79.9397 26.2837 87.9038 22.4795 87.9038 22.4795C87.9038 22.4795 88.971 23.0631 90.1954 23.7457C90.5211 25.579 90.611 28.0179 90.2628 31.2606C90.1448 32.3782 91.0041 40.6748 90.5941 40.6803V40.6858Z" fill="#874D42"/>
<path d="M81.8125 15.8154C81.8125 15.8154 82.8292 17.2194 83.902 17.2304C84.9749 17.2415 86.0702 15.8375 86.0702 15.8375L81.8181 15.8154H81.8125Z" fill="#E89F5B"/>
<path d="M81.7099 15.7431C81.9907 15.9578 82.6198 16.2606 83.1309 16.4588C83.5184 16.6075 83.9509 16.6185 84.344 16.4864C84.9338 16.2882 85.8324 15.9743 86.0571 15.8367C86.5962 15.5174 86.5569 14.8733 86.585 13.9759C86.6187 12.9134 86.7254 12.0765 86.6075 11.4654C86.4614 10.7332 85.9897 10.3148 84.6642 10.1992C82.2266 9.99001 81.21 10.5901 81.1707 11.3884C81.1595 11.6031 81.1483 11.8068 81.1427 12.005C81.0472 14.5044 81.2438 15.3908 81.7099 15.7431Z" fill="#FFB27D"/>
<path d="M81.1591 11.6861C81.1591 11.6861 81.5578 11.108 82.3104 11.3338C83.063 11.5595 83.1361 12.1871 84.4166 12.088C85.6972 11.9889 86.0061 11.3943 86.2363 11.6916C86.4666 11.9889 86.6014 13.7451 86.6014 13.7451C86.6014 13.7451 89.1794 7.98648 83.9561 7.98648C83.9561 7.98648 78.5699 7.66717 81.1591 13.5249V11.6916V11.6861Z" fill="#4B4B4B"/>
<path d="M71.668 17.1416H71.677C71.668 17.1507 71.668 17.1416 71.668 17.1416Z" fill="#FFB27D"/>
<path d="M83.694 34.8576C83.694 34.8576 83.0088 35.3861 82.009 35.3861C82.009 35.3861 80.9868 34.285 80.1275 33.217C79.5715 32.5288 79.0829 31.8516 78.9818 31.4993C78.7234 30.6074 73.927 30.3542 73.3372 29.7266C72.7475 29.099 75.7186 27.5244 75.7186 27.5244C75.7186 27.5244 80.5881 28.2566 81.3238 29.1925C81.6159 29.5669 82.0484 30.5414 82.464 31.5764C83.093 33.1454 83.6884 34.8576 83.6884 34.8576H83.694Z" fill="#FFB27D"/>
<path d="M76.875 21.7653C76.875 21.7653 77.7961 20.0091 78.2567 20.0586C78.7116 20.1082 77.2064 23.6977 77.0716 25.4374C76.9368 27.1771 76.875 21.7653 76.875 21.7653Z" fill="#874D42"/>
<path d="M79.7611 33.861C79.1208 35.3804 78.2896 36.7678 78.1829 36.944C78.1773 36.955 78.1716 36.9605 78.1716 36.9605H78.1548C77.9975 36.9605 76.6608 36.933 76.5316 36.4044C76.5316 36.4044 76.4867 34.5822 76.5597 33.1342C76.5934 32.4846 76.6496 31.9176 76.7451 31.6148C76.7451 31.6148 69.4942 31.5652 69.6178 29.5557C69.747 27.5463 73.5381 26.4782 75.7172 27.5243C75.7172 27.5243 78.6097 28.5538 80.1318 29.9136C80.8788 30.5797 80.4182 32.2919 79.7555 33.861H79.7611Z" fill="#FFB27D"/>
<path d="M69.8417 26.7344C69.8417 26.7344 68.8756 28.1272 69.1003 29.421C69.3249 30.7203 72.0826 31.4139 74.0091 31.4965C74.0091 31.4965 79.5244 30.2578 78.6707 28.1052C78.4742 27.6152 69.8417 26.7344 69.8417 26.7344Z" fill="#2B8B78"/>
<path d="M71.8443 9.63959C71.8443 9.63959 70.9681 7.88338 68.8507 8.95693C66.7333 10.0305 68.7946 14.0824 67.6825 15.0899C66.5704 16.1029 68.0869 16.7635 67.8622 17.4903C67.6376 18.217 68.2778 19.0428 69.7606 18.9437C71.2433 18.8446 72.7991 18.9272 73.4674 17.6554C74.1358 16.3837 73.9842 13.5925 73.7258 13.2016C73.4674 12.8107 71.8387 9.63959 71.8387 9.63959H71.8443Z" fill="#4B4B4B"/>
<path d="M75.2755 19.2754L71.6807 17.1502C71.7031 17.1447 71.7762 17.0346 72.0402 16.2747C72.1525 15.9499 72.2143 15.6691 72.248 15.4434C72.248 15.4213 72.2536 15.3993 72.2536 15.3773C72.2929 15.0524 72.2648 14.8652 72.2648 14.8652L73.0512 15.146L74.5116 15.6636C74.4948 16.027 74.5453 16.2802 74.624 16.4564C74.8149 16.8804 75.1688 16.8859 75.18 16.8859L75.2811 19.281L75.2755 19.2754Z" fill="#FFB27D"/>
<path d="M74.6174 16.4484C73.2076 16.5641 72.4156 15.6666 72.2415 15.4354C72.2134 15.4023 72.2021 15.3858 72.2021 15.3858C72.2021 15.3858 72.219 15.3858 72.2471 15.3748C72.3594 15.3418 72.674 15.2482 73.0447 15.1436L74.5051 15.6611C74.4883 16.0245 74.5388 16.2778 74.6174 16.454V16.4484Z" fill="#ED985F"/>
<path d="M74.6923 15.953C74.6923 15.953 71.5636 16.2889 71.4962 14.2132C71.4344 12.1375 70.9682 11.1904 73.1364 11.0032C75.3045 10.816 75.8157 11.5814 75.9392 12.2861C76.338 14.4775 75.5741 15.8594 74.6923 15.953Z" fill="#FFB27D"/>
<path d="M73.3024 12.0243C72.1959 11.7491 72.6172 13.6704 72.3363 13.5383C72.0218 13.3897 71.4826 13.3952 71.5725 13.764C71.6568 14.1329 71.7803 14.265 71.8421 14.4962C71.9039 14.7275 71.8421 15.1844 71.5837 15.0908C71.3254 14.9972 68.9328 12.3161 70.6233 10.2296C72.3139 8.14303 77.3575 9.42578 75.768 11.6114C75.4872 11.9968 74.0887 12.2115 73.3024 12.0188V12.0243Z" fill="#4B4B4B"/>
<path d="M77.3238 27.5274C77.3238 27.5274 76.3858 28.0174 74.9031 27.9954C73.9595 27.9789 71.9544 27.577 70.6682 27.1255C69.9325 26.8668 69.4326 26.5915 69.4944 26.3548C69.5787 26.019 70.2077 23.4479 70.7918 21.0696C71.3254 18.895 71.814 16.88 71.814 16.88C71.814 16.88 73.2799 17.8985 74.1336 17.5407C74.9873 17.1773 74.8806 16.7754 74.8806 16.7754C74.8806 16.7754 75.8859 16.6543 76.1611 16.6873C76.5992 16.7369 78.1381 17.2874 78.1381 17.2874C78.1381 17.2874 78.3403 17.8435 77.8068 18.7133C77.3631 19.4345 76.9306 19.5722 76.9306 19.5722C76.9306 19.5722 78.1887 23.459 77.335 27.5329L77.3238 27.5274Z" fill="#739AF0"/>
<path d="M72.6119 24.0515C72.6119 24.0515 73.5162 23.8863 73.8701 24.112C74.2239 24.3378 74.3307 24.6956 74.0723 24.8388C73.2747 25.2958 72.4658 24.7892 72.4658 24.7892L72.6119 24.0515Z" fill="#FFB27D"/>
<path d="M70.6682 27.1182C69.9325 26.8594 69.4326 26.5841 69.4944 26.3474C69.5787 26.0116 70.2077 23.4406 70.7918 21.0622C70.9659 20.7539 71.0726 20.5723 71.0726 20.5723C71.0726 20.5723 72.1735 25.5106 70.6739 27.1182H70.6682Z" fill="#4A82D3"/>
<path d="M71.8481 17.1543C71.8481 17.1543 69.0623 17.7324 67.9671 21.9715C67.8604 22.3844 67.9671 22.8303 68.2648 23.1497C68.7703 23.7002 69.8823 24.4985 72.4715 24.7958C72.7524 24.8288 72.7917 24.1241 72.7917 24.1241C72.7636 24.1792 71.0337 23.0285 70.298 22.4119C70.1632 22.3018 70.1688 22.0651 70.2643 21.922C70.5114 21.5476 70.9326 20.909 71.073 20.5786C71.2752 20.0942 72.6288 17.3745 71.8537 17.1598L71.8481 17.1543Z" fill="#FFB27D"/>
<path d="M71.8093 16.8799C71.8093 16.8799 70.1747 16.9955 68.8379 18.7409C68.8379 18.7409 69.2873 20.3431 71.4105 20.7725C71.4105 20.7725 72.7192 17.882 71.8093 16.8799Z" fill="#739AF0"/>
<path d="M79.763 33.8606C79.1226 35.3802 78.2913 36.7677 78.1846 36.9439C78.1734 36.9494 78.1678 36.9549 78.1565 36.9604C77.9992 36.9604 76.6624 36.9328 76.5332 36.4043C76.5332 36.4043 76.4883 34.5818 76.5613 33.1338C76.7747 33.332 77.5948 33.9321 79.7574 33.8606H79.763Z" fill="#FFB27D"/>
<path d="M83.6937 34.8587C83.6937 34.8587 83.0085 35.3872 82.0086 35.3872C82.0086 35.3872 80.9864 34.286 80.127 33.2179C81.0931 32.8105 82.1154 31.9075 82.4692 31.5771C83.0983 33.1463 83.6937 34.8587 83.6937 34.8587Z" fill="#FFB27D"/>
<path d="M80.2409 38.9262C80.2128 39.0914 80.0443 39.2015 79.8758 39.163C79.477 39.0804 78.7524 38.9317 78.4491 38.8216C78.0222 38.6674 77.2077 38.1939 76.7808 38.0453C76.6348 37.9957 76.2809 37.8526 76.0563 37.7645C75.9327 37.7149 75.8709 37.5883 75.9102 37.4616C75.9832 37.2084 76.1293 36.7734 76.3427 36.41C76.382 36.344 76.4438 36.2944 76.5225 36.2559C76.7415 36.432 77.0898 36.6192 77.556 36.6248C77.9379 36.6248 78.2525 36.5367 78.4884 36.432C78.5165 36.4926 79.1007 37.6378 79.5107 37.7865C79.8814 37.9186 80.3645 38.2655 80.2465 38.9262H80.2409Z" fill="#C65447"/>
<path d="M86.322 34.8685C86.4006 35.0172 86.3388 35.2044 86.1872 35.2759C85.8221 35.4576 85.1593 35.777 84.8559 35.8761C84.4234 36.0137 83.4854 36.1404 83.0529 36.278C82.9069 36.3276 82.5418 36.4322 82.3058 36.4983C82.1823 36.5313 82.0475 36.4707 81.9969 36.3551C81.8958 36.1073 81.7385 35.6779 81.6711 35.2704C81.6599 35.1934 81.6711 35.1163 81.7104 35.0392C81.9913 35.0392 82.3901 34.9786 82.7552 34.6978C83.0585 34.4666 83.2495 34.2023 83.3675 33.9766C83.4292 34.0041 84.6088 34.5547 85.0245 34.417C85.4008 34.2959 85.9962 34.2739 86.322 34.863V34.8685Z" fill="#C65447"/>
<path d="M80.4527 32.5721C80.4527 32.5721 80.2449 33.7558 79.4586 34.3063C79.4586 34.3063 76.2628 33.8769 73.2917 33.1392C71.1069 32.5996 69.04 31.8894 68.4447 31.0636C67.0462 29.1202 69.1748 26.7529 69.1748 26.7529C69.1748 26.7529 73.2749 28.6908 77.7175 31.0691C78.6273 31.5536 79.5484 32.0601 80.4527 32.5721Z" fill="#9A594C"/>
<path d="M75.6503 34.3018C75.6503 34.3018 74.7011 34.3788 74.3416 34.7312C73.9821 35.0836 73.4372 36.1077 73.8248 36.5096C74.2124 36.9171 76.0604 36.0251 76.1109 35.8819C76.1615 35.7333 75.6503 34.3018 75.6503 34.3018Z" fill="#FFB27D"/>
<path d="M80.452 32.5727C80.452 32.5727 80.2442 33.7563 79.4579 34.3069C79.4579 34.3069 76.2621 33.8774 73.291 33.1397C74.6895 31.9505 76.5149 31.356 77.7168 31.0752C78.6266 31.5597 79.5478 32.0662 80.452 32.5782V32.5727Z" fill="#874D42"/>
<path d="M91.2933 19.7837C90.653 18.2972 86.4575 18.2422 86.4575 18.2422C84.3233 23.7366 83.8066 27.3426 83.2449 29.6603C83.155 29.6493 83.0652 29.6493 82.9922 29.6603C82.9922 29.6603 79.993 30.811 75.5279 33.9821C75.5279 33.9821 75.0617 35.2373 75.8986 36.2613C75.8986 36.2613 83.5875 34.5987 85.733 33.3655C85.7555 33.3544 85.7779 33.3379 85.7948 33.3269C85.8285 33.3049 85.8566 33.2884 85.8903 33.2664C92.8715 28.818 92.2088 21.9143 91.2933 19.7837Z" fill="#9A594C"/>
<path d="M104.374 34.6044C103.745 33.5804 103.357 29.022 102.902 27.7998C102.616 27.029 101.852 26.1041 101.931 26.0491C101.116 25.5756 98.9089 25.3499 98.9089 25.3499C98.8247 25.3334 98.7348 25.3169 98.6562 25.3004C98.3922 25.2508 98.1395 25.0967 98.1114 24.8324C98.1114 24.8214 98.1114 24.8049 98.1114 24.7939C98.0777 24.469 98.0721 24.1387 98.0721 23.8524C98.0721 23.8524 98.0721 23.8469 98.0721 23.8414C98.0777 23.3735 98.117 23.0266 98.117 23.0266H98.1058L95.247 22.5752C95.2077 23.4505 95.1571 24.1002 95.101 24.5902C95.0617 24.9645 94.7527 25.2508 94.3708 25.2728C94.3147 25.2728 94.2585 25.2783 94.1967 25.2838C94.1967 25.2838 92.3545 25.2123 91.6468 25.4215C91.5907 25.438 91.5289 25.46 91.4671 25.493C91.5121 25.5371 84.6768 32.2536 84.8509 33.0299C85.025 33.8062 88.0242 38.2215 89.1138 39.0363H90.2034C90.2034 39.0363 87.7883 33.641 87.7603 33.2061C87.7153 32.5675 93.826 28.9835 93.826 28.3283C93.826 27.6732 95.5278 28.02 96.6455 28.0255C97.8249 28.0365 100.049 27.4309 100.049 27.4309C100.049 27.4309 101.009 34.5659 102.223 36.6855C103.177 38.3536 107.412 42.6313 107.412 42.6313L108.305 41.855C108.305 41.855 105.901 37.0708 104.385 34.5934L104.374 34.6044Z" fill="#FFB27D"/>
<path d="M95.7136 62.0708C96.2303 67.0531 95.6069 73.5825 95.6069 73.5825H93.8546C91.2092 66.7613 91.1306 62.4837 90.979 60.8761C90.8947 60.0007 89.6928 56.4993 88.6088 53.1355C87.7046 50.3223 86.8846 47.6081 86.8789 46.5897C86.8677 44.2554 89.2379 40.5117 89.2379 40.5117C89.2379 40.5117 92.647 41.8 94.7476 43.0717C95.4497 43.4956 95.9888 43.914 96.1686 44.2664C96.6572 45.2023 97.0167 51.8968 95.7192 55.9818C94.9386 58.4427 95.3373 59.7035 95.3373 59.7035C95.5002 60.4192 95.6182 61.2229 95.708 62.0708H95.7136Z" fill="#606060"/>
<path d="M93.8479 73.582C93.8479 73.582 93.7468 74.6996 93.6008 74.9308C93.4548 75.1621 92.837 75.9383 92.1293 76.1971C91.4216 76.4558 89.4053 76.3237 89.248 77.0394H96.3585C96.3585 77.0394 96.454 75.9603 96.1844 75.2557C95.9092 74.5455 95.5946 73.582 95.5946 73.582H93.8423H93.8479Z" fill="#845151"/>
<path d="M105.743 73.3289C105.743 73.3289 106.54 74.397 106.731 74.8155C106.928 75.2394 108.22 77.0289 108.062 77.0399C107.905 77.0564 104.456 77.0399 104.456 77.0399C104.456 77.0399 104.102 76.1975 104.142 75.6193C104.181 75.0412 103.67 73.9511 103.771 73.3234C103.867 72.7012 105.737 73.3234 105.737 73.3234L105.743 73.3289Z" fill="#845151"/>
<path d="M105.745 73.3292H103.779C103.779 73.3292 96.1071 62.4561 95.8431 59.6924C95.5118 56.2351 93.0518 42.5927 93.0518 42.5927L100.92 40.1924C100.92 40.1924 101.606 41.9266 102.184 43.6718C102.437 44.4315 102.667 45.1968 102.808 45.8244C103.122 47.2062 102.235 52.4198 101.628 56.1249C101.33 57.9527 101.1 59.4117 101.111 59.8686C101.156 61.2504 103.745 61.4321 105.745 73.3237V73.3292Z" fill="#666565"/>
<path d="M95.2184 23.0488C95.2184 23.1263 95.2127 23.1983 95.207 23.2702C95.207 23.1983 95.2127 23.1263 95.2184 23.0488Z" fill="#2B478B"/>
<path d="M95.242 22.5811C95.242 22.6367 95.242 22.6923 95.2363 22.7423C95.2363 22.6867 95.2363 22.6367 95.242 22.5811Z" fill="#2B478B"/>
<path d="M102.014 42.0071C102.272 42.7613 98.5656 43.2072 94.46 43.1522C93.2974 43.1357 92.219 42.998 91.3316 42.7723C89.4501 42.2933 88.4167 41.429 89.2423 40.5096C89.4782 40.2453 92.0842 36.5953 92.0842 36.5953C92.2359 36.2705 92.073 35.1969 91.2754 32.6479C90.9497 31.6074 91.3765 30.9578 91.5282 30.5449C91.5787 30.4017 91.6012 30.2861 91.545 30.1925C91.1912 29.5924 90.6745 29.0089 90.2083 28.5464C89.613 27.9518 89.0906 27.55 89.0906 27.55C89.0906 27.55 90.6183 25.9204 91.4664 25.502C92.3426 26.4048 94.2522 28.0234 96.6448 28.0399C98.7116 28.0564 100.717 26.9168 101.935 26.0525C102.025 26.1075 102.104 26.1626 102.155 26.2232C102.918 27.0985 103.137 28.6841 103.137 28.6841C103.137 28.6841 100.683 30.0109 100.728 30.4458C100.852 31.6349 100.964 31.9873 100.913 32.4112C100.896 32.5653 100.852 32.725 100.784 32.9342C100.363 34.2225 99.4586 36.2154 99.6833 36.8871C99.7395 37.0632 101.655 40.939 102.02 42.0236L102.014 42.0071Z" fill="#F4CB34"/>
<path d="M98.46 25.2441C98.4878 25.2553 98.5212 25.2666 98.5546 25.2778C98.5212 25.2666 98.4934 25.2553 98.46 25.2441Z" fill="#FFB27D"/>
<path d="M108.294 41.8652C108.294 41.8652 109.799 42.2451 110.001 42.4544C110.209 42.6581 110.799 44.2603 110.591 44.2713C109.512 44.3484 108.945 43.7813 108.945 43.7813C108.294 43.0765 107.322 42.9664 107.367 42.4544C107.417 41.9423 108.294 41.8652 108.294 41.8652Z" fill="#FFB27D"/>
<path d="M89.1082 39.0475C89.1082 39.0475 88.0186 40.3964 88.0186 40.6387C88.0186 40.881 88.2376 41.905 88.5016 41.9216C88.7656 41.9381 88.8555 41.0847 89.0577 40.925C89.2655 40.7653 89.9957 40.468 90.1025 40.1927C90.2036 39.9174 90.1923 39.042 90.1923 39.042H89.1026L89.1082 39.0475Z" fill="#FFB27D"/>
<path d="M95.1084 24.5078C96.4621 24.3372 98.1079 23.0323 98.1079 23.0323C97.1474 22.5202 96.316 22.4707 95.6645 22.6469C95.5128 22.6909 95.3668 22.7405 95.232 22.8065L95.1084 24.5078Z" fill="#E89F5B"/>
<path d="M94.6183 23.2248C94.6183 23.2248 97.9601 24.3203 98.6229 22.2668C99.2856 20.2133 100.162 18.9746 98.0556 18.1928C95.9495 17.4056 95.2811 18.0607 94.8879 18.6938C94.4948 19.3269 93.7646 22.8889 94.6127 23.2303L94.6183 23.2248Z" fill="#FFB27D"/>
<path d="M95.8149 22.3214C95.8149 22.3214 95.6913 22.5585 95.0622 22.3655C95.0622 22.3655 94.5342 22.2055 94.6185 21.9298C94.6185 21.9298 95.1914 21.8581 95.8149 22.3214Z" fill="#009CB5" fill-opacity="0.08"/>
<path d="M103.587 18.4073C103.211 17.9339 104.441 16.9649 101.947 15.7923C100.055 14.9059 99.465 16.2492 99.2909 16.9484C98.1619 16.3208 96.3254 14.504 95.1515 15.6877C93.7474 17.1025 95.2695 18.3468 95.2695 18.3468C95.803 18.7266 96.0614 18.622 96.8365 18.7872C97.6171 18.9523 97.1173 19.8387 97.1791 20.136C97.2408 20.4333 97.7688 21.0334 98.4933 20.7306C99.2122 20.4278 99.128 21.5894 98.4484 21.8262C98.2518 21.8922 98.0496 22.9658 98.3361 23.0098C98.5719 23.0483 99.4313 23.0539 99.5211 22.3712C99.5717 21.9638 100.1 21.7491 100.661 21.3307C101.049 21.694 101.594 21.8757 101.891 21.8317C102.335 21.7711 102.341 21.4243 103.284 20.8022C104.228 20.18 103.964 18.8698 103.587 18.4018V18.4073Z" fill="#4B4B4B"/>
<path d="M91.3258 42.7757C89.4442 42.2967 88.4108 41.4323 89.2364 40.513C89.4723 40.2542 92.0784 36.5986 92.0784 36.5986C92.0784 36.5986 92.7748 40.7222 91.3314 42.7812L91.3258 42.7757Z" fill="#DAB630"/>
<path d="M5.17737 76.6538H16.0789C16.6686 76.1693 15.6801 75.0627 14.6467 74.9912C14.1974 74.9581 13.6301 75.0517 12.9843 75.1839C12.8326 73.2294 11.9789 64.4539 8.74943 64.8062C5.1212 65.2026 8.74943 68.671 9.77725 70.73C10.5355 72.2495 11.3386 74.4351 11.7037 75.4646C11.4116 75.5252 11.1027 75.5913 10.7938 75.6463C10.3164 74.1984 8.52478 69.3261 6.2445 69.6124C3.57107 69.9427 4.6438 71.8971 6.54216 73.0588C7.93504 73.9121 9.64245 75.1233 10.4512 75.7069C9.76601 75.817 9.04711 75.8885 8.31697 75.872C6.44669 75.828 5.5312 76.373 5.18298 76.6593L5.17737 76.6538Z" fill="#39BEA4"/>
<path d="M50.7684 42.3281H24.8311V77.051H50.7684V42.3281Z" fill="#F9DDBF"/>
<path d="M70.9226 42.3291H50.7695V77.0519H70.9226V42.3291Z" fill="#FFF3E9"/>
<path d="M57.3674 27.5156L48.8626 44.6737H23.0449L36.5042 27.5782L57.3674 27.5156Z" fill="#ED9F4A"/>
<path d="M58.3809 27.5156L49.884 44.6737H24.0664L37.5257 27.5782L58.3809 27.5156Z" fill="#F9DDBF"/>
<path d="M37.7563 36.0957H37.2138C35.3708 36.0957 33.8789 37.5581 33.8789 39.3647V47.67H40.9875V39.2552C40.9875 37.5112 39.5435 36.0879 37.7563 36.0879V36.0957Z" fill="#EFCDAF"/>
<path d="M73.7308 45.621H50.2907L36.4404 27.5166H44.2352L59.4737 27.5244L73.7308 45.621Z" fill="#ED9F4A"/>
<path d="M73.73 45.621H69.4297L44.2344 27.5166L59.4728 27.5244L73.73 45.621Z" fill="#E58638"/>
<path d="M34.7078 49.4609L28.6602 61.6765H10.2783L19.8602 49.5079L34.7078 49.4609Z" fill="#ED9F4A"/>
<path d="M35.2595 49.4609L29.212 61.6765H10.8301L20.412 49.5079L35.2595 49.4609Z" fill="#F9DDBF"/>
<path d="M29.1713 61.6777L29.1633 77.0525H25.0697C24.8623 77.0217 22.7727 77.0525 22.7727 77.0525C22.7727 77.0525 20.1949 76.9562 15.8011 76.9562C13.6908 76.9562 12.8525 76.9562 10.8213 76.9562V61.6777H29.1633H29.1713Z" fill="#F9DDBF"/>
<path d="M44.7062 61.6758L44.4836 77.0559C39.0573 77.0559 33.9475 77.0559 29.1719 77.0559L29.1725 61.6758H44.7062Z" fill="#FFF3E9"/>
<path d="M46.413 62.3979H29.7225L19.8613 49.5098H24.8318H36.2566L46.413 62.3979Z" fill="#ED9F4A"/>
<path d="M23.7231 64.3827V74.7526H23.0849C22.8774 74.7214 22.7737 74.7057 22.7737 74.7057C22.7737 74.7057 19.6702 74.7057 15.9922 73.4701V64.5156C15.9922 63.3895 16.4789 62.3807 17.2607 61.6768C17.9628 61.0434 18.8883 60.6602 19.9175 60.6602C20.9467 60.6602 21.8403 61.0434 22.5264 61.6768C23.2604 62.3572 23.7231 63.3191 23.7231 64.3905V64.3827Z" fill="#EFCDAF"/>
<path d="M19.8599 57.1415C20.3403 57.1415 20.7297 56.7599 20.7297 56.289C20.7297 55.8182 20.3403 55.4365 19.8599 55.4365C19.3796 55.4365 18.9902 55.8182 18.9902 56.289C18.9902 56.7599 19.3796 57.1415 19.8599 57.1415Z" fill="#EFCDAF"/>
<path d="M46.4113 62.3969H43.2439L24.8301 49.5088H36.2549L46.4113 62.3969Z" fill="#E58638"/>
<path d="M72.2919 75.1236C72.2919 75.1236 72.5896 75.6963 73.258 75.8394C73.6793 75.9275 74.0331 76.1422 74.2578 76.4451C74.4488 76.6983 74.2634 77.0562 73.9433 77.0562H70.5675C70.281 77.0562 70.0563 76.8139 70.0844 76.5331C70.1069 76.2854 70.135 76.0046 70.1462 75.7843C70.1687 75.3053 70.6573 74.9199 70.6573 74.9199L72.2863 75.1291L72.2919 75.1236Z" fill="#845151"/>
<path d="M73.0564 66.7779C73.1968 69.2939 72.8486 75.014 72.8486 75.014C72.8486 75.014 72.6127 75.6526 71.1244 75.8068C70.3268 75.8893 69.6135 75.6856 69.6135 75.6856C69.3159 74.3313 69.035 73.0376 68.7823 71.8099C66.9457 62.9847 66.2324 57.5344 66.2324 57.5344L73.4777 55.8828C73.4777 55.8828 73.1575 60.8652 73.0677 64.262C73.0396 65.3245 73.034 66.2274 73.0677 66.7835L73.0564 66.7779Z" fill="#2B478B"/>
<path d="M73.4728 55.877C73.4728 55.877 73.1526 60.8593 73.0628 64.2561L68.7774 71.804C66.9408 62.9789 66.2275 57.5286 66.2275 57.5286L73.4728 55.877Z" fill="#2C3A64"/>
<path d="M66.188 44.4644C66.188 44.4644 63.3853 43.2147 61.2623 44.3103C59.1393 45.4059 60.4367 54.4347 63.4696 55.31C63.4696 55.31 69.1534 57.0883 66.1823 44.4644H66.188Z" fill="#2B8B78"/>
<path d="M74.2964 57.987C74.2907 57.9759 74.2795 57.9649 74.2683 57.9539C74.2009 57.8548 74.0885 57.6071 74.0043 57.4144C74.5659 54.7057 74.1896 53.1422 74.1896 53.1422C74.257 52.355 74.7344 46.8496 73.6336 44.3006C73.1 43.0729 72.207 43.0674 72.207 43.0674C72.207 43.0674 72.4148 45.0328 72.28 46.0898C72.1509 47.0588 73.0944 56.1482 73.2517 57.6346L73.2966 59.1431L73.7516 59.0385C73.7684 59.0385 73.7909 59.0275 73.8077 59.0165C73.8639 58.9889 73.9088 58.9504 73.9481 58.9008L74.3132 58.3338C74.3862 58.2237 74.375 58.086 74.3132 57.987H74.2964ZM73.437 57.7392L73.4539 57.7282L73.4427 57.7392C73.4427 57.7392 73.4427 57.7392 73.4314 57.7392H73.437Z" fill="#E89F5B"/>
<path d="M66.412 75.1217C66.412 75.1217 66.7097 75.6943 67.3781 75.8375C67.7994 75.9255 68.1533 76.1403 68.3779 76.4431C68.5689 76.6964 68.3836 77.0543 68.0634 77.0543H64.6876C64.4011 77.0543 64.1764 76.812 64.2045 76.5312C64.227 76.2834 64.2551 76.0026 64.2663 75.7824C64.2888 75.3034 64.7775 74.918 64.7775 74.918L66.4064 75.1272L66.412 75.1217Z" fill="#845151"/>
<path d="M68.7585 32.9746C68.034 32.9746 67.1297 33.2774 66.6411 33.7454C66.1244 34.2353 65.5852 34.2629 65.2033 34.8464C64.8045 35.452 64.5574 36.0796 64.7596 36.933C64.9786 37.8634 64.9337 38.7663 65.529 39.4489C65.8267 39.7848 66.3041 39.8233 66.6411 40.1371C67.2589 40.7097 67.9553 40.8913 68.7585 40.8913C70.2637 40.8913 71.2017 40.016 71.9711 38.9259C72.5889 38.0506 72.4654 37.4615 72.6114 36.7183C73.0663 34.3675 71.0669 32.9801 68.7585 32.9801V32.9746Z" fill="#4B4B4B"/>
<path d="M70.8819 42.4544L68.0004 43.8969L67.4219 41.9368C67.4219 41.9368 67.787 41.2596 67.9555 40.1474C68.0229 39.6794 68.0566 39.1398 68.0173 38.5342L70.3652 39.7124C70.3652 39.7124 70.309 39.9272 70.2697 40.241C70.2304 40.5824 70.2135 41.0394 70.309 41.4743C70.3933 41.8487 70.5618 42.2011 70.8819 42.4544Z" fill="#FFB27D"/>
<path d="M64.2111 56.6442C64.2111 56.6442 63.6664 63.7572 63.7843 75.0927C63.7843 75.0927 64.447 75.4341 65.239 75.5111C66.7273 75.6543 67.0868 75.0762 67.0868 75.0762C67.0868 75.0762 68.6088 69.5433 68.9908 67.0494C69.339 64.7536 71.6417 56.457 71.6417 56.457L64.2055 56.6387L64.2111 56.6442Z" fill="#2B478B"/>
<path d="M72.7861 42.6522C72.5278 42.5366 71.7246 42.2173 70.5171 42.0191C70.5283 42.4265 70.4216 42.8064 69.6971 42.9C68.731 43.0211 67.8661 42.377 67.428 41.9365C67.428 41.9365 66.7484 42.0081 65.9509 42.1788C65.5521 42.2668 65.1253 42.377 64.7433 42.5146C64.2772 42.6797 63.8784 42.889 63.665 43.1477C62.9236 44.0451 61.6992 46.7372 61.6992 46.7372C61.6992 46.7372 63.738 47.4749 64.2491 47.9099L64.2603 48.009L64.5805 50.602L63.6313 55.7715C63.6257 55.8156 63.62 55.8596 63.62 55.9092C63.62 56.256 63.8616 56.5643 64.2154 56.6469C64.2154 56.6469 64.2996 56.6579 64.4457 56.6799C65.451 56.8176 69.5398 57.2965 72.7412 56.4432C73.4601 56.2505 73.9375 55.5788 73.8757 54.8466L73.3534 48.4219C73.6342 48.3723 73.9543 48.3228 74.2127 48.2952C74.4317 48.2732 74.6058 48.2622 74.6789 48.2842C74.6789 48.2842 74.3194 43.2688 72.7861 42.6467V42.6522Z" fill="#9A594C"/>
<path d="M66.7439 52.1828C66.7045 53.9885 65.497 56.1026 64.4467 56.6752C64.2951 56.6531 64.2164 56.6421 64.2164 56.6421C63.8626 56.5595 63.6211 56.2457 63.6211 55.9044C63.6211 55.5631 63.6211 55.8163 63.6323 55.7668L64.5815 50.5972L64.2614 48.0042C64.2782 47.9601 64.2838 47.9326 64.2838 47.9326C64.2838 47.9326 66.8169 48.9952 66.7439 52.1828Z" fill="#874D42"/>
<path d="M74.2133 48.2952C73.9436 48.3228 73.3482 48.4219 73.3482 48.4219L73.0449 45.7295C73.0449 45.7295 74.0504 47.629 74.2076 48.2952H74.2133Z" fill="#874D42"/>
<path d="M63.7998 54.8476L64.0469 53.5042C68.22 47.5805 68.5401 46.5179 66.6586 43.8588C66.1194 43.0991 65.1421 42.6201 64.7434 42.5155C65.1253 42.3779 65.5521 42.2678 65.9509 42.1797C66.3497 42.3614 66.7091 42.543 66.9956 42.7798C72.7244 47.641 63.7998 54.842 63.7998 54.842V54.8476Z" fill="#2B8B78"/>
<path d="M68.6743 47.2443C67.0399 47.3544 66.8152 48.995 66.8152 48.995C66.8152 48.995 64.0688 49.2373 63.6644 49.4134C63.6644 49.4134 63.8891 48.8244 64.2822 47.9325C63.9228 47.5856 62.7489 47.0736 61.9682 46.8369C61.3729 48.3234 61.1482 49.7933 61.4796 51.2082C61.5133 51.3568 61.6481 51.4669 61.8054 51.4724C62.6759 51.511 65.5628 51.5 67.6746 49.7823L67.7139 49.7713C68.2193 49.7438 68.6967 49.2483 68.8765 48.6041C69.0562 47.9545 69.0731 48.1527 69.2135 47.7013C69.3539 47.2443 68.6743 47.2388 68.6743 47.2388V47.2443Z" fill="#FFB27D"/>
<path d="M70.3096 41.4738C68.9727 41.4407 67.9561 40.1523 67.9561 40.1523L70.2702 40.2459C70.2309 40.5873 70.2141 41.0443 70.3096 41.4793V41.4738Z" fill="#E89F5B"/>
<path d="M70.4387 40.6822C70.4387 40.6822 67.4898 41.0346 67.428 38.9974C67.3662 36.9602 68.5964 35.6443 69.4164 35.6553C71.051 35.6829 71.3206 36.3326 71.5116 37.0098C71.7025 37.6815 71.798 40.5391 70.4443 40.6822H70.4387Z" fill="#FFB27D"/>
<path d="M69.6523 39.5087C69.6523 39.5087 69.7141 39.7624 70.3601 39.7183C70.3601 39.7183 70.9049 39.6797 70.8825 39.3984C70.8825 39.3984 70.3545 39.2054 69.6523 39.5087Z" fill="#009CB5" fill-opacity="0.08"/>
<path d="M70.1485 35.6771C70.1485 35.6771 67.6265 35.6771 68.2106 37.373C68.5758 38.4411 67.3625 38.6063 67.3625 38.6063L66.7783 36.8939L67.1434 35.5615L70.1485 35.6827V35.6771Z" fill="#4B4B4B"/>
</svg>
