<svg width="120" height="78" viewBox="0 0 120 78" fill="none" xmlns="http://www.w3.org/2000/svg">
<ellipse cx="53.7008" cy="18.3598" rx="2.65192" ry="2.6227" fill="#009CB5" fill-opacity="0.08"/>
<ellipse cx="109.724" cy="58.0269" rx="4.97235" ry="4.91757" fill="#009CB5" fill-opacity="0.08"/>
<ellipse cx="43.4246" cy="12.1298" rx="4.30937" ry="4.26189" fill="#009CB5" fill-opacity="0.08"/>
<ellipse cx="46.408" cy="20.9808" rx="1.32596" ry="1.31135" fill="#009CB5" fill-opacity="0.08"/>
<ellipse cx="117.349" cy="49.8317" rx="2.65192" ry="2.6227" fill="#009CB5" fill-opacity="0.08"/>
<ellipse cx="1.65745" cy="74.419" rx="1.65745" ry="1.63919" fill="#009CB5" fill-opacity="0.08"/>
<ellipse cx="5.6351" cy="76.3866" rx="0.994471" ry="0.983514" fill="#009CB5" fill-opacity="0.08"/>
<ellipse cx="118.674" cy="57.7005" rx="1.32596" ry="1.31135" fill="#009CB5" fill-opacity="0.08"/>
<ellipse cx="31.5478" cy="49.3864" rx="30.2763" ry="28.5441" fill="#009CB5" fill-opacity="0.08"/>
<ellipse cx="86.85" cy="28.1941" rx="28.5082" ry="28.1941" fill="#009CB5" fill-opacity="0.08"/>
<path d="M62.7402 78.0003C87.5929 78.0003 107.74 76.4407 107.74 74.5191C107.74 72.5974 87.5929 71.0378 62.7402 71.0378C37.8876 71.0378 17.7402 72.5942 17.7402 74.5191C17.7402 76.4439 37.8876 78.0003 62.7402 78.0003Z" fill="#404040" fill-opacity="0.1"/>
<path d="M93.255 34.3045C92.7768 34.0631 89.0598 34.187 87.7846 36.2198C86.6019 38.1065 86.7709 38.6941 87.0865 38.7799C87.0195 38.8942 86.9558 39.0118 86.892 39.1293C86.6433 39.5994 86.4266 40.0885 86.2417 40.5872C86.213 40.6666 86.1843 40.7492 86.1556 40.8286C86.1397 40.8477 86.1237 40.8635 86.111 40.8826L86.1046 40.889C86.0791 40.9239 86.0791 40.9684 86.095 41.0065C85.8017 41.8768 85.5882 42.7725 85.483 43.6968C85.4766 43.7667 85.5276 43.827 85.5945 43.8334C85.6615 43.8397 85.7221 43.7889 85.7284 43.7222V43.7159C85.8113 42.8201 86.0058 41.9244 86.2799 41.0573C86.2895 41.0509 86.2991 41.0414 86.3054 41.0319C86.4648 40.8 86.6593 40.5777 86.8665 40.3807C87.0769 40.1838 87.3064 40.0059 87.5614 39.8725C87.8133 39.736 88.097 39.6534 88.3871 39.6502C88.419 39.6502 88.4509 39.6565 88.4827 39.6565C88.5784 39.7074 88.741 39.8122 88.8685 40.0028C89.0629 40.295 89.8854 42.9694 90.7971 42.7947C91.6834 42.6264 91.559 39.8979 88.6613 39.6343C88.572 39.6121 88.4828 39.593 88.3871 39.5867C88.0875 39.5676 87.7814 39.6375 87.5073 39.7614C87.2299 39.8821 86.9781 40.0536 86.7454 40.2442C86.6497 40.3236 86.5605 40.4062 86.4712 40.4887C86.6306 40.0504 86.8155 39.6216 87.0259 39.2023C87.0896 39.0785 87.1534 38.9546 87.2235 38.8339C87.3606 38.8847 87.7368 38.8784 88.5051 37.9382C89.5188 36.6994 91.1287 35.5147 92.3337 35.1653C93.5387 34.8159 93.7332 34.5491 93.2518 34.3077L93.255 34.3045Z" fill="#799D3E"/>
<path d="M33.6302 50.4641C34.0414 50.2577 37.2356 50.3625 38.3323 52.1095C39.3492 53.7294 39.2026 54.2344 38.9316 54.3106C38.989 54.4091 39.0464 54.5107 39.0974 54.6092C39.3109 55.0158 39.4958 55.435 39.6584 55.8638C39.6839 55.9337 39.7062 56.0004 39.7317 56.0703C39.7445 56.0862 39.7572 56.0989 39.77 56.1148V56.1211C39.7955 56.1529 39.7955 56.1878 39.7827 56.2196C40.0346 56.9692 40.2195 57.7379 40.3087 58.5319C40.3151 58.5923 40.2705 58.6431 40.2131 58.6495C40.1557 58.6558 40.1047 58.6113 40.0983 58.5542V58.5478C40.025 57.7791 39.8593 57.0073 39.6234 56.2641C39.6138 56.2577 39.6074 56.2513 39.601 56.2418C39.464 56.0417 39.295 55.8511 39.1197 55.6796C38.9412 55.5081 38.7435 55.3556 38.5235 55.2413C38.3068 55.1238 38.0645 55.0507 37.8126 55.0507C37.784 55.0507 37.7585 55.0539 37.7298 55.0571C37.6469 55.1015 37.5066 55.1905 37.3982 55.3556C37.2325 55.6066 36.5247 57.9062 35.7405 57.7569C34.9786 57.614 35.0838 55.2667 37.5767 55.038C37.6532 55.0189 37.7298 55.0031 37.8126 54.9967C38.0709 54.9808 38.3323 55.038 38.5714 55.146C38.8104 55.2508 39.0272 55.3969 39.2281 55.5621C39.3109 55.6288 39.3875 55.7018 39.464 55.7749C39.3269 55.3969 39.1675 55.0285 38.989 54.6696C38.9348 54.5616 38.8774 54.4567 38.82 54.3519C38.7021 54.3964 38.3801 54.39 37.7202 53.5833C36.8499 52.5192 35.4664 51.4996 34.4303 51.201C33.3943 50.9025 33.2285 50.6706 33.6397 50.4641H33.6302Z" fill="#799D3E"/>
<path d="M43.9688 52.0156C43.9688 52.0156 45.7732 38.9578 42.1804 40.2442C38.5845 41.5338 40.2358 46.7683 43.9688 52.0156Z" fill="#A3CE5F"/>
<g style="mix-blend-mode:soft-light" opacity="0.2">
<path d="M43.9555 42.42C43.7738 42.2771 43.7037 42.0198 43.6208 41.8165C43.5252 41.5751 43.4168 41.3401 43.2287 41.1558C42.996 40.9272 42.6995 40.8065 42.3807 40.762C42.0747 40.7207 41.7463 40.7588 41.4498 40.6635C41.4371 40.6603 41.4307 40.6508 41.418 40.6476C41.6411 40.492 41.8866 40.3522 42.1799 40.2474C43.3371 39.8313 43.9332 40.9113 44.2137 42.5598C44.1213 42.5217 44.032 42.4804 43.9587 42.4232L43.9555 42.42Z" fill="#A3CE5F"/>
</g>
<path opacity="0.15" d="M40.5267 42.5115C40.5395 43.4867 40.5809 44.4459 40.8774 45.3829C41.0017 45.7768 41.1516 46.1706 41.3205 46.5486C41.4512 46.844 41.6266 47.1457 41.9039 47.33C42.5032 47.7238 43.2109 47.3204 43.6349 46.8631C43.8963 46.5804 44.1227 46.2278 44.4191 45.9928C44.3873 48.988 43.9696 52.015 43.9696 52.015C41.1324 48.0256 39.513 44.0552 40.4726 41.8127C40.5204 42.0414 40.5236 42.2892 40.5267 42.5115Z" fill="#A3CE5F"/>
<path d="M44.207 51.8877C44.207 51.8877 36.8558 39.0047 31.7838 43.4356C26.7119 47.8634 44.207 51.8877 44.207 51.8877Z" fill="#A3CE5F"/>
<g style="mix-blend-mode:soft-light" opacity="0.2">
<path d="M39.3146 45.4605C39.1106 45.4891 38.897 45.505 38.693 45.5018C38.6802 45.5018 38.6675 45.5018 38.6547 45.5018C38.6739 45.4954 38.4762 45.4637 38.4475 45.4541C38.2435 45.3811 38.0713 45.2604 37.912 45.1175C37.6027 44.8348 37.3445 44.5108 36.9747 44.298C36.1586 43.8247 35.164 43.7358 34.2555 43.5579C33.8538 43.4785 33.1652 43.4467 32.9994 42.9957C32.9644 42.9036 32.9644 42.8115 32.9835 42.7225C35.0652 41.9666 37.3796 43.4594 39.3624 45.4541C39.3465 45.4541 39.3306 45.4637 39.3146 45.4637V45.4605Z" fill="#A3CE5F"/>
</g>
<path opacity="0.15" d="M31.9638 46.7432C32.646 47.1942 33.4015 47.4451 34.2208 47.4578C34.648 47.4642 35.0879 47.4292 35.5087 47.5245C35.9295 47.6198 36.2356 47.8453 36.5161 48.163C37.0453 48.7506 37.5362 49.2715 38.2822 49.5828C39.06 49.9068 39.9144 49.9608 40.7496 49.9385C41.0875 49.929 41.4159 49.8877 41.7506 49.8528C42.0056 49.8273 42.3467 49.7765 42.5858 49.9068C42.895 50.0751 42.8918 50.5992 42.8376 50.8978C42.7994 51.1074 42.7165 51.3075 42.6049 51.4886C39.0919 50.5452 31.0106 48.0645 30.8672 45.1741C31.1063 45.7966 31.3613 46.3461 31.967 46.7463L31.9638 46.7432Z" fill="#A3CE5F"/>
<path d="M34.0077 67.477H97.4751L96.5633 63.8623L94.4211 55.299C92.9037 49.2545 87.6341 45.4716 82.1924 46.5293L79.4445 47.0724C79.2372 47.1105 79.0364 47.1328 78.8388 47.1328C77.6242 47.1328 76.4734 46.4403 75.788 45.2651C71.0731 37.2068 60.4097 38.2042 56.9094 47.0343L56.4408 48.2191C55.6151 50.3091 53.4601 51.2461 51.6239 50.3091L48.8823 48.9115C47.2788 48.092 45.4936 48.705 44.5054 50.1471C44.142 50.6712 43.8806 51.3033 43.7785 52.0147L43.3705 54.721C43.2653 55.3912 43.0421 55.9851 42.7202 56.4774C42.6596 56.5664 42.599 56.6553 42.5385 56.7347C41.9838 57.4653 41.2282 57.9512 40.4058 58.1164C40.1986 58.1672 39.9722 58.1863 39.7555 58.1863C39.0669 58.1863 38.3719 57.9703 37.7375 57.4907C36.3094 56.4044 34.3966 56.6744 33.1852 58.0592L31.3427 60.1556C28.9709 62.8586 30.6509 67.4801 34.0045 67.4801L34.0077 67.477Z" fill="#A3CE5F"/>
<path d="M32.3262 71.6439H97.3333L96.31 65.485C93.0966 60.5046 88.6559 58.0652 84.1387 59.412L81.735 60.1171L80.4407 60.4887C80.157 60.5713 79.8765 60.6062 79.6023 60.6062C78.9998 60.6062 78.4037 60.422 77.849 60.0504C76.9149 59.4278 76.0957 58.3352 75.5123 56.8201C74.693 54.6824 73.7303 52.8656 72.6783 51.3696C72.2702 50.7629 71.8494 50.2261 71.4127 49.7369C69.0473 47.0276 66.3312 45.684 63.6024 45.6332C62.0053 45.5824 60.4177 45.9857 58.9003 46.8433C55.2087 48.8635 51.938 53.4564 50.1177 60.4379L49.4833 62.8265C48.3644 67.1176 45.4538 69.0171 42.98 67.0986L41.1119 65.6502L39.3108 64.2526C38.4915 63.6142 37.6372 63.4109 36.8179 63.5475C34.6948 63.9001 32.8267 66.6253 32.4346 70.5798L32.3262 71.6407V71.6439Z" fill="#A3CE5F"/>
<path d="M47.3086 47.3275C47.3086 47.9469 47.8123 48.4519 48.4371 48.4519C49.0619 48.4519 49.5656 47.9501 49.5656 47.3275C49.5656 46.705 49.0619 46.2031 48.4371 46.2031C47.8123 46.2031 47.3086 46.705 47.3086 47.3275Z" fill="#A3CE5F"/>
<path d="M61.3027 51.0917C61.3027 51.7111 61.8064 52.2161 62.4312 52.2161C63.0561 52.2161 63.5597 51.7143 63.5597 51.0917C63.5597 50.4691 63.0561 49.9673 62.4312 49.9673C61.8064 49.9673 61.3027 50.4691 61.3027 51.0917Z" fill="#A3CE5F"/>
<path opacity="0.15" d="M63.4355 40.1682C63.4355 41.3657 64.4079 42.3344 65.6097 42.3344C66.8115 42.3344 67.7838 41.3657 67.7838 40.1682C67.7838 38.9707 66.8115 38.002 65.6097 38.002C64.4079 38.002 63.4355 38.9707 63.4355 40.1682Z" fill="#A3CE5F"/>
<path d="M63.5859 39.6589C63.5859 40.8564 64.5582 41.8251 65.7601 41.8251C66.9619 41.8251 67.9342 40.8564 67.9342 39.6589C67.9342 38.4614 66.9619 37.4927 65.7601 37.4927C64.5582 37.4927 63.5859 38.4614 63.5859 39.6589Z" fill="#A3CE5F"/>
<path d="M47.3545 58.3941C47.3545 58.3941 52.4424 52.0034 50.1184 51.5619C47.7945 51.1204 47.023 54.4269 47.3545 58.3941Z" fill="#A3CE5F"/>
<g style="mix-blend-mode:soft-light" opacity="0.2">
<path d="M50.3697 52.4317C50.1369 52.3523 49.9234 52.2856 49.6779 52.2634C49.1902 52.2189 48.6323 52.3174 48.2306 52.6064C48.0744 52.7207 47.9692 52.8605 47.8672 53.0098C48.3231 51.9426 49.0595 51.3581 50.1178 51.5582C50.6056 51.6503 50.765 52.0061 50.714 52.5111C50.596 52.5111 50.4589 52.4603 50.3665 52.4317H50.3697Z" fill="#A3CE5F"/>
</g>
<path opacity="0.15" d="M48.4279 56.3059C48.6383 56.2583 48.8455 56.1661 49.0368 56.0518C48.1952 57.335 47.3536 58.3959 47.3536 58.3959C47.2834 57.5605 47.2643 56.7569 47.2962 56.0105C47.5831 56.3408 48.0135 56.398 48.4279 56.3091V56.3059Z" fill="#A3CE5F"/>
<path d="M47.3537 58.3936C47.3537 58.3936 44.1467 49.7986 40.6082 52.0029C37.0696 54.2073 47.3537 58.3936 47.3537 58.3936Z" fill="#A3CE5F"/>
<g style="mix-blend-mode:soft-light" opacity="0.2">
<path d="M44.8461 54.2906C44.5815 54.0556 44.4221 53.7348 44.1448 53.5092C43.8451 53.2678 43.4977 53.1186 43.1438 52.9756C42.8059 52.839 42.4106 52.7183 42.2034 52.3975C42.0791 52.207 42.0217 51.8957 42.1205 51.6733C43.3638 51.8671 44.505 53.1344 45.404 54.5225C45.2 54.4939 45.0023 54.4335 44.8461 54.2938V54.2906Z" fill="#A3CE5F"/>
</g>
<path opacity="0.15" d="M43.0446 55.6189C43.4973 55.6887 44.1221 55.6983 44.5047 55.9778C44.6959 56.1175 44.8203 56.3303 45.0211 56.4701C45.2124 56.6035 45.4387 56.6766 45.665 56.7306C46.0093 56.8131 46.3472 56.8322 46.6565 56.7782C47.0996 57.7089 47.3546 58.3918 47.3546 58.3918C47.3546 58.3918 43.8894 56.9783 41.6738 55.3647C42.1265 55.4886 42.5983 55.5521 43.0446 55.622V55.6189Z" fill="#A3CE5F"/>
<path d="M47.3535 58.395C47.3535 58.395 59.1869 56.9625 56.203 55.0885C53.216 53.2145 47.3535 58.395 47.3535 58.395Z" fill="#A3CE5F"/>
<g style="mix-blend-mode:soft-light" opacity="0.2">
<path d="M55.3188 55.7477C54.7513 55.7922 54.2094 55.5762 53.6515 55.519C52.8832 55.4396 52.2425 55.6619 51.522 55.8811C51.2319 55.97 50.9259 56.0431 50.623 56.059C52.4401 55.0045 54.627 54.1723 56.1317 55.0457C56.1444 55.3856 55.7141 55.7159 55.3188 55.7477Z" fill="#A3CE5F"/>
</g>
<path opacity="0.15" d="M50.7589 57.7272C51.1191 57.7049 51.4793 57.6827 51.8332 57.6096C52.1998 57.5366 52.56 57.4191 52.9266 57.3397C53.153 57.292 53.3857 57.2698 53.6152 57.2666C50.896 57.9622 47.3574 58.391 47.3574 58.391C47.3574 58.391 47.9089 57.9082 48.7505 57.292C48.7792 57.346 48.8175 57.3968 48.8685 57.4445C49.0821 57.6509 49.4264 57.6859 49.7069 57.7176C50.0576 57.7589 50.4114 57.7462 50.7621 57.7272H50.7589Z" fill="#A3CE5F"/>
<path d="M81.4255 67.0066C81.4255 67.0066 79.8315 55.4766 83.0067 56.6169C86.1818 57.754 84.7249 62.3756 81.4255 67.0066Z" fill="#799D3E"/>
<g style="mix-blend-mode:soft-light" opacity="0.2">
<path d="M81.4399 58.5345C81.6025 58.4075 81.6631 58.1819 81.7364 58.0009C81.8225 57.7881 81.9181 57.5816 82.0839 57.4164C82.2879 57.2163 82.5493 57.1084 82.8331 57.0671C83.104 57.0289 83.3941 57.0671 83.6555 56.9781C83.6651 56.9749 83.6746 56.9686 83.6842 56.9654C83.4866 56.8288 83.2698 56.705 83.0116 56.6128C81.9883 56.2476 81.4623 57.1973 81.2168 58.652C81.2997 58.6203 81.3794 58.5822 81.4431 58.5313L81.4399 58.5345Z" fill="#799D3E"/>
</g>
<path opacity="0.15" d="M84.4651 58.6179C84.4524 59.4787 84.4173 60.3236 84.1559 61.1526C84.0475 61.4988 83.9136 61.8482 83.7638 62.1817C83.6458 62.4422 83.4928 62.709 83.2473 62.871C82.7182 63.2204 82.0933 62.8614 81.7172 62.4581C81.4844 62.2103 81.2868 61.8959 81.0254 61.6894C81.0541 64.3353 81.4207 67.0065 81.4207 67.0065C83.9264 63.484 85.3545 59.9805 84.5097 57.9985C84.4683 58.2018 84.4651 58.4178 84.4619 58.6179H84.4651Z" fill="#799D3E"/>
<path d="M81.2168 66.895C81.2168 66.895 87.7073 55.5238 92.1831 59.4338C96.662 63.3439 81.2168 66.895 81.2168 66.895Z" fill="#799D3E"/>
<g style="mix-blend-mode:soft-light" opacity="0.2">
<path d="M85.5317 61.2191C85.7134 61.2445 85.8983 61.2573 86.08 61.2541C86.0927 61.2541 86.1023 61.2541 86.1151 61.2541C86.0991 61.2509 86.2713 61.2191 86.2968 61.2096C86.4785 61.1461 86.6283 61.0381 86.7686 60.911C87.0427 60.6601 87.2691 60.3774 87.5942 60.1868C88.3147 59.7676 89.1914 59.6913 89.9947 59.5325C90.3485 59.4626 90.9574 59.4341 91.1041 59.037C91.1328 58.9544 91.1328 58.875 91.12 58.7956C89.2806 58.1286 87.2404 59.4468 85.4902 61.2064C85.503 61.2064 85.5189 61.2128 85.5317 61.216V61.2191Z" fill="#799D3E"/>
</g>
<path opacity="0.15" d="M92.0219 62.3536C91.4194 62.7538 90.7532 62.973 90.0295 62.9857C89.6534 62.9921 89.2644 62.9603 88.8946 63.0429C88.5217 63.1255 88.2539 63.3256 88.0052 63.6051C87.5398 64.126 87.1062 64.5834 86.4464 64.8597C85.761 65.1456 85.0054 65.1932 84.269 65.1742C83.9694 65.1646 83.6825 65.1297 83.386 65.0979C83.1597 65.0757 82.86 65.0312 82.6496 65.1456C82.3786 65.2949 82.3786 65.7554 82.4265 66.0191C82.4615 66.2033 82.5316 66.3812 82.6305 66.54C85.7323 65.7078 92.8667 63.5161 92.9942 60.9656C92.7838 61.5151 92.5575 62.0011 92.0251 62.3536H92.0219Z" fill="#799D3E"/>
<path d="M90.3465 73.1565H34.3164L35.1197 70.3646L37.0102 63.7547C38.3491 59.0887 43.0002 56.1697 47.8075 56.9828L50.2335 57.4021C50.4183 57.4339 50.5937 57.4466 50.769 57.4466C51.8401 57.4466 52.8571 56.913 53.4628 56.0045C57.6261 49.7822 67.0367 50.554 70.129 57.3703L70.5434 58.2851C71.2734 59.8987 73.1766 60.6197 74.796 59.8987L77.2156 58.8187C78.631 58.1867 80.209 58.6599 81.0793 59.7716C81.4013 60.175 81.6308 60.6642 81.7233 61.2137L82.0835 63.3037C82.1759 63.8214 82.3736 64.2788 82.6573 64.6599C82.7115 64.7298 82.7657 64.7965 82.8167 64.8569C83.3076 65.4223 83.9707 65.7939 84.6975 65.9241C84.8824 65.9622 85.0801 65.9781 85.2714 65.9781C85.877 65.9781 86.4923 65.8129 87.0534 65.4413C88.3126 64.6028 90.0022 64.8124 91.0733 65.8796L92.6991 67.4996C94.7935 69.5864 93.3112 73.1534 90.3496 73.1534L90.3465 73.1565Z" fill="#799D3E"/>
<path opacity="0.15" d="M86.4809 71.3434C86.1334 70.2825 84.8264 69.2756 83.666 69.5329C83.5257 69.5647 83.4078 69.4916 83.3631 69.3614C83.0985 68.6404 83.4237 67.481 82.6299 67.0363C82.0274 66.6996 81.1571 66.9029 80.6184 67.2745C79.2189 68.2433 79.254 70.0474 78.9926 71.5562C78.9607 71.7341 78.6961 71.7976 78.5781 71.6642C78.2785 71.3211 78.0776 70.8701 77.8481 70.4794C77.5261 69.9363 77.1978 69.3931 76.812 68.8913C76.5698 68.5768 76.1936 68.0432 75.7664 67.9733C75.2149 67.8812 75.2532 68.869 75.3233 69.1962C75.5018 70.0062 75.9577 70.7145 76.1713 71.5117C76.2032 71.6356 76.1298 71.7849 75.9991 71.8135C75.6517 71.8897 75.3488 71.7595 75.0651 71.5625C74.7081 71.318 74.4435 71.0893 74.0067 70.9908C73.3978 70.8542 72.4128 70.8542 72.0653 70.219C71.941 69.9935 71.9792 69.7108 71.9824 69.4662C71.992 68.9866 72.0398 68.5101 72.043 68.0305C72.0494 67.0903 71.8358 66.1978 71.3863 65.3688C70.6626 64.0379 69.5023 62.8881 68.2972 61.9828C67.1018 61.0839 65.7438 60.3852 64.2901 60.0167C61.5198 59.3147 58.3479 59.9564 56.585 62.3354C55.8135 63.374 55.3609 64.6192 55.1632 65.8897C54.9337 67.3762 55.1122 68.904 55.2939 70.3873C55.4055 71.3148 55.5617 72.2391 55.7625 73.1507H86.2737C86.5829 72.6234 86.6913 72.0009 86.4745 71.3402L86.4809 71.3434Z" fill="#799D3E"/>
<g style="mix-blend-mode:soft-light" opacity="0.2">
<path d="M62.3309 53.8057C63.0992 54.2567 64.0301 54.3393 64.878 54.5553C65.6112 54.7395 66.2903 55.0412 66.8704 55.5304C67.7567 56.2736 68.2699 57.3345 68.8629 58.3033C69.5738 59.4658 70.5524 60.6093 71.9041 61.019C73.396 61.4701 74.6712 60.406 76.1025 60.1932C77.247 60.0249 78.4169 60.1837 79.4147 60.7935C80.4189 61.4065 81.1585 62.3753 81.7036 63.4013C82.236 64.3986 82.7684 65.3992 83.8459 65.8978C85.2358 66.5426 86.7978 66.3743 88.1622 65.7708C88.6404 65.5611 89.0612 65.3039 89.4756 65.018C88.6595 64.8338 87.7829 64.9576 87.0497 65.4436C86.4918 65.8152 85.8765 65.9804 85.2677 65.9804C85.0764 65.9804 84.8755 65.9645 84.6938 65.9264C83.967 65.7962 83.3007 65.4246 82.813 64.8592C82.7588 64.7988 82.7046 64.729 82.6536 64.6623C82.3699 64.2811 82.1722 63.8237 82.0798 63.306L81.7196 61.216C81.6271 60.6665 81.3976 60.1805 81.0756 59.7739C80.2021 58.6622 78.6273 58.189 77.2119 58.821L74.7923 59.901C73.1697 60.6252 71.2665 59.901 70.5397 58.2874L70.1253 57.3726C68.3369 53.4277 64.4285 51.5124 60.6445 51.8014C61.0653 52.5923 61.5403 53.3451 62.3277 53.8057H62.3309Z" fill="#799D3E"/>
</g>
<path d="M85.4021 73.1548H34.3164L35.1197 70.3628C37.6445 68.1076 41.1353 66.9991 44.6834 67.609L46.5738 67.9298L47.5907 68.0981C47.8139 68.1362 48.0338 68.1521 48.2474 68.1521C48.7224 68.1521 49.1878 68.0695 49.6246 67.9012C50.3578 67.6185 51.0017 67.123 51.4608 66.4369C52.1047 65.4681 52.8603 64.6455 53.6891 63.9658C54.0111 63.6926 54.3394 63.448 54.6837 63.2257C56.5422 61.9996 58.6781 61.3898 60.8204 61.3644C62.0764 61.3421 63.3229 61.5232 64.5151 61.9139C67.4161 62.8286 69.9855 64.9091 71.4169 68.0759L71.9142 69.159C72.794 71.1029 75.0829 71.9637 77.0243 71.0965L78.4939 70.4422L79.9093 69.8101C80.5533 69.5211 81.2259 69.429 81.8667 69.4893C83.534 69.6482 85.0036 70.8837 85.3096 72.6752L85.3925 73.1548H85.4021Z" fill="#799D3E"/>
<path d="M78.4717 62.866C78.4717 63.4155 78.0254 63.857 77.477 63.857C76.9287 63.857 76.4824 63.4123 76.4824 62.866C76.4824 62.3197 76.9287 61.875 77.477 61.875C78.0254 61.875 78.4717 62.3197 78.4717 62.866Z" fill="#799D3E"/>
<path d="M66.122 66.1885C66.122 66.738 65.6757 67.1795 65.1274 67.1795C64.5791 67.1795 64.1328 66.7348 64.1328 66.1885C64.1328 65.6422 64.5791 65.1975 65.1274 65.1975C65.6757 65.1975 66.122 65.6422 66.122 66.1885Z" fill="#799D3E"/>
<path opacity="0.15" d="M64.2366 56.5476C64.2366 57.6053 63.3759 58.4598 62.3175 58.4598C61.2592 58.4598 60.3984 57.6022 60.3984 56.5476C60.3984 55.4931 61.2592 54.6355 62.3175 54.6355C63.3759 54.6355 64.2366 55.4931 64.2366 56.5476Z" fill="#799D3E"/>
<path d="M64.1058 56.0923C64.1058 57.15 63.2451 58.0044 62.1867 58.0044C61.1283 58.0044 60.2676 57.1468 60.2676 56.0923C60.2676 55.0378 61.1283 54.1802 62.1867 54.1802C63.2451 54.1802 64.1058 55.0378 64.1058 56.0923Z" fill="#799D3E"/>
<path d="M78.4446 72.6307C78.4446 72.6307 73.9529 66.9864 76.0027 66.5989C78.0525 66.2082 78.7378 69.1272 78.4446 72.6307Z" fill="#799D3E"/>
<g style="mix-blend-mode:soft-light" opacity="0.2">
<path d="M75.7827 67.3702C75.9867 67.3003 76.178 67.2399 76.3916 67.2209C76.8219 67.1828 77.3129 67.2685 77.6699 67.5258C77.8102 67.6243 77.8994 67.7481 77.9919 67.8815C77.587 66.9382 76.9399 66.4236 76.0027 66.6015C75.5723 66.6841 75.432 66.9985 75.4767 67.4432C75.5819 67.4432 75.703 67.3988 75.7827 67.3733V67.3702Z" fill="#799D3E"/>
</g>
<path opacity="0.15" d="M77.4938 70.788C77.3057 70.7468 77.1272 70.6642 76.9551 70.5625C77.6979 71.6965 78.4438 72.6303 78.4438 72.6303C78.5044 71.8934 78.5235 71.1851 78.4948 70.5244C78.2398 70.8166 77.8604 70.8675 77.497 70.788H77.4938Z" fill="#799D3E"/>
<path d="M78.4395 72.631C78.4395 72.631 81.2703 65.0429 84.3944 66.9868C87.5185 68.9338 78.4395 72.631 78.4395 72.631Z" fill="#799D3E"/>
<g style="mix-blend-mode:soft-light" opacity="0.2">
<path d="M80.655 69.0081C80.8877 68.8017 81.028 68.5158 81.2766 68.3157C81.5412 68.1029 81.8473 67.9695 82.1597 67.8424C82.4593 67.7217 82.8068 67.6138 82.9917 67.3311C83.1033 67.1627 83.1543 66.8896 83.065 66.6926C81.9652 66.861 80.9578 67.9822 80.1641 69.2051C80.3426 69.1797 80.5179 69.1257 80.655 69.005V69.0081Z" fill="#799D3E"/>
</g>
<path opacity="0.15" d="M82.249 70.1833C81.8473 70.2436 81.2958 70.2532 80.9579 70.5009C80.7889 70.6248 80.6773 70.8122 80.502 70.9361C80.333 71.0536 80.1322 71.1203 79.9346 71.1648C79.6317 71.2378 79.3321 71.2569 79.0579 71.2092C78.6658 72.0287 78.4395 72.6322 78.4395 72.6322C78.4395 72.6322 81.4998 71.3839 83.454 69.9578C83.0555 70.0658 82.6379 70.1229 82.2458 70.1833H82.249Z" fill="#799D3E"/>
<path d="M78.4419 72.6314C78.4419 72.6314 67.9952 71.3673 70.6316 69.7124C73.268 68.0576 78.4419 72.6314 78.4419 72.6314Z" fill="#799D3E"/>
<g style="mix-blend-mode:soft-light" opacity="0.2">
<path d="M71.4188 70.2954C71.9192 70.3335 72.3974 70.143 72.8884 70.0953C73.5674 70.0254 74.1316 70.2224 74.7692 70.4161C75.0242 70.4924 75.2952 70.5591 75.563 70.5718C73.9595 69.6411 72.0276 68.9074 70.7015 69.676C70.6887 69.9746 71.0713 70.27 71.4188 70.2954Z" fill="#799D3E"/>
</g>
<path opacity="0.15" d="M75.4357 72.0433C75.1201 72.0242 74.8013 72.002 74.4889 71.9416C74.1637 71.8749 73.8481 71.7733 73.5229 71.7034C73.3221 71.6589 73.1181 71.6431 72.9141 71.6399C75.3145 72.2529 78.4386 72.6341 78.4386 72.6341C78.4386 72.6341 77.9509 72.2085 77.2081 71.6621C77.1826 71.7098 77.1476 71.7542 77.1061 71.7955C76.918 71.9766 76.612 72.0083 76.3633 72.0369C76.0541 72.0719 75.7417 72.0623 75.4325 72.0433H75.4357Z" fill="#799D3E"/>
<path d="M73.0959 36.6047C73.0832 36.8524 73.0768 37.0938 73.0736 37.332C73.2617 37.5321 73.453 37.7322 73.6411 37.9324C74.3838 38.7042 75.1872 39.476 76.1978 39.8858C77.3071 40.3368 78.4643 39.9207 79.6438 39.9334C85.4011 39.9938 86.2236 35.2547 85.9303 33.3934C85.586 31.2113 83.8391 29.7153 83.8199 28.5496C83.8008 27.3839 82.7903 24.665 80.4312 23.4643C78.4643 22.4574 77.5685 23.3436 75.4932 25.7894C74.7409 26.6755 74.1734 27.0948 73.6889 27.387C72.8345 27.9048 72.2225 28.0445 71.282 29.7057C69.8093 32.3135 73.2681 33.1076 73.0959 36.6078V36.6047Z" fill="black"/>
<path d="M75.5521 36.1913C72.8998 36.5693 68.9436 42.5598 68.1626 46.7747C68.1626 46.7747 66.5209 48.328 66.0012 49.6493C65.7717 50.2274 65.2903 53.68 69.696 51.4503C74.1016 49.2173 79.6899 35.6037 75.5521 36.1913Z" fill="#A486CA"/>
<path d="M80.5895 71.036L83.9623 60.4875H71.1215C71.1215 60.4875 69.7029 63.9847 68.8613 71.036H80.5863H80.5895Z" fill="#232F6B"/>
<g style="mix-blend-mode:multiply" opacity="0.35">
<path d="M73.6008 69.5622C73.2979 69.9879 73.2533 70.4961 73.2947 71.036H80.5918L83.9645 60.4875H71.1238C71.1238 60.4875 70.7349 61.45 70.2439 63.3685C70.4639 63.5463 70.6966 63.7115 70.9453 63.8227C71.3214 63.9942 71.7518 64.0291 72.1503 64.1054C72.5105 64.1752 72.8452 64.2769 73.1194 64.5278C73.3362 64.7247 73.4701 64.9852 73.5561 65.2615C73.7633 65.9317 70.1069 64.2197 70.0686 64.909C70.0272 65.6427 75.2489 67.2499 73.6008 69.5559V69.5622Z" fill="#202234"/>
</g>
<path d="M89.0686 71.036C89.6201 67.3515 89.5691 63.4256 87.8859 60.4875H77.0089C77.0089 60.4875 76.0589 65.3123 75.7751 71.036H89.0686Z" fill="#263C8A"/>
<path d="M77.1146 70.4167C77.6374 70.5246 78.1411 70.7406 78.5874 71.036H89.066C89.6175 67.3515 89.5665 63.4256 87.8833 60.4875H77.0062C77.0062 60.4875 76.1296 64.9439 75.8108 70.3658C76.2412 70.2991 76.6875 70.3277 77.1146 70.4167Z" fill="#565656"/>
<path d="M77.6286 35.3865C80.7368 35.2849 88.4355 36.0535 87.5939 44.782C86.8671 52.313 89.2102 61.6164 89.2102 61.6164C89.2102 61.6164 85.5856 66.8001 78.9389 64.9896C75.0847 63.9382 72.0435 61.0542 70.7683 61.1526C70.0479 61.2066 73.969 52.872 73.5131 50.6804C72.1009 43.8958 71.5876 35.5834 77.6255 35.3865H77.6286Z" fill="#A486CA"/>
<path d="M75.5089 55.3681C75.4674 55.0251 75.3176 54.6249 74.9446 54.5264C74.7502 54.4756 74.6035 54.6122 74.4983 54.771C74.1381 55.3141 74.0361 56.0447 73.9309 56.6736C73.8767 56.9976 73.8321 57.3247 73.7842 57.6519C73.746 57.9187 73.7109 58.1696 73.6025 58.4206C73.4304 58.8176 73.1499 59.1575 72.7609 59.3576C72.4135 59.5354 72.0245 59.6053 71.6452 59.6784C71.4157 59.7228 71.1797 59.7864 70.9566 59.8721C70.7016 60.6694 70.5932 61.1712 70.7717 61.1585C72.0468 61.0632 75.0881 63.9441 78.9422 64.9955C82.5955 65.9929 85.3339 64.8716 87.0617 63.6614C86.8928 63.4137 86.6887 63.1914 86.4497 63.0071C85.7419 62.4608 84.8493 62.2321 83.9727 62.0796C84.046 62.1305 84.1193 62.1781 84.1926 62.2321C84.7218 62.6419 85.4774 63.4677 84.7728 64.0807C84.25 64.5381 83.4084 64.554 82.7517 64.5476C81.9133 64.5381 81.0749 64.4238 80.2524 64.2713C79.9591 64.2173 79.669 64.157 79.379 64.0871C78.8753 63.9632 78.4353 63.6837 77.9954 63.4232C77.7531 63.2803 77.5077 63.131 77.2303 63.0738C77.1092 63.0484 76.9849 63.0516 76.8637 63.0357C76.5641 62.9976 76.5226 62.7149 76.4907 62.4608C76.4047 61.8065 76.478 61.1458 76.4015 60.4915C76.325 59.8086 76.0476 59.1638 75.8245 58.519C75.6332 57.9663 75.4611 57.3946 75.4834 56.807C75.4993 56.3306 75.5663 55.8478 75.5057 55.3745L75.5089 55.3681Z" fill="#A486CA"/>
<path d="M82.3561 45.2906C82.0118 43.1498 81.5018 41.0344 80.912 38.9507C80.81 38.5886 80.7208 38.1185 80.4434 37.839C80.2203 37.6135 79.9429 37.7564 79.723 37.9153C78.8367 38.5505 78.7124 39.7226 78.8017 40.7326C78.8973 41.8031 79.2511 42.829 79.3755 43.8962C79.4998 44.9571 79.3787 46.0275 79.4871 47.0884C79.5859 48.0794 79.9429 49.0577 80.6092 49.8137C81.0905 50.3568 81.6994 50.7602 82.3019 51.1636C82.3434 51.1255 82.4008 51.1064 82.4518 51.1223C82.5538 51.1572 82.6558 51.2017 82.7514 51.2557C82.8407 49.2642 82.6717 47.2631 82.3561 45.297V45.2906Z" fill="#A486CA"/>
<path d="M85.7534 53.279C85.7534 53.279 85.7311 53.279 85.7216 53.279C84.6983 53.2314 83.6781 53.1075 82.6867 52.8502C81.6124 52.5707 80.5731 52.126 79.5498 51.6941C78.6413 51.3097 77.7678 50.7952 76.7923 50.5919C76.0496 50.4362 75.2908 50.503 74.5481 50.6205C75.039 50.8873 75.5905 51.0429 76.0878 51.297C76.3779 51.4431 76.6776 51.6337 76.8784 51.8942C77.0824 52.1642 77.1526 52.5072 77.4331 52.72C77.5638 52.8185 77.5128 52.9963 77.3534 53.0154C76.8338 53.0821 76.295 52.9773 75.7754 52.9423C75.3514 52.9138 74.768 52.8598 74.3887 53.117C75.1283 54.108 76.448 53.8889 77.5319 54.2002C78.0547 54.3494 78.6381 54.6544 78.8804 55.1658C79.0111 55.4421 79.0111 55.7375 79.0302 56.0361C79.0462 56.3283 79.1482 56.5665 79.4351 56.684C79.9356 56.8873 80.5221 56.719 81.045 56.7952C81.5901 56.8714 82.1256 57.0017 82.6708 57.0652C83.2159 57.1287 83.7897 57.1478 84.3125 56.9604C84.8449 56.7698 85.3103 56.3346 85.4155 55.7693C85.5112 55.261 85.3677 54.7433 85.3932 54.2319C85.4123 53.8603 85.5367 53.5458 85.7534 53.2886V53.279Z" fill="#A486CA"/>
<path d="M77.9168 35.4055C77.9168 35.4055 77.2984 36.3139 77.9614 37.5717C77.9614 37.5717 77.8148 44.8486 76.071 49.8131C74.3273 54.7777 75.0732 60.5522 75.8829 61.7306C76.6927 62.909 71.9587 60.1774 69.9662 61.7306C67.9738 63.2838 67.5977 58.999 67.5977 58.999C67.5977 58.999 72.5803 52.4812 72.1436 47.2054C71.7068 41.9296 71.6654 35.2085 77.9168 35.4023V35.4055Z" fill="#8069A0"/>
<path d="M77.4367 37.0878C77.3283 37.1673 77.2773 37.3165 77.2423 37.4404C77.0956 37.92 77.0287 38.3965 77.0351 38.8983C77.0446 39.451 77.0892 40.0132 76.9458 40.5532C76.8693 40.8391 76.7481 41.109 76.678 41.3981C76.6111 41.6744 76.5537 41.9508 76.4899 42.2271C76.3529 42.8179 76.2062 43.4531 75.8747 43.9709C75.5878 44.4219 75.1096 44.7173 74.5708 44.5045C73.9556 44.2599 73.7579 43.5516 73.471 43.0212C73.2319 42.5765 72.9131 42.1858 72.5529 41.8396C73.0502 42.8782 73.4997 43.9423 73.8536 45.0381C74.2202 46.1721 74.5071 47.3663 74.4911 48.5638C74.4784 49.5389 74.2265 50.549 73.5093 51.251C72.9163 51.829 72.1257 52.1022 71.3128 52.2102C71.0355 52.9757 70.7135 53.7189 70.3756 54.4146C71.0036 54.7735 71.8006 54.7068 72.4477 55.0371C72.9355 55.288 73.369 55.6819 73.4615 56.2441C73.5443 56.7555 73.3786 57.2669 73.2032 57.7401C73.0948 58.0387 72.996 58.315 72.9418 58.6295C72.8876 58.9535 72.8334 59.2902 72.6422 59.5665C72.3074 60.0461 71.7687 60.2526 71.2172 60.3892C70.6402 60.5321 70.0632 60.6179 69.5244 60.891C69.1068 61.1038 68.6988 61.3389 68.2461 61.3865C68.6063 62.0154 69.1483 62.3648 69.9675 61.7264C71.96 60.1732 76.694 62.9048 75.8842 61.7264C75.0745 60.548 74.3254 54.7735 76.0723 49.8089C77.8161 44.8444 77.9627 37.5675 77.9627 37.5675C77.8671 37.3864 77.8001 37.2117 77.7523 37.0466C77.6408 37.0211 77.526 37.018 77.4335 37.0847L77.4367 37.0878Z" fill="#8069A0"/>
<path d="M83.2 36.3774C83.2 36.3774 81.4021 35.2466 79.993 35.4372C79.993 35.4372 80.6051 35.7167 80.264 36.8633C79.9229 38.0131 80.0249 36.8729 79.3714 39.0454C78.7179 41.218 82.2979 54.1583 81.1789 59.3102C80.0568 64.4622 78.0644 63.0328 82.7983 63.0964C87.5323 63.1599 86.2859 65.3293 89.7766 63.7157C93.2641 62.1022 91.5204 61.1715 90.089 57.198C88.6577 53.2244 84.8577 36.5298 83.2064 36.3742L83.2 36.3774Z" fill="#8069A0"/>
<path d="M82.4739 42.5526C82.1009 43.6389 82.0244 44.7697 82.5408 45.821C82.6715 46.091 82.8309 46.3451 82.9967 46.5929C82.8564 46.3292 82.7289 46.0592 82.6301 45.7734C82.4165 45.1508 82.3018 44.4838 82.3368 43.8263C82.3623 43.3276 82.442 42.7845 82.7321 42.3652C83.2103 41.6759 83.9818 41.1455 84.7532 40.8406C84.9286 40.7707 85.1135 40.7135 85.3047 40.6786C85.2569 40.5325 85.2091 40.3832 85.1613 40.2434C85.1262 40.2434 85.0911 40.2371 85.0561 40.2371C83.7012 40.2307 82.8724 41.3996 82.4739 42.559V42.5526Z" fill="#8069A0"/>
<path d="M85.4045 40.9719C85.0092 41.0482 84.6107 41.2356 84.327 41.3975C83.7181 41.7469 82.9976 42.271 82.7968 42.9793C82.4493 44.199 82.7394 45.5712 83.3834 46.6416C84.6203 48.6999 86.2588 50.5072 87.2375 52.7147C87.3746 52.7369 87.5085 52.756 87.6456 52.7782C88.0409 52.8417 88.4361 52.9148 88.8283 52.991C87.8241 49.3573 86.5489 44.4944 85.4013 40.9719H85.4045Z" fill="#8069A0"/>
<path d="M90.0849 57.2012C89.7885 56.3753 89.3868 55 88.9246 53.3356C88.3858 53.2276 87.8439 53.1355 87.3019 53.0498C87.2382 53.1419 87.0979 53.1768 87.0437 53.0498C87.0373 53.0339 87.031 53.0212 87.0246 53.0053C86.2053 52.8751 85.386 52.7512 84.5699 52.6051C83.6646 52.4431 82.8166 52.1572 81.9495 51.8555C81.6275 51.7411 81.2992 51.6331 80.9708 51.5378C81.0665 52.2462 81.1493 52.9449 81.2163 53.6247C81.9336 54.0535 82.705 54.3902 83.4829 54.6855C84.2256 54.9682 84.9939 55.1874 85.7335 55.4764C86.4858 55.7718 87.4422 56.1816 87.7674 56.9852C87.9586 57.4553 87.8152 57.865 87.6303 58.3065C87.5187 58.5733 87.4741 58.8211 87.5251 59.1101C87.5602 59.3071 87.6303 59.4976 87.7068 59.6819C87.8152 59.9423 87.9905 60.2504 87.8853 60.5363C87.7387 60.9333 87.1425 61.0223 86.7855 61.0699C86.1671 61.1557 85.5677 61.0064 84.9525 61.0064C84.3022 61.0064 83.757 61.324 83.2565 61.7115C82.807 62.0609 82.3862 62.4611 81.8475 62.6771C81.4139 62.8518 80.9166 62.8995 80.4512 62.8995C80.2631 62.8995 80.075 62.8899 79.8869 62.874C79.5522 63.5411 79.9953 63.0551 82.7975 63.0932C87.5315 63.1567 86.285 65.3261 89.7757 63.7126C93.2633 62.099 91.5195 61.1684 90.0881 57.1948L90.0849 57.2012Z" fill="#8069A0"/>
<path d="M78.0392 32.5046L77.5993 35.1441L76.5059 35.5571C76.5059 35.5571 77.7109 36.6052 79.2952 36.3225C80.8796 36.0399 81.1665 35.5285 81.1665 35.5285L80.3919 35.0457L80.0731 32.7175L78.0424 32.5046H78.0392Z" fill="#F2897F"/>
<g style="mix-blend-mode:multiply" opacity="0.15">
<path d="M80.3894 35.0457L80.0706 32.7175L78.0399 32.5046L77.957 33.0319C78.1547 33.3432 78.4512 33.61 78.8783 33.7593C79.009 33.8037 79.1461 33.8387 79.2768 33.8895C79.3597 33.9213 79.4426 33.9626 79.4745 34.0293C79.5127 34.1055 79.4808 34.1944 79.4426 34.2675C79.3788 34.3977 79.2641 34.5121 79.2226 34.6455C79.178 34.7852 79.2704 34.9282 79.3916 35.033C79.5095 35.1346 79.6689 35.1918 79.8156 35.268C79.9431 35.3347 80.0642 35.4237 80.1025 35.5412C80.1407 35.6555 80.1025 35.773 80.0419 35.8779C79.9303 36.0589 79.7486 36.1891 79.535 36.2749C80.9154 35.9763 81.1768 35.5285 81.1768 35.5285L80.3926 35.0457H80.3894Z" fill="#33133F"/>
</g>
<path d="M76.532 30.1338C76.532 30.1338 77.0899 33.0401 79.2481 33.0591C81.3138 33.0782 82.2638 27.8024 81.4382 26.4683C80.6093 25.1343 78.9197 24.877 77.9156 25.7918C76.9114 26.7065 76.4013 29.111 76.4013 29.111C76.4013 29.111 75.4195 28.9045 75.8211 29.7431C76.2228 30.5784 76.532 30.1338 76.532 30.1338Z" fill="#FDA19E"/>
<g style="mix-blend-mode:multiply" opacity="0.15">
<path d="M76.8847 28.8632C76.9294 28.8632 76.974 28.8569 77.0186 28.8537C77.0505 28.8537 77.0951 28.8474 77.1142 28.8442C77.2736 28.822 77.4362 28.7584 77.5797 28.6886C77.9303 28.5202 78.2173 28.2502 78.4372 27.9326C78.5488 27.7706 78.6476 27.5959 78.7305 27.418C78.7751 27.3259 78.8166 27.2338 78.8516 27.1417C78.8771 27.0686 78.8899 26.9892 78.9058 26.9098C78.9345 26.7415 78.9505 26.5573 79.0397 26.4111C79.1322 26.2555 79.2979 26.2206 79.4669 26.246C79.655 26.2746 79.8367 26.3571 79.9833 26.4715C80.1523 26.6017 80.2702 26.7796 80.4073 26.9384C80.5444 27.0972 80.7165 27.2147 80.9014 27.3164C81.0895 27.4212 81.2904 27.5006 81.5008 27.5578C81.5709 27.5768 81.6442 27.5927 81.7175 27.6023C81.6857 27.1226 81.59 26.7256 81.4338 26.4683C80.605 25.1343 78.9154 24.877 77.9112 25.7918C77.0919 26.5382 76.601 28.2788 76.4512 28.8918C76.5946 28.8823 76.7381 28.876 76.8815 28.8664L76.8847 28.8632Z" fill="#33133F"/>
</g>
<path d="M81.6459 29.1431C81.6459 29.1431 82.0603 28.7238 82.1942 29.0573C82.3281 29.394 81.9679 30.782 81.5917 30.3024C81.2155 29.8228 81.6459 29.1431 81.6459 29.1431Z" fill="#FDA19E"/>
<g style="mix-blend-mode:multiply" opacity="0.05">
<path d="M81.886 29.2156C81.886 29.2156 82.2462 29.1076 82.1569 29.4189C82.0645 29.7302 81.9115 30.0637 81.666 30.0256C81.666 30.0256 81.9561 29.9081 81.9944 29.5873C82.0358 29.2665 81.6692 29.403 81.886 29.2156Z" fill="#33133F"/>
</g>
<path d="M78.8066 25.8626C78.8066 25.8626 77.9778 28.4195 76.3998 29.1278C76.3998 29.1278 75.4689 26.3644 78.0766 24.5349C80.069 23.1373 82.1698 26.2787 81.8638 28.5783C81.8638 28.5783 80.0977 25.653 78.8066 25.8626Z" fill="black"/>
<path d="M78.0231 24.1972C77.6374 24.4259 77.4461 24.8198 77.3505 25.2422C77.2517 25.6774 77.2294 26.1221 77.105 26.554C76.9903 26.9574 76.8022 27.3576 76.4802 27.6372C76.0945 27.9707 75.5844 28.0151 75.1158 28.1549C74.7364 28.2692 74.322 28.4884 74.1913 28.8854C74.0542 29.2952 74.271 29.7081 74.3826 30.0956C74.4463 30.318 74.4814 30.5466 74.4177 30.7753C74.3443 31.0263 74.1913 31.2423 74.0766 31.471C73.8502 31.9252 73.7418 32.4334 73.7673 32.9416C73.7896 33.3863 73.9044 33.904 74.3188 34.1486C74.4049 34.1994 74.5005 34.2343 74.5994 34.2502C74.6472 34.2597 74.6504 34.1803 74.6025 34.174C74.0893 34.0914 73.9012 33.5355 73.8566 33.0877C73.8056 32.5795 73.8948 32.0586 74.1052 31.5948C74.2073 31.3757 74.3443 31.1724 74.44 30.95C74.526 30.7499 74.5515 30.5403 74.5165 30.3243C74.4527 29.9177 74.2041 29.5366 74.2264 29.1173C74.2519 28.6663 74.6536 28.3931 75.0489 28.2597C75.4856 28.1104 75.967 28.085 76.3623 27.8277C77.054 27.3767 77.2357 26.5 77.3473 25.7409C77.4111 25.3089 77.4812 24.8293 77.7872 24.4926C78.0837 24.1686 78.53 24.0638 78.9508 24.013C79.0592 24.0003 78.4025 23.9812 78.0263 24.2004L78.0231 24.1972Z" fill="#2B2B2B"/>
<path d="M83.3372 31.5985C83.1682 31.2872 82.9482 30.995 82.8399 30.6552C82.741 30.3471 82.7793 30.0294 82.859 29.7213C82.9993 29.1845 83.2798 28.6096 83.0726 28.0506C82.8717 27.5074 82.2979 27.2248 81.7719 27.085C81.1216 26.9135 80.4235 26.8658 79.8751 26.4307C79.0049 25.7351 78.7148 24.2104 78.6797 24.2104C78.8678 25.157 79.1897 26.1575 80.0505 26.6816C80.6052 27.0183 81.265 27.0374 81.8739 27.2216C82.4191 27.3899 82.9865 27.7488 83.0375 28.3682C83.0853 28.9431 82.7602 29.4767 82.69 30.039C82.6518 30.3375 82.6964 30.6202 82.8207 30.8934C82.9578 31.1951 83.1586 31.4651 83.3053 31.7637C83.6177 32.3926 83.758 33.1041 83.7101 33.806C83.6655 34.4222 83.4296 35.1909 82.7315 35.3275C82.6645 35.3402 82.6741 35.445 82.741 35.4323C82.8781 35.4069 83.0024 35.3561 83.1204 35.283C83.6783 34.9305 83.8153 34.2158 83.8249 33.6028C83.8377 32.9072 83.6687 32.2115 83.3372 31.5985Z" fill="#2B2B2B"/>
<g style="mix-blend-mode:multiply" opacity="0.05">
<path d="M76.1875 29.3131C76.1875 29.3131 75.8336 29.1828 75.9037 29.5005C75.9739 29.8181 76.1078 30.1611 76.3564 30.1389C76.3564 30.1389 76.0759 30.0023 76.0568 29.6783C76.0376 29.3543 76.3947 29.5163 76.1875 29.3131Z" fill="#33133F"/>
</g>
<g style="mix-blend-mode:multiply" opacity="0.05">
<path d="M76.7052 30.1461C76.6988 30.3208 76.9061 30.4732 77.1738 30.486C77.4416 30.4987 77.6616 30.3653 77.6711 30.1906C77.6807 30.0159 77.4703 29.8634 77.2025 29.8507C76.9347 29.838 76.7148 29.9714 76.7052 30.1461Z" fill="#33133F"/>
</g>
<g style="mix-blend-mode:multiply" opacity="0.05">
<path d="M80.1642 30.1141C80.1578 30.2888 80.365 30.4413 80.6328 30.454C80.9006 30.4667 81.1206 30.3333 81.1301 30.1586C81.1365 29.9839 80.9293 29.8314 80.6615 29.8187C80.3937 29.806 80.1738 29.9394 80.1642 30.1141Z" fill="#33133F"/>
</g>
<path d="M79.4251 30.1476C79.4251 30.1476 79.4187 30.1413 79.4155 30.1381C79.4028 30.1318 79.39 30.1445 79.3772 30.1667C79.3645 30.1953 79.0361 30.8274 78.6472 30.3604C78.6345 30.3446 78.6122 30.3605 78.5994 30.389C78.5867 30.4208 78.5867 30.4589 78.5994 30.4748C79.0298 30.9925 79.4155 30.2429 79.4187 30.2366C79.4346 30.208 79.4378 30.1667 79.4251 30.1508V30.1476Z" fill="#241D51"/>
<path d="M80.0039 31.1667C80.0039 31.1667 79.2197 31.6464 78.2315 31.3287C78.0689 31.7417 79.2962 32.6088 80.0039 31.1667Z" fill="#FCFAF7"/>
<path d="M80.4791 28.8653C80.4919 29.075 80.3931 29.2528 80.2464 29.2719C80.0902 29.291 79.9404 29.1226 79.9149 28.8971C79.8862 28.6716 79.9914 28.4715 80.1444 28.4524C80.2082 28.4429 80.2751 28.4683 80.3293 28.5159C80.291 28.5572 80.2751 28.6239 80.2815 28.697C80.2942 28.8082 80.3676 28.8876 80.4441 28.8812C80.4568 28.8812 80.4696 28.8749 80.4823 28.8685L80.4791 28.8653Z" fill="black"/>
<path d="M77.9613 29.3265C77.8051 29.3456 77.6584 29.1772 77.6297 28.9517C77.601 28.7262 77.7062 28.5261 77.8592 28.507C77.8975 28.5007 77.9358 28.507 77.974 28.5261C77.9421 28.5674 77.9262 28.6309 77.9326 28.6976C77.9453 28.8088 78.0186 28.8882 78.0952 28.8818C78.1302 28.8755 78.1589 28.8564 78.178 28.8215C78.1844 28.8405 78.1876 28.8628 78.1908 28.885C78.2195 29.1105 78.1143 29.3106 77.9613 29.3297V29.3265Z" fill="black"/>
<g style="mix-blend-mode:multiply" opacity="0.05">
<path d="M79.424 32.2663C79.5419 32.2314 79.6153 32.1932 79.6216 32.1901C79.6503 32.1742 79.6599 32.1392 79.644 32.1107C79.628 32.0821 79.593 32.0725 79.5643 32.0884C79.4909 32.1329 79.0096 32.2981 78.5378 32.0789C78.5091 32.0662 78.474 32.0789 78.4581 32.1075C78.4453 32.1361 78.4581 32.171 78.4868 32.1837C78.8757 32.3648 79.2168 32.3235 79.4208 32.2663H79.424Z" fill="#33133F"/>
</g>
<path d="M79.6055 28.2551C79.6055 28.2551 79.988 27.6039 80.7053 27.9215C80.7053 27.9215 80.8328 28.0645 80.565 28.0486C80.2972 28.0327 79.7585 28.3408 79.6055 28.2519V28.2551Z" fill="black"/>
<path d="M77.2012 28.1779C77.2012 28.1779 77.7495 27.657 78.352 28.1621C78.352 28.1621 78.4349 28.3336 78.1799 28.2446C77.9248 28.1557 77.3255 28.3018 77.2012 28.1779Z" fill="black"/>
<path d="M55.2758 70.7273L56.7805 60.6044L42.2119 59.7754L42.043 70.7273H55.2758Z" fill="#474747"/>
<g style="mix-blend-mode:multiply" opacity="0.25">
<path d="M48.5657 70.727L47.0642 60.6042L61.6328 59.7751L61.7985 70.727H48.5657Z" fill="#202234"/>
</g>
<g style="mix-blend-mode:multiply" opacity="0.25">
<path d="M43.8193 65.232C44.6163 65.1113 45.4547 65.2924 46.2134 65.5274C47.0869 65.7974 47.9285 66.1722 48.7286 66.6169C49.3694 66.9726 50.0165 67.3665 50.5521 67.8684C51.0877 68.3702 51.5212 68.9896 51.8591 69.6407C52.0408 69.9901 52.1907 70.3554 52.3182 70.727H55.2765L56.7812 60.6042L42.2126 59.7751L42.1074 66.5947C42.1329 66.5375 42.1552 66.4803 42.1807 66.4263C42.5059 65.7625 43.0861 65.3464 43.8193 65.2352V65.232Z" fill="#202234"/>
</g>
<path d="M51.3899 35.0653C52.5758 38.7625 54.7085 43.1585 61.2978 47.0558C67.8903 50.9531 73.8739 42.7837 73.8739 42.7837L72.4011 40.0965C72.4011 40.0965 70.5681 39.3977 65.4229 41.6847C63.66 37.0378 58.2056 31.5777 53.2102 30.177C50.6184 29.4496 51.0552 34.0171 51.3899 35.0653Z" fill="#F9E387"/>
<path d="M55.4149 31.1756C50.7319 27.6531 47.5186 30.2545 44.5379 32.6653C40.3012 36.0862 38.72 61.9159 42.5263 61.9159C46.3327 61.9159 58.1214 68.9482 60.0246 61.2774C61.9277 53.6035 60.6653 35.1301 55.4149 31.1788V31.1756Z" fill="#CBB979"/>
<path d="M51.7188 31.9785C51.7188 31.9785 55.8407 51.2872 53.7016 63.9829C53.7016 63.9829 56.644 50.1374 51.7188 31.9785Z" fill="#F9E387"/>
<g style="mix-blend-mode:multiply" opacity="0.25">
<path d="M60.0331 49.5743C59.7972 50.0984 59.5135 50.6415 59.0704 51.0227C58.7548 51.2927 58.3691 51.4324 57.9706 51.5341C57.4637 51.6611 56.9505 51.7564 56.4659 51.9565C55.8857 52.1979 55.4203 52.6108 54.8975 52.9475C54.4384 53.2461 53.9507 53.37 53.4056 53.2556C53.0135 53.173 52.6532 52.9983 52.2866 52.8427C51.869 52.6648 51.461 52.4774 51.0529 52.2837C49.7363 51.6579 48.4452 50.975 47.0968 50.4224C47.5941 50.8734 48.0627 51.3562 48.5154 51.8422C49.2454 52.6267 49.9531 53.4494 50.5333 54.3546C50.7501 54.6913 50.9605 55.0471 51.0848 55.4314C51.1932 55.7713 51.292 56.2128 51.1358 56.5558C50.8489 57.1815 49.9435 56.8893 49.459 56.7337C49.0669 56.6098 48.6811 56.4573 48.289 56.3271C48.1201 56.2699 47.9447 56.2128 47.7694 56.1715C48.5855 57.0195 49.3474 57.9343 50.0105 58.8999C50.3324 59.3636 50.6481 59.8496 50.8553 60.3801C50.986 60.7168 51.123 61.1646 50.9158 61.4981C50.6895 61.8602 50.1922 61.8666 49.816 61.8189C49.459 61.7745 49.1083 61.6728 48.764 61.5616C48.2667 61.3997 47.779 61.2122 47.3231 60.9581C46.829 60.6818 46.3572 60.3483 45.812 60.18C45.2382 60.0021 44.6835 60.3102 44.1033 60.2498C43.1916 60.1545 42.3405 59.8179 41.6327 59.2302C41.2853 58.9412 40.9824 58.6172 40.7051 58.271C41.0398 60.4944 41.6359 61.9174 42.5317 61.9174C46.3412 61.9174 58.1268 68.9497 60.03 61.279C60.8716 57.8867 61.0947 52.3853 60.6261 46.9602C60.556 47.8591 60.4157 48.7421 60.0331 49.5807V49.5743Z" fill="#202234"/>
</g>
<g style="mix-blend-mode:multiply" opacity="0.05">
<path d="M51.057 24.5748C51.0219 24.7495 51.2068 24.9338 51.4714 24.9877C51.736 25.0417 51.9815 24.9465 52.0165 24.7718C52.0516 24.5971 51.8667 24.4128 51.6021 24.3557C51.3375 24.3017 51.0921 24.397 51.057 24.5717V24.5748Z" fill="#33133F"/>
</g>
<g style="mix-blend-mode:multiply" opacity="0.05">
<path d="M54.0707 24.7052C54.0356 24.8799 54.2205 25.0641 54.4851 25.1181C54.7497 25.1721 54.9952 25.0768 55.0302 24.9021C55.0653 24.7274 54.8804 24.5432 54.6158 24.4892C54.3512 24.4352 54.1057 24.5305 54.0707 24.7052Z" fill="#33133F"/>
</g>
<path d="M54.0033 23.049C54.0288 23.049 54.0543 23.0363 54.0703 23.0141C54.083 22.995 54.389 22.5313 55.084 22.8679C55.1223 22.887 55.1669 22.8679 55.1828 22.833C55.202 22.7949 55.1828 22.7504 55.1478 22.7345C54.3285 22.3375 53.9459 22.9283 53.9427 22.9346C53.9204 22.9696 53.9332 23.0141 53.9682 23.0363C53.981 23.0426 53.9906 23.0458 54.0033 23.049Z" fill="#241D51"/>
<path d="M52.5591 23.0085C52.5591 23.0085 52.5782 23.0085 52.5878 23.0053C52.626 22.9926 52.6484 22.9481 52.6324 22.91C52.6324 22.9037 52.3838 22.2462 51.3955 22.4177C51.3541 22.424 51.3286 22.4622 51.335 22.5035C51.3413 22.5447 51.3796 22.5702 51.421 22.5638C52.2849 22.4113 52.489 22.9513 52.4922 22.9577C52.5017 22.9863 52.5304 23.0053 52.5591 23.0053V23.0085Z" fill="#241D51"/>
<path d="M53.3413 24.897C53.3668 24.897 53.3923 24.897 53.4178 24.8875C53.5772 24.8462 53.6505 24.6715 53.6537 24.6652C53.6633 24.6429 53.6601 24.6175 53.6473 24.5985C53.3955 24.1792 53.488 23.6297 53.488 23.6233C53.4943 23.5821 53.4688 23.5439 53.4274 23.5376C53.3859 23.5312 53.3477 23.5566 53.3413 23.5979C53.3381 23.6234 53.2457 24.1792 53.5007 24.6366C53.4784 24.6747 53.4369 24.7287 53.3828 24.7414C53.3317 24.7541 53.2712 24.7319 53.2042 24.6747C53.1724 24.6493 53.1245 24.6525 53.099 24.6842C53.0735 24.716 53.0767 24.7636 53.1086 24.7891C53.1883 24.8558 53.268 24.8907 53.3445 24.8907L53.3413 24.897Z" fill="#241D51"/>
<path d="M54.2075 23.6533C54.198 23.8852 54.3223 24.0758 54.4785 24.0821C54.6379 24.0885 54.7718 23.9042 54.7814 23.6724C54.7909 23.4405 54.6666 23.2499 54.5104 23.2436C54.351 23.2372 54.2171 23.4214 54.2075 23.6533Z" fill="#241D51"/>
<path d="M51.6685 23.5632C51.6589 23.7951 51.7832 23.9857 51.9395 23.992C52.0988 23.9984 52.2327 23.8141 52.2423 23.5823C52.2519 23.3504 52.1275 23.1598 51.9713 23.1535C51.8119 23.1471 51.678 23.3314 51.6685 23.56V23.5632Z" fill="#241D51"/>
<g style="mix-blend-mode:multiply" opacity="0.05">
<path d="M48.6686 23.4656C48.6686 23.4656 48.2414 23.2464 48.1458 23.5481C48.0502 23.8499 48.2924 24.6344 48.7037 24.8282C48.7037 24.8282 47.9737 24.069 48.2351 23.6371C48.4997 23.2051 48.6336 23.6784 48.6686 23.4656Z" fill="#33133F"/>
</g>
<path d="M51.7895 31.2746C51.7895 31.2746 51.1201 32.723 50.2912 32.0909C49.4624 31.4589 48.3084 30.3472 50.406 29.1021C50.406 29.1021 50.2721 30.0962 50.4921 30.3821C51.1679 31.2651 52.2518 30.4139 52.2518 30.4139C52.2518 30.4139 52.9244 30.2519 52.9563 29.3466C52.9563 29.3466 55.1113 30.9125 52.8256 32.1608C51.815 32.7135 51.7895 31.2746 51.7895 31.2746Z" fill="#F9E387"/>
<path d="M54.2872 26.1048C54.2872 26.1048 53.4233 26.4574 52.4861 25.981C52.2565 26.3685 53.3468 27.4357 54.2872 26.1048Z" fill="#FCFAF7"/>
<g style="mix-blend-mode:multiply" opacity="0.05">
<path d="M53.147 27.1191C53.2267 27.1191 53.2777 27.1128 53.2841 27.1096C53.3032 27.1064 53.316 27.0874 53.3128 27.0651C53.3096 27.0461 53.2905 27.0334 53.2681 27.0365C53.2681 27.0365 52.9366 27.0969 52.6497 26.8301C52.6338 26.8174 52.6114 26.8174 52.5955 26.8301C52.5827 26.846 52.5827 26.8682 52.5955 26.8841C52.7963 27.0683 53.0099 27.1128 53.1438 27.116L53.147 27.1191Z" fill="#33133F"/>
</g>
<path d="M54.4563 24.2696C54.4563 24.2696 55.282 23.6343 55.6581 24.3712C56.0375 25.105 55.164 26.2071 54.4531 26.1341V24.2696H54.4563Z" fill="#D7A28E"/>
<path d="M49.0788 24.2696C49.0788 24.2696 48.2532 23.6343 47.877 24.3712C47.4976 25.105 48.3711 26.2071 49.082 26.1341V24.2696H49.0788Z" fill="#D7A28E"/>
<path d="M48.3569 21.1895C47.8532 21.882 47.8755 23.1811 48.733 24.585C49.5906 25.9921 54.5923 25.0424 54.5923 25.0424C54.5923 25.0424 56.4955 21.739 54.468 20.8528C54.468 20.8528 54.5286 18.5945 52.2907 18.8994C50.0496 19.2043 49.0391 20.2462 48.3537 21.1863L48.3569 21.1895Z" fill="black"/>
<path d="M52.9063 30.2457C52.9063 30.2457 52.4568 30.9191 51.679 30.9191C50.9011 30.9191 50.3496 30.2648 50.3496 30.2648C50.3496 30.2648 50.3783 29.5724 50.4038 28.9879C50.4166 28.6004 50.4325 28.2637 50.4325 28.2065H52.8872L52.8967 29.2039L52.9063 30.2425V30.2457Z" fill="#D7A28E"/>
<path d="M52.8926 29.2068C52.5069 29.5276 52.0892 29.7373 51.7641 29.7373C51.372 29.7373 50.8428 29.4323 50.3965 28.9908C50.4092 28.6033 50.4252 28.2666 50.4252 28.2095H52.8798L52.8894 29.2068H52.8926Z" fill="#D7A28E"/>
<path d="M54.3325 27.4942C53.7555 28.2407 52.6684 29.1046 51.9002 29.1967C51.8555 29.2031 51.8109 29.2063 51.7663 29.2063C50.9948 29.2063 49.8121 28.2851 49.2 27.4942C48.9004 27.1036 48.8494 25.8299 48.8749 24.6324C48.9036 23.3905 49.0152 22.2375 49.0152 22.2375C49.1937 21.0019 54.3389 21.0019 54.5142 22.2375C54.5142 22.2375 54.9446 26.7002 54.3293 27.4942H54.3325Z" fill="#D7A28E"/>
<path d="M52.2732 25.6737C52.2732 25.6737 52.2669 25.6642 52.2605 25.6642C52.2477 25.6578 52.2286 25.6706 52.2127 25.6991C52.1967 25.7309 51.7951 26.5059 51.3232 25.9342C51.3073 25.9151 51.2818 25.931 51.2659 25.9691C51.2499 26.0072 51.2499 26.0549 51.2659 26.0739C51.7919 26.706 52.2605 25.7913 52.2669 25.7817C52.286 25.7468 52.2892 25.6991 52.2732 25.6737Z" fill="black"/>
<path d="M53.553 24.1069C53.569 24.3642 53.4478 24.5802 53.2661 24.6024C53.0749 24.6247 52.8963 24.4182 52.8613 24.1451C52.8262 23.8687 52.9537 23.6241 53.1418 23.6019C53.2215 23.5924 53.3012 23.621 53.365 23.6781C53.3203 23.7258 53.298 23.8084 53.3076 23.8973C53.3235 24.0307 53.4128 24.1323 53.5052 24.1196C53.5212 24.1196 53.5371 24.1101 53.5499 24.1038L53.553 24.1069Z" fill="black"/>
<path d="M50.481 24.6667C50.2897 24.6889 50.1112 24.4825 50.0761 24.2093C50.0411 23.933 50.1686 23.6884 50.3567 23.6662C50.4045 23.6598 50.4491 23.6662 50.4969 23.6884C50.4587 23.736 50.4364 23.8154 50.4491 23.898C50.465 24.0314 50.5543 24.1331 50.6468 24.1204C50.6882 24.114 50.7233 24.0886 50.7488 24.0441C50.7551 24.0695 50.7583 24.095 50.7615 24.1204C50.7966 24.3967 50.6691 24.6381 50.481 24.6635V24.6667Z" fill="black"/>
<path d="M52.4902 23.3559C52.4902 23.3559 52.9557 22.5618 53.8323 22.9493C53.8323 22.9493 53.9885 23.124 53.6602 23.105C53.3318 23.0859 52.6751 23.4607 52.4902 23.3559Z" fill="black"/>
<path d="M49.5566 23.2595C49.5566 23.2595 50.2229 22.6242 50.9593 23.2404C50.9593 23.2404 51.0613 23.4501 50.7489 23.3421C50.4397 23.2341 49.7065 23.412 49.5566 23.2595Z" fill="black"/>
<path opacity="0.2" d="M50.0774 26.0833C50.352 26.0833 50.5747 25.8614 50.5747 25.5878C50.5747 25.3141 50.352 25.0923 50.0774 25.0923C49.8027 25.0923 49.5801 25.3141 49.5801 25.5878C49.5801 25.8614 49.8027 26.0833 50.0774 26.0833Z" fill="#EC9480"/>
<path opacity="0.2" d="M53.6848 26.0833C53.9595 26.0833 54.1821 25.8614 54.1821 25.5878C54.1821 25.3141 53.9595 25.0923 53.6848 25.0923C53.4102 25.0923 53.1875 25.3141 53.1875 25.5878C53.1875 25.8614 53.4102 26.0833 53.6848 26.0833Z" fill="#EC9480"/>
<path d="M54.6768 24.6304C54.6545 24.8527 54.476 26.5711 53.9978 26.641C53.5993 26.6981 51.8491 26.641 51.7758 26.6441C51.7057 26.6441 49.9555 26.6981 49.5571 26.641C49.0789 26.5743 48.9004 24.8527 48.8781 24.6304C48.8494 25.8278 48.9004 27.1015 49.2032 27.4922C49.8153 28.2831 50.9948 29.2042 51.7694 29.2042H51.7886C52.56 29.2042 53.7427 28.2831 54.3548 27.4922C54.6545 27.1015 54.7055 25.8278 54.68 24.6304H54.6768ZM52.3847 27.651C52.203 27.7781 51.9862 27.8734 51.7694 27.8829C51.5399 27.8734 51.3295 27.7749 51.151 27.6447C50.9406 27.489 50.778 27.2858 50.6951 27.1269C50.6824 27.1015 50.6888 27.0825 50.7079 27.0634C50.8545 26.9364 51.7312 26.9649 51.7758 26.9649C51.8205 26.9649 52.6334 26.93 52.8214 27.0507C52.8565 27.0729 52.8693 27.0984 52.8565 27.1301C52.8023 27.273 52.6206 27.489 52.3847 27.6542V27.651Z" fill="black"/>
<path d="M52.8194 27.0482C52.8194 27.0482 52.8066 27.0609 52.8002 27.0641C52.7301 27.0832 52.66 27.1022 52.5898 27.1181C52.3125 27.1785 52.032 27.207 51.7546 27.2039C51.4773 27.2039 51.1999 27.1753 50.9194 27.1149C50.8524 27.099 50.7791 27.08 50.709 27.0609C50.8556 26.9307 51.7323 26.9625 51.7769 26.9593C51.8215 26.9593 52.6345 26.9243 52.8225 27.045L52.8194 27.0482Z" fill="white"/>
<path d="M52.386 27.6512C52.2043 27.7782 51.9876 27.8735 51.7708 27.883C51.5413 27.8735 51.3309 27.775 51.1523 27.6448C51.3532 27.613 51.554 27.6003 51.7549 27.6003C51.9653 27.6003 52.1756 27.6162 52.386 27.6512Z" fill="white"/>
<path d="M69.8183 38.4658C69.1648 38.7167 66.6496 38.9772 65.8271 40.524C64.9281 42.1503 66.487 44.6882 64.9281 45.1487C63.2067 45.3615 64.1758 47.423 65.7315 48.2075C66.487 48.6045 68.1511 48.7475 68.9289 49.0778C70.1913 49.7289 72.4196 49.9036 74.0359 49.4494C75.6713 49.0492 76.6946 48.0233 75.9709 47.4547C74.4567 46.0222 76.4268 45.244 74.903 43.713C73.6597 42.3504 74.1443 41.874 73.7617 41.2228C72.5567 39.0756 71.5111 38.0942 69.8215 38.4626L69.8183 38.4658Z" fill="black"/>
<path d="M63.0003 71.031C60.3001 61.8324 58.4639 50.8964 68.9552 50.0229C80.3837 49.0701 77.7378 61.2829 77.6071 71.031H63.0003Z" fill="#F0DCB9"/>
<g style="mix-blend-mode:multiply" opacity="0.15">
<path d="M68.2594 49.3014C68.2594 49.3014 67.5581 49.924 67.5166 51.3374C67.472 52.7509 67.6601 53.2305 67.6601 53.2305L69.4102 51.7916C69.4102 51.7916 70.1689 53.24 70.475 53.4751C70.781 53.7101 72.0083 53.1797 72.0434 51.131C72.0785 49.0822 68.9384 48.2786 68.2594 49.3014Z" fill="#202234"/>
</g>
<path d="M70.2004 45.9426L71.2811 50.2116C71.2811 50.2116 70.2259 52.4127 68.6543 51.12L68.7786 48.1057L70.2004 45.9426Z" fill="#F49C9A"/>
<g style="mix-blend-mode:multiply" opacity="0.15">
<path d="M69.8218 51.006C69.4584 50.555 69.2352 49.8244 69.6209 49.3194C69.7771 49.1161 69.9971 48.97 70.1469 48.7604C70.3318 48.4967 70.3191 48.1442 70.2426 47.8456C70.1182 47.3596 69.8345 46.9118 69.7963 46.4163L68.8017 48.1061L68.6582 51.1204C69.2735 51.6254 69.809 51.5968 70.233 51.3745C70.0832 51.2728 69.9461 51.1521 69.825 51.006H69.8218Z" fill="#33133F"/>
</g>
<path d="M67.7629 48.2639C70.0454 49.0548 71.7062 46.8759 71.7062 46.8759C71.7062 46.8759 72.0665 47.2539 72.2801 46.8505C72.4937 46.4503 73.1854 45.8468 72.7678 45.4116C72.5096 45.1448 72.2482 45.2369 72.2036 45.2909C72.2036 45.2909 73.246 43.4868 73.0133 42.842C72.5192 41.454 67.782 39.7896 67.2177 41.6858C67.2177 41.6858 66.679 43.4804 66.5961 45.2083C66.5929 45.2655 66.5897 45.3259 66.5897 45.3862C66.5515 46.6949 66.7937 47.9304 67.7629 48.2639Z" fill="#F49C9A"/>
<g style="mix-blend-mode:multiply" opacity="0.05">
<path d="M72.2175 45.5962C72.2175 45.5962 72.5681 45.5104 72.6287 45.7804C72.6893 46.0504 72.1792 46.8921 71.8477 46.6857C71.8477 46.6857 72.3673 46.6063 72.4565 46.0345C72.5458 45.4628 72.2525 45.7931 72.2175 45.593V45.5962Z" fill="#33133F"/>
</g>
<g style="mix-blend-mode:multiply" opacity="0.05">
<path d="M70.5467 46.5952C70.5339 46.7636 70.3171 46.8874 70.0589 46.8684C69.8007 46.8493 69.6031 46.6969 69.6158 46.5285C69.6286 46.3602 69.8453 46.2363 70.1036 46.2554C70.3618 46.2744 70.5594 46.4269 70.5467 46.5952Z" fill="#33133F"/>
</g>
<g style="mix-blend-mode:multiply" opacity="0.05">
<path d="M67.7381 45.9348C67.7253 46.1032 67.5086 46.227 67.2503 46.208C66.9921 46.1889 66.7945 46.0365 66.8072 45.8681C66.82 45.6998 67.0368 45.5759 67.295 45.595C67.5532 45.614 67.7508 45.7665 67.7381 45.9348Z" fill="#33133F"/>
</g>
<path d="M68.4142 46.4175C68.2994 46.3889 68.2165 46.3285 68.2101 46.3222C68.1782 46.2999 68.1719 46.2555 68.1974 46.2237C68.2197 46.1919 68.2643 46.1856 68.2962 46.211C68.2962 46.211 68.4779 46.3444 68.6214 46.265C68.6564 46.2459 68.6979 46.2586 68.717 46.2936C68.7361 46.3285 68.7234 46.3698 68.6883 46.3889C68.5927 46.4397 68.4938 46.4397 68.411 46.4206L68.4142 46.4175Z" fill="black"/>
<path d="M67.9473 46.9482C67.9473 46.9482 68.5402 47.0372 69.1204 47.1769C69.1204 47.1769 68.0365 48.1298 67.9473 46.9482Z" fill="black"/>
<path d="M67.9473 46.9482C67.9473 46.9482 67.9473 47.1071 67.9696 47.1229C67.9951 47.1388 68.7697 47.3008 69.012 47.2595L69.1204 47.1769C69.1204 47.1769 68.5753 46.9832 67.9473 46.9482Z" fill="white"/>
<path d="M68.082 47.4048C68.082 47.4048 68.2414 47.3063 68.3913 47.3445C68.5411 47.3826 68.6463 47.4779 68.6463 47.4779C68.6463 47.4779 68.3052 47.6939 68.082 47.4048Z" fill="#DE5D36"/>
<path d="M68.042 44.2029C68.042 44.2029 68.026 44.1965 68.0197 44.1934C68.0133 44.1902 67.5 43.8472 67.0729 43.7582C67.0346 43.7487 67.0123 43.7106 67.0187 43.6756C67.0282 43.6375 67.0633 43.6121 67.1015 43.6216C67.5606 43.7201 68.0802 44.0631 68.0993 44.079C68.1312 44.1013 68.1408 44.1457 68.1185 44.1775C68.1025 44.2029 68.0707 44.2124 68.042 44.2061V44.2029Z" fill="black"/>
<path d="M69.5857 44.4304C69.557 44.4241 69.5347 44.3987 69.5315 44.3701C69.5283 44.332 69.5538 44.297 69.5953 44.2907C69.6208 44.2907 70.2392 44.2176 70.6919 44.3415C70.7302 44.351 70.7525 44.3923 70.7429 44.4273C70.7333 44.4654 70.6919 44.4876 70.6568 44.4781C70.2328 44.3606 69.6208 44.4304 69.6144 44.4304C69.6048 44.4304 69.5985 44.4304 69.5889 44.4304H69.5857Z" fill="black"/>
<path d="M67.4524 44.5483C67.3408 44.5197 67.2228 44.5991 67.1941 44.723C67.1654 44.8469 67.2324 44.9676 67.344 44.9962C67.4555 45.0248 67.5735 44.9454 67.6022 44.8215C67.6309 44.6976 67.5639 44.5769 67.4524 44.5483Z" fill="black"/>
<path d="M69.9524 45.0046C69.8408 44.976 69.726 45.0554 69.6941 45.1793C69.6654 45.3032 69.7324 45.4239 69.844 45.4525C69.9555 45.4811 70.0703 45.4016 70.1022 45.2778C70.1309 45.1539 70.0639 45.0332 69.9524 45.0046Z" fill="black"/>
<path d="M69.8617 52.3675L69.5078 51.5131C69.5078 51.5131 71.1049 51.1097 71.0794 50.0837C71.0699 49.7661 70.8818 48.6067 70.8818 48.6067C70.8818 48.6067 72.0326 48.4892 72.3418 49.9535C72.8168 52.1864 70.5184 52.9932 70.5184 52.9932L69.8649 52.3643L69.8617 52.3675Z" fill="#F7C06B"/>
<path d="M69.5088 51.5198L69.1262 51.9422L67.9786 52.7363C67.9786 52.7363 67.3857 50.3159 67.8033 49.6394C68.2209 48.9597 68.7564 48.7119 68.7564 48.7119C68.7564 48.7119 68.6704 49.8522 68.7979 50.624C68.868 51.0528 69.1517 51.3101 69.5088 51.5198Z" fill="#F7C06B"/>
<path d="M73.2778 42.5405H73.2842C73.2778 42.5214 73.2746 42.5024 73.2682 42.4833C73.2587 42.4389 73.2523 42.3976 73.2427 42.3531H73.23C72.9303 41.3907 71.9644 38.6337 68.4514 39.7358C66.5004 40.1202 66.3633 41.5622 66.0923 42.8708C65.5695 45.4023 70.1377 43.3759 71.0017 43.0042C70.3864 45.0053 72.2067 45.2975 72.2067 45.2975C72.806 44.7258 73.485 43.6967 73.2842 42.5437L73.2778 42.5405Z" fill="black"/>
<path d="M100.84 23.4229L87.4929 17.299V13.2715C87.4929 11.2005 85.867 9.42498 83.7917 9.38686C81.675 9.34875 79.9472 11.0449 79.9472 13.1444V13.8337L66.8354 7.81777C65.2479 7.0904 63.418 7.09993 61.8369 7.84636L28.852 23.4261C27.1783 24.217 27.7458 26.7167 29.5947 26.7167H31.9442C27.8828 42.4744 27.8828 58.9943 31.9442 74.7519H96.7122C100.774 58.9943 100.774 42.4744 96.7122 26.7167H100.11C101.972 26.7167 102.527 24.1916 100.837 23.4166L100.84 23.4229ZM93.3617 70.5274H35.301C32.2056 56.4532 32.4606 41.7438 36.0597 27.7745L36.9587 24.2837L64.3585 11.3435L78.1715 17.6802L83.2466 20.0084L85.7172 21.1423L91.5893 23.8358L92.603 27.7745C96.2021 41.7438 96.454 56.4532 93.3617 70.5274Z" fill="#848484"/>
<g style="mix-blend-mode:multiply" opacity="0.35">
<path d="M80.7533 13.6378C81.2474 13.7871 81.8754 13.9078 82.3345 13.5934C82.9657 13.1614 83.0007 12.2053 82.9625 11.5288C82.937 11.0714 82.8955 10.5854 83.0772 10.1503C83.2175 9.81357 83.4885 9.57852 83.7913 9.38477C83.769 9.38477 83.7499 9.38159 83.7276 9.38159C81.6427 9.38159 79.9531 11.065 79.9531 13.1423V13.3329C80.2145 13.4473 80.4823 13.5521 80.7565 13.6378H80.7533Z" fill="#202234"/>
</g>
<g style="mix-blend-mode:multiply" opacity="0.35">
<path d="M93.585 24.7703C93.2726 24.1954 92.8486 23.6872 92.38 23.233C91.3184 22.2102 90.0082 21.4574 88.7012 20.7904C87.3559 20.1011 85.966 19.504 84.6016 18.8497C83.1033 18.1318 81.6942 17.252 80.2023 16.5214C78.4139 15.6448 76.5745 14.8793 74.7287 14.1329C71.1647 12.694 67.5496 11.3218 64.2374 9.35254C63.2492 10.3435 61.8816 10.8136 60.5746 11.2615C59.8095 11.5251 59.0571 11.7951 58.3462 12.1794C57.4505 12.6622 56.5738 13.1768 55.7003 13.6977C53.9374 14.7459 52.1713 15.7972 50.3287 16.6993C47.0771 18.2938 43.4939 19.0688 40.2136 20.5935C38.6261 21.3304 36.9556 22.2197 35.9451 23.6935C35.4796 24.3701 35.1513 25.1229 34.8421 25.8788C34.4914 26.7332 34.1471 27.5845 33.8219 28.4484C32.3683 32.2918 30.8891 36.1859 30.4109 40.2929C30.1623 42.4337 30.2069 44.6094 30.3567 46.7566C30.5034 48.8657 30.7807 50.9652 31.1346 53.052C31.4884 55.1452 31.9188 57.2225 32.3523 59.2966C32.6233 60.5862 32.7158 61.9107 32.8624 63.2162C33.0314 64.6868 33.2258 66.167 33.6434 67.5931C34.0005 68.8096 34.5615 70.1278 35.639 70.8806C36.8504 71.7223 38.4539 71.8525 39.8885 71.878C41.4186 71.9034 42.9393 71.7509 44.4663 71.6906C48.7508 71.519 53.0448 71.4809 57.3325 71.4841C59.5544 71.4841 61.7796 71.5 64.0015 71.5095C66.1183 71.519 68.251 71.446 70.3645 71.5889C74.2665 71.8525 78.0951 72.7451 81.9875 73.1008C83.9257 73.2787 85.8895 73.3232 87.8213 73.0532C89.361 72.8372 91.0506 72.4942 92.3385 71.5794C94.5764 69.9912 95.638 67.1707 96.25 64.6074C96.5624 63.2924 96.7633 61.9457 96.8876 60.5989C97.0438 58.8996 97.1873 57.1971 97.2861 55.4914C97.5124 51.6418 97.5443 47.7794 97.3339 43.9297C97.1235 40.0769 96.6772 36.2304 95.8771 32.4538C95.4849 30.602 95.01 28.7629 94.4202 26.9619C94.1811 26.225 93.9611 25.45 93.5882 24.7671L93.585 24.7703ZM93.3618 70.5249H35.3011C32.2057 56.4507 32.4607 41.7412 36.0598 27.7719L36.9588 24.2811L64.3586 11.3409L78.1716 17.6776L83.2467 20.0058L85.7173 21.1398L91.5894 23.8333L92.6031 27.7719C96.2022 41.7412 96.4572 56.4507 93.3618 70.5249Z" fill="#202234"/>
</g>
<path d="M74.9129 54.257C74.9225 54.0283 75.9107 53.7488 75.9107 53.7488C75.9107 53.7488 74.269 53.9425 74.2977 53.6884C74.3264 53.4343 75.7482 53.2342 75.7482 53.2342C75.7482 53.2342 73.9438 53.3899 73.8291 53.1389C73.7143 52.888 75.678 52.7737 75.678 52.7737C75.678 52.7737 73.9757 52.5894 73.9885 52.3385C74.0012 52.0876 75.7195 52.2782 76.0829 52.24C76.3188 52.2146 76.4367 52.0304 76.2263 51.897C76.0159 51.7668 75.8916 51.2903 76.0446 51.1887C76.1976 51.087 76.6025 51.7954 76.899 51.8176C77.1954 51.8398 77.5334 51.951 77.6258 52.0876C77.9414 52.3322 80.1952 51.9859 80.1952 51.9859C80.2271 52.0908 80.3801 52.7197 80.3196 53.1802L77.8968 53.3327C77.8968 53.3327 77.5812 53.6694 77.1285 53.8155C76.6758 53.9616 74.9034 54.4825 74.9129 54.2506V54.257Z" fill="#FDA19E"/>
<g opacity="0.2">
<path d="M76.0788 51.1948C76.1362 51.1948 76.2031 51.2742 76.2286 51.3092C76.2286 51.3092 76.1968 51.3886 76.1553 51.36C76.1139 51.3282 76.0214 51.198 76.0788 51.1948Z" fill="white"/>
<path d="M74.0111 52.3334C74.0302 52.2762 74.2215 52.2635 74.2374 52.2762C74.2374 52.2762 74.2183 52.4287 74.2024 52.4541C74.1864 52.4795 73.992 52.3906 74.0111 52.3302V52.3334Z" fill="white"/>
<path d="M73.8828 53.1219C73.8828 53.0615 74.0645 52.998 74.0868 53.0075C74.0868 53.0075 74.1092 53.16 74.1028 53.1886C74.0964 53.2172 73.8828 53.1822 73.8828 53.1219Z" fill="white"/>
<path d="M74.3672 53.6907C74.3672 53.6303 74.5457 53.5605 74.5648 53.5668C74.5648 53.5668 74.5967 53.7193 74.5871 53.7479C74.5808 53.7764 74.3672 53.751 74.3672 53.6907Z" fill="white"/>
<path d="M74.9611 54.2436C74.9548 54.1928 75.0982 54.1229 75.1142 54.1261C75.1142 54.1261 75.1524 54.25 75.1492 54.2722C75.146 54.2976 74.9675 54.2912 74.9611 54.2436Z" fill="white"/>
</g>
<path d="M83.5995 37.2886C83.7111 36.736 83.727 36.7487 84.4889 37.1012C87.4154 38.4544 93.6445 45.69 91.7031 52.735C90.0741 58.6429 78.2662 53.6625 78.2662 53.6625L78.1387 51.5598L87.1922 49.9335C87.1922 49.9335 82.5252 42.6534 83.6027 37.2855L83.5995 37.2886Z" fill="#A486CA"/>
<path d="M63.9008 52.1106C64.159 52.1329 64.6117 51.072 64.6117 51.072C64.6117 51.072 64.159 52.873 64.4491 52.8793C64.736 52.8825 65.1664 51.3261 65.1664 51.3261C65.1664 51.3261 64.736 53.3145 64.9974 53.4796C65.262 53.6448 65.6733 51.469 65.6733 51.469C65.6733 51.469 65.635 53.3939 65.9187 53.4161C66.2024 53.4383 66.2343 51.4944 66.33 51.0942C66.3905 50.837 66.6169 50.729 66.7348 50.9831C66.8528 51.2372 67.366 51.4404 67.5031 51.2848C67.6402 51.1292 66.9006 50.5765 66.9165 50.2398C66.9325 49.9031 66.856 49.5124 66.7189 49.3886C66.4894 49.0042 65.3577 48.9058 65.3577 48.9058C65.3577 48.9058 64.9337 49.2075 64.7041 49.6935C64.4746 50.1795 63.6362 52.0789 63.8976 52.1043L63.9008 52.1106Z" fill="#FDA19E"/>
<path d="M65.2844 51.5068C65.2844 51.5068 60.7608 56.4142 52.8262 55.7377C52.8262 55.7377 52.8262 68.0966 59.6036 74.0109L59.6259 74.0554C62.342 76.0437 64.5225 75.9262 65.074 75.8944L65.2844 51.5037V51.5068Z" fill="#C49205"/>
<path d="M65.2874 51.5034C65.2874 51.5034 60.8563 57.0429 53.4668 56.3123C53.4668 56.3123 54.1107 73.909 65.0802 75.9228C76.0497 73.9122 77.1081 56.3123 77.1081 56.3123C69.7186 57.0429 65.2874 51.5034 65.2874 51.5034Z" fill="#DEA903"/>
<path d="M65.285 53.696C65.285 53.696 61.4595 57.9428 55.0742 57.3107C55.0742 57.3107 55.6289 72.5124 65.1065 74.2499C74.584 72.5124 75.4957 57.3107 75.4957 57.3107C69.1104 57.9396 65.285 53.696 65.285 53.696Z" fill="#FFC90A"/>
<path d="M66.3666 62.8837H71.142V64.8911H66.3666V70.1701H64.1797V64.8911H59.4043V62.8837H64.1797V58.0081H66.3666V62.8837Z" fill="white"/>
<path d="M57.0167 57.7179C57.0167 57.7179 56.5545 56.6952 56.2452 56.5999C55.528 56.3807 54.8107 56.6412 54.6641 56.8286C55.5503 57.0033 57.0167 57.7179 57.0167 57.7179Z" fill="#D7A28E"/>
<path d="M54.1945 59.4189C54.3794 59.546 54.5706 59.6635 54.7619 59.7588C54.7619 59.7588 54.8193 59.7969 54.8862 59.8382C54.9404 59.8731 55.0105 59.9113 55.0839 59.9494C55.0839 59.9494 55.8872 60.4417 56.1199 60.2765C56.3495 60.1114 56.2793 59.9112 56.2793 59.9112C56.2793 59.9112 56.5503 59.9621 56.6874 59.7334C56.8244 59.5015 56.7097 59.3427 56.7097 59.3427C56.7097 59.3427 56.9583 59.3967 57.1145 59.1362C57.2739 58.8758 57.1305 58.6344 57.1305 58.6344C57.1305 58.6344 57.5098 58.6916 57.4811 58.2215C57.4525 57.7514 56.8053 57.5004 56.7798 57.4877C56.6714 57.4274 56.563 57.3702 56.4547 57.3226C56.426 57.3099 56.3973 57.2908 56.3654 57.2845C54.1339 56.7731 51.268 54.2956 50.895 54.4575C50.895 54.4575 49.5561 55.7757 49.8143 56.1632C50.1682 56.4141 53.4517 58.2945 53.4517 58.2945C53.4517 58.2945 53.4899 58.9425 54.1849 59.4221L54.1945 59.4189Z" fill="#D7A28E"/>
<path opacity="0.2" d="M54.7635 59.761C54.7635 59.761 54.8209 59.7992 54.8879 59.8405C54.9421 59.8754 55.0122 59.9135 55.0855 59.9516C55.0855 59.9516 55.8889 60.4439 56.1216 60.2788C56.3511 60.1136 56.281 59.9135 56.281 59.9135C56.281 59.9135 56.5519 59.9643 56.689 59.7356C56.8261 59.5038 56.7113 59.3449 56.7113 59.3449C56.7113 59.3449 56.96 59.3989 57.1162 59.1385C57.2756 58.878 57.1321 58.6366 57.1321 58.6366C57.1321 58.6366 57.5115 58.6938 57.4828 58.2237C57.4732 58.0554 57.384 57.9156 57.2692 57.8044C57.2915 57.9823 57.266 58.1792 57.1672 58.3285C57.1417 58.3667 57.113 58.4016 57.0747 58.427C57.0333 58.4588 56.9823 58.4746 56.9377 58.5032C56.842 58.5604 56.8293 58.6716 56.807 58.7732C56.7783 58.9034 56.7368 59.0273 56.6412 59.1258C56.5679 59.1988 56.4786 59.2497 56.3925 59.3037C56.3033 59.3608 56.2204 59.4307 56.179 59.5324C56.1375 59.6276 56.1024 59.7198 56.0291 59.796C55.9016 59.9262 55.7167 59.9516 55.5414 59.9199C55.4202 59.8976 55.3087 59.85 55.1939 59.8087C55.0473 59.7515 54.9006 59.6912 54.754 59.6308C54.5021 59.5292 54.2535 59.4275 54.0176 59.2973C54.0686 59.3418 54.126 59.3894 54.1897 59.4307C54.3746 59.5578 54.5659 59.6753 54.7572 59.7706L54.7635 59.761Z" fill="white"/>
<path d="M43.5469 33.6625C41.2006 36.7626 38.0956 40.752 38.7045 48.3656C39.3166 55.9792 53.12 58.0692 53.12 58.0692L54.4303 56.3349C54.4303 56.3349 50.3338 51.4847 45.4883 48.6197C48.2777 44.5032 50.6781 36.6959 47.7899 33.059C46.1195 30.9563 44.2099 32.7859 43.5437 33.6625H43.5469Z" fill="#F9E387"/>
<g style="mix-blend-mode:multiply" opacity="0.1">
<path d="M38.6588 46.4275C39.2199 47.1009 39.5865 47.9299 39.9913 48.7017C40.4759 49.6292 41.0656 50.4296 41.8562 51.1189C43.0708 52.1798 44.5819 52.7706 45.924 53.6409C47.1608 54.4413 48.3149 55.3275 49.657 55.9596C50.7536 56.4773 52.1244 56.9633 53.3294 56.5218C53.6514 56.4042 53.9223 56.2295 54.155 56.0199C54.3336 56.2232 54.4324 56.3375 54.4324 56.3375L53.1222 58.0718C53.1222 58.0718 39.3187 55.9818 38.7066 48.3682C38.6556 47.7234 38.6429 47.0755 38.6588 46.4275Z" fill="#202234"/>
</g>
<path d="M58.2906 66.7247C58.1695 66.4929 57.0282 66.6835 57.0282 66.6835C57.0282 66.6835 58.7975 66.0958 58.6445 65.8513C58.4947 65.6067 56.9454 66.08 56.9454 66.08C56.9454 66.08 58.8613 65.3748 58.8613 65.0635C58.8613 64.7523 56.7955 65.5749 56.7955 65.5749C56.7955 65.5749 58.4468 64.5744 58.3129 64.3235C58.1791 64.0725 56.515 65.089 56.1261 65.2255C55.8742 65.3145 55.6606 65.1811 55.8137 64.946C55.9667 64.711 55.8615 64.1678 55.6575 64.1361C55.4502 64.1043 55.3801 65.0222 55.0868 65.1874C54.7935 65.3526 54.5034 65.6289 54.4748 65.81C54.2707 66.2102 54.7967 67.2139 54.7967 67.2139C54.7967 67.2139 55.2813 67.4076 55.8137 67.3378C56.3492 67.2679 58.4086 66.9534 58.2874 66.7216L58.2906 66.7247Z" fill="#F49C9A"/>
<path d="M77.1495 63.8786C77.108 63.9453 77.0666 63.9962 77.0283 64.0565C76.8785 64.444 76.5757 64.822 76.1517 65.0761C75.6225 65.5113 75.1666 65.5684 74.8191 65.3779C74.7586 65.3779 74.6916 65.3651 74.6279 65.3556C74.5609 65.3461 74.494 65.3366 74.4238 65.3207C74.2995 65.3016 74.1688 65.2699 74.0317 65.2349C73.9584 65.2159 73.8851 65.1936 73.8054 65.1714C73.4611 65.0761 73.0849 64.9427 72.7024 64.7934C72.6131 64.7617 72.5239 64.7235 72.4314 64.6886C72.2274 64.606 72.0266 64.5234 71.8225 64.4377C71.5771 64.3297 71.3316 64.2217 71.0957 64.1137C71.0128 64.0756 70.9267 64.0343 70.8407 63.9962C69.6548 63.4435 68.7112 62.9353 68.7112 62.9353C68.7112 62.9353 68.4147 63.1132 67.962 63.291C67.5125 63.4625 65.7528 64.101 65.7464 63.8659C65.7401 63.6309 66.7219 63.291 66.7219 63.291C66.7219 63.291 65.0738 63.5832 65.0866 63.3291C65.1025 63.0719 66.5275 62.7796 66.5275 62.7796C66.5275 62.7796 64.7104 63.0496 64.5765 62.8019C64.4458 62.5541 66.4287 62.3191 66.4287 62.3191C66.4287 62.3191 64.6913 62.2365 64.6913 61.9824C64.6913 61.7283 66.4382 61.814 66.8048 61.7569C67.0375 61.7188 67.1491 61.5187 66.9292 61.4011C66.7092 61.2836 66.553 60.8103 66.7028 60.696C66.8526 60.5816 67.3053 61.2773 67.6082 61.2804C67.9078 61.2868 68.2585 61.3757 68.3605 61.5091C68.5932 61.6679 72.5366 61.9252 74.9817 62.2651C75.0582 61.4964 75.0423 60.5308 74.9817 59.5589C74.8414 57.345 74.4812 55.1089 74.4812 55.1089L78.2461 56.8304C78.2461 56.8304 79.0431 60.9025 77.1463 63.885L77.1495 63.8786Z" fill="#F49C9A"/>
<path d="M77.1486 63.8779C77.1072 63.9446 77.0658 63.9954 77.0275 64.0558C76.8777 64.4433 76.5748 64.8213 76.1508 65.0754C75.6217 65.5105 75.1658 65.5677 74.8183 65.3771C74.7577 65.3771 74.6908 65.3644 74.627 65.3549C74.5601 65.3454 74.4931 65.3358 74.423 65.32C74.2987 65.3009 74.168 65.2691 74.0309 65.2342C73.9576 65.2151 73.8843 65.1929 73.8046 65.1707C73.4603 65.0754 73.0841 64.942 72.7016 64.7927C72.6123 64.7609 72.523 64.7228 72.4306 64.6879C72.2266 64.6053 72.0257 64.5227 71.8217 64.4369C71.5762 64.3289 71.3308 64.221 71.0949 64.113C71.012 64.0748 70.9259 64.0336 70.8398 63.9954C70.9929 64.0081 71.1299 64.024 71.2351 64.0367C71.6655 64.0844 72.0927 64.1638 72.5167 64.2559C73.0618 64.3734 73.6197 64.5958 74.1903 64.5513C74.8661 64.4973 75.1498 64.0526 75.4176 63.5063C75.6727 62.9886 76.3772 62.8933 76.849 62.655C77.3559 62.3978 77.7256 61.9372 77.6746 61.3432C77.6236 60.7524 77.2698 60.2093 76.731 59.952C76.1795 59.6916 75.5706 59.682 74.9841 59.555C74.8438 57.3411 74.4836 55.105 74.4836 55.105L78.2485 56.8265C78.2485 56.8265 79.0454 60.8985 77.1486 63.8811V63.8779Z" fill="#EA8F8F"/>
<path d="M73.73 51.4974C72.7131 52.3836 73.2231 55.4424 73.3283 56.3349C73.8639 60.8484 79.0123 58.7521 79.1143 57.9612C79.1813 57.4276 76.0508 49.4773 73.7332 51.4974H73.73Z" fill="#F7C06B"/>
</svg>
