<svg width="40" height="40" viewBox="0 0 40 40" fill="none" xmlns="http://www.w3.org/2000/svg">
<g clip-path="url(#clip0_3050_9508)">
<path d="M26.2096 36.3801H19.8496V26.3301L26.2096 30.0801V36.3801Z" fill="url(#paint0_linear_3050_9508)"/>
<path d="M26.8994 37.1299H25.3994C24.9794 37.1299 24.6494 36.7999 24.6494 36.3799C24.6494 35.9599 24.9794 35.6299 25.3994 35.6299H26.8994C27.3194 35.6299 27.6494 35.9599 27.6494 36.3799C27.6494 36.7999 27.3194 37.1299 26.8994 37.1299Z" fill="black"/>
<path d="M9.55965 37.1301C8.61465 37.1301 7.71465 36.9201 6.85965 36.5151C6.48465 36.3351 6.31965 35.8851 6.49965 35.5101C6.67965 35.1351 7.12965 34.9851 7.50465 35.1501C8.16465 35.4651 8.85465 35.6151 9.57465 35.6151H10.0846C10.5046 35.6151 10.8346 35.9451 10.8346 36.3651C10.8346 36.7851 10.5046 37.1151 10.0846 37.1151H9.57465L9.55965 37.1301ZM30.4396 37.1301H29.8847C29.4647 37.1301 29.1347 36.8001 29.1347 36.3801C29.1347 35.9601 29.4647 35.6301 29.8847 35.6301H30.4396C31.1446 35.6301 31.8347 35.4801 32.4646 35.1801C32.8396 35.0001 33.2896 35.1801 33.4546 35.5401C33.6346 35.9151 33.4546 36.3651 33.0947 36.5301C32.2547 36.9201 31.3546 37.1151 30.4396 37.1151V37.1301ZM35.0746 34.7601C34.9096 34.7601 34.7597 34.7151 34.6247 34.6101C34.2947 34.3551 34.2346 33.8901 34.4897 33.5601C35.0147 32.8701 35.4047 32.0451 35.5846 31.1751C35.6746 30.7701 36.0647 30.5151 36.4846 30.6051C36.8897 30.6951 37.1447 31.1001 37.0547 31.5051C36.8147 32.5851 36.3347 33.6201 35.6747 34.4901C35.5247 34.6851 35.2996 34.7901 35.0746 34.7901V34.7601ZM4.89465 34.7151C4.66965 34.7151 4.44465 34.6101 4.29465 34.4151C3.64965 33.5451 3.18465 32.5101 2.94465 31.4301C2.85465 31.0251 3.10965 30.6201 3.51465 30.5451C3.90465 30.4551 4.32465 30.7101 4.39965 31.1151C4.59465 31.9851 4.96965 32.8251 5.47965 33.5151C5.73465 33.8451 5.65965 34.3101 5.32965 34.5651C5.19465 34.6701 5.02965 34.7151 4.87965 34.7151H4.89465ZM36.4846 29.1051C36.0647 29.1051 35.7346 28.7751 35.7346 28.3551V25.3701C35.7346 24.9501 36.0647 24.6201 36.4846 24.6201C36.9047 24.6201 37.2346 24.9501 37.2346 25.3701V28.3551C37.2346 28.7751 36.9047 29.1051 36.4846 29.1051ZM3.51465 29.0451C3.09465 29.0451 2.76465 28.7151 2.76465 28.2951V25.3251C2.76465 24.9051 3.09465 24.5751 3.51465 24.5751C3.93465 24.5751 4.26465 24.9051 4.26465 25.3251V28.2951C4.26465 28.7151 3.93465 29.0451 3.51465 29.0451ZM36.4846 23.1501C36.0647 23.1501 35.7346 22.8201 35.7346 22.4001V19.4151C35.7346 18.9951 36.0647 18.6651 36.4846 18.6651C36.9047 18.6651 37.2346 18.9951 37.2346 19.4151V22.4001C37.2346 22.8201 36.9047 23.1501 36.4846 23.1501ZM3.51465 23.0901C3.09465 23.0901 2.76465 22.7601 2.76465 22.3401V19.3551C2.76465 18.9351 3.09465 18.6051 3.51465 18.6051C3.93465 18.6051 4.26465 18.9351 4.26465 19.3551V22.3401C4.26465 22.7601 3.93465 23.0901 3.51465 23.0901ZM36.4846 17.1951C36.0797 17.1951 35.7346 16.8651 35.7346 16.4601C35.7346 15.5751 35.5097 14.6751 35.1497 13.8801C34.9697 13.5051 35.1497 13.0551 35.5097 12.8901C35.8847 12.7251 36.3347 12.8901 36.4996 13.2501C36.9496 14.2401 37.2047 15.3351 37.2197 16.4301C37.2197 16.8501 36.9047 17.1801 36.4846 17.1951ZM3.52965 17.1351H3.51465C3.09465 17.1351 2.77965 16.7751 2.77965 16.3701C2.80965 15.2751 3.06465 14.1801 3.52965 13.1901C3.70965 12.8151 4.14465 12.6501 4.53465 12.8301C4.90965 13.0101 5.07465 13.4601 4.89465 13.8351C4.51965 14.6301 4.30965 15.5151 4.29465 16.4151C4.29465 16.8201 3.94965 17.1501 3.54465 17.1501L3.52965 17.1351ZM34.0397 11.9601C33.8747 11.9601 33.7097 11.9001 33.5597 11.7951C33.4247 11.6901 33.2747 11.5851 33.1397 11.4801L31.1597 10.1751C30.8147 9.95007 30.7246 9.48507 30.9496 9.14007C31.1746 8.79507 31.6397 8.70507 31.9846 8.93007L33.9646 10.2351C34.1596 10.3551 34.3397 10.4901 34.5047 10.6401C34.8197 10.8951 34.8797 11.3751 34.6096 11.6901C34.4597 11.8701 34.2497 11.9601 34.0247 11.9601H34.0397ZM6.01965 11.9301C5.79465 11.9301 5.58465 11.8401 5.43465 11.6451C5.17965 11.3151 5.22465 10.8501 5.55465 10.5951C5.71965 10.4751 5.88465 10.3401 6.04965 10.2351L8.07465 8.90007C8.41965 8.67507 8.88465 8.76507 9.10965 9.11007C9.33465 9.45507 9.24465 9.92007 8.89965 10.1451L6.87465 11.4801C6.73965 11.5701 6.60465 11.6601 6.48465 11.7651C6.34965 11.8701 6.18465 11.9301 6.01965 11.9301ZM29.0896 8.66007C28.9546 8.66007 28.8047 8.61507 28.6697 8.54007L26.1797 6.90507C25.8347 6.68007 25.7446 6.21507 25.9696 5.87007C26.1946 5.52507 26.6597 5.43507 27.0047 5.66007L29.4946 7.29507C29.8396 7.52007 29.9296 7.98507 29.7046 8.33007C29.5546 8.55507 29.3296 8.66007 29.0746 8.66007H29.0896ZM10.9696 8.63007C10.7296 8.63007 10.4896 8.51007 10.3396 8.30007C10.1146 7.95507 10.2046 7.49007 10.5496 7.26507L13.0396 5.63007C13.3846 5.40507 13.8496 5.49507 14.0746 5.84007C14.2996 6.18507 14.2096 6.65007 13.8646 6.87507L11.3746 8.51007C11.2546 8.60007 11.1046 8.63007 10.9546 8.63007H10.9696ZM24.1096 5.37507C23.9746 5.37507 23.8246 5.33007 23.6896 5.25507L22.6996 4.59507C22.2646 4.31007 21.7847 4.10007 21.2896 3.96507C20.8847 3.86007 20.6597 3.44007 20.7647 3.03507C20.8696 2.63007 21.2896 2.40507 21.6946 2.51007C22.3396 2.69007 22.9547 2.96007 23.5247 3.33507L24.5296 3.99507C24.8747 4.22007 24.9646 4.68507 24.7396 5.03007C24.5896 5.25507 24.3646 5.36007 24.1096 5.36007V5.37507ZM15.9346 5.34507C15.6946 5.34507 15.4546 5.22507 15.3046 5.01507C15.0796 4.67007 15.1696 4.20507 15.5146 3.98007L16.4597 3.35007C17.0447 2.96007 17.6896 2.67507 18.3496 2.51007C18.7546 2.40507 19.1596 2.64507 19.2647 3.03507C19.3696 3.44007 19.1296 3.84507 18.7396 3.95007C18.2296 4.08507 17.7346 4.31007 17.2846 4.59507L16.3397 5.22507C16.2197 5.31507 16.0696 5.34507 15.9196 5.34507H15.9346Z" fill="black"/>
<path d="M14.5996 37.1299H13.0996C12.6796 37.1299 12.3496 36.7999 12.3496 36.3799C12.3496 35.9599 12.6796 35.6299 13.0996 35.6299H14.5996C15.0196 35.6299 15.3496 35.9599 15.3496 36.3799C15.3496 36.7999 15.0196 37.1299 14.5996 37.1299Z" fill="black"/>
<path d="M30.7845 37.1302H9.28953C8.52453 37.1302 7.89453 36.5002 7.89453 35.7352V27.2902C7.89453 25.4302 8.79453 23.6752 10.2645 22.7152L17.4795 17.9452C19.0545 16.9102 21.0195 16.9102 22.6095 17.9452L29.8245 22.7152C31.2795 23.6752 32.1945 25.4302 32.1945 27.2902V35.7352C32.1945 36.5002 31.5645 37.1302 30.7995 37.1302H30.7845ZM20.0295 18.6652C19.4295 18.6652 18.8295 18.8452 18.2895 19.1902L11.0745 23.9602C10.0245 24.6502 9.37953 25.9252 9.37953 27.2902V35.7352L30.6795 35.6302V27.2902C30.6795 25.9252 30.0345 24.6502 28.9845 23.9602L21.7695 19.1902C21.2295 18.8452 20.6295 18.6652 20.0295 18.6652Z" fill="black"/>
<path d="M19.8496 17.6144C19.4296 17.6144 19.0996 17.2844 19.0996 16.8644V9.85938C19.0996 9.43937 19.4296 9.10938 19.8496 9.10938C20.2696 9.10938 20.5996 9.43937 20.5996 9.85938V16.8644C20.5996 17.2844 20.2696 17.6144 19.8496 17.6144Z" fill="black"/>
<path d="M24.185 14.2098C23.99 14.2098 23.795 14.1348 23.66 13.9848L19.85 10.1748L16.04 13.9848C15.74 14.2848 15.275 14.2848 14.975 13.9848C14.675 13.6848 14.675 13.2198 14.975 12.9198L19.31 8.58484C19.595 8.29984 20.09 8.29984 20.375 8.58484L24.71 12.9198C25.01 13.2198 25.01 13.6848 24.71 13.9848C24.56 14.1348 24.365 14.2098 24.185 14.2098Z" fill="black"/>
<path d="M26.21 37.1304H13.79C13.37 37.1304 13.04 36.8004 13.04 36.3804V31.4304C13.04 30.3054 13.595 29.2404 14.48 28.6554L18.41 26.0604C19.37 25.4304 20.615 25.4304 21.575 26.0604L25.505 28.6554C26.39 29.2404 26.945 30.3054 26.945 31.4304V36.3804C26.945 36.8004 26.615 37.1304 26.195 37.1304H26.21ZM14.54 35.6304H25.46V31.4304C25.46 30.8004 25.16 30.2154 24.695 29.9004L20.765 27.3054C20.3 27.0054 19.715 26.9904 19.235 27.3054L15.305 29.9004C14.825 30.2154 14.54 30.8004 14.54 31.4304V35.6304Z" fill="black"/>
</g>
<defs>
<linearGradient id="paint0_linear_3050_9508" x1="23.4346" y1="36.7851" x2="22.5346" y2="28.8351" gradientUnits="userSpaceOnUse">
<stop stop-color="#009CB5"/>
<stop offset="1" stop-color="#71C6AC"/>
</linearGradient>
<clipPath id="clip0_3050_9508">
<rect width="48" height="48" fill="white" transform="translate(-4 -4)"/>
</clipPath>
</defs>
</svg>
