<svg width="40" height="40" viewBox="0 0 40 40" fill="none" xmlns="http://www.w3.org/2000/svg">
<g clip-path="url(#clip0_147_18881)">
<path d="M19.4873 18.3253L19.8123 34.3378C19.8123 34.3378 27.7998 34.4378 27.5748 25.1253C25.7748 18.0128 19.4873 18.3253 19.4873 18.3253Z" fill="url(#paint0_linear_147_18881)"/>
<path d="M28.4748 34.0746H24.3873C24.0373 34.0746 23.7623 33.7996 23.7623 33.4496C23.7623 33.0996 24.0373 32.8246 24.3873 32.8246H28.4748C30.8373 32.8246 32.7623 30.6871 32.7623 28.0496V17.3746C32.7623 15.6871 31.9623 14.1121 30.6623 13.2621L22.1873 7.66211C20.8373 6.78711 19.1623 6.78711 17.8123 7.66211L9.3373 13.2621C8.0373 14.1246 7.2373 15.6996 7.2373 17.3746V28.0496C7.2373 30.6871 9.16231 32.8246 11.5248 32.8246H15.6123C15.9623 32.8246 16.2373 33.0996 16.2373 33.4496C16.2373 33.7996 15.9623 34.0746 15.6123 34.0746H11.5248C8.4748 34.0746 5.9873 31.3746 5.9873 28.0496V17.3746C5.9873 15.2746 7.0123 13.2996 8.6498 12.2121L17.1248 6.61211C18.8998 5.44961 21.0998 5.44961 22.8748 6.61211L31.3498 12.2121C32.9873 13.2996 34.0123 15.2746 34.0123 17.3746V28.0496C34.0123 31.3746 31.5248 34.0746 28.4748 34.0746Z" fill="black"/>
<path d="M19.8119 34.9619H19.4869C14.8119 34.9619 11.0244 31.1619 11.0244 26.4994V26.1744C11.0244 21.4994 14.8244 17.7119 19.4869 17.7119H19.8119C24.4869 17.7119 28.2744 21.5119 28.2744 26.1744V26.4994C28.2744 31.1744 24.4744 34.9619 19.8119 34.9619ZM19.4869 18.9494C15.5119 18.9494 12.2744 22.1869 12.2744 26.1619V26.4869C12.2744 30.4619 15.5119 33.6994 19.4869 33.6994H19.8119C23.7869 33.6994 27.0244 30.4619 27.0244 26.4869V26.1619C27.0244 22.1869 23.7869 18.9494 19.8119 18.9494H19.4869Z" fill="black"/>
<path d="M22.9992 22.8994H17.3242C16.9742 22.8994 16.6992 22.6244 16.6992 22.2744C16.6992 21.9244 16.9742 21.6494 17.3242 21.6494H22.9992C23.3492 21.6494 23.6242 21.9244 23.6242 22.2744C23.6242 22.6244 23.3492 22.8994 22.9992 22.8994Z" fill="black"/>
<path d="M22.999 25.749H16.3115C15.9615 25.749 15.6865 25.474 15.6865 25.124C15.6865 24.774 15.9615 24.499 16.3115 24.499H22.999C23.349 24.499 23.624 24.774 23.624 25.124C23.624 25.474 23.349 25.749 22.999 25.749Z" fill="black"/>
<path d="M20.7993 32.1747C20.6493 32.1747 20.4993 32.1247 20.3868 32.0247L15.9118 28.0747C15.6493 27.8497 15.6243 27.4497 15.8618 27.1872C16.0868 26.9247 16.4868 26.8997 16.7493 27.1372L21.2243 31.0872C21.4868 31.3122 21.5118 31.7122 21.2743 31.9747C21.1493 32.1122 20.9743 32.1872 20.7993 32.1872V32.1747Z" fill="black"/>
<path d="M17.3115 28.2371H16.3115C15.9615 28.2371 15.6865 27.9621 15.6865 27.6121C15.6865 27.2621 15.9615 26.9871 16.3115 26.9871H17.3115C18.4365 26.9871 19.349 26.0746 19.349 24.9496C19.349 23.8246 18.4365 22.9121 17.3115 22.9121H16.3115C15.9615 22.9121 15.6865 22.6371 15.6865 22.2871C15.6865 21.9371 15.9615 21.6621 16.3115 21.6621H17.3115C19.124 21.6621 20.599 23.1371 20.599 24.9496C20.599 26.7621 19.124 28.2371 17.3115 28.2371Z" fill="black"/>
</g>
<defs>
<linearGradient id="paint0_linear_147_18881" x1="22.8998" y1="35.3878" x2="23.6248" y2="20.1753" gradientUnits="userSpaceOnUse">
<stop stop-color="#009CB5"/>
<stop offset="1" stop-color="#71C6AC"/>
</linearGradient>
<clipPath id="clip0_147_18881">
<rect width="40" height="40" fill="white"/>
</clipPath>
</defs>
</svg>
