<svg width="32" height="32" viewBox="0 0 32 32" fill="none" xmlns="http://www.w3.org/2000/svg">
<g clip-path="url(#clip0_3050_29312)">
<path d="M8.52941 22.8799H5.39941V27.0399H8.52941V22.8799Z" fill="url(#paint0_linear_3050_29312)"/>
<path d="M21.78 16.7705H17.54V10.0605L21.78 12.5605V16.7705Z" fill="url(#paint1_linear_3050_29312)"/>
<path d="M15.61 23.6803C15.34 23.6803 15.12 23.4603 15.11 23.1903C15.11 22.9103 15.32 22.6903 15.6 22.6803L19.7 22.6003C19.64 22.2203 19.45 21.9403 19.14 21.7503C18.8 21.5403 18.42 21.5103 18.4 21.5103C18.4 21.5103 16.89 21.5103 14.09 21.4503C13.94 21.4503 13.81 21.3803 13.71 21.2703C13.29 20.7603 12.54 20.4103 11.76 20.3603C11.06 20.3203 10.01 20.4803 8.94998 21.4903C8.74998 21.6803 8.42998 21.6703 8.23998 21.4703C8.04998 21.2703 8.05998 20.9503 8.25998 20.7603C9.28998 19.7703 10.56 19.2803 11.83 19.3503C12.81 19.4103 13.73 19.8203 14.33 20.4503C17 20.5003 18.42 20.5003 18.42 20.5003C18.48 20.5003 19.47 20.5503 20.14 21.2903C20.56 21.7503 20.75 22.3703 20.71 23.1103C20.7 23.3703 20.48 23.5803 20.22 23.5803L15.61 23.6703V23.6803Z" fill="black"/>
<path d="M17.0398 27.0999C16.7198 27.0999 16.4398 27.0699 16.2198 27.0299C15.3998 26.8699 12.7698 26.2699 11.3998 25.9099C10.3098 25.6199 9.11977 26.1199 8.98977 26.3399C8.98977 26.6199 8.76977 26.7999 8.49977 26.7999C8.22977 26.7999 8.00977 26.5399 8.00977 26.2599C8.00977 26.0599 8.08977 25.7599 8.46977 25.4699C9.11977 24.9699 10.4898 24.6399 11.6598 24.9499C13.0098 25.3099 15.5998 25.9099 16.4098 26.0599C17.1498 26.1999 18.9898 26.1299 20.6998 24.8499C22.2298 23.7099 24.9498 21.7199 25.9398 20.9999C25.8198 20.8399 25.6298 20.6699 25.3798 20.5699C25.0198 20.4399 24.5898 20.4999 24.0898 20.7599C23.0998 21.2699 20.4098 22.7199 20.4098 22.7199L19.9298 21.8399C19.9298 21.8399 22.6298 20.3799 23.6298 19.8699C24.3898 19.4799 25.0998 19.4099 25.7298 19.6399C26.6598 19.9899 27.0498 20.9099 27.0598 20.9499C27.1498 21.1599 27.0798 21.4099 26.8898 21.5399C26.8898 21.5399 23.1798 24.2499 21.2898 25.6599C19.7498 26.8099 18.1298 27.1199 17.0298 27.1199L17.0398 27.0999Z" fill="black"/>
<path d="M8.51965 27.53H5.38965C5.10965 27.53 4.88965 27.31 4.88965 27.03V19.29C4.88965 19.01 5.10965 18.79 5.38965 18.79H8.51965C8.79965 18.79 9.01965 19.01 9.01965 19.29V27.03C9.01965 27.31 8.79965 27.53 8.51965 27.53ZM5.88965 26.53H8.01965V19.79H5.88965V26.53Z" fill="black"/>
<path d="M24.6093 17.4501H10.4993C9.98934 17.4501 9.56934 17.0301 9.56934 16.5201V10.9801C9.56934 9.76008 10.1693 8.60008 11.1293 7.97008L15.8693 4.84008C16.9093 4.16008 18.2093 4.16008 19.2493 4.84008L23.9893 7.97008C24.9493 8.60008 25.5493 9.76008 25.5493 10.9801V16.5201C25.5493 17.0301 25.1293 17.4501 24.6193 17.4501H24.6093ZM10.5693 16.4501H24.5293V10.9801C24.5293 10.0901 24.1093 9.25008 23.4193 8.80008L18.6793 5.67008C17.9793 5.21008 17.0993 5.21008 16.3993 5.67008L11.6693 8.80008C10.9893 9.25008 10.5593 10.0801 10.5593 10.9801V16.4501H10.5693Z" fill="black"/>
<path d="M21.61 17.4505H13.46C13.18 17.4505 12.96 17.2305 12.96 16.9505V13.7005C12.96 12.9605 13.32 12.2605 13.91 11.8705L16.49 10.1705C17.14 9.75047 17.94 9.75047 18.58 10.1705L21.16 11.8805C21.75 12.2705 22.11 12.9705 22.11 13.7105V16.9605C22.11 17.2405 21.89 17.4605 21.61 17.4605V17.4505ZM13.96 16.4505H21.11V13.7005C21.11 13.2905 20.92 12.9105 20.61 12.7105L18.03 11.0105C17.73 10.8105 17.34 10.8105 17.04 11.0105L14.46 12.7105C14.15 12.9105 13.96 13.3005 13.96 13.7105V16.4605V16.4505Z" fill="black"/>
</g>
<defs>
<linearGradient id="paint0_linear_3050_29312" x1="7.21941" y1="27.2199" x2="6.83941" y2="23.8899" gradientUnits="userSpaceOnUse">
<stop stop-color="#009CB5"/>
<stop offset="1" stop-color="#71C6AC"/>
</linearGradient>
<linearGradient id="paint1_linear_3050_29312" x1="19.93" y1="17.0305" x2="19.32" y2="11.7405" gradientUnits="userSpaceOnUse">
<stop stop-color="#009CB5"/>
<stop offset="1" stop-color="#71C6AC"/>
</linearGradient>
<clipPath id="clip0_3050_29312">
<rect width="32" height="32" fill="white"/>
</clipPath>
</defs>
</svg>
