<svg width="40" height="40" viewBox="0 0 40 40" fill="none" xmlns="http://www.w3.org/2000/svg">
<rect width="40" height="40" rx="20" fill="white"/>
<g clip-path="url(#clip0_467_63420)">
<path d="M13.1988 22.7295C11.3488 22.7295 11.1088 23.4995 11.1088 23.4995C11.1088 23.4995 9.88875 26.6495 9.61875 29.1495C9.34875 31.6495 11.9488 31.2095 11.9488 31.2095H19.9688V26.4495C19.9688 26.4495 18.3388 25.4495 17.5388 24.5995C16.7388 23.7495 16.3788 23.1895 16.3788 23.1895L13.2088 22.7495L13.1988 22.7295Z" fill="url(#paint0_linear_467_63420)"/>
<path d="M19.7798 13.2998H19.9398C21.4998 13.2998 22.7598 14.5398 22.7998 16.0998C22.8298 17.6998 21.5398 19.0198 19.9398 19.0198H19.7598L19.7798 13.2998Z" fill="url(#paint1_linear_467_63420)"/>
<path d="M19.9996 26.9504C19.4996 26.9504 19.0296 26.7304 18.7096 26.3404L13.7896 20.3904C12.8396 19.0604 12.3496 17.5304 12.3496 15.9204C12.3496 13.8004 13.1896 11.8304 14.7296 10.3804C16.2596 8.92044 18.2496 8.18044 20.3896 8.28044C24.3396 8.48044 27.5296 11.7404 27.6496 15.7004C27.6996 17.3904 27.2096 19.0004 26.2296 20.3704L21.2896 26.3404C20.9696 26.7304 20.4996 26.9504 19.9996 26.9504ZM19.9996 9.28044C18.2896 9.28044 16.6696 9.92044 15.4196 11.1104C14.0896 12.3804 13.3496 14.0904 13.3496 15.9304C13.3496 17.3304 13.7796 18.6604 14.5796 19.7904L19.4796 25.7104C19.7396 26.0204 20.2596 26.0204 20.5196 25.7104L25.4396 19.7604C26.2696 18.6004 26.6896 17.2004 26.6496 15.7304C26.5496 12.2904 23.7796 9.46044 20.3396 9.28044C20.2196 9.28044 20.1096 9.28044 19.9896 9.28044H19.9996Z" fill="black"/>
<path d="M28.6995 31.72H11.2995C10.6295 31.72 10.0095 31.42 9.59953 30.89C9.18953 30.36 9.03953 29.69 9.20953 29.04L10.4895 23.89C10.7295 22.92 11.5895 22.25 12.5895 22.25H16.2895C16.5695 22.25 16.7895 22.47 16.7895 22.75C16.7895 23.03 16.5695 23.25 16.2895 23.25H12.5895C12.0495 23.25 11.5895 23.61 11.4595 24.13L10.1795 29.28C10.0895 29.63 10.1795 29.99 10.3895 30.28C10.5995 30.57 10.9495 30.73 11.3095 30.73H28.7095C29.0695 30.73 29.3995 30.57 29.6295 30.28C29.8495 30 29.9295 29.63 29.8395 29.28L28.5595 24.13C28.4295 23.61 27.9695 23.25 27.4295 23.25H23.7595C23.4795 23.25 23.2595 23.03 23.2595 22.75C23.2595 22.47 23.4795 22.25 23.7595 22.25H27.4295C28.4295 22.25 29.2895 22.93 29.5295 23.89L30.8095 29.04C30.9695 29.69 30.8295 30.37 30.4095 30.89C29.9995 31.42 29.3795 31.72 28.7095 31.72H28.6995Z" fill="black"/>
<path d="M19.9987 19.5208C18.1487 19.5208 16.6387 18.0108 16.6387 16.1608C16.6387 14.3108 18.1487 12.8008 19.9987 12.8008C21.8487 12.8008 23.3587 14.3108 23.3587 16.1608C23.3587 18.0108 21.8487 19.5208 19.9987 19.5208ZM19.9987 13.8008C18.6987 13.8008 17.6387 14.8608 17.6387 16.1608C17.6387 17.4608 18.6987 18.5208 19.9987 18.5208C21.2987 18.5208 22.3587 17.4608 22.3587 16.1608C22.3587 14.8608 21.2987 13.8008 19.9987 13.8008Z" fill="black"/>
</g>
<defs>
<linearGradient id="paint0_linear_467_63420" x1="14.5188" y1="30.8495" x2="16.1688" y2="24.6395" gradientUnits="userSpaceOnUse">
<stop stop-color="#009CB5"/>
<stop offset="1" stop-color="#71C6AC"/>
</linearGradient>
<linearGradient id="paint1_linear_467_63420" x1="21.7498" y1="17.4098" x2="19.8498" y2="15.6398" gradientUnits="userSpaceOnUse">
<stop stop-color="#009CB5"/>
<stop offset="1" stop-color="#71C6AC"/>
</linearGradient>
<clipPath id="clip0_467_63420">
<rect width="32" height="32" fill="white" transform="translate(4 4)"/>
</clipPath>
</defs>
</svg>
