<svg width="20" height="20" viewBox="0 0 20 20" fill="none" xmlns="http://www.w3.org/2000/svg">
<path d="M9.54883 16.2835V18.0926C9.54883 18.6829 8.6807 19.1628 7.61283 19.1628H2.59615C1.52828 19.1628 0.660156 18.6829 0.660156 18.0926V12.453C0.660156 11.8627 1.52828 11.3828 2.59615 11.3828H7.61283C8.6807 11.3828 9.54883 11.8627 9.54883 12.453V14.2748" fill="url(#paint0_linear_3105_2736)"/>
<path d="M9.71016 19.6598H3.18016C1.51016 19.6598 0.160156 18.3098 0.160156 16.6398V3.35984C0.160156 1.69984 1.51016 0.339844 3.18016 0.339844H9.71016C11.3702 0.339844 12.7302 1.68984 12.7302 3.35984V7.64984C12.7302 7.92984 12.5102 8.14984 12.2302 8.14984C11.9502 8.14984 11.7302 7.92984 11.7302 7.64984V3.35984C11.7302 2.24984 10.8202 1.33984 9.71016 1.33984H3.18016C2.07016 1.33984 1.16016 2.24984 1.16016 3.35984V16.6398C1.16016 17.7498 2.07016 18.6598 3.18016 18.6598H9.71016C10.8202 18.6598 11.7302 17.7498 11.7302 16.6398V12.3798C11.7302 12.0998 11.9502 11.8798 12.2302 11.8798C12.5102 11.8798 12.7302 12.0998 12.7302 12.3798V16.6398C12.7302 18.3098 11.3802 19.6598 9.71016 19.6598Z" fill="#332D1B"/>
<path d="M19.0995 10.4995H8.43945C8.15945 10.4995 7.93945 10.2795 7.93945 9.99951C7.93945 9.71951 8.15945 9.49951 8.43945 9.49951H19.0995C19.3795 9.49951 19.5995 9.71951 19.5995 9.99951C19.5995 10.2795 19.3795 10.4995 19.0995 10.4995Z" fill="#332D1B"/>
<path d="M19.3399 10.5296C19.2099 10.5296 19.0799 10.4796 18.9899 10.3796L15.0699 6.45961C14.8699 6.25961 14.8699 5.94961 15.0699 5.74961C15.2699 5.54961 15.5799 5.54961 15.7799 5.74961L19.6999 9.66961C19.8999 9.86961 19.8999 10.1796 19.6999 10.3796C19.5999 10.4796 19.4699 10.5296 19.3499 10.5296H19.3399Z" fill="#332D1B"/>
<path d="M15.4102 14.4295C15.2802 14.4295 15.1502 14.3795 15.0602 14.2795C14.8602 14.0795 14.8602 13.7695 15.0602 13.5695L18.9802 9.64951C19.1802 9.44951 19.4902 9.44951 19.6902 9.64951C19.8902 9.84951 19.8902 10.1595 19.6902 10.3595L15.7702 14.2795C15.6702 14.3795 15.5402 14.4295 15.4202 14.4295H15.4102Z" fill="#332D1B"/>
<defs>
<linearGradient id="paint0_linear_3105_2736" x1="5.10449" y1="11.3828" x2="5.10449" y2="19.1628" gradientUnits="userSpaceOnUse">
<stop stop-color="#08899D"/>
<stop offset="1" stop-color="#3BD1E9"/>
</linearGradient>
</defs>
</svg>
