<svg width="32" height="32" viewBox="0 0 32 32" fill="none" xmlns="http://www.w3.org/2000/svg">
<g clip-path="url(#clip0_3050_30823)">
<path d="M16.6204 16.5398H14.9104L12.4004 16.2098L10.3004 14.1598L4.69043 7.08984H16.6204V16.5398Z" fill="url(#paint0_linear_3050_30823)"/>
<path d="M27.3104 25.3997H4.69043C4.41043 25.3997 4.19043 25.1797 4.19043 24.8997V7.21973C4.19043 6.93973 4.41043 6.71973 4.69043 6.71973H27.3204C27.6004 6.71973 27.8204 6.93973 27.8204 7.21973V24.9097C27.8204 25.1897 27.6004 25.4097 27.3204 25.4097L27.3104 25.3997ZM5.18043 24.3997H26.8104V7.71973H5.19043V24.4097L5.18043 24.3997Z" fill="black"/>
<path d="M27.3104 25.4103C27.1704 25.4103 27.0204 25.3503 26.9304 25.2303L19.4804 16.3903C19.3204 16.2003 19.3204 15.9303 19.4804 15.7503L26.9304 6.91033C27.0704 6.75033 27.2904 6.69033 27.4804 6.76033C27.6804 6.83033 27.8104 7.02033 27.8104 7.23033V24.9203C27.8104 25.1303 27.6804 25.3203 27.4804 25.3903C27.4204 25.4103 27.3704 25.4203 27.3104 25.4203V25.4103ZM20.5104 16.0703L26.8104 23.5403V8.59033L20.5104 16.0603V16.0703Z" fill="black"/>
<path d="M4.69043 25.4096C4.63043 25.4096 4.57043 25.4096 4.52043 25.3796C4.32043 25.3096 4.19043 25.1196 4.19043 24.9096V7.21959C4.19043 7.00959 4.32043 6.81959 4.52043 6.74959C4.72043 6.67959 4.94043 6.73959 5.07043 6.89959L12.5204 15.7396C12.6804 15.9296 12.6804 16.1996 12.5204 16.3796L5.07043 25.2196C4.97043 25.3296 4.83043 25.3996 4.69043 25.3996V25.4096ZM5.19043 8.58959V23.5396L11.4904 16.0696L5.19043 8.59959V8.58959Z" fill="black"/>
<path d="M16.0002 17.34C13.9302 17.34 12.0002 16.53 10.5502 15.04C10.5502 15.04 10.5302 15.02 10.5202 15.01L4.3002 7.52996C4.1802 7.37996 4.1502 7.16996 4.2302 6.99996C4.3102 6.81996 4.4902 6.70996 4.6802 6.70996H27.3102C27.5002 6.70996 27.6802 6.81996 27.7602 6.99996C27.8402 7.17996 27.8202 7.37996 27.6902 7.52996L21.4702 15.01C20.0002 16.52 18.0602 17.34 16.0002 17.34ZM11.2802 14.36C12.5302 15.64 14.2102 16.34 16.0002 16.34C17.8002 16.34 19.4802 15.63 20.7302 14.35L26.2402 7.71996H5.7502L11.2802 14.37V14.36Z" fill="black"/>
</g>
<defs>
<linearGradient id="paint0_linear_3050_30823" x1="10.4104" y1="16.8698" x2="10.8404" y2="7.80984" gradientUnits="userSpaceOnUse">
<stop stop-color="#009CB5"/>
<stop offset="1" stop-color="#71C6AC"/>
</linearGradient>
<clipPath id="clip0_3050_30823">
<rect width="32" height="32" fill="white"/>
</clipPath>
</defs>
</svg>
