<svg width="24" height="24" viewBox="0 0 24 24" fill="none" xmlns="http://www.w3.org/2000/svg">
<g clip-path="url(#clip0_569_40145)">
<path d="M12.4651 12.4049H11.1826L9.30008 12.1574L7.72508 10.6199L3.51758 5.31738H12.4651V12.4049Z" fill="url(#paint0_linear_569_40145)"/>
<path d="M20.4826 19.05H3.51758C3.30758 19.05 3.14258 18.885 3.14258 18.675V5.41504C3.14258 5.20504 3.30758 5.04004 3.51758 5.04004H20.4901C20.7001 5.04004 20.8651 5.20504 20.8651 5.41504V18.6825C20.8651 18.8925 20.7001 19.0575 20.4901 19.0575L20.4826 19.05ZM3.88508 18.3H20.1076V5.79004H3.89258V18.3075L3.88508 18.3Z" fill="black"/>
<path d="M20.482 19.057C20.377 19.057 20.2645 19.012 20.197 18.922L14.6095 12.292C14.4895 12.1495 14.4895 11.947 14.6095 11.812L20.197 5.18201C20.302 5.06201 20.467 5.01701 20.6095 5.06951C20.7595 5.12201 20.857 5.26451 20.857 5.42201V18.6895C20.857 18.847 20.7595 18.9895 20.6095 19.042C20.5645 19.057 20.527 19.0645 20.482 19.0645V19.057ZM15.382 12.052L20.107 17.6545V6.44201L15.382 12.0445V12.052Z" fill="black"/>
<path d="M3.51758 19.0577C3.47258 19.0577 3.42758 19.0577 3.39008 19.0352C3.24008 18.9827 3.14258 18.8402 3.14258 18.6827V5.41518C3.14258 5.25768 3.24008 5.11518 3.39008 5.06268C3.54008 5.01018 3.70508 5.05518 3.80258 5.17518L9.39008 11.8052C9.51008 11.9477 9.51008 12.1502 9.39008 12.2852L3.80258 18.9152C3.72758 18.9977 3.62258 19.0502 3.51758 19.0502V19.0577ZM3.89258 6.44268V17.6552L8.61758 12.0527L3.89258 6.45018V6.44268Z" fill="black"/>
<path d="M11.9997 13.0047C10.4472 13.0047 8.99966 12.3972 7.91216 11.2797C7.91216 11.2797 7.89716 11.2647 7.88966 11.2572L3.22466 5.64723C3.13466 5.53473 3.11216 5.37723 3.17216 5.24973C3.23216 5.11473 3.36716 5.03223 3.50966 5.03223H20.4822C20.6247 5.03223 20.7597 5.11473 20.8197 5.24973C20.8797 5.38473 20.8647 5.53473 20.7672 5.64723L16.1022 11.2572C14.9997 12.3897 13.5447 13.0047 11.9997 13.0047ZM8.45966 10.7697C9.39716 11.7297 10.6572 12.2547 11.9997 12.2547C13.3497 12.2547 14.6097 11.7222 15.5472 10.7622L19.6797 5.78973H4.31216L8.45966 10.7772V10.7697Z" fill="black"/>
</g>
<defs>
<linearGradient id="paint0_linear_569_40145" x1="7.80758" y1="12.6524" x2="8.13008" y2="5.85738" gradientUnits="userSpaceOnUse">
<stop stop-color="#009CB5"/>
<stop offset="1" stop-color="#71C6AC"/>
</linearGradient>
<clipPath id="clip0_569_40145">
<rect width="24" height="24" fill="white"/>
</clipPath>
</defs>
</svg>
