<svg width="112" height="112" viewBox="0 0 112 112" fill="none" xmlns="http://www.w3.org/2000/svg">
<g style="mix-blend-mode:multiply">
<path d="M99.4379 157.512C98.5554 148.11 98.2747 138.651 98.5919 129.206C98.7344 125.007 99.0182 120.712 100.768 116.839C105.247 106.939 117.668 102.742 128.921 101.027C139.284 99.4439 149.84 99.0284 160.289 99.7891C170.644 100.542 181.07 102.445 191.347 100.901C201.62 99.3573 212.085 93.3 214.584 83.7713C216.069 78.1028 214.499 72.0227 211.391 67.0023C208.284 61.9818 203.75 57.8958 199.01 54.1862C193.579 49.9384 187.556 45.8068 184.819 39.6692C181.987 33.3146 183.493 25.4258 188.502 20.3498C195.629 13.1278 207.249 12.5666 217.576 11.1525C230.697 9.35955 243.97 5.13676 253.468 -3.62981C262.966 -12.3997 267.771 -26.4413 262.493 -37.8608" stroke="white" stroke-miterlimit="10"/>
<path d="M102.613 158.962C101.732 149.753 101.459 140.489 101.789 131.243C101.938 127.133 102.225 122.929 103.919 119.132C108.241 109.423 120.162 105.16 131.01 103.283C133.585 102.837 136.175 102.468 138.774 102.172C146.256 101.323 153.813 101.097 161.328 101.5C171.36 102.043 181.478 103.699 191.463 102.082C201.445 100.47 211.244 94.469 214.209 85.381C215.323 81.9611 215.705 78.5382 215.185 75.1403C214.833 72.8265 214.13 70.531 213.099 68.3552C212.628 67.3601 212.096 66.3844 211.499 65.4259C209.102 61.5942 205.667 58.1916 202.108 55.05C201.757 54.7378 201.403 54.4302 201.044 54.1203C195.518 49.3195 189.753 44.4486 187.245 37.9109C184.737 31.3732 186.123 24.0098 190.971 19.0149C197.867 11.9056 209.047 11.1502 218.944 9.55733C219.724 9.43256 220.503 9.29651 221.283 9.15257C233.068 6.97624 244.665 2.62872 253.016 -5.50439C261.919 -14.1741 266.255 -27.8423 260.947 -38.9014" stroke="#F9F9F9" stroke-miterlimit="10"/>
<path d="M105.781 160.423C104.898 151.41 104.636 142.336 104.983 133.289C105.139 129.266 105.432 125.157 107.065 121.431C111.234 111.914 122.656 107.582 133.101 105.55C135.582 105.068 138.076 104.657 140.58 104.318C147.794 103.348 155.093 102.983 162.366 103.226C172.074 103.555 181.885 104.965 191.575 103.281C201.263 101.601 210.472 95.6512 213.833 87.0082C215.188 83.5218 216.137 80.2114 216.056 76.7694C216.001 74.4223 215.6 72.0396 214.8 69.7176C214.436 68.6559 213.991 67.598 213.459 66.5529C211.328 62.3659 207.775 58.5803 204.147 55.0934C203.788 54.746 203.426 54.403 203.064 54.0601C197.442 48.7035 191.93 43.1192 189.646 36.146C187.611 29.9287 188.727 22.5919 193.413 17.672C200.081 10.6719 210.822 9.72313 220.285 7.95786C221.03 7.81973 221.775 7.67028 222.521 7.51293C233.777 5.13313 244.746 0.665044 252.538 -7.37463C260.847 -15.9458 264.725 -29.2362 259.386 -39.9297" stroke="#F4F4F4" stroke-miterlimit="10"/>
<path d="M108.936 161.88C108.056 153.058 107.806 144.182 108.166 135.331C108.326 131.397 108.631 127.379 110.205 123.73C114.224 114.406 125.149 110.011 135.186 107.819C137.57 107.299 139.97 106.849 142.383 106.47C149.329 105.379 156.372 104.872 163.402 104.958C172.785 105.074 182.291 106.241 191.69 104.49C201.086 102.74 209.771 96.8407 213.466 88.6487C215.073 85.0836 216.571 81.8975 216.926 78.4067C217.171 76.0277 217.069 73.5533 216.495 71.0851C216.234 69.954 215.881 68.8188 215.416 67.6821C213.552 63.1361 209.882 58.969 206.18 55.1294C205.813 54.7499 205.447 54.3703 205.077 53.9919C199.354 48.0778 194.095 41.8019 192.041 34.3653C190.352 28.2484 191.327 21.1542 195.855 16.3169C202.294 9.43168 212.599 8.28918 221.631 6.34771C222.342 6.19626 223.054 6.03349 223.766 5.86278C234.498 3.28262 244.837 -1.30692 252.077 -9.25591C259.798 -17.7277 263.213 -30.6357 257.846 -40.9661" stroke="#EEEEEE" stroke-miterlimit="10"/>
<path d="M112.085 163.344C111.206 154.718 110.967 146.038 111.35 137.385C111.519 133.54 111.83 129.618 113.344 126.04C117.213 116.906 127.643 112.449 137.276 110.105C139.565 109.546 141.871 109.056 144.188 108.635C150.867 107.424 157.653 106.779 164.438 106.706C173.499 106.613 182.696 107.531 191.806 105.713C200.912 103.897 209.135 98.0529 213.1 90.3114C214.973 86.6542 217.006 83.6 217.792 80.0638C218.335 77.6521 218.528 75.0861 218.183 72.4728C218.028 71.2738 217.762 70.0586 217.363 68.8295C215.762 63.9234 211.977 59.3684 208.205 55.1799C207.831 54.7647 207.457 54.3494 207.082 53.9342C201.261 47.4551 196.24 40.5061 194.421 32.5816C193.042 26.5842 193.916 19.7176 198.284 14.9603C204.497 8.19114 214.364 6.85669 222.97 4.73841C223.646 4.5703 224.324 4.39764 225.002 4.21362C235.212 1.43044 244.922 -3.27935 251.614 -11.1292C258.75 -19.4952 261.708 -32.0231 256.319 -41.9906" stroke="#E9E9E9" stroke-miterlimit="10"/>
<path d="M115.23 164.794C114.357 156.364 114.131 147.88 114.53 139.425C114.706 135.668 115.027 131.838 116.484 128.339C120.205 119.4 130.142 114.878 139.373 112.378C141.566 111.784 143.776 111.252 146.003 110.791C152.416 109.459 158.947 108.673 165.489 108.445C174.226 108.138 183.117 108.814 191.937 106.928C200.75 105.047 208.576 99.2693 212.751 91.9656C214.899 88.2086 217.455 85.2962 218.673 81.7091C219.508 79.2617 220.003 76.6076 219.88 73.8422C219.828 72.5761 219.65 71.2791 219.318 69.957C217.977 64.6884 214.075 59.748 210.231 55.2019C209.85 54.7543 209.472 54.302 209.089 53.8509C203.171 46.8071 198.371 39.1971 196.796 30.7668C195.7 24.9046 196.499 18.2471 200.707 13.5752C206.694 6.92322 216.128 5.39614 224.301 3.10383C224.947 2.92132 225.586 2.73317 226.227 2.53705C235.913 -0.444015 245.001 -5.2742 251.147 -13.0267C257.699 -21.2887 260.21 -33.4318 254.796 -43.0342" stroke="#E3E3E3" stroke-miterlimit="10"/>
<path d="M118.365 166.246C117.496 158.013 117.285 149.721 117.705 141.468C117.891 137.8 118.218 134.063 119.617 130.639C123.193 121.896 132.635 117.316 141.466 114.659C143.565 114.027 145.683 113.46 147.814 112.954C153.96 111.502 160.236 110.578 166.537 110.19C174.951 109.671 183.535 110.101 192.067 108.149C200.592 106.204 208.066 100.506 212.408 93.6299C214.847 89.7698 217.903 87.0027 219.549 83.3638C220.68 80.8824 221.466 78.1347 221.57 75.2218C221.621 73.8834 221.53 72.5086 221.261 71.0942C220.178 65.4607 216.162 60.1317 212.244 55.2308C211.855 54.7471 211.468 54.2587 211.083 53.7738C205.063 46.1636 200.472 37.9035 199.155 28.9437C198.314 23.226 199.067 16.7693 203.118 12.1791C208.883 5.6408 217.883 3.92605 225.628 1.45892C226.24 1.26322 226.846 1.06186 227.453 0.852504C236.62 -2.33052 245.085 -7.27555 250.685 -14.9279C256.656 -23.0842 258.72 -34.8389 253.284 -44.075" stroke="#DEDEDE" stroke-miterlimit="10"/>
<path d="M121.479 167.71C120.618 159.675 120.422 151.581 120.861 143.53C121.056 139.952 121.39 136.312 122.736 132.963C126.165 124.419 135.12 119.775 143.551 116.968C145.553 116.297 147.577 115.692 149.619 115.146C155.499 113.574 161.518 112.51 167.58 111.965C175.673 111.237 183.951 111.421 192.194 109.402C200.429 107.394 208.846 102.456 212.064 95.3343C215.48 91.9034 218.347 88.7441 220.422 85.0559C221.844 82.5411 222.926 79.6967 223.25 76.633C223.402 75.2264 223.4 73.7687 223.195 72.2602C222.369 66.2597 218.238 60.5368 214.25 55.2779C213.856 54.7567 213.463 54.2356 213.069 53.7145C206.952 45.5336 202.543 36.6313 201.504 27.1319C200.895 21.5626 201.627 15.3075 205.519 10.8009C211.062 4.38226 219.63 2.47567 226.95 -0.165933C227.528 -0.374815 228.1 -0.589357 228.674 -0.811915C237.321 -4.19185 245.172 -9.25653 250.229 -16.8072C255.624 -24.8526 257.248 -36.221 251.792 -45.0895" stroke="#D8D8D8" stroke-miterlimit="10"/>
<path d="M124.589 169.164C123.733 161.328 123.556 153.431 124.017 145.58C124.222 142.091 124.567 138.544 125.853 135.273C129.139 126.928 137.607 122.226 145.64 119.26C147.55 118.554 149.48 117.907 151.427 117.319C157.043 115.628 162.81 114.425 168.63 113.722C176.401 112.781 184.373 112.719 192.33 110.64C200.278 108.564 208.406 103.797 211.731 97.0236C215.502 93.5845 218.797 90.4744 221.297 86.7362C223.01 84.1829 224.381 81.2468 224.928 78.0335C225.185 76.5571 225.265 75.0137 225.127 73.414C224.555 67.0441 220.308 60.9298 216.249 55.3111C215.849 54.7569 215.447 54.1993 215.048 53.6372C208.831 44.8791 204.586 35.3449 203.841 25.2887C203.439 19.8799 204.173 13.8122 207.912 9.39231C213.233 3.09431 221.369 0.997213 228.264 -1.81869C228.809 -2.04073 229.347 -2.26844 229.886 -2.50761C238.017 -6.08881 245.251 -11.2667 249.772 -18.7188C254.597 -26.6565 255.778 -37.6304 250.308 -46.1312" stroke="#D2D2D2" stroke-miterlimit="10"/>
<path d="M127.689 170.621C126.84 162.984 126.683 155.285 127.163 147.635C127.377 144.233 127.731 140.784 128.966 137.592C132.11 129.444 140.094 124.685 147.728 121.569C149.542 120.826 151.379 120.14 153.237 119.512C158.59 117.701 164.101 116.359 169.682 115.495C177.132 114.342 184.8 114.037 192.471 111.891C200.133 109.752 207.977 105.152 211.409 98.7293C215.532 95.2782 219.256 92.2197 222.176 88.4287C224.175 85.841 225.841 82.81 226.604 79.4405C226.959 77.8916 227.128 76.2677 227.05 74.574C226.731 67.8327 222.371 61.3238 218.237 55.341C217.829 54.7502 217.419 54.1561 217.017 53.5595C210.699 44.2258 206.588 34.0576 206.162 23.4402C205.951 18.1901 206.706 12.3162 210.291 7.98051C215.393 1.80438 223.1 -0.484219 229.573 -3.47428C230.084 -3.70946 230.589 -3.95033 231.095 -4.20268C238.71 -7.98031 245.332 -13.2753 249.321 -20.6241C253.577 -28.4478 254.323 -39.0259 248.836 -47.1599" stroke="#CDCDCD" stroke-miterlimit="10"/>
<path d="M130.781 172.075C129.942 164.635 129.802 157.137 130.308 149.694C130.533 146.383 130.895 143.033 132.074 139.915C135.079 131.968 142.58 127.149 149.816 123.879C151.539 123.101 153.283 122.374 155.047 121.704C160.137 119.774 165.395 118.294 170.738 117.271C177.866 115.909 185.232 115.353 192.619 113.144C199.993 110.944 207.558 106.511 211.095 100.446C215.567 96.9826 219.715 93.9733 223.059 90.1301C225.347 87.5066 227.297 84.379 228.281 80.8581C228.739 79.2385 228.991 77.5314 228.977 75.742C228.908 68.6273 224.435 61.7183 220.232 55.3753C219.816 54.7477 219.403 54.1189 218.992 53.4856C212.577 43.572 208.57 32.7691 208.488 21.5814C208.451 16.4965 209.243 10.8082 212.672 6.55862C217.559 0.500941 224.837 -1.9779 230.889 -5.1386C231.367 -5.38692 231.838 -5.64437 232.312 -5.90645C239.415 -9.88498 245.426 -15.2954 248.883 -22.5347C252.573 -30.2465 252.891 -40.4275 247.39 -48.1898" stroke="#C7C7C7" stroke-miterlimit="10"/>
<path d="M133.853 173.535C133.022 166.297 132.904 158.998 133.431 151.759C133.667 148.539 134.041 145.283 135.166 142.247C138.034 134.502 145.051 129.629 151.899 126.204C153.526 125.388 155.178 124.622 156.858 123.912C161.685 121.859 166.695 120.245 171.797 119.062C178.607 117.488 185.669 116.687 192.772 114.413C199.864 112.151 207.145 107.893 210.79 102.178C215.611 98.7066 220.182 95.7455 223.94 91.8486C226.514 89.1855 228.751 85.9631 229.951 82.2876C230.505 80.5947 230.844 78.8062 230.894 76.9206C231.074 69.4304 226.486 62.1241 222.212 55.412C221.789 54.7509 221.367 54.0817 220.952 53.4101C214.44 42.9137 210.503 31.4719 210.797 19.7153C210.92 14.793 211.764 9.2978 215.041 5.13402C219.712 -0.799432 226.562 -3.46851 232.195 -6.80328C232.639 -7.06819 233.078 -7.33534 233.514 -7.61284C240.106 -11.7876 245.512 -17.3141 248.443 -24.4473C251.571 -32.0458 251.462 -41.8262 245.952 -49.2164" stroke="#C2C2C2" stroke-miterlimit="10"/>
<path d="M136.914 174.994C136.096 167.957 135.997 160.861 136.549 153.825C136.796 150.697 137.18 147.54 138.25 144.579C140.982 137.039 147.521 132.107 153.976 128.532C155.512 127.678 157.074 126.877 158.659 126.122C163.226 123.949 167.984 122.194 172.851 120.855C179.343 119.067 186.102 118.019 192.924 115.684C199.731 113.361 206.736 109.274 210.489 103.915C215.655 100.431 220.649 97.5222 224.822 93.57C227.679 90.8719 230.2 87.5507 231.616 83.7187C232.272 81.9543 232.693 80.0817 232.802 78.1007C233.23 70.2333 228.529 62.5229 224.184 55.448C223.753 54.7497 223.327 54.0456 222.904 53.3368C216.291 42.2524 212.393 30.1679 213.091 17.8402C213.362 13.0814 214.269 7.77688 217.397 3.70317C221.854 -2.10487 228.281 -4.96545 233.497 -8.47435C233.908 -8.75239 234.315 -9.03269 234.717 -9.32336C240.803 -13.699 245.605 -19.3365 248.014 -26.3625C250.585 -33.8427 250.056 -43.2247 244.532 -50.2355" stroke="#BCBCBC" stroke-miterlimit="10"/>
<path d="M139.952 176.446C139.145 169.614 139.069 162.72 139.645 155.893C139.903 152.857 140.299 149.796 141.317 146.918C143.911 139.584 149.98 134.597 156.042 130.866C157.485 129.978 158.954 129.135 160.452 128.34C164.76 126.048 169.271 124.155 173.899 122.655C180.076 120.657 186.534 119.361 193.075 116.965C199.601 114.578 205.526 109.924 210.19 105.672C214.853 101.42 221.109 99.3166 225.697 95.316C228.838 92.5815 231.643 89.1645 233.271 85.1766C234.024 83.3417 234.529 81.38 234.701 79.3053C235.375 71.059 230.564 62.9461 226.149 55.502C225.714 54.7652 225.277 54.0249 224.851 53.281C218.141 41.6081 214.24 28.8691 215.38 15.9731C215.786 11.3753 216.77 6.26925 219.746 2.2842C223.99 -3.39721 229.997 -6.44938 234.795 -10.1313C235.173 -10.4225 235.547 -10.7159 235.917 -11.0198C241.499 -15.5929 245.7 -21.3445 247.592 -28.2619C249.611 -35.6274 248.659 -44.6026 243.13 -51.2383" stroke="#B7B7B7" stroke-miterlimit="10"/>
<path d="M142.988 177.911C142.195 171.283 142.136 164.594 142.742 157.972C143.012 155.029 143.417 152.065 144.383 149.266C146.843 142.136 152.441 137.095 158.118 133.213C159.466 132.288 160.848 131.405 162.254 130.569C166.304 128.157 170.565 126.123 174.96 124.466C180.822 122.254 186.98 120.709 193.243 118.252C199.486 115.805 205.256 111.365 209.908 107.434C215.127 103.024 221.587 101.12 226.581 97.0653C230 94.292 233.087 90.779 234.929 86.6332C235.781 84.7228 236.368 82.6798 236.602 80.5075C237.523 71.8794 232.596 63.3644 228.111 55.5459C227.669 54.775 227.228 53.996 226.793 53.2111C219.988 40.9467 216.042 27.5413 217.663 14.0868C218.199 9.64505 219.265 4.74082 222.093 0.843978C226.128 -4.7144 231.711 -7.95248 236.1 -11.81C236.445 -12.1144 236.785 -12.4244 237.124 -12.738C242.202 -17.5111 245.812 -23.3756 247.181 -30.1844C248.65 -37.4327 247.283 -46.0002 241.749 -52.2592" stroke="#B1B1B1" stroke-miterlimit="10"/>
<path d="M146.01 179.364C145.229 172.941 145.193 166.454 145.824 160.043C146.105 157.193 146.521 154.331 147.438 151.611C149.767 144.69 154.895 139.592 160.185 135.556C161.443 134.593 162.732 133.673 164.051 132.797C167.845 130.266 171.858 128.094 176.02 126.275C181.569 123.849 187.428 122.059 193.413 119.537C199.38 117.03 204.991 112.827 209.637 109.198C215.261 104.807 222.068 102.927 227.474 98.8157C231.173 96.0061 234.539 92.3933 236.592 88.0938C237.539 86.1123 238.21 83.983 238.507 81.7129C239.67 72.7027 234.632 63.778 230.077 55.5916C229.628 54.7831 229.18 53.9698 228.741 53.1459C221.837 40.2888 217.806 26.1975 219.945 12.1958C220.602 7.90996 221.758 3.20976 224.441 -0.594544C228.267 -6.02401 233.433 -9.45408 237.412 -13.4862C237.725 -13.8037 238.033 -14.127 238.338 -14.4572C242.919 -19.4281 245.935 -25.4063 246.794 -32.1044C247.716 -39.2309 245.94 -47.3929 240.396 -53.2711" stroke="#ABABAB" stroke-miterlimit="10"/>
<path d="M149.006 180.823C148.237 174.607 148.226 168.326 148.886 162.127C149.18 159.37 149.609 156.605 150.472 153.968C152.67 147.256 157.334 142.105 162.238 137.917C163.405 136.92 164.606 135.957 165.834 135.039C169.374 132.388 173.143 130.074 177.067 128.099C182.306 125.462 187.863 123.42 193.575 120.837C199.267 118.269 204.723 114.319 209.36 110.984C215.4 106.638 222.541 104.753 228.349 100.591C232.327 97.7447 235.967 94.0332 238.232 89.575C239.278 87.521 240.029 85.3063 240.383 82.9392C241.788 73.5456 236.642 64.2131 232.018 55.649C231.561 54.8026 231.109 53.9502 230.663 53.092C223.664 39.6348 219.499 24.8415 222.206 10.3111C222.976 6.17282 224.23 1.69061 226.764 -2.02263C230.382 -7.32205 235.136 -10.9444 238.703 -15.1501C238.984 -15.4808 239.259 -15.8172 239.532 -16.1607C243.615 -21.3319 246.045 -27.4214 246.397 -34.0077C246.777 -41.0148 244.592 -48.7645 239.046 -54.2626" stroke="#A6A6A6" stroke-miterlimit="10"/>
<path d="M151.995 182.277C151.242 176.265 151.254 170.196 151.939 164.207C152.242 161.547 152.684 158.879 153.501 156.325C155.571 149.826 159.768 144.62 164.298 140.28C165.375 139.244 166.485 138.247 167.627 137.286C170.913 134.515 174.438 132.063 178.13 129.923C183.059 127.071 188.321 124.782 193.759 122.135C199.174 119.509 204.476 115.826 209.107 112.77C215.571 108.51 223.035 106.582 229.247 102.366C233.499 99.485 237.42 95.6758 239.891 91.0597C241.032 88.9308 241.867 86.6328 242.282 84.1672C243.927 74.3893 238.672 64.6438 233.979 55.7089C233.515 54.828 233.055 53.9377 232.605 53.0402C225.509 38.9856 221.166 23.4605 224.482 8.41939C225.362 4.4273 226.718 0.163182 229.109 -3.45587C232.524 -8.62877 236.86 -12.4377 240.026 -16.8196C240.275 -17.1635 240.518 -17.5131 240.755 -17.8686C244.347 -23.2381 246.19 -29.4445 246.039 -35.9145C245.88 -42.801 243.295 -50.1373 237.744 -55.2524" stroke="#A0A0A0" stroke-miterlimit="10"/>
<path d="M154.977 183.726C154.237 177.925 154.275 172.063 154.99 166.289C155.306 163.724 155.763 161.158 156.524 158.684C158.468 152.397 162.206 147.14 166.354 142.643C167.341 141.573 168.365 140.533 169.417 139.53C172.452 136.639 175.732 134.045 179.196 131.747C183.818 128.679 188.785 126.139 193.953 123.436C199.095 120.747 204.233 117.352 208.872 114.561C215.767 110.416 223.54 108.42 230.154 104.152C234.681 101.232 238.878 97.3263 241.555 92.5521C242.793 90.3505 243.707 87.9668 244.183 85.4025C246.068 75.2427 240.702 65.0841 235.941 55.7689C235.469 54.8499 235.005 53.9202 234.544 52.9858C227.355 38.3304 222.778 22.045 226.753 6.52427C227.741 2.66762 229.197 -1.36066 231.447 -4.89296C234.658 -9.93352 238.585 -13.9387 241.349 -18.4924C241.565 -18.853 241.777 -19.2159 241.982 -19.5846C245.082 -25.1549 246.346 -31.4724 245.692 -37.8274C245.003 -44.5901 242.012 -51.5118 236.456 -56.2423" stroke="#9B9B9B" stroke-miterlimit="10"/>
<path d="M157.939 185.183C157.217 179.591 157.277 173.938 158.019 168.381C158.348 165.911 158.815 163.446 159.532 161.056C161.346 154.982 164.631 149.672 168.403 145.025C169.302 143.916 170.235 142.839 171.202 141.796C173.987 138.786 177.029 136.052 180.263 133.593C184.579 130.312 189.255 127.52 194.152 124.755C199.021 122.008 203.987 118.91 208.644 116.377C215.972 112.391 224.051 110.28 231.062 105.963C235.861 103.009 240.331 99.0037 243.219 94.0736C244.551 91.8005 245.546 89.3262 246.08 86.6677C248.203 76.1221 242.73 65.5517 237.903 55.8587C237.427 54.9003 236.954 53.9371 236.488 52.9632C229.207 37.7056 224.348 20.628 229.029 4.65263C230.121 0.926627 231.683 -2.86328 233.79 -6.29855C236.799 -11.2056 240.321 -15.4038 242.681 -20.1317C242.865 -20.5055 243.049 -20.8829 243.22 -21.2636C245.835 -27.0326 246.52 -33.4632 245.37 -39.7034C244.149 -46.3435 240.761 -52.8428 235.204 -57.1916" stroke="#959595" stroke-miterlimit="10"/>
<path d="M160.896 186.638C160.188 181.259 160.276 175.817 161.047 170.474C161.389 168.1 161.869 165.74 162.535 163.43C164.225 157.572 167.057 152.207 170.457 147.406C171.266 146.26 172.115 145.143 172.994 144.058C175.531 140.927 178.333 138.056 181.34 135.433C185.354 131.936 189.739 128.893 194.368 126.068C198.97 123.262 203.755 120.475 208.437 118.188C216.203 114.395 224.579 112.141 231.992 107.77C237.064 104.781 241.807 100.676 244.899 95.5878C246.323 93.2396 247.401 90.6818 247.996 87.9244C250.356 76.9927 244.776 66.0061 239.879 55.9359C239.397 54.9426 238.919 53.9399 238.446 52.9277C231.069 37.0645 225.884 19.1584 231.321 2.76903C232.518 -0.838354 234.186 -4.37198 236.153 -7.71415C238.962 -12.4865 242.077 -16.8767 244.043 -21.7814C244.196 -22.1685 244.348 -22.5591 244.488 -22.953C246.617 -28.9232 246.731 -35.4645 245.087 -41.5925C243.338 -48.1089 239.558 -54.1883 233.997 -58.149" stroke="#909090" stroke-miterlimit="10"/>
<path d="M163.848 188.089C161.885 173.411 166.401 158.231 174.791 146.336C183.182 134.441 195.206 125.689 208.254 120.021C216.455 116.459 225.132 114.024 232.938 109.602C240.745 105.179 247.851 98.2559 249.928 89.2111C252.524 77.8934 246.835 66.4948 241.873 56.0456C233.711 38.8621 226.992 18.7444 233.627 0.913241C236.931 -7.96972 243.318 -15.4298 245.775 -24.6129C249.18 -37.3404 243.617 -52.138 232.824 -59.0627" stroke="#8A8A8A" stroke-miterlimit="10"/>
</g>
<g style="mix-blend-mode:multiply">
<path d="M162.43 -83.772C158.971 -74.8403 154.927 -66.1122 150.329 -57.6441C148.283 -53.8803 146.065 -50.0878 142.661 -47.2934C133.967 -40.1482 120.452 -41.5158 109.151 -44.6536C98.7436 -47.5426 88.6917 -51.5698 79.2756 -56.6265C69.9426 -61.6369 61.065 -67.7247 50.7634 -70.6106C40.4581 -73.4956 27.9249 -72.3498 21.2509 -64.7214C17.2793 -60.1811 15.9793 -53.9865 16.5969 -48.121C17.2157 -42.252 19.5899 -36.6373 22.3308 -31.2802C25.4704 -25.1447 29.2192 -18.868 28.9796 -12.1376C28.7342 -5.16993 23.7355 1.38617 16.7419 3.91561C6.79261 7.51269 -4.32151 3.17475 -14.616 0.144797C-27.6937 -3.70272 -42.0194 -5.40354 -54.8897 -1.38391C-67.7574 2.6313 -78.6425 13.4123 -78.9118 26.0151" stroke="white" stroke-miterlimit="10"/>
<path d="M160.249 -86.0802C156.869 -77.3012 152.869 -68.7349 148.303 -60.4511C146.272 -56.7698 144.067 -53.0631 140.729 -50.3136C134.023 -44.7923 124.449 -44.2947 115.276 -45.7208C112.777 -46.1065 110.306 -46.6375 107.931 -47.2454C97.718 -49.8659 87.826 -53.6154 78.526 -58.3759C69.3118 -63.0947 60.5421 -68.9215 50.3858 -71.6312C44.6931 -73.1496 38.3817 -73.5754 32.6471 -72.4833C27.6512 -71.5305 23.0726 -69.3857 19.8181 -65.7711C19.2356 -65.1254 18.7084 -64.4451 18.2343 -63.7372C15.3057 -59.36 14.4107 -53.9104 14.9148 -48.6931C15.0776 -47.0175 15.3717 -45.3603 15.765 -43.7209C16.7944 -39.4453 18.4888 -35.2864 20.3206 -31.2672C23.2219 -24.8866 26.4413 -18.4186 25.931 -11.6377C25.4207 -4.8569 20.6562 1.44615 13.8441 3.95324C4.15122 7.51856 -6.66031 3.52786 -16.6482 0.827664C-17.4333 0.615887 -18.2285 0.410423 -19.0204 0.215345C-31.0422 -2.74182 -43.8798 -3.64732 -55.3954 0.239491C-67.6766 4.38463 -77.9571 14.9711 -78.0181 27.2301" stroke="#F9F9F9" stroke-miterlimit="10"/>
<path d="M157.889 -88.3966C154.597 -79.7739 150.661 -71.3781 146.134 -63.2756C144.125 -59.6742 141.935 -56.0565 138.667 -53.3506C132.103 -47.9162 122.772 -47.2719 113.806 -48.4808C111.362 -48.8068 108.942 -49.2734 106.611 -49.8151C96.5932 -52.1556 86.8586 -55.6072 77.677 -60.0562C68.5802 -64.4672 59.9097 -70.0074 49.9091 -72.5352C44.0247 -74.0226 37.5426 -74.475 31.6133 -73.4103C26.4634 -72.482 21.6967 -70.3406 18.3095 -66.6698C17.7039 -66.0139 17.1511 -65.3192 16.6536 -64.5901C13.5894 -60.1093 12.6956 -54.5038 13.1791 -49.1207C13.3349 -47.3935 13.622 -45.6849 14.0023 -44.0003C14.9952 -39.5997 16.596 -35.2915 18.285 -31.1366C20.952 -24.5239 23.6648 -17.8818 22.8861 -11.043C22.1463 -4.55039 17.6054 1.59809 10.9814 4.08878C1.55437 7.63081 -8.95423 4.00405 -18.6337 1.64794C-19.395 1.46207 -20.1652 1.28597 -20.9333 1.11678C-32.5715 -1.43569 -44.8858 -1.97288 -55.8436 2.04388C-67.524 6.32441 -77.1837 16.7221 -77.02 28.6246" stroke="#F4F4F4" stroke-miterlimit="10"/>
<path d="M155.497 -90.7138C152.294 -82.2488 148.419 -74.0168 143.94 -66.0951C141.947 -62.5752 139.781 -59.0439 136.58 -56.3834C130.154 -51.0374 121.071 -50.2446 112.308 -51.2402C109.915 -51.5093 107.547 -51.9085 105.26 -52.3844C95.4413 -54.443 85.8658 -57.5985 76.8033 -61.7413C67.8256 -65.8464 59.2495 -71.0967 49.4086 -73.4482C43.3305 -74.8994 36.6812 -75.3816 30.5617 -74.3437C25.2587 -73.4386 20.3022 -71.2944 16.7835 -67.5664C16.1514 -66.899 15.5769 -66.1905 15.0588 -65.4444C11.8656 -60.8562 10.9732 -55.0977 11.4374 -49.5483C11.5857 -47.7727 11.8661 -46.0126 12.2311 -44.2782C13.1896 -39.7486 14.6995 -35.2982 16.248 -31.0034C18.6875 -24.1547 20.8986 -17.3514 19.8443 -10.4425C18.8918 -4.19444 14.5563 1.75667 8.11723 4.23207C-1.04318 7.75101 -11.2469 4.48559 -20.6162 2.47117C-21.3535 2.31102 -22.0961 2.1597 -22.8427 2.02063C-34.0978 -0.125606 -45.8867 -0.297407 -56.278 3.84594C-67.3564 8.26034 -76.3913 18.4688 -76.0039 30.0174" stroke="#EEEEEE" stroke-miterlimit="10"/>
<path d="M153.089 -93.0201C149.977 -84.7079 146.158 -76.6364 141.721 -68.8922C139.75 -65.4502 137.601 -62.0101 134.472 -59.3887C128.187 -54.1313 119.35 -53.1911 110.792 -53.9759C108.453 -54.1864 106.135 -54.5214 103.896 -54.9332C94.2755 -56.7165 84.8611 -59.5791 75.9207 -63.4158C67.0677 -67.2194 58.5863 -72.1754 48.9078 -74.3613C42.6371 -75.7764 35.8221 -76.2849 29.5119 -75.2765C24.0548 -74.3975 18.9129 -72.2505 15.2643 -68.4603C14.6095 -67.7823 14.0096 -67.0589 13.4712 -66.2955C10.1457 -61.5976 9.25641 -55.6815 9.70552 -49.9653C9.85122 -48.1385 10.1204 -46.3289 10.4739 -44.545C11.3937 -39.8878 12.818 -35.2914 14.2229 -30.854C16.436 -23.7667 18.1557 -16.808 16.821 -9.8172C15.6707 -3.81063 11.5206 1.94909 5.27261 4.40327C-3.62148 7.89833 -13.5174 4.99342 -22.576 3.31348C-23.2881 3.18221 -24.0064 3.05632 -24.7252 2.94171C-35.5926 1.19283 -46.8586 1.38298 -56.6871 5.65143C-67.1636 10.1971 -75.5796 20.2175 -74.9711 31.4158" stroke="#E9E9E9" stroke-miterlimit="10"/>
<path d="M150.674 -95.3187C147.649 -87.1563 143.888 -79.2476 139.492 -71.6788C137.541 -68.3172 135.41 -64.9606 132.347 -62.384C126.199 -57.2136 117.612 -56.1289 109.26 -56.7053C106.976 -56.8577 104.71 -57.1302 102.515 -57.481C93.0961 -58.9883 83.8469 -61.5656 75.0304 -65.0993C66.3013 -68.6 57.9167 -73.2651 48.4053 -75.2887C41.944 -76.6646 34.9616 -77.2062 28.4621 -76.2233C22.8527 -75.3664 17.5245 -73.2191 13.7417 -69.3682C13.0605 -68.6783 12.4392 -67.9407 11.8767 -67.1589C8.41857 -62.3533 7.53645 -56.2794 7.96353 -50.3933C8.10195 -48.5172 8.36589 -46.6517 8.70327 -44.8205C9.58835 -40.0354 10.9324 -35.2889 12.1858 -30.7088C14.1883 -23.3843 15.414 -16.2655 13.7847 -9.18592C12.4541 -3.42271 8.47206 2.14704 2.41334 4.58723C-6.21484 8.05755 -15.8024 5.50591 -24.5476 4.16051C-25.2354 4.0544 -25.9284 3.9571 -26.6229 3.86765C-37.1009 2.51211 -47.8416 3.0636 -57.1039 7.45384C-66.9825 12.1292 -74.7733 21.963 -73.9514 32.8117" stroke="#E3E3E3" stroke-miterlimit="10"/>
<path d="M148.256 -97.6061C145.317 -89.5917 141.615 -81.8407 137.261 -74.4499C135.329 -71.168 133.217 -67.8941 130.22 -65.3586C124.211 -60.2757 115.871 -59.0473 107.727 -59.4138C105.496 -59.5077 103.282 -59.7182 101.132 -60.0051C91.9149 -61.2425 82.8298 -63.5325 74.1402 -66.7624C65.5356 -69.9664 57.2492 -74.3319 47.9024 -76.2059C41.2478 -77.5417 34.0985 -78.1163 27.4141 -77.1593C21.6515 -76.3276 16.1389 -74.1756 12.2235 -70.2595C11.5172 -69.554 10.8734 -68.8055 10.2907 -68.006C6.70533 -63.089 5.82229 -56.8575 6.23527 -50.8021C6.36766 -48.8729 6.62429 -46.9581 6.95051 -45.0766C7.80238 -40.1589 9.05709 -35.266 10.1693 -30.5366C11.9486 -22.9651 12.709 -15.6972 10.772 -8.5189C9.28097 -2.99457 5.44599 2.38747 -0.429702 4.80721C-8.79239 8.25198 -18.0699 6.05029 -26.4993 5.03995C-27.1628 4.95877 -27.8303 4.88986 -28.4967 4.82436C-38.5863 3.8631 -48.7991 4.76463 -57.4993 9.27552C-66.7755 14.0808 -73.9531 23.7228 -72.9154 34.227" stroke="#DEDEDE" stroke-miterlimit="10"/>
<path d="M145.828 -99.8908C142.978 -92.024 139.327 -84.4314 135.013 -77.2129C133.097 -74.0056 131.005 -70.8182 128.075 -68.3236C122.201 -63.327 114.108 -61.9563 106.175 -62.1193C104 -62.1562 101.838 -62.3086 99.7351 -62.5288C90.7216 -63.4949 81.8022 -65.5 73.2388 -68.4353C64.7604 -71.3448 56.5702 -75.4124 47.3963 -77.1407C40.5467 -78.4322 33.2375 -79.0453 26.3649 -78.1128C20.4507 -77.3024 14.7504 -75.1441 10.7081 -71.1704C9.97932 -70.4536 9.31054 -69.6895 8.70774 -68.8723C4.99103 -63.8451 4.11713 -57.45 4.51156 -51.2264C4.63806 -49.2437 4.8875 -47.279 5.19898 -45.3458C6.01313 -40.2968 7.18497 -35.2503 8.15429 -30.3769C9.71032 -22.5593 10.0188 -15.1386 7.76382 -7.85598C6.12732 -2.56893 2.41735 2.62415 -3.26715 5.02429C-11.3611 8.44165 -20.3309 6.58794 -28.4442 5.90662C-29.0821 5.85361 -29.7263 5.806 -30.3671 5.76867C-40.0643 5.19416 -49.7499 6.45043 -57.8848 11.079C-66.5604 16.0087 -73.1259 25.4618 -71.8715 35.6226" stroke="#D8D8D8" stroke-miterlimit="10"/>
<path d="M143.378 -102.171C140.611 -94.4493 137.017 -87.0116 132.744 -79.9651C130.846 -76.8361 128.772 -73.7303 125.91 -71.281C120.171 -66.3704 112.328 -64.8745 104.608 -64.8207C102.488 -64.8045 100.377 -64.8915 98.3199 -65.0487C89.5105 -65.7488 80.7582 -67.471 72.3237 -70.1102C63.973 -72.7273 55.8793 -76.4911 46.8769 -78.0824C39.837 -79.3306 32.3658 -79.9778 25.3045 -79.0727C19.2381 -78.2868 13.3544 -76.1223 9.18066 -72.0813C8.42581 -71.3521 7.737 -70.5698 7.10938 -69.737C3.26683 -64.596 2.39282 -58.041 2.7703 -51.6446C2.8899 -49.6114 3.13341 -47.5931 3.43398 -45.6087C4.21563 -40.4248 5.29914 -35.2291 6.13111 -30.2079C7.46493 -22.1419 7.33759 -14.5692 4.75193 -7.17233C2.98496 -2.12135 -0.612233 2.8863 -6.10956 5.26725C-13.939 8.65738 -22.596 7.14816 -30.3921 6.79366C-31.0056 6.76521 -31.6203 6.74459 -32.2366 6.73182C-41.54 6.54145 -50.6949 8.14532 -58.2726 12.8917C-66.348 17.9438 -72.3001 27.2066 -70.8389 37.0278" stroke="#D2D2D2" stroke-miterlimit="10"/>
<path d="M140.936 -104.453C138.251 -96.8755 134.714 -89.5959 130.474 -82.7183C128.595 -79.664 126.536 -76.6427 123.74 -74.2342C118.138 -69.4106 110.544 -67.775 103.033 -67.5198C100.969 -67.4473 98.9122 -67.4737 96.9007 -67.5684C88.2976 -68.0008 79.7162 -69.4462 71.4083 -71.7901C63.1879 -74.1131 55.1924 -77.5751 46.3646 -79.0355C39.1293 -80.2352 31.5018 -80.9254 24.2498 -80.043C18.0327 -79.2779 11.9651 -77.1101 7.65919 -73.0043C6.88208 -72.2635 6.16481 -71.4643 5.52098 -70.6142C1.54953 -65.3574 0.684225 -58.64 1.04397 -52.0729C1.1616 -49.9865 1.3956 -47.913 1.68054 -45.8795C2.42882 -40.563 3.42677 -35.21 4.11715 -30.0419C5.22978 -21.7251 4.68482 -13.9946 1.75116 -6.48744C-0.13017 -1.66827 -3.63766 3.14913 -8.94825 5.51026C-16.5138 8.87227 -24.8593 7.70965 -32.3348 7.67555C-32.9236 7.67151 -33.5127 7.67873 -34.1043 7.69037C-43.0165 7.88275 -51.6391 9.83511 -58.6529 14.6956C-66.1328 19.8693 -71.474 28.941 -69.8048 38.423" stroke="#CDCDCD" stroke-miterlimit="10"/>
<path d="M138.483 -106.72C135.883 -99.2869 132.396 -92.1591 128.191 -85.4542C126.326 -82.4764 124.287 -79.5369 121.555 -77.1726C116.088 -72.4316 108.743 -70.6653 101.444 -70.2028C99.4356 -70.0779 97.43 -70.0396 95.4648 -70.0721C87.0678 -70.2416 78.656 -71.4072 70.4799 -73.4584C62.3937 -75.4932 54.4929 -78.646 45.8391 -79.9804C38.4142 -81.1291 30.6261 -81.8648 23.1878 -81.0058C16.8195 -80.2647 10.5709 -78.0861 6.13709 -73.9157C5.33415 -73.162 4.59591 -72.3477 3.93228 -71.4792C-0.168509 -66.1089 -1.02839 -59.2271 -0.679996 -52.4823C-0.569037 -50.3445 -0.340748 -48.2166 -0.0701588 -46.13C0.642561 -40.6755 1.5532 -35.1707 2.10748 -29.8519C2.99633 -21.2811 2.05577 -13.3882 -1.24185 -5.77129C-3.22869 -1.17796 -6.65237 3.44712 -11.7778 5.78445C-19.08 9.11754 -27.1104 8.29523 -34.263 8.5833C-34.826 8.60696 -35.3916 8.63503 -35.9536 8.67336C-44.4688 9.24895 -52.5647 11.5419 -59.019 16.516C-65.8993 21.8121 -70.6333 30.6883 -68.7586 39.8324" stroke="#C7C7C7" stroke-miterlimit="10"/>
<path d="M136.024 -108.996C133.505 -101.705 130.07 -94.7329 125.905 -88.194C124.056 -85.2936 122.032 -82.438 119.37 -80.1121C114.039 -75.4581 106.943 -73.5542 99.8542 -72.8925C97.8987 -72.7109 95.9471 -72.6126 94.0309 -72.5876C85.8422 -72.492 77.6012 -73.3791 69.5619 -75.1398C61.6076 -76.8865 53.8088 -79.7256 45.331 -80.9432C37.7151 -82.0365 29.7672 -82.8178 22.1457 -81.9865C15.6279 -81.2657 9.19293 -79.0815 4.63304 -74.8422C3.80438 -74.0756 3.04532 -73.246 2.3595 -72.3546C-1.86508 -66.8672 -2.72037 -59.8233 -2.39142 -52.901C-2.28587 -50.7082 -2.06432 -48.5288 -1.80428 -46.3898C-1.12425 -40.8006 -0.298087 -35.1359 0.115931 -29.6674C0.785802 -20.8414 -0.538219 -12.7755 -4.20948 -5.05466C-6.28925 -0.68245 -9.64469 3.7433 -14.583 6.0631C-21.6224 9.36647 -29.3367 8.88286 -36.1695 9.4927C-36.7077 9.54052 -37.2473 9.59619 -37.7847 9.65868C-45.903 10.6124 -53.4695 13.2509 -59.3615 18.3361C-65.6444 23.7496 -69.776 32.434 -67.6983 41.241" stroke="#C2C2C2" stroke-miterlimit="10"/>
<path d="M133.567 -111.269C131.13 -104.122 127.742 -97.3035 123.611 -90.9326C121.781 -88.1059 119.771 -85.334 117.174 -83.0489C111.974 -78.4811 105.126 -76.4407 98.2523 -75.5816C96.3537 -75.3448 94.4563 -75.1867 92.5831 -75.099C84.6023 -74.7429 76.533 -75.3526 68.628 -76.8228C60.8067 -78.2827 53.1067 -80.8117 44.8102 -81.9113C37.0018 -82.945 28.8995 -83.781 21.093 -82.9726C14.4249 -82.2755 7.80913 -80.083 3.12247 -75.7774C2.27185 -74.9988 1.48835 -74.1528 0.782955 -73.2427C-3.5685 -67.6364 -4.41782 -60.4259 -4.10187 -53.3304C-4.0028 -51.0855 -3.78555 -48.8474 -3.54079 -46.6581C-2.89324 -40.9331 -2.16443 -35.1111 -1.87677 -29.4878C-1.44439 -20.4027 -3.10819 -12.1545 -7.17874 -4.3353C-9.34009 -0.18319 -12.643 4.04744 -17.3971 6.34226C-24.1745 9.61501 -31.5718 9.46861 -38.0841 10.3989C-38.5975 10.4708 -39.1112 10.554 -39.6201 10.6395C-47.3409 11.9698 -54.3791 14.9488 -59.7136 20.1447C-65.4002 25.6741 -68.9286 34.1647 -66.6538 42.6361" stroke="#BCBCBC" stroke-miterlimit="10"/>
<path d="M131.097 -113.544C128.738 -106.537 125.401 -99.8702 121.306 -93.6714C119.488 -90.9207 117.497 -88.23 114.963 -85.9893C109.898 -81.5088 103.299 -79.3325 96.6373 -78.2726C94.7957 -77.9806 92.9478 -77.7654 91.1264 -77.6138C83.3542 -76.998 75.4576 -77.3313 67.6881 -78.5119C60.001 -79.6858 52.4035 -81.8986 44.2825 -82.8872C36.1615 -83.8757 28.0269 -84.752 20.0361 -83.9664C13.2196 -83.2894 6.42251 -81.0915 1.60719 -76.7147C0.731065 -75.9228 -0.0730895 -75.0613 -0.797942 -74.1323C-5.2767 -68.4095 -6.11608 -61.0324 -5.81525 -53.7581C-5.71773 -51.4585 -5.51071 -49.1672 -5.27629 -46.9247C-4.65973 -41.0595 -4.01559 -35.0786 -3.86328 -29.304C-3.65143 -19.9584 -5.65017 -11.5155 -10.138 -3.60537C-12.3745 0.336378 -15.6294 4.3617 -20.1997 6.63098C-26.7156 9.87236 -33.7953 10.062 -39.9864 11.3118C-40.4739 11.4111 -40.9639 11.5149 -41.4467 11.6278C-48.7719 13.3378 -55.2779 16.655 -60.0561 21.9604C-65.1512 27.6054 -68.0789 35.9011 -65.6021 44.0354" stroke="#B7B7B7" stroke-miterlimit="10"/>
<path d="M128.616 -115.812C126.334 -108.947 123.046 -102.434 118.984 -96.4028C117.183 -93.7255 115.205 -91.1183 112.739 -88.9197C107.804 -84.5258 101.456 -82.2155 95.0105 -80.9598C93.2224 -80.6119 91.4326 -80.3384 89.6582 -80.1255C82.0966 -79.2474 74.3761 -79.3093 66.7394 -80.2001C59.1888 -81.0853 51.6914 -82.9817 43.7524 -83.8658C35.8134 -84.7499 27.1546 -85.7227 18.979 -84.9632C12.0183 -84.3073 5.03806 -82.0993 0.0922877 -77.6572C-0.804405 -76.8496 -1.63392 -75.9748 -2.38179 -75.0258C-6.98239 -69.1832 -7.81892 -61.6366 -7.53413 -54.1858C-7.44291 -51.8335 -7.2412 -49.4862 -7.02069 -47.1891C-6.43971 -41.1852 -5.87976 -35.0443 -5.86105 -29.1137C-5.86503 -19.5066 -8.17951 -10.8496 -13.1052 -2.86291C-15.4078 0.873555 -18.6264 4.68531 -23.0159 6.93292C-29.2713 10.1421 -36.0314 10.6702 -41.9021 12.2352C-42.3647 12.3584 -42.825 12.4885 -43.283 12.6253C-50.2095 14.7097 -56.1837 18.3637 -60.4066 23.7775C-64.908 29.5358 -67.2414 37.6364 -64.5686 45.4349" stroke="#B1B1B1" stroke-miterlimit="10"/>
<path d="M126.115 -118.135C123.915 -111.415 120.676 -105.047 116.647 -99.1814C114.862 -96.5804 112.9 -94.0527 110.498 -91.8946C105.699 -87.5873 99.5986 -85.1368 93.3688 -83.6881C91.6383 -83.285 89.9 -82.951 88.1731 -82.6765C80.8232 -81.5387 73.2799 -81.3207 65.7809 -81.9254C58.368 -82.5246 50.9779 -84.1016 43.2152 -84.8786C34.8426 -85.7181 26.2789 -86.7282 17.9224 -85.9898C10.8148 -85.356 3.65419 -83.1359 -1.40968 -78.6219C-2.33127 -77.8006 -3.18085 -76.9098 -3.94757 -75.9413C-8.67179 -69.9791 -9.49591 -62.2631 -9.22273 -54.6272C-9.136 -52.2181 -8.94013 -49.8177 -8.72925 -47.4666C-8.17739 -41.3201 -7.69976 -35.0174 -7.81734 -28.9314C-8.03368 -19.0598 -10.6394 -10.1724 -16.0178 -2.11509C-18.3823 1.42734 -21.5701 5.02056 -25.7707 7.24487C-31.7642 10.4225 -38.204 11.286 -43.7511 13.1702C-44.1887 13.3174 -44.6228 13.4748 -45.0557 13.6357C-51.5813 16.0949 -57.0242 20.0906 -60.6912 25.6129C-64.5967 31.4881 -66.3338 39.3892 -63.4697 46.8532" stroke="#ABABAB" stroke-miterlimit="10"/>
<path d="M123.588 -120.555C121.468 -113.972 118.285 -107.755 114.293 -102.054C112.522 -99.5269 110.58 -97.0786 108.243 -94.9636C103.578 -90.7401 97.7342 -88.1533 91.721 -86.5057C90.049 -86.0471 88.3666 -85.6531 86.6882 -85.3167C79.5548 -83.914 72.1899 -83.4214 64.837 -83.7361C57.5688 -84.0488 50.2834 -85.2995 42.7059 -85.9741C34.1509 -86.7355 25.4386 -87.8123 16.9016 -87.0914C9.65189 -86.4741 2.31765 -84.2435 -2.86856 -79.6558C-3.81426 -78.8202 -4.68311 -77.9128 -5.46793 -76.9244C-10.3062 -70.8366 -11.1229 -62.9496 -10.8558 -55.1304C-10.7725 -52.6637 -10.5804 -50.2059 -10.383 -47.8022C-9.85901 -41.5144 -9.46087 -35.0475 -9.71042 -28.8C-10.1352 -18.663 -13.0011 -9.51394 -18.8506 -1.40715C-21.2672 1.94405 -24.4288 5.31426 -28.4425 7.51727C-34.1682 10.6636 -40.2881 11.8649 -45.5086 14.0695C-45.9198 14.2442 -46.3286 14.4257 -46.7326 14.6096C-52.8574 17.4463 -57.7636 21.7806 -60.8694 27.4112C-64.1786 33.4009 -65.3216 41.1075 -62.2635 48.2364" stroke="#A6A6A6" stroke-miterlimit="10"/>
<path d="M121.055 -122.966C119.014 -116.521 115.884 -110.452 111.925 -104.918C110.172 -102.463 108.245 -100.096 105.973 -98.0212C101.442 -93.882 95.8554 -91.1564 90.0591 -89.3106C88.442 -88.7956 86.8155 -88.3419 85.1846 -87.9471C78.2671 -86.2837 71.0827 -85.5137 63.8747 -85.5347C56.7488 -85.5607 49.5744 -86.4834 42.1823 -87.0568C33.4478 -87.7371 24.5842 -88.8803 15.8739 -88.1826C8.48168 -87.5856 0.975938 -85.341 -4.33078 -80.6756C-5.29684 -79.8266 -6.18852 -78.9015 -6.99495 -77.8919C-11.9502 -71.6765 -12.7511 -63.6158 -12.4984 -55.6128C-12.4162 -53.0925 -12.2314 -50.5758 -12.0428 -48.1166C-11.549 -41.6815 -11.2312 -35.0522 -11.6049 -28.6436C-12.2395 -18.2339 -15.3413 -8.80098 -21.6772 -0.667744C-24.1467 2.50348 -27.2821 5.64233 -31.1147 7.82084C-36.5774 10.9359 -42.3733 12.4729 -47.2671 14.9974C-47.653 15.1961 -48.0366 15.4016 -48.4142 15.6129C-54.1332 18.8287 -58.5073 23.5016 -61.0577 29.2405C-63.7766 35.3444 -64.3225 42.853 -61.0736 49.6469" stroke="#A0A0A0" stroke-miterlimit="10"/>
<path d="M118.531 -125.377C116.571 -119.07 113.487 -113.151 109.567 -107.778C107.831 -105.399 105.918 -103.114 103.714 -101.081C99.3191 -97.024 93.9874 -94.1559 88.4042 -92.1228C86.8469 -91.5492 85.2717 -91.0383 83.6931 -90.583C76.993 -88.656 69.9922 -87.6137 62.9252 -87.3438C55.9437 -87.0802 48.8818 -87.6754 41.6691 -88.1547C32.7543 -88.7495 23.7451 -89.969 14.86 -89.2905C7.32735 -88.7106 -0.349017 -86.4521 -5.77324 -81.713C-6.76319 -80.8495 -7.67754 -79.9064 -8.49825 -78.8777C-13.5711 -72.5371 -14.3601 -64.3004 -14.1135 -56.1109C-14.0348 -53.5321 -13.855 -50.9604 -13.6786 -48.4442C-13.2127 -41.865 -12.9726 -35.065 -13.4782 -28.4951C-14.3182 -17.8113 -17.633 -8.06462 -24.4824 0.0714086C-27.0045 3.06588 -30.1209 5.96693 -33.7637 8.12486C-38.9648 11.2073 -44.4367 13.0796 -49.0038 15.9234C-49.3645 16.1461 -49.7216 16.379 -50.0727 16.6177C-55.3874 20.2086 -59.2305 25.2194 -61.2244 31.0644C-63.3519 37.2803 -63.3121 44.5915 -59.8756 51.05" stroke="#9B9B9B" stroke-miterlimit="10"/>
<path d="M116.011 -127.795C114.126 -121.627 111.092 -115.855 107.203 -110.65C105.481 -108.342 103.585 -106.141 101.445 -104.148C97.1807 -100.177 92.104 -97.1752 86.7374 -94.9451C85.2386 -94.3165 83.7183 -93.7496 82.1859 -93.2282C75.7022 -91.0416 68.8842 -89.7196 61.9614 -89.1638C55.1239 -88.6143 48.1768 -88.8788 41.1469 -89.2662C32.0557 -89.769 22.8992 -91.0726 13.8403 -90.4137C6.16665 -89.8549 -1.67955 -87.5826 -7.22447 -82.7682C-8.2346 -81.8913 -9.17036 -80.9268 -10.0101 -79.8811C-15.1953 -73.4124 -15.9725 -64.9986 -15.737 -56.6236C-15.6631 -53.9893 -15.4859 -51.3553 -15.3195 -48.7862C-14.8814 -42.0619 -14.72 -35.0932 -15.356 -28.3572C-16.4004 -17.397 -19.9091 -7.30598 -27.2886 0.805617C-29.8603 3.63326 -32.958 6.28782 -36.4179 8.41855C-41.3601 11.4639 -46.5092 13.6788 -50.7476 16.8371C-51.0819 17.0871 -51.4101 17.3429 -51.736 17.6056C-56.6504 21.5722 -59.959 26.9227 -61.4026 32.8738C-62.9416 39.2006 -62.3166 46.3117 -58.6991 52.4354" stroke="#959595" stroke-miterlimit="10"/>
<path d="M113.497 -130.21C111.69 -124.181 108.7 -118.56 104.842 -113.521C103.134 -111.288 101.253 -109.167 99.1767 -107.215C95.0452 -103.332 90.2154 -100.194 85.0723 -97.7695C83.6319 -97.086 82.164 -96.4586 80.684 -95.8769C74.4177 -93.4276 67.7805 -91.8331 61.0036 -90.9881C54.3106 -90.1531 47.4769 -90.0825 40.6285 -90.3823C31.361 -90.7856 22.0593 -92.182 12.8273 -91.5434C5.01455 -91.0027 -3.00554 -88.7191 -8.66233 -83.8279C-9.69618 -82.9363 -10.6509 -81.9548 -11.5108 -80.8842C-16.8127 -74.2892 -17.5786 -65.6973 -17.3531 -57.1323C-17.2829 -54.4387 -17.1107 -51.7489 -16.9566 -49.122C-16.5489 -42.247 -16.4636 -35.113 -17.2294 -28.2096C-18.4812 -16.9701 -22.1634 -6.5007 -30.0871 1.55438C-32.7139 4.22376 -35.7905 6.61843 -39.071 8.72568C-43.7546 11.7362 -48.58 14.2856 -52.4925 17.7626C-52.8016 18.0366 -53.1046 18.3163 -53.4041 18.6064C-57.9153 22.9474 -60.6922 28.6337 -61.5882 34.6899C-62.5401 41.1301 -61.3389 48.0371 -57.5361 53.8232" stroke="#909090" stroke-miterlimit="10"/>
<path d="M110.982 -132.615C106.95 -118.927 96.3977 -107.508 83.3981 -100.588C70.3984 -93.6678 55.1278 -91.0154 40.1055 -91.4954C30.6644 -91.7959 21.2179 -93.2861 11.8125 -92.6716C2.40711 -92.0571 -7.32948 -88.9529 -13.0138 -81.8931C-20.1313 -73.0553 -19.1969 -60.6915 -18.5917 -49.4579C-17.5908 -30.987 -19.1854 -10.5477 -32.8762 2.30913C-39.6947 8.71239 -48.9462 12.5888 -55.0599 19.6109C-63.5352 29.3466 -64.1054 44.6405 -56.3817 55.2156" stroke="#8A8A8A" stroke-miterlimit="10"/>
</g>
<g style="mix-blend-mode:multiply">
<path d="M349.633 98.1737C344.47 106.385 338.767 114.298 332.57 121.857C329.813 125.215 326.88 128.576 322.974 130.745C312.992 136.293 299.91 132.616 289.369 127.576C279.658 122.934 270.523 117.229 262.212 110.617C253.976 104.065 246.403 96.5328 236.795 91.9108C227.183 87.2896 214.585 86.2576 206.499 92.6348C201.689 96.4279 199.19 102.314 198.652 108.207C198.115 114.099 199.356 120.047 201.014 125.805C202.912 132.395 205.383 139.234 203.832 145.832C202.224 152.66 196.006 158.268 188.604 159.556C178.074 161.39 167.95 155.194 158.38 150.434C146.218 144.387 132.405 140.241 118.912 141.984C105.419 143.727 92.5585 152.487 89.8259 164.864" stroke="#8A8A8A" stroke-miterlimit="10"/>
<path d="M348.141 95.6175C343.061 103.7 337.413 111.463 331.257 118.848C328.521 122.133 325.606 125.406 321.766 127.54C314.051 131.824 304.495 130.642 295.715 127.633C293.324 126.814 290.988 125.861 288.765 124.842C279.198 120.468 270.17 115.038 261.926 108.708C253.762 102.437 246.252 95.1472 236.762 90.6968C231.44 88.2025 225.293 86.6756 219.407 86.7546C214.281 86.8254 209.336 88.1411 205.406 91.1424C204.706 91.6791 204.047 92.2582 203.438 92.8779C199.675 96.69 197.711 101.917 197.175 107.162C197.001 108.846 196.966 110.537 197.03 112.222C197.2 116.623 198.046 121.033 199.06 125.322C200.659 132.132 202.557 139.085 200.708 145.695C198.873 152.259 192.903 157.7 185.68 158.988C175.4 160.819 165.512 154.985 156.184 150.573C155.447 150.225 154.708 149.885 153.96 149.555C142.673 144.534 130.175 141.395 118.028 143.224C105.076 145.174 92.8224 153.837 90.3321 165.936" stroke="#909090" stroke-miterlimit="10"/>
<path d="M346.647 93.056C341.648 101.007 336.057 108.621 329.945 115.84C327.231 119.047 324.334 122.239 320.559 124.335C312.973 128.544 303.622 127.518 295.005 124.717C292.654 123.956 290.358 123.064 288.165 122.11C278.742 118.006 269.82 112.848 261.647 106.799C253.552 100.806 246.102 93.7693 236.735 89.4814C231.218 86.957 224.909 85.3506 218.833 85.3479C213.555 85.347 208.409 86.6202 204.322 89.6509C203.59 90.1913 202.905 90.7804 202.266 91.4146C198.332 95.3061 196.316 100.697 195.703 106.116C195.506 107.853 195.444 109.598 195.48 111.334C195.571 115.869 196.283 120.42 197.111 124.84C198.41 131.867 199.744 138.929 197.592 145.562C195.439 152.195 189.814 157.14 182.765 158.425C172.734 160.249 163.083 154.782 153.996 150.719C153.28 150.398 152.559 150.086 151.831 149.78C140.847 145.176 128.788 142.443 117.148 144.463C104.739 146.617 93.0919 155.194 90.8423 167.009" stroke="#959595" stroke-miterlimit="10"/>
<path d="M345.056 90.4491C340.151 98.2672 334.628 105.729 328.574 112.774C325.883 115.904 323.017 119.013 319.307 121.074C311.855 125.211 302.713 124.354 294.255 121.78C291.943 121.08 289.685 120.254 287.524 119.366C278.242 115.546 269.42 110.682 261.313 104.931C253.282 99.2332 245.882 92.4721 236.635 88.3597C230.925 85.8178 224.452 84.1371 218.191 84.0582C212.76 83.9923 207.423 85.2214 203.179 88.2831C202.417 88.8309 201.703 89.4309 201.039 90.0752C196.94 94.049 194.875 99.5993 194.192 105.188C193.974 106.976 193.891 108.772 193.894 110.557C193.91 115.222 194.49 119.912 195.137 124.453C196.144 131.689 196.93 138.837 194.47 145.497C192.245 151.521 186.737 156.641 179.865 157.926C170.086 159.758 160.671 154.672 151.822 150.974C151.124 150.683 150.424 150.4 149.717 150.122C139.034 145.954 127.409 143.647 116.288 145.872C104.429 148.243 93.3983 156.734 91.4099 168.255" stroke="#9B9B9B" stroke-miterlimit="10"/>
<path d="M343.393 87.8066C338.591 95.4852 333.14 102.797 327.145 109.669C324.482 112.724 321.643 115.747 318.004 117.772C310.694 121.838 301.763 121.157 293.459 118.813C291.19 118.176 288.968 117.418 286.837 116.6C277.695 113.071 268.974 108.506 260.931 103.066C252.963 97.6755 245.604 91.2014 236.485 87.2634C230.576 84.7139 223.942 82.9599 217.493 82.8062C211.915 82.6814 206.385 83.87 201.987 86.9631C201.199 87.5175 200.456 88.1249 199.764 88.7837C195.502 92.836 193.392 98.5435 192.648 104.297C192.41 106.138 192.304 107.984 192.282 109.817C192.227 114.606 192.681 119.428 193.148 124.091C193.867 131.531 194.124 138.75 191.351 145.442C188.968 151.19 183.667 156.146 176.98 157.441C167.459 159.285 158.275 154.589 149.665 151.268C148.987 151.006 148.304 150.753 147.615 150.505C137.228 146.784 126.046 144.91 115.443 147.347C104.139 149.943 93.7363 158.348 92.0121 169.566" stroke="#A0A0A0" stroke-miterlimit="10"/>
<path d="M341.72 85.1479C337.018 92.6916 331.64 99.8486 325.705 106.548C323.068 109.525 320.261 112.465 316.689 114.455C309.522 118.453 300.798 117.944 292.656 115.829C290.427 115.259 288.241 114.565 286.142 113.816C277.137 110.58 268.523 106.315 260.539 101.183C252.634 96.0961 245.314 89.9201 236.325 86.1518C230.219 83.5913 223.424 81.7643 216.788 81.5431C211.058 81.357 205.334 82.5053 200.787 85.629C199.969 86.1909 199.2 86.805 198.481 87.4781C194.053 91.6101 191.907 97.4763 191.097 103.395C190.84 105.286 190.71 107.182 190.663 109.062C190.537 113.977 190.875 118.935 191.151 123.715C191.599 131.355 191.322 138.647 188.222 145.374C185.702 150.85 180.591 155.642 174.084 156.944C164.821 158.795 155.867 154.49 147.497 151.545C146.836 151.313 146.174 151.089 145.506 150.871C135.419 147.591 124.677 146.153 114.592 148.801C103.839 151.62 94.0672 159.938 92.6091 170.86" stroke="#A6A6A6" stroke-miterlimit="10"/>
<path d="M340.061 82.5055C335.459 89.9143 330.154 96.9136 324.278 103.44C321.67 106.338 318.888 109.193 315.384 111.152C308.359 115.079 299.84 114.742 291.858 112.86C289.673 112.352 287.524 111.729 285.453 111.046C276.589 108.101 268.077 104.137 260.157 99.3119C252.314 94.5283 245.031 88.6509 236.177 85.051C229.87 82.4877 222.917 80.5833 216.093 80.2879C210.211 80.0407 204.299 81.1515 199.598 84.307C198.75 84.873 197.953 85.5015 197.21 86.1847C192.619 90.3954 190.429 96.4186 189.557 102.506C189.281 104.446 189.127 106.393 189.052 108.32C188.855 113.36 189.065 118.45 189.166 123.348C189.327 131.192 188.543 138.548 185.108 145.315C182.467 150.519 177.53 155.148 171.204 156.456C162.199 158.318 153.477 154.403 145.345 151.83C144.705 151.627 144.059 151.43 143.413 151.244C133.627 148.408 123.326 147.406 113.758 150.261C103.559 153.3 94.4158 161.535 93.2213 172.154" stroke="#ABABAB" stroke-miterlimit="10"/>
<path d="M338.399 79.8654C333.896 87.1359 328.665 93.9847 322.852 100.338C320.272 103.161 317.52 105.929 314.084 107.854C307.2 111.71 298.893 111.547 291.067 109.898C288.921 109.453 286.809 108.898 284.771 108.283C276.047 105.629 267.639 101.965 259.782 97.4432C252.003 92.966 244.754 87.3912 236.036 83.9515C229.528 81.382 222.418 79.4041 215.406 79.0382C209.376 78.7292 203.267 79.8011 198.416 82.9875C197.542 83.5601 196.716 84.1961 195.945 84.8938C191.193 89.1869 188.963 95.3661 188.025 101.615C187.728 103.605 187.556 105.605 187.453 107.58C187.185 112.746 187.271 117.97 187.19 122.987C187.066 131.035 185.79 138.454 182.002 145.264C179.257 150.202 174.472 154.662 168.328 155.973C159.581 157.843 151.087 154.32 143.198 152.118C142.576 151.946 141.951 151.777 141.326 151.62C131.841 149.228 121.98 148.657 112.931 151.722C103.287 154.984 94.766 163.129 93.8396 173.448" stroke="#B1B1B1" stroke-miterlimit="10"/>
<path d="M336.611 77.1854C332.217 84.3183 327.069 91.0114 321.325 97.1913C318.774 99.9369 316.056 102.623 312.693 104.514C305.958 108.302 297.866 108.31 290.199 106.911C288.095 106.527 286.022 106.046 284.017 105.502C275.436 103.153 267.129 99.7986 259.33 95.5968C251.612 91.4349 244.392 86.184 235.811 82.9092C229.099 80.3483 221.835 78.3026 214.637 77.8713C208.457 77.5121 202.162 78.5492 197.159 81.767C196.256 82.3475 195.402 82.9913 194.609 83.7026C189.701 88.0754 187.436 94.407 186.444 100.818C186.131 102.855 185.938 104.904 185.809 106.925C185.476 112.207 185.441 117.564 185.189 122.694C184.788 130.938 183.044 138.419 178.901 145.26C176.071 149.932 171.435 154.218 165.477 155.544C156.989 157.432 148.731 154.31 141.081 152.489C140.48 152.346 139.872 152.209 139.265 152.082C130.083 150.145 120.665 150.014 112.142 153.294C103.055 156.783 95.1785 164.843 94.5281 174.852" stroke="#B7B7B7" stroke-miterlimit="10"/>
<path d="M334.708 74.498C330.433 81.4884 325.372 88.031 319.702 94.0392C317.184 96.7073 314.505 99.3109 311.215 101.17C304.633 104.893 296.752 105.085 289.249 103.933C287.185 103.617 285.149 103.207 283.178 102.735C274.74 100.695 266.536 97.659 258.8 93.7827C251.144 89.9427 243.952 85.0223 235.51 81.9226C228.591 79.3817 221.174 77.2675 213.797 76.7832C207.468 76.376 200.991 77.3831 195.845 80.6407C194.915 81.2296 194.038 81.8842 193.215 82.6077C188.154 87.0626 185.864 93.5472 184.824 100.11C184.496 102.194 184.284 104.29 184.135 106.355C183.743 111.754 183.59 117.235 183.176 122.478C182.507 130.914 180.319 138.46 175.81 145.333C172.913 149.748 168.413 153.858 162.644 155.197C154.424 157.104 146.398 154.392 138.994 152.955C138.411 152.843 137.825 152.736 137.238 152.64C128.362 151.162 119.391 151.476 111.398 154.969C102.879 158.685 95.6491 166.656 95.2853 176.351" stroke="#BCBCBC" stroke-miterlimit="10"/>
<path d="M332.806 71.822C328.646 78.6764 323.672 85.0624 318.077 90.9043C315.595 93.4948 312.946 96.0189 309.733 97.8455C303.303 101.503 295.637 101.881 288.298 100.973C286.279 100.722 284.281 100.382 282.34 99.9834C274.047 98.2479 265.948 95.5276 258.273 91.9742C250.681 88.4558 243.513 83.8674 235.212 80.9318C228.089 78.4135 220.52 76.2305 212.959 75.6873C206.486 75.231 199.819 76.2141 194.534 79.5048C193.575 80.0988 192.671 80.7652 191.826 81.5029C186.617 86.0404 184.301 92.676 183.212 99.4009C182.868 101.532 182.642 103.675 182.47 105.789C182.019 111.307 181.754 116.916 181.17 122.272C180.229 130.901 177.616 138.522 172.731 145.427C169.783 149.59 165.404 153.521 159.821 154.87C151.868 156.798 144.077 154.487 136.918 153.435C136.352 153.354 135.787 153.277 135.222 153.211C126.653 152.188 118.132 152.942 110.67 156.649C102.72 160.593 96.1355 168.475 96.0507 177.856" stroke="#C2C2C2" stroke-miterlimit="10"/>
<path d="M330.888 69.1627C326.842 75.8829 321.954 82.1175 316.43 87.7877C313.981 90.3057 311.368 92.742 308.228 94.5406C301.947 98.1343 294.503 98.6935 287.325 98.0245C285.347 97.8387 283.388 97.573 281.48 97.2415C273.334 95.8078 265.339 93.4007 257.733 90.165C250.207 86.9616 243.067 82.7089 234.912 79.93C227.585 77.4336 219.864 75.181 212.121 74.5823C205.499 74.0779 198.65 75.0323 193.223 78.3649C192.241 78.9668 191.309 79.6417 190.44 80.3947C185.083 85.0195 182.739 91.8087 181.603 98.6927C181.245 100.872 181 103.067 180.804 105.223C180.294 110.862 179.914 116.602 179.163 122.069C177.956 130.897 174.932 138.604 169.648 145.534C166.656 149.457 162.388 153.197 156.993 154.562C149.307 156.509 141.752 154.593 134.839 153.923C134.295 153.871 133.748 153.824 133.203 153.784C124.944 153.213 116.873 154.403 109.943 158.321C102.557 162.488 96.6159 170.281 96.8123 179.353" stroke="#C7C7C7" stroke-miterlimit="10"/>
<path d="M328.959 66.5135C325.025 73.0974 320.221 79.1863 314.775 84.6876C312.357 87.1303 309.778 89.4871 306.714 91.2532C300.585 94.7855 293.356 95.5227 286.347 95.0886C284.412 94.9713 282.494 94.7706 280.617 94.5106C272.616 93.377 264.733 91.2786 257.192 88.3599C249.732 85.4688 242.62 81.5498 234.614 78.9242C227.082 76.4535 219.213 74.1263 211.286 73.4688C204.516 72.9162 197.483 73.8466 191.917 77.2142C190.907 77.8251 189.953 78.5112 189.056 79.2728C183.551 83.9827 181.183 90.9259 179.993 97.9726C179.617 100.205 179.357 102.445 179.141 104.647C178.573 110.407 178.064 116.275 177.165 121.862C175.671 130.89 172.277 138.703 166.582 145.646C163.557 149.334 159.383 152.884 154.178 154.26C146.754 156.222 139.442 154.704 132.776 154.409C132.25 154.388 131.725 154.371 131.198 154.361C123.247 154.238 115.633 155.863 109.233 159.987C102.414 164.374 97.1161 172.08 97.5874 180.846" stroke="#CDCDCD" stroke-miterlimit="10"/>
<path d="M327.014 63.8691C323.195 70.3204 318.471 76.258 313.096 81.5966C310.709 83.9644 308.168 86.2413 305.175 87.9759C299.197 91.4431 292.183 92.3568 285.343 92.1636C283.449 92.1108 281.57 91.9792 279.728 91.789C271.877 90.9525 264.103 89.158 256.633 86.5564C249.244 83.9789 242.16 80.3912 234.303 77.9097C226.446 75.4282 218.548 73.0584 210.44 72.3488C203.528 71.7506 196.309 72.6505 190.601 76.0584C189.562 76.6748 188.583 77.3734 187.665 78.1496C182.008 82.9468 179.617 90.0452 178.382 97.2578C177.991 99.5389 177.713 101.828 177.473 104.077C176.847 109.961 176.227 115.963 175.16 121.669C173.4 130.897 169.634 138.831 163.506 145.781C160.453 149.241 156.371 152.596 151.351 153.982C144.194 155.961 137.122 154.835 130.705 154.913C130.199 154.918 129.693 154.934 129.188 154.953C121.549 155.273 114.39 157.331 108.521 161.662C102.271 166.27 97.6115 173.882 98.3551 182.344" stroke="#D2D2D2" stroke-miterlimit="10"/>
<path d="M325.066 61.247C321.358 67.5676 316.718 73.3571 311.412 78.5306C309.06 80.8262 306.546 83.0219 303.629 84.724C297.801 88.126 291.005 89.2216 284.332 89.2573C282.484 89.2676 280.644 89.2046 278.833 89.0849C271.134 88.547 263.471 87.0545 256.069 84.7656C248.75 82.4962 241.7 79.2447 233.991 76.9053C226.283 74.5658 217.886 72.0029 209.596 71.2377C202.538 70.5912 195.138 71.4669 189.29 74.9157C188.227 75.5404 187.22 76.2481 186.277 77.0401C180.474 81.9245 178.06 89.1831 176.775 96.557C176.37 98.8875 176.078 101.23 175.815 103.526C175.131 109.534 174.395 115.668 173.165 121.498C171.141 130.934 167.02 139.009 160.445 145.942C157.371 149.185 153.371 152.335 148.537 153.728C141.645 155.718 134.815 154.985 128.648 155.435C128.161 155.47 127.677 155.515 127.193 155.563C119.869 156.325 113.164 158.811 107.83 163.347C102.148 168.17 98.1266 175.694 99.139 183.85" stroke="#D8D8D8" stroke-miterlimit="10"/>
<path d="M323.095 58.6213C319.495 64.8086 314.939 70.4542 309.701 75.463C307.379 77.6844 304.898 79.8017 302.055 81.471C296.377 84.8077 289.798 86.0804 283.297 86.3463C281.491 86.4203 279.692 86.4289 277.916 86.375C270.369 86.1307 262.819 84.942 255.49 82.9632C248.244 81.0002 241.224 78.0843 233.67 75.8842C225.518 73.5087 217.214 70.9298 208.747 70.1045C201.541 69.4095 193.958 70.2588 187.972 73.7483C186.883 74.3824 185.849 75.0993 184.885 75.9064C178.937 80.8825 176.494 88.2964 175.165 95.839C174.746 98.2193 174.435 100.612 174.153 102.956C173.41 109.086 172.566 115.36 171.172 121.311C168.884 130.953 164.43 139.193 157.39 146.098C154.295 149.132 150.371 152.067 145.726 153.472C139.101 155.477 132.514 155.132 126.598 155.951C126.132 156.015 125.666 156.089 125.205 156.167C118.197 157.37 111.944 160.281 107.143 165.017C102.024 170.054 98.6381 177.486 99.9218 185.34" stroke="#DEDEDE" stroke-miterlimit="10"/>
<path d="M321.141 55.9998C317.649 62.0578 313.175 67.5566 308.003 72.3978C305.711 74.545 303.264 76.5795 300.493 78.2205C294.964 81.4916 288.603 82.9404 282.272 83.4396C280.509 83.577 278.753 83.6525 277.013 83.6673C269.619 83.7153 262.184 82.829 254.925 81.1565C247.753 79.5021 240.763 76.9211 233.365 74.8544C225.009 72.5185 216.561 69.8469 207.914 68.9658C200.566 68.2212 192.8 69.0477 186.674 72.5795C185.557 73.2231 184.501 73.9518 183.512 74.7716C177.418 79.8368 174.95 87.4142 173.575 95.1233C173.142 97.5538 172.813 99.9976 172.508 102.39C171.708 108.648 170.749 115.057 169.192 121.13C166.641 130.984 161.868 139.414 154.347 146.268C151.238 149.102 147.385 151.816 142.926 153.229C136.566 155.248 130.218 155.287 124.559 156.477C124.112 156.57 123.667 156.67 123.225 156.781C116.535 158.423 110.738 161.758 106.467 166.696C101.915 171.949 99.1627 179.287 100.712 186.842" stroke="#E3E3E3" stroke-miterlimit="10"/>
<path d="M319.157 53.3899C315.775 59.3146 311.378 64.6681 306.278 69.3478C304.015 71.4244 301.599 73.3774 298.902 74.9854C293.522 78.1905 287.379 79.8144 281.218 80.5425C279.502 80.7456 277.781 80.8862 276.077 80.9696C268.838 81.3088 261.518 80.7238 254.336 79.3588C247.238 78.0083 240.285 75.7672 233.038 73.8265C224.477 71.5342 215.887 68.7616 207.06 67.8245C199.566 67.0312 191.617 67.8316 185.355 71.4054C184.214 72.0541 183.129 72.7967 182.118 73.6318C175.876 78.7879 173.389 86.5245 171.966 94.4024C171.518 96.8836 171.177 99.3813 170.848 101.823C169.991 108.209 168.919 114.757 167.199 120.955C164.388 131.023 159.318 139.673 151.298 146.449C148.171 149.088 144.388 151.578 140.117 152.998C134.018 155.027 127.92 155.453 122.516 157.013C122.091 157.135 121.664 157.265 121.245 157.404C114.873 159.484 109.532 163.241 105.791 168.381C101.805 173.845 99.6838 181.089 101.496 188.344" stroke="#E9E9E9" stroke-miterlimit="10"/>
<path d="M317.177 50.7823C313.901 56.5784 309.584 61.7857 304.549 66.3016C302.319 68.3033 299.934 70.1781 297.307 71.754C292.076 74.8963 286.155 76.7047 280.16 77.647C278.488 77.9165 276.809 78.12 275.138 78.2728C268.051 78.9031 260.848 78.6184 253.743 77.5599C246.725 76.5115 239.804 74.6146 232.709 72.7986C223.94 70.5541 215.213 67.6788 206.206 66.6854C198.572 65.8455 190.44 66.62 184.038 70.2337C182.87 70.8921 181.762 71.6434 180.727 72.4948C174.341 77.7451 171.828 85.6437 170.36 93.6907C169.899 96.2229 169.539 98.7725 169.188 101.263C168.274 107.779 167.091 114.464 165.211 120.791C162.134 131.073 156.786 139.973 148.252 146.647C145.11 149.102 141.394 151.353 137.308 152.78C131.473 154.821 125.622 155.63 120.472 157.556C120.065 157.708 119.66 157.866 119.263 158.034C113.211 160.55 108.328 164.732 105.115 170.068C101.691 175.747 100.203 182.894 102.274 189.847" stroke="#EEEEEE" stroke-miterlimit="10"/>
<path d="M315.189 48.1796C312.019 53.8475 307.781 58.9088 302.811 63.261C300.609 65.1888 298.254 66.9853 295.702 68.5279C290.614 71.6046 284.915 73.5855 279.096 74.7577C277.467 75.0899 275.832 75.3595 274.194 75.5815C267.264 76.5048 260.178 76.516 253.151 75.7634C246.211 75.0173 239.327 73.4629 232.388 71.7695C223.416 69.5794 214.548 66.594 205.362 65.5407C197.583 64.6516 189.273 65.3992 182.733 69.0602C181.538 69.7285 180.408 70.4919 179.348 71.3563C172.817 76.6981 170.282 84.7589 168.767 92.977C168.291 95.5606 167.914 98.1625 167.544 100.702C166.573 107.348 165.279 114.175 163.236 120.629C159.9 131.129 154.287 140.316 145.227 146.852C142.068 149.131 138.42 151.138 134.519 152.572C128.947 154.62 123.345 155.815 118.452 158.106C118.068 158.286 117.682 158.474 117.303 158.671C111.568 161.624 107.146 166.225 104.461 171.76C101.602 177.648 100.736 184.7 103.07 191.352" stroke="#F4F4F4" stroke-miterlimit="10"/>
<path d="M313.196 45.5744C310.13 51.1106 305.971 56.0294 301.063 60.2143C298.889 62.0681 296.569 63.7855 294.086 65.2955C289.144 68.3051 283.668 70.4578 278.016 71.8576C276.434 72.2514 274.838 72.5926 273.235 72.8791C266.461 74.0911 259.494 74.4012 252.544 73.9548C245.683 73.5136 238.838 72.3012 232.054 70.7259C222.876 68.5942 213.871 65.4937 204.507 64.3836C196.584 63.445 188.094 64.1701 181.414 67.8719C180.196 68.549 179.036 69.3232 177.955 70.2033C171.281 75.6371 168.721 83.8654 167.159 92.2557C166.669 94.891 166.274 97.5455 165.885 100.138C164.858 106.914 163.452 113.885 161.249 120.467C157.652 131.184 151.787 140.693 142.186 147.06C139.003 149.168 135.426 150.927 131.712 152.365C126.404 154.423 121.049 156.001 116.412 158.656C116.046 158.865 115.683 159.082 115.325 159.304C109.911 162.692 105.947 167.712 103.789 173.445C101.493 179.541 101.253 186.499 103.843 192.853" stroke="#F9F9F9" stroke-miterlimit="10"/>
<path d="M311.209 42.9712C304.326 55.5348 291.389 64.6671 276.944 68.9632C262.497 73.2559 246.664 72.9681 231.734 69.6795C222.351 67.6139 213.21 64.3862 203.671 63.2179C194.133 62.0497 183.746 63.2389 176.587 69.0443C167.626 76.3085 165.983 88.5204 164.255 99.563C161.408 117.727 155.558 137.321 139.181 147.267C131.023 152.219 120.959 154.253 113.383 159.937C102.872 167.818 99.1222 182.596 104.647 194.341" stroke="white" stroke-miterlimit="10"/>
</g>
<g style="mix-blend-mode:multiply">
<path d="M195.747 -95.7333C201.346 -84.502 193 -70.8138 181.718 -65.1651C170.435 -59.5198 157.155 -59.4334 144.495 -58.0482C131.836 -56.6629 118.264 -53.1913 110.783 -43.233C101.218 -30.5025 104.718 -11.3053 94.6052 1.01492C86.7244 10.6185 72.886 12.9418 60.8585 11.5415C54.0585 10.7509 47.4939 7.85373 40.7923 6.51801C10.3968 0.46497 -1.52279 -28.0116 -24.6253 -25.416C-49.6416 -22.6006 -58.4051 -7.39117 -60.0997 1.74776C-62.2702 13.4574 -62.6628 42.1541 -33.3101 52.5884C-21.3863 56.8269 -9.41048 61.5813 0.841157 68.9124C16.1913 79.8872 23.8001 101.754 14.7478 117.804C8.54073 128.801 -4.32103 136.222 -6.82218 148.574C-8.50235 156.873 -4.77829 165.682 1.33321 171.817C7.44349 177.949 15.6545 181.716 24.0135 184.221" stroke="#8A8A8A" stroke-miterlimit="10"/>
<path d="M195.104 -96.0764C200.359 -84.3674 192.244 -70.2016 180.678 -64.1993C169.388 -58.3388 155.906 -58.1659 143.146 -57.0335C130.385 -55.9011 117.138 -52.9514 109.457 -43.6331C99.6501 -31.7127 102.204 -13.2591 92.054 -1.06437C83.9553 8.6173 70.5643 11.5823 58.4874 10.8537C51.5484 10.4331 44.6508 7.93202 37.6626 6.63518C8.02964 1.14338 -3.88825 -26.2685 -26.5257 -23.7704C-50.8708 -21.0741 -59.7953 -6.49992 -61.7117 2.56596C-64.1415 14.0548 -64.4455 41.6535 -36.4119 52.293C-24.8537 56.6789 -13.1578 61.6907 -3.03398 68.9933C11.9034 79.7205 19.3983 100.746 11.032 116.439C5.24152 127.296 -7.01735 134.887 -9.54682 147.086C-11.2941 155.427 -7.92245 164.202 -2.23754 170.529C3.49626 176.917 11.3551 181.158 19.5816 184.091" stroke="#909090" stroke-miterlimit="10"/>
<path d="M194.445 -96.5811C199.358 -84.3955 191.479 -69.7441 179.639 -63.3775C168.35 -57.3058 154.677 -57.034 141.817 -56.1575C129.26 -55.3012 116.046 -52.8422 108.174 -44.1545C98.1359 -33.0414 99.7716 -15.2971 89.5618 -3.24509C81.2769 6.53491 68.3063 10.1444 56.1928 10.0745C49.1134 10.0335 41.8919 7.91422 34.6179 6.66122C5.7758 1.6905 -6.15013 -24.623 -28.3098 -22.2209C-51.9716 -19.6371 -61.0397 -5.68862 -63.1794 3.30603C-65.8618 14.5748 -66.0693 41.108 -39.3755 51.9347C-28.1876 56.4711 -16.7822 61.7377 -6.78164 69.0144C7.73487 79.5008 15.1194 99.6972 7.44936 115.032C2.08368 125.758 -9.56375 133.52 -12.1214 145.568C-13.9314 153.96 -10.9109 162.706 -5.65951 169.224C-0.299653 175.872 7.19931 180.588 15.2879 183.946" stroke="#959595" stroke-miterlimit="10"/>
<path d="M193.781 -97.0798C198.353 -84.4147 190.709 -69.2897 178.593 -62.5511C167.302 -56.2706 153.44 -55.8934 140.483 -55.2737C127.987 -54.6745 114.951 -52.7291 106.888 -44.6716C96.6174 -34.3608 97.3191 -17.3474 87.0668 -5.42087C78.5813 4.45033 66.0372 8.72101 53.8983 9.29791C46.6723 9.64182 39.1359 7.89712 31.5675 6.68663C3.52819 2.20248 -8.42138 -22.9782 -30.1027 -20.6718C-53.0806 -18.2003 -62.2921 -4.87717 -64.6553 4.0462C-67.5811 15.0996 -67.6972 40.5852 -42.3438 51.5791C-31.516 56.2739 -20.4273 61.811 -10.5385 69.039C3.53006 79.32 10.8372 98.6581 3.856 113.633C-1.08322 124.231 -12.0904 132.169 -14.701 144.063C-16.5539 152.506 -13.9108 161.227 -9.08532 167.926C-4.10104 174.841 3.03739 180.021 10.9853 183.806" stroke="#9B9B9B" stroke-miterlimit="10"/>
<path d="M193.123 -97.5775C197.353 -84.4333 189.941 -68.8373 177.552 -61.7284C166.255 -55.2464 152.21 -54.7546 139.152 -54.3974C126.713 -54.0541 113.861 -52.6194 105.602 -45.1942C95.1018 -35.6863 94.8664 -19.3991 84.574 -7.60259C75.8874 2.35959 63.7628 7.30472 51.6004 8.51182C44.2251 9.24484 36.3743 7.8663 28.517 6.7039C1.28902 2.67296 -10.6939 -21.3459 -31.8953 -19.1318C-54.1875 -16.7689 -63.5363 -4.07652 -66.1305 4.77777C-69.301 15.6124 -69.3215 40.0728 -45.3136 51.2118C-34.8451 56.0682 -24.0654 61.8538 -14.2942 69.0503C-0.655388 79.1008 6.55844 97.6131 0.26788 112.221C-4.24559 122.7 -14.6335 130.796 -17.2746 142.544C-19.1834 151.034 -16.9063 159.743 -12.5049 166.617C-8.10358 173.491 -1.11951 179.442 6.69086 183.655" stroke="#A0A0A0" stroke-miterlimit="10"/>
<path d="M192.462 -98.0828C196.345 -84.4623 189.168 -68.3932 176.507 -60.9108C165.203 -54.2308 150.977 -53.6213 137.818 -53.5229C125.438 -53.4318 112.751 -52.5283 104.318 -45.7187C93.5648 -37.0361 92.4096 -21.4575 82.0807 -9.78056C73.1882 0.2702 61.4846 5.90427 49.3066 7.73084C41.777 8.86174 33.6196 7.83872 25.4697 6.72541C-0.93825 3.11445 -12.9619 -19.7071 -33.6803 -17.5896C-55.2871 -15.3385 -64.7754 -3.27176 -67.597 5.51233C-71.0077 16.1306 -70.9318 39.5898 -48.2759 50.848C-38.1647 55.8727 -27.6923 61.902 -18.0472 69.0657C-4.83613 78.8814 2.28952 96.5824 -3.31656 110.815C-7.39778 121.18 -17.1705 129.432 -19.848 141.029C-21.8176 149.564 -19.9044 158.267 -15.9254 165.312C-11.7008 172.786 -5.27371 178.869 2.39043 183.506" stroke="#A6A6A6" stroke-miterlimit="10"/>
<path d="M191.802 -98.5859C195.342 -84.4874 188.393 -67.9547 175.462 -60.0925C164.15 -53.2181 149.742 -52.483 136.479 -52.6502C124.16 -52.8077 111.653 -52.4245 103.026 -46.2429C92.043 -38.3655 89.9462 -23.5114 79.5819 -11.962C70.4867 -1.82398 59.2006 4.51114 47.0029 6.94635C39.3199 8.47817 30.8564 7.80226 22.4113 6.74244C-3.17269 3.52731 -15.2423 -18.0774 -35.4795 -16.0518C-56.3966 -13.9133 -66.0207 -2.47295 -69.0736 6.24203C-72.721 16.6429 -72.5538 39.1301 -51.248 50.4832C-41.4875 55.6852 -31.3313 61.9453 -21.8112 69.0797C-9.02813 78.6606 -1.98324 95.56 -6.91119 109.408C-10.562 119.665 -19.7214 128.066 -22.4259 139.516C-24.4552 148.1 -22.9122 156.803 -19.3526 164.005C-15.5146 171.764 -9.44064 178.29 -1.91484 183.354" stroke="#ABABAB" stroke-miterlimit="10"/>
<path d="M216.375 -100.218C217.678 -82.0001 208.228 -63.4305 193.213 -56.9759C180.334 -51.439 164.902 -54.1441 150.93 -58.0964C138.119 -61.7152 125.197 -65.0517 115.161 -60.6737C102.39 -55.1084 97.2145 -39.0225 84.6878 -28.0426C73.4842 -18.2181 61.0879 -12.5868 47.8383 -12.1043C39.3379 -11.7928 30.1783 -14.4524 21.1447 -17.8907C-4.4398 -27.633 -14.3006 -55.0496 -35.3087 -57.8106C-56.8313 -60.577 -68.5938 -50.1638 -73.2628 -40.6874C-78.7693 -29.5252 -81.5353 -3.74207 -62.196 15.0097C-53.0726 23.8575 -43.6585 34.1165 -34.7916 45.0078C-23.1329 59.3336 -18.0843 80.3528 -24.4453 95.3255C-29.2472 106.629 -39.4276 114.635 -43.8891 127.43C-47.2968 137.201 -47.2979 147.892 -45.0291 157.488C-42.5443 167.986 -37.5128 177.768 -30.5311 186.212" stroke="#B1B1B1" stroke-miterlimit="10"/>
<path d="M190.485 -99.5828C193.335 -84.5329 186.838 -67.0761 173.37 -58.4532C162.034 -51.1963 147.275 -50.1922 133.806 -50.9017C121.613 -51.5422 109.464 -52.2155 100.459 -47.2839C89.0108 -41.0178 85.0264 -27.6189 74.5951 -16.314C65.0854 -6.00309 54.6477 1.77062 42.4083 5.38387C34.4186 7.74268 25.3402 7.72211 16.2989 6.77786C-7.61787 4.28001 -19.7961 -14.8129 -39.0681 -12.9785C-58.6093 -11.0588 -68.4926 -0.869991 -72.0217 7.70317C-76.1277 17.6685 -75.8016 38.2985 -57.1952 49.7543C-48.1278 55.3375 -38.6113 62.0299 -29.3416 69.1058C-17.4099 78.2115 -10.5064 93.5418 -14.1005 106.596C-16.8702 116.657 -24.8193 125.34 -27.5824 136.494C-29.7325 145.172 -28.9498 153.887 -26.2096 161.398C-23.1628 169.747 -17.7794 177.141 -10.5362 183.054" stroke="#B7B7B7" stroke-miterlimit="10"/>
<path d="M189.848 -100.077C192.347 -84.5513 186.072 -66.6455 172.334 -57.6406C160.984 -50.1988 146.045 -49.0539 132.47 -50.0409C120.34 -50.9199 108.367 -52.1232 99.1653 -47.8198C87.4846 -42.3591 82.5483 -29.6921 72.0818 -18.5069C62.3569 -8.11274 52.3459 0.392944 40.0812 4.57405C31.9351 7.3544 22.5505 7.64365 13.2077 6.76436C-9.87618 4.59231 -22.1105 -13.2175 -40.9074 -11.4749C-59.7642 -9.66773 -69.7741 -0.106238 -73.5499 8.39256C-77.8821 18.1424 -77.4943 37.885 -60.2254 49.3413C-51.503 55.1294 -42.3103 62.0195 -33.1602 69.0679C-21.6528 77.9374 -14.8043 92.4925 -17.7484 105.136C-20.0725 115.109 -27.4285 123.92 -30.2215 134.922C-32.4367 143.648 -32.0393 152.368 -29.7028 160.03C-27.0637 168.674 -22.0117 176.499 -14.9121 182.835" stroke="#BCBCBC" stroke-miterlimit="10"/>
<path d="M189.199 -100.569C191.349 -84.5745 185.291 -66.2166 171.283 -56.828C159.911 -49.208 144.797 -47.9139 131.116 -49.1785C119.043 -50.295 107.251 -52.0257 97.8558 -48.3548C85.9418 -43.6995 80.0505 -31.7684 69.5511 -20.7048C59.6119 -10.2331 50.0299 -0.986586 37.7302 3.75987C29.4311 6.96309 19.7317 7.55213 10.0887 6.74416C-12.1583 4.87685 -24.4569 -11.6256 -42.7746 -9.98448C-60.9473 -8.28994 -71.0799 0.646289 -75.107 9.07119C-79.6628 18.6038 -79.2251 37.4931 -63.2858 48.9196C-54.9074 54.9269 -46.0352 62.0016 -37.013 69.0213C-25.9275 77.6499 -19.1219 91.4417 -21.4298 103.668C-23.2986 113.557 -30.0724 122.486 -32.8901 133.342C-35.1688 142.111 -35.1707 150.844 -33.2283 158.652C-31.005 167.594 -26.2828 175.844 -19.3225 182.603" stroke="#C2C2C2" stroke-miterlimit="10"/>
<path d="M188.561 -101.058C190.362 -84.5913 184.517 -65.7926 170.239 -56.0145C158.846 -48.2134 143.552 -46.773 129.766 -48.3198C117.755 -49.6667 106.144 -51.9355 96.5484 -48.8912C84.4056 -45.0383 77.5535 -33.8455 67.0171 -22.9026C56.8591 -12.3529 47.7116 -2.36081 35.3769 2.942C26.9263 6.57412 16.9111 7.45081 6.96482 6.71829C-14.4426 5.13952 -26.8088 -10.0413 -44.6492 -8.49687C-62.1337 -6.91592 -72.3913 1.39993 -76.6717 9.74722C-81.4503 19.0659 -80.9786 37.1345 -66.3604 48.4929C-58.3302 54.7315 -49.7735 61.9733 -40.878 68.9678C-30.216 77.3521 -23.4374 90.3916 -25.1222 102.194C-26.5223 112.004 -32.7253 121.051 -35.5726 131.757C-37.9176 140.573 -38.3208 149.315 -36.771 157.265C-34.9718 166.506 -30.5722 175.181 -23.7565 182.361" stroke="#C7C7C7" stroke-miterlimit="10"/>
<path d="M187.926 -101.549C189.372 -84.6137 183.744 -65.3726 169.194 -55.2093C157.777 -47.2346 142.307 -45.6348 128.415 -47.4669C116.461 -49.043 105.034 -51.8459 95.2438 -49.4333C82.869 -46.3811 75.0549 -35.9264 64.4896 -25.1033C54.1121 -14.476 45.4047 -3.73351 33.0247 2.12007C24.4265 6.18261 14.0909 7.33598 3.83832 6.68304C-16.7298 5.37786 -29.1688 -8.50462 -46.5264 -7.02033C-63.884 -5.53605 -73.7006 2.14211 -78.2382 10.4127C-83.2317 19.5186 -82.7527 36.8025 -69.4342 48.0581C-61.7587 54.5446 -53.5159 61.9373 -44.7474 68.9064C-34.5058 77.0454 -27.7392 89.3405 -28.819 100.711C-29.7437 110.447 -35.3825 119.603 -38.2561 130.159C-40.6688 139.018 -41.4777 147.77 -40.3155 155.866C-38.945 165.407 -34.8666 174.501 -28.1915 182.104" stroke="#CDCDCD" stroke-miterlimit="10"/>
<path d="M187.292 -102.031C188.385 -84.6259 182.964 -64.9477 168.147 -54.3945C156.702 -46.2454 141.059 -44.4878 127.061 -46.6087C115.169 -48.4115 103.921 -51.7501 93.9381 -49.9652C81.3315 -47.7131 72.553 -37.9998 61.9551 -27.2955C51.356 -16.5946 43.0956 -5.09341 30.6658 1.2997C21.9216 5.79871 11.2634 7.21322 0.703866 6.6508C-19.0206 5.60661 -31.5334 -6.93377 -48.4077 -5.54365C-65.282 -4.15353 -75.0116 2.8887 -79.8082 11.0789C-85.017 19.9721 -84.5537 36.506 -72.5146 47.6209C-65.2042 54.3729 -57.263 61.8968 -48.6252 68.8417C-38.8034 76.739 -32.0328 88.2896 -32.5217 99.2297C-32.9537 108.894 -38.0432 118.16 -40.9467 128.567C-43.4275 137.47 -44.6513 146.23 -43.8705 154.47C-42.9395 164.304 -39.1727 173.826 -32.6436 181.849" stroke="#D2D2D2" stroke-miterlimit="10"/>
<path d="M186.658 -102.53C187.397 -84.66 182.183 -64.5453 167.099 -53.5997C155.625 -45.2768 139.807 -43.3539 125.703 -45.7713C113.867 -47.7984 102.808 -51.6709 92.6264 -50.519C79.7884 -49.0662 70.0445 -40.0942 59.4174 -29.5098C48.5961 -18.7356 40.7872 -6.47438 28.2996 0.459568C19.412 5.39312 8.42684 7.05782 -2.44386 6.59794C-21.3261 5.79651 -33.9104 -5.38198 -50.3054 -4.08811C-65.7321 -2.87226 -76.3328 3.61739 -81.3937 11.7248C-86.8157 20.412 -86.3984 36.2216 -75.6123 47.1636C-68.6834 54.193 -61.0304 61.832 -52.5187 68.7551C-43.116 76.4028 -36.3254 87.2201 -36.2387 97.7285C-36.1607 107.324 -40.7216 116.696 -43.6467 126.955C-46.1972 135.897 -47.8391 144.67 -47.4358 153.055C-46.9525 163.186 -43.489 173.127 -37.1056 181.572" stroke="#D8D8D8" stroke-miterlimit="10"/>
<path d="M186.025 -103.012C186.409 -84.6731 181.397 -64.1247 166.047 -52.7922C154.543 -44.2992 138.547 -42.2071 124.343 -44.9186C112.567 -47.1675 101.692 -51.5789 91.3166 -51.057C78.2488 -50.3995 67.5375 -42.1721 56.8774 -31.7064C45.8297 -20.8584 38.4803 -7.83659 25.933 -0.366142C16.9037 5.00802 5.58579 6.90852 -5.59071 6.55645C-23.6285 5.98987 -36.2834 -3.82186 -52.1983 -2.62398C-66.9345 -1.51573 -77.644 4.35458 -82.9731 12.3801C-88.6051 20.8603 -88.2701 35.977 -78.7047 46.7195C-72.1819 54.0483 -64.7893 61.7819 -56.4124 68.6819C-47.4281 76.0836 -40.5989 86.1632 -39.9544 96.2428C-39.3465 105.768 -43.3973 115.248 -46.3453 125.356C-48.9681 134.342 -51.0277 143.119 -51.0052 151.654C-50.9769 162.073 -47.8154 172.44 -41.5748 181.306" stroke="#DEDEDE" stroke-miterlimit="10"/>
<path d="M185.397 -103.498C185.421 -84.6911 180.612 -63.7141 164.994 -51.9875C153.459 -43.3284 137.286 -41.0641 122.979 -44.0731C111.258 -46.5379 100.575 -51.4897 90.002 -51.5996C76.7013 -51.7356 65.0239 -44.257 54.3368 -33.9045C43.0609 -22.9864 36.1743 -9.19461 23.5604 -1.19431C14.397 4.62088 2.73946 6.73941 -8.74581 6.51054C-25.9392 6.1641 -38.6686 -2.26694 -54.1024 -1.16479C-68.1471 -0.163671 -78.9624 5.09469 -84.5627 13.0313C-90.4001 21.3068 -90.1874 35.7515 -81.8137 46.2693C-75.7232 53.9161 -68.5642 61.7205 -60.3212 68.6009C-52.0782 75.4813 -44.8658 85.0929 -43.6837 94.7514C-42.5016 104.41 -46.0852 113.795 -49.0585 123.756C-51.7503 132.785 -54.2368 141.565 -54.589 150.247C-55.0168 160.954 -52.1571 171.749 -46.065 181.034" stroke="#E3E3E3" stroke-miterlimit="10"/>
<path d="M184.768 -103.992C184.434 -84.7224 179.824 -63.3161 163.941 -51.1974C152.375 -42.3688 136.022 -39.9285 121.617 -43.2392C109.955 -45.9209 99.458 -51.3953 88.6936 -52.1536C75.1607 -53.0594 62.5164 -46.3524 51.7974 -36.1153C40.2928 -25.1274 33.8749 -10.5719 21.1913 -2.03802C11.893 4.21745 -0.108562 6.5431 -11.9008 6.44375C-28.2509 6.31081 -41.0515 -0.705169 -56.0057 0.272052C-69.3527 1.19158 -80.2782 5.81362 -86.1501 13.6612C-92.0219 21.5088 -92.1438 35.5224 -84.9173 45.8007C-79.3055 53.7824 -72.3368 61.6362 -64.2303 68.5016C-56.1238 75.367 -49.1185 84.0012 -47.4118 93.2439C-45.7051 102.487 -48.7703 112.326 -51.7653 122.141C-54.5311 131.21 -57.4454 139.991 -58.167 148.826C-59.0618 159.817 -56.4967 171.04 -50.5491 180.744" stroke="#E9E9E9" stroke-miterlimit="10"/>
<path d="M184.148 -104.471C183.454 -84.7355 179.039 -62.9059 162.895 -50.3902C151.293 -41.395 134.761 -38.7757 120.259 -42.3925C108.651 -45.2853 98.3452 -51.3055 87.3886 -52.6921C73.6264 -54.3945 60.0086 -48.4305 49.265 -38.3109C37.5299 -27.257 31.5875 -11.9293 18.8227 -2.87077C9.38878 3.82422 -2.9564 6.33707 -15.0562 6.38942C-30.5666 6.45649 -43.4376 0.837666 -57.9053 1.71875C-70.5592 2.52876 -81.5824 6.54929 -87.7322 14.302C-93.9784 22.1753 -94.1449 35.3091 -88.0185 45.3398C-82.9295 53.6692 -76.1087 61.559 -68.1355 68.4082C-60.1623 75.2575 -53.3491 82.8998 -51.1344 91.7446C-48.8115 101.022 -51.4533 110.865 -54.4687 120.535C-57.3124 129.645 -60.6528 138.424 -61.7448 147.411C-63.1088 158.681 -60.8336 170.338 -55.0362 180.459" stroke="#EEEEEE" stroke-miterlimit="10"/>
<path d="M183.532 -104.959C182.474 -84.7612 178.259 -62.5074 161.851 -49.5944C150.212 -40.4361 133.503 -37.6314 118.905 -41.5542C107.354 -44.6589 97.241 -51.2242 86.0939 -53.2353C72.0995 -55.7324 57.4908 -50.5364 46.7395 -40.509C34.7496 -29.4124 29.3064 -13.2901 16.4645 -3.7053C6.90376 3.43317 -5.80128 6.11096 -18.2067 6.33264C-32.8774 6.59661 -45.8192 2.37636 -59.8028 3.16282C-71.7624 3.8639 -82.8825 7.28353 -89.3107 14.9413C-95.7591 22.6205 -96.1922 35.0878 -91.1163 44.8814C-86.6112 53.5683 -79.8718 61.4811 -72.043 68.3176C-64.7233 74.7093 -57.5696 81.7912 -54.8576 90.2504C-51.9202 99.4194 -54.1521 109.406 -57.1688 118.931C-60.1048 128.076 -63.8625 136.857 -65.3198 146C-67.1591 157.546 -65.1747 169.637 -59.5271 180.177" stroke="#F4F4F4" stroke-miterlimit="10"/>
<path d="M182.907 -105.449C181.487 -84.7873 177.441 -62.1336 160.793 -48.8056C149.103 -39.4996 132.226 -36.4941 117.535 -40.7271C106.035 -44.0415 96.1215 -51.1568 84.7845 -53.7918C70.561 -57.0874 54.9894 -52.6229 44.2041 -42.7174C31.99 -31.5462 27.0219 -14.6641 14.0913 -4.55067C4.40301 3.03055 -8.66264 5.84996 -21.3708 6.26197C-35.2089 6.71054 -48.216 3.89604 -61.7134 4.59164C-72.976 5.18778 -84.1878 8.00942 -90.9006 15.5664C-97.5466 23.0538 -98.3024 34.8311 -94.2318 44.4067C-90.3826 53.4531 -83.6519 61.3818 -75.9714 68.2066C-69.0644 74.3426 -61.8024 80.642 -58.6002 88.7379C-55.027 97.7782 -56.8437 107.934 -59.889 117.315C-62.8938 126.505 -67.0912 135.271 -68.9169 144.576C-71.2339 156.394 -69.5391 168.924 -64.0399 179.879" stroke="#F9F9F9" stroke-miterlimit="10"/>
<path d="M182.29 -105.932C180.508 -84.8074 176.672 -61.7141 159.744 -48.0086C148.029 -38.5252 130.956 -35.3413 116.173 -39.8924C104.729 -43.4139 95.0089 -51.0763 83.4814 -54.3381C69.0271 -58.4271 52.4933 -54.7019 41.6705 -44.9171C29.2353 -33.6728 24.7383 -16.0303 11.722 -5.39003C1.90535 2.63325 -11.524 5.56424 -24.5342 6.19204C-37.5409 6.81874 -50.6114 5.41825 -63.6205 6.01548C-74.1824 6.50278 -85.4911 8.73263 -92.4854 16.1876C-99.3326 23.4844 -100.46 34.5345 -97.3399 43.9274C-94.2199 53.3204 -87.4266 61.277 -79.8899 68.0924C-73.3923 73.9719 -66.0161 79.4695 -62.3323 87.2211C-58.1066 96.1099 -59.5186 106.462 -62.5936 115.694C-65.6687 124.927 -70.3087 133.682 -72.5014 143.143C-75.3021 155.23 -73.8945 168.198 -68.5469 179.572" stroke="white" stroke-miterlimit="10"/>
</g>
<g style="mix-blend-mode:multiply">
<path d="M12.315 -147.456C23.982 -144.756 29.2679 -129.116 26.8329 -116.278C24.3979 -103.44 16.6421 -92.5747 10.2217 -81.3696C3.80141 -70.1646 -1.60205 -56.8741 1.41262 -44.3438C5.26856 -28.3305 21.6363 -18.7717 24.8637 -2.57504C27.3786 10.0486 20.9637 22.8175 12.8385 31.7069C8.24333 36.7343 2.21966 40.2041 -2.71946 44.7999C-25.126 65.6392 -53.3686 56.9375 -65.0362 77.4275C-77.6701 99.6134 -71.4953 116.579 -65.682 123.865C-58.235 133.197 -37.079 152.068 -12.019 134.907C-1.83756 127.937 8.75367 121.261 20.2519 117.65C37.4699 112.241 58.2466 120.181 64.8749 137.924C69.417 150.083 67.3752 165.352 75.1066 175.371C80.3006 182.103 89.0608 184.763 97.2273 183.752C105.394 182.741 113.035 178.488 119.828 173.299" stroke="white" stroke-miterlimit="10"/>
<path d="M11.4433 -147.216C23.2622 -143.921 29.0562 -128.156 26.7373 -114.861C24.4738 -101.884 16.6797 -90.7996 10.0222 -79.6827C3.44381 -68.6966 -2.21822 -55.8778 0.217147 -43.5992C3.34395 -27.9104 18.6043 -18.0554 21.7305 -1.90563C24.1881 10.9453 18.5328 23.7615 10.8922 33.1196C6.50159 38.4944 0.580833 42.4866 -4.49411 47.3372C-26.0046 67.9015 -53.448 59.8688 -64.8898 79.9066C-77.1884 101.462 -71.5627 118.15 -65.9285 125.572C-58.7918 134.98 -38.3861 153.079 -13.9783 137.145C-3.91741 130.576 6.69473 124.302 18.0926 120.784C34.8726 115.567 54.9541 123.065 61.7366 140.023C66.4297 151.755 64.8863 166.641 72.4925 176.588C77.6863 183.407 86.2104 186.335 94.269 185.802C102.401 185.264 110.185 181.616 117.206 176.817" stroke="#FBFBFB" stroke-miterlimit="10"/>
<path d="M10.5986 -146.938C22.574 -143.049 28.8722 -127.162 26.6713 -113.404C24.4704 -99.6463 16.7491 -88.9877 9.8507 -77.9586C3.11809 -67.1902 -2.80716 -54.8469 -0.948919 -42.8182C1.44902 -27.4597 15.6383 -17.3112 18.6364 -1.20338C21.065 11.8668 16.1423 24.7554 8.97959 34.5644C4.7927 40.2986 -1.02593 44.8015 -6.23279 49.9089C-26.8703 70.157 -53.4993 62.8365 -64.7168 82.4204C-76.6817 103.344 -71.6013 119.747 -66.1506 127.31C-59.3185 136.782 -39.6539 154.123 -15.9059 139.407C-5.95309 133.238 4.67017 127.367 15.9692 123.943C32.3137 118.916 51.709 125.978 58.6457 142.142C63.4949 153.449 62.4453 167.947 69.932 177.823C75.1251 184.724 83.4244 187.929 91.3674 187.869C99.3104 187.81 107.389 184.759 114.646 180.353" stroke="#F6F6F6" stroke-miterlimit="10"/>
<path d="M9.74698 -146.655C21.8739 -142.174 28.6733 -126.16 26.5925 -111.943C24.6525 -98.6909 16.8057 -87.1706 9.67116 -76.227C2.78579 -65.6727 -3.4034 -53.8086 -2.12301 -42.0333C-0.456792 -27.0039 12.6474 -16.56 15.5306 -0.49888C17.9167 12.7963 13.7438 25.7671 7.05421 36.013C3.07316 42.1143 -2.64665 47.1174 -7.98741 52.4868C-27.7752 72.3917 -53.5665 65.8107 -64.5595 84.9408C-76.1906 105.232 -71.6553 121.351 -66.386 129.05C-59.8586 138.587 -40.9164 155.183 -17.8461 141.676C-7.99397 135.909 2.63875 130.473 13.831 127.105C29.7508 122.318 48.4599 128.894 55.5359 144.268C60.5444 155.147 60.0079 169.238 67.3515 179.065C72.5627 186.037 80.6193 189.533 88.4453 189.944C96.5278 190.367 104.577 187.913 112.061 183.898" stroke="#F2F2F2" stroke-miterlimit="10"/>
<path d="M8.8925 -146.38C21.1748 -141.304 28.468 -125.171 26.5126 -110.489C24.7313 -97.1021 16.869 -85.3594 9.48646 -74.5046C2.45633 -64.1635 -4.0041 -52.7799 -3.30333 -41.2533C-2.36383 -26.5508 9.6491 -15.8088 12.4207 0.20455C14.7608 13.7263 11.347 26.788 5.12806 37.4644C1.35485 43.9402 -4.27052 49.4297 -9.7428 55.0683C-28.701 74.6019 -53.6382 68.7904 -64.4033 87.4654C-75.6996 107.128 -71.7113 122.955 -66.6246 130.8C-60.3995 140.397 -42.1641 156.262 -19.7937 143.951C-10.0391 138.585 0.591804 133.561 11.6858 130.279C27.1732 125.694 45.2083 131.823 52.4224 146.403C57.5952 156.861 57.5493 170.558 64.7631 180.318C69.9766 187.372 77.8092 191.161 85.5159 192.035C93.2225 192.909 101.755 191.08 109.472 187.459" stroke="#EEEEEE" stroke-miterlimit="10"/>
<path d="M8.03096 -146.099C20.4647 -140.427 28.251 -124.174 26.4241 -109.028C24.7935 -95.5058 16.9234 -83.5396 9.2934 -72.7737C2.11883 -62.6457 -4.63119 -51.7437 -4.48852 -40.4701C-4.30163 -26.0965 6.64278 -15.0567 9.30711 0.911484C11.6011 14.6604 8.95774 27.8289 3.19249 38.9187C-0.371961 45.773 -5.90731 51.7469 -11.5043 57.6525C-29.6519 76.79 -53.7131 71.772 -64.257 89.9944C-75.2195 109.025 -71.7735 124.562 -66.8694 132.553C-60.9466 142.21 -43.3992 157.357 -21.7441 146.23C-12.0762 141.265 -1.45406 136.656 9.53715 133.456C24.5921 129.074 41.9644 134.756 49.3007 148.539C54.6453 158.578 55.0806 171.876 62.1689 181.571C67.3845 188.707 74.9974 192.791 82.5791 194.123C90.6267 195.535 98.9234 194.251 106.87 191.021" stroke="#E9E9E9" stroke-miterlimit="10"/>
<path d="M7.15939 -145.812C19.7463 -139.547 28.0162 -123.168 26.3219 -107.553C24.8387 -93.8954 16.9653 -81.7031 9.08692 -71.0298C1.77143 -61.1166 -5.25674 -50.6969 -5.68491 -39.6714C-6.22887 -25.6313 3.62687 -14.2896 6.18616 1.6286C8.43296 15.6013 6.56246 28.8879 1.24824 40.3843C-2.0978 47.6258 -7.55093 54.0715 -13.2791 60.2467C-30.632 78.962 -53.8028 74.7644 -64.1222 92.5328C-74.7511 110.931 -71.8436 126.176 -67.1298 134.312C-61.5035 144.024 -44.6326 158.475 -23.7079 148.519C-14.1224 143.957 -3.51458 139.758 7.37154 136.646C21.991 132.467 38.7153 137.701 46.1672 150.69C51.6878 160.31 52.6005 173.211 59.5577 182.836C64.7754 190.054 72.1687 194.445 79.6253 196.224C87.6579 198.14 96.0764 197.43 104.254 194.595" stroke="#E5E5E5" stroke-miterlimit="10"/>
<path d="M6.30358 -145.523C19.0414 -138.66 27.7954 -122.162 26.2369 -106.081C24.8996 -92.2904 17.0305 -79.8709 8.90177 -69.2856C1.44766 -59.5803 -5.86055 -49.6506 -6.86004 -38.8773C-8.133 -25.1678 0.630791 -13.5268 3.08625 2.34483C5.28359 16.5462 4.20057 29.9532 -0.673092 41.8486C-3.79996 49.4811 -9.17766 56.3895 -15.0304 62.8439C-31.6061 81.1192 -53.871 77.7606 -63.9663 95.0746C-74.2653 112.841 -71.89 127.788 -67.3642 136.076C-62.0308 145.841 -44.6263 162.458 -25.6448 150.809C-16.6879 145.313 -5.55144 142.862 5.23642 139.836C19.4232 135.856 35.5092 140.645 43.0622 152.84C48.7631 162.045 50.144 174.544 56.9792 184.103C62.2 191.406 69.375 196.109 76.7046 198.326C84.7243 200.754 93.2632 200.616 101.667 198.173" stroke="#E1E1E1" stroke-miterlimit="10"/>
<path d="M5.44089 -145.242C18.3295 -137.78 27.5664 -121.167 26.1445 -104.616C24.9463 -90.6899 17.0869 -78.0373 8.70461 -67.551C1.1152 -58.0551 -6.47286 -48.616 -8.04639 -38.0943C-10.0487 -24.7197 -2.37455 -12.7762 -0.0238405 3.04489C2.1197 17.4726 1.83328 31.0084 -2.60813 43.302C-5.51066 51.3318 -10.8187 58.6972 -16.7927 65.4295C-32.6043 83.2493 -53.9528 80.7463 -63.8242 97.6054C-73.7905 114.738 -71.9501 129.388 -67.6163 137.825C-62.5766 147.639 -45.7824 163.873 -27.596 153.087C-18.7345 147.827 -7.59886 145.954 3.08664 143.011C16.8403 139.226 32.3045 143.571 39.9467 154.969C45.839 163.757 47.6777 175.858 54.3867 185.349C59.6097 192.734 66.5655 197.756 73.7705 200.409C81.7763 203.357 90.4324 203.779 99.0711 201.735" stroke="#DCDCDC" stroke-miterlimit="10"/>
<path d="M4.5801 -144.962C17.6218 -136.906 27.3334 -120.167 26.0512 -103.147C24.992 -89.0857 17.1486 -76.2025 8.50633 -65.8129C0.781699 -56.5268 -7.08597 -47.5789 -9.23191 -37.3056C-11.9584 -24.2642 -5.38166 -12.0233 -3.13008 3.75293C-1.03588 18.4093 -0.519853 32.0716 -4.54166 44.7604C-7.21352 53.1851 -12.4609 61.0032 -18.5573 68.0221C-33.6221 85.3684 -54.039 83.7398 -63.6868 100.144C-73.3207 116.642 -72.0125 130.989 -67.8683 139.583C-63.1153 149.443 -46.9548 165.274 -29.5461 155.369C-20.7522 150.363 -9.64936 149.049 0.939489 146.195C14.2605 142.605 29.1127 146.499 36.8332 157.11C42.9234 165.479 45.213 177.183 51.7994 186.604C57.0212 194.073 63.7604 199.422 70.8387 202.502C78.8285 205.976 87.6083 206.957 96.4763 205.305" stroke="#D8D8D8" stroke-miterlimit="10"/>
<path d="M3.71477 -144.675C16.9073 -136.02 27.0899 -119.165 25.9549 -101.675C25.0335 -87.4819 17.2071 -74.3645 8.30826 -64.0732C0.453921 -54.9912 -7.69753 -46.5373 -10.4208 -36.5189C-13.872 -23.8149 -8.38932 -11.2698 -6.23781 4.45766C-4.20063 19.3415 -2.86971 33.1375 -6.47458 46.2146C-8.91062 55.0405 -14.1085 63.2996 -20.3219 70.6111C-34.6528 87.4683 -54.1273 86.7305 -63.5551 102.68C-72.857 118.544 -72.0771 132.587 -68.129 141.34C-63.66 151.241 -48.1576 166.645 -31.5027 157.649C-22.7466 152.922 -11.7028 152.14 -1.21365 149.376C11.6754 145.982 25.9306 149.422 33.7186 159.247C40.0177 167.196 42.7436 178.505 49.2109 187.855C54.4328 195.41 60.9521 201.088 67.9096 204.589C75.8788 208.598 84.7867 210.129 93.8807 208.872" stroke="#D4D4D4" stroke-miterlimit="10"/>
<path d="M2.85995 -144.397C16.2065 -135.145 26.8578 -118.169 25.8688 -100.212C25.0783 -85.885 17.2775 -72.5287 8.11673 -62.3418C0.132712 -53.4643 -8.30008 -45.5097 -11.598 -35.7395C-15.7721 -23.3701 -11.387 -10.5234 -9.32986 5.1489C-7.27275 20.8212 -5.1935 34.1899 -8.39624 47.6571C-10.5901 56.8818 -15.7497 65.5825 -22.0734 73.1841C-35.6822 89.5403 -54.2047 89.7061 -63.4095 105.2C-72.3795 120.429 -72.1274 134.166 -68.3763 143.075C-64.1911 153.017 -50.4175 164.394 -33.4429 159.91C-24.1173 157.449 -13.7428 155.215 -3.34989 152.54C9.10663 149.337 22.7823 152.316 30.618 161.362C37.1316 168.884 40.2912 179.804 46.632 189.081C51.8528 196.719 58.1526 202.737 64.9904 206.652C72.9415 211.204 81.9708 213.275 91.2982 212.413" stroke="#CFCFCF" stroke-miterlimit="10"/>
<path d="M1.98514 -144.108C15.4814 -134.259 26.5978 -117.161 25.7588 -98.7348C25.0992 -84.274 17.3272 -70.68 7.90234 -60.593C-0.206933 -51.9178 -8.92863 -44.4641 -12.7985 -34.9474C-17.6916 -22.9144 -14.4063 -9.76536 -12.4457 5.8564C-10.518 21.1975 -7.53731 35.2609 -10.3417 49.1198C-12.2893 58.7459 -17.4196 67.8838 -23.8515 75.7826C-36.7498 91.6258 -54.3391 92.687 -63.2926 107.745C-72.246 122.803 -72.1997 135.768 -68.6475 144.837C-64.7382 154.82 -51.5426 165.682 -35.4062 162.195C-26.1073 160.185 -15.8035 158.308 -5.51205 155.729C6.51137 152.713 19.6215 155.226 27.4974 163.503C34.2376 170.59 37.8153 181.129 44.0374 190.334C49.2584 198.059 55.3312 204.416 62.0561 208.742C69.979 213.841 79.1441 216.452 88.6972 215.984" stroke="#CBCBCB" stroke-miterlimit="10"/>
<path d="M1.13651 -143.812C14.7867 -133.365 26.3636 -116.147 25.6789 -97.2489C25.15 -82.654 17.4088 -68.8152 7.71671 -58.839C-0.516677 -50.3628 -9.52368 -43.4116 -13.9684 -34.1477C-19.5831 -22.4504 -17.3979 -9.00284 -15.5303 6.5669C-13.6628 22.1367 -9.84399 36.3327 -12.2581 50.5825C-13.9565 60.6089 -19.0674 70.176 -25.6011 78.3818C-37.8027 93.7048 -54.4214 95.6917 -63.1501 110.288C-71.4851 124.229 -72.243 137.365 -68.8961 146.597C-65.2601 156.617 -52.6278 167.01 -37.3442 164.48C-28.0653 162.945 -17.8387 161.403 -7.64525 158.918C3.94552 156.09 16.5052 158.122 24.4037 165.645C31.3837 172.29 35.3626 182.455 41.4663 191.588C46.6875 199.4 52.5301 206.097 59.1455 210.834C67.0382 216.485 76.34 219.626 86.123 219.556" stroke="#C7C7C7" stroke-miterlimit="10"/>
<path d="M0.260937 -143.527C14.0618 -132.479 26.0988 -115.142 25.5704 -95.7768C25.1677 -81.0501 17.4615 -66.9641 7.50572 -57.1002C-0.850676 -48.8195 -10.1439 -42.375 -15.164 -33.3678C-21.4966 -22.008 -20.4127 -8.25752 -18.6381 7.25998C-16.8296 23.062 -12.1689 37.3811 -14.1953 52.0269C-15.6381 62.4513 -20.7453 72.4457 -27.3686 80.9619C-38.8807 95.7551 -54.5202 98.6767 -63.0265 112.816C-71.0306 126.121 -72.3049 138.946 -69.1611 148.336C-65.7947 158.391 -53.723 168.357 -39.3011 166.742C-30.0358 165.702 -19.8937 164.471 -9.79807 162.079C1.35944 159.436 13.3781 160.979 21.2918 167.758C28.5182 173.948 32.8958 183.755 38.8801 192.813C44.0972 200.709 49.7121 207.754 56.2203 212.895C64.0805 219.104 73.5224 222.775 83.5308 223.1" stroke="#C2C2C2" stroke-miterlimit="10"/>
<path d="M-0.594443 -143.247C13.3572 -131.599 25.8543 -114.142 25.4787 -94.3085C25.1999 -79.4453 17.5352 -65.1146 7.308 -55.3644C-1.17142 -47.2795 -10.7508 -41.3421 -16.3482 -32.5872C-23.397 -21.5619 -23.4157 -7.51607 -21.7296 7.95118C-19.9811 23.9817 -14.4734 38.4299 -16.1203 53.4709C-17.3077 64.2935 -22.4167 74.7094 -29.1276 83.5431C-39.9608 97.7981 -54.6123 101.664 -62.8998 115.347C-70.5733 128.016 -72.357 140.527 -69.4248 150.082C-66.3267 160.175 -54.8129 169.758 -41.2516 169.008C-31.9976 168.496 -21.9453 167.545 -11.9428 165.25C-1.21805 162.79 10.2726 163.823 18.1917 169.874C25.6745 175.591 30.4364 185.054 36.3059 194.038C41.5201 202.022 46.9042 209.417 53.3077 214.958C61.1288 221.727 70.713 225.923 80.9545 226.645" stroke="#BEBEBE" stroke-miterlimit="10"/>
<path d="M-1.46213 -142.959C12.6424 -130.715 25.5894 -113.135 25.3786 -92.8297C25.2224 -77.8335 17.599 -63.246 7.10167 -53.6181C-1.49636 -45.7268 -11.366 -40.2993 -17.538 -31.8019C-25.3025 -21.1117 -26.4265 -6.76951 -24.8297 8.64373C-23.1457 24.9004 -16.7807 39.4777 -18.0539 54.9203C-18.9796 66.1387 -24.107 76.9706 -30.8968 86.1267C-41.0614 99.8351 -54.7117 104.656 -62.7817 117.88C-70.1237 129.915 -72.4163 142.112 -69.6933 151.827C-66.9703 161.542 -55.9114 171.203 -43.2045 171.277C-33.9653 171.33 -23.9969 170.617 -14.0897 168.423C-4.18247 166.229 7.17263 166.655 15.0884 171.996C22.8365 177.222 27.9746 186.364 33.724 195.268C38.9353 203.34 44.0811 211.082 50.3876 217.025C58.1632 224.357 67.9005 229.079 78.3672 230.197" stroke="#BABABA" stroke-miterlimit="10"/>
<path d="M-2.31661 -142.672C11.9385 -129.827 25.3374 -112.128 25.2901 -91.3542C25.2532 -76.2238 17.6776 -61.3819 6.90795 -51.8716C-1.81193 -44.173 -11.9519 -39.239 -18.7134 -31.0138C-27.1768 -20.6413 -29.4216 -6.02093 -27.9131 9.34174C-26.2924 25.8282 -19.0696 40.5263 -19.9694 56.3707C-20.6293 67.9876 -25.7894 79.2251 -32.6438 88.7142C-42.1514 101.876 -54.7718 107.666 -62.643 120.417C-69.6319 131.83 -72.4494 143.694 -69.9454 153.573C-67.4413 163.452 -57.005 172.694 -45.1406 173.542C-35.9263 174.202 -26.0327 173.683 -16.2195 171.594C-6.40628 169.504 4.0951 169.462 12.0065 174.114C20.0243 178.825 25.5296 187.666 31.1679 196.495C36.3763 204.654 41.2839 212.745 47.4935 219.09C55.2202 226.986 65.1128 232.229 75.809 233.745" stroke="#B5B5B5" stroke-miterlimit="10"/>
<path d="M-3.19273 -142.386C11.2163 -128.941 25.0603 -111.121 25.1764 -89.8784C25.2598 -74.6102 17.7318 -59.514 6.69113 -50.13C-2.14514 -42.6182 -12.5805 -38.2008 -19.9126 -30.2352C-29.0951 -20.2009 -32.4425 -5.28131 -31.0199 10.0257C-29.4657 26.743 -21.379 41.5597 -21.9124 57.8086C-22.3044 69.8191 -27.5138 81.4567 -34.422 91.2907C-43.2796 103.896 -54.8876 110.65 -62.5373 122.943C-69.1962 133.719 -72.5109 145.268 -70.2256 155.311C-67.9048 165.509 -58.147 174.216 -47.1022 175.802C-37.9307 177.119 -28.0905 176.742 -18.3778 174.76C-8.66504 172.778 0.987961 172.244 8.89301 176.224C17.185 180.399 23.0572 188.962 28.5768 197.715C33.7792 205.963 38.4444 214.4 44.5649 221.147C52.2362 229.611 62.2884 235.376 73.213 237.287" stroke="#B1B1B1" stroke-miterlimit="10"/>
<path d="M-4.05673 -142.099C10.5019 -128.057 24.792 -110.112 25.0778 -88.4033C25.2803 -73.0009 17.8019 -57.6431 6.48594 -48.388C-2.47 -41.0619 -13.1984 -37.1662 -21.0985 -29.4533C-30.9986 -19.7543 -35.4733 -4.53395 -34.108 10.7141C-32.6532 27.6631 -23.6701 42.5976 -23.8373 59.2514C-23.9628 71.6521 -29.2347 83.6827 -36.1826 93.8725C-44.3983 105.921 -54.9873 113.64 -62.4154 125.475C-68.7446 135.613 -72.555 146.85 -70.4939 157.051C-68.4327 167.252 -59.3128 175.778 -49.0517 178.061C-39.9439 180.087 -30.1404 179.797 -20.5213 177.92C-11.5245 176.168 -2.10558 175.001 5.79976 178.329C14.3672 181.935 20.5861 190.265 26.0093 198.928C31.1946 207.278 35.6287 216.048 41.6569 223.199C49.2718 232.226 59.4868 238.514 70.6407 240.824" stroke="#ADADAD" stroke-miterlimit="10"/>
<path d="M-4.91691 -141.802C9.7955 -127.159 24.4986 -109.089 24.9837 -86.9135C25.2832 -71.3765 17.8807 -55.7552 6.28512 -46.6314C-2.78716 -39.4924 -13.8107 -36.1138 -22.2839 -28.6601C-32.9022 -19.3002 -38.465 -3.78641 -37.1976 11.4144C-35.7983 28.594 -25.9577 43.6415 -25.7602 60.7087C-25.6117 73.501 -30.9758 85.9122 -37.9425 96.4657C-45.5277 107.957 -55.0908 116.644 -62.2943 128.019C-68.2973 137.521 -72.5932 148.441 -70.7582 158.804C-68.9403 169.074 -60.5211 177.379 -50.9949 180.336C-41.9928 183.129 -32.1827 182.861 -22.6573 181.101C-14.0924 179.517 -5.20052 177.757 2.71172 180.455C11.5503 183.466 18.1411 191.572 23.447 200.162C28.6318 208.594 32.8151 217.718 38.7575 225.271C46.3094 234.864 56.6949 241.676 68.0736 244.383" stroke="#A8A8A8" stroke-miterlimit="10"/>
<path d="M-5.78703 -141.51C9.07619 -126.266 24.2495 -108.077 24.8756 -85.4318C25.3095 -69.7587 17.9431 -53.8706 6.07447 -44.881C-3.11539 -37.9207 -14.4328 -35.0681 -23.4746 -27.8714C-34.811 -18.8512 -41.4635 -3.03947 -40.2926 12.1051C-38.9464 29.5103 -28.2508 44.6756 -27.6932 62.1539C-27.272 75.334 -32.7458 88.1166 -39.7086 99.049C-46.6714 109.982 -55.1986 119.637 -62.1844 130.554C-67.858 139.418 -72.6424 150.022 -71.0367 160.55C-69.4638 170.856 -61.801 178.987 -52.9518 182.598C-44.106 186.211 -34.2383 185.913 -24.8062 184.269C-16.6727 182.853 -8.32044 180.481 -0.385678 182.563C8.7133 184.953 15.6901 192.859 20.8714 201.374C26.0536 209.894 29.9852 219.367 35.8454 227.32C43.3313 237.482 53.8862 244.813 65.4976 247.918" stroke="#A4A4A4" stroke-miterlimit="10"/>
</g>
</svg>
