<svg width="112" height="112" viewBox="0 0 112 112" fill="none" xmlns="http://www.w3.org/2000/svg">
<g style="mix-blend-mode:multiply">
<path d="M-13.0237 54.7062C-6.70559 57.3851 -0.535294 60.4863 5.44421 63.9836C8.10189 65.5392 10.779 67.2233 12.7362 69.742C17.7392 76.1854 16.6499 85.9648 14.3201 94.0985C12.177 101.59 9.2241 108.805 5.54711 115.539C1.90378 122.213 -2.50094 128.535 -4.64251 135.955C-6.78371 143.373 -6.07947 152.49 -0.711627 157.477C2.48207 160.443 6.87246 161.506 11.0502 161.17C15.228 160.835 19.2396 159.219 23.0722 157.334C27.4616 155.174 31.9568 152.577 36.7403 152.878C41.6926 153.191 46.3081 156.943 48.0455 162.063C50.5173 169.349 47.3334 177.327 45.0929 184.736C42.2434 194.148 40.9111 204.507 43.6531 213.918C46.3975 223.329 53.9649 231.431 62.9217 231.867" stroke="white" stroke-miterlimit="10"/>
<path d="M-14.8513 56.5418C-8.63336 59.1516 -2.56724 62.1878 3.30162 65.6207C5.91028 67.1487 8.53635 68.8015 10.4661 71.2535C15.4039 77.5169 14.4837 86.9708 12.3538 94.8774C11.8487 96.7544 11.2886 98.6146 10.6791 100.456C8.92157 105.755 6.73935 110.887 4.16376 115.773C0.72272 122.293 -3.46442 128.485 -5.49656 135.724C-7.53088 142.96 -6.67538 151.598 -1.72036 156.738C0.144817 158.672 2.23748 160.116 4.59186 160.949C6.19429 161.518 7.89318 161.845 9.61582 161.912C10.4035 161.942 11.1974 161.926 12.0004 161.859C15.2131 161.588 18.4687 160.472 21.5938 159.184C21.9037 159.057 22.2114 158.927 22.522 158.795C27.3246 156.768 32.2462 154.605 37.2405 155.199C42.2348 155.793 46.5628 159.278 48.2944 164.256C50.7604 171.338 47.8036 179.077 45.7828 186.249C45.6233 186.814 45.4711 187.382 45.3236 187.954C43.0981 196.591 42.3322 205.858 45.0112 214.268C47.8667 223.234 55.3565 230.884 64.1334 231.176" stroke="#F9F9F9" stroke-miterlimit="10"/>
<path d="M-16.6874 58.3759C-10.5723 60.914 -4.6111 63.888 1.14373 67.2591C3.70204 68.7594 6.27318 70.3806 8.1799 72.7637C13.0499 78.8504 12.3035 87.9803 10.3714 95.66C9.912 97.4843 9.40251 99.2925 8.84325 101.082C7.22766 106.236 5.19343 111.236 2.77386 116.009C-0.458931 122.377 -4.4247 128.439 -6.34779 135.494C-8.27308 142.545 -7.28223 150.76 -2.727 156.003C-0.889467 158.118 0.96047 159.9 3.21612 161.04C4.75417 161.818 6.42282 162.377 8.17632 162.648C8.97733 162.774 9.80139 162.844 10.6441 162.851C14.02 162.881 17.5784 161.822 20.9663 160.61C21.3033 160.49 21.6381 160.368 21.9729 160.245C27.1928 158.35 32.5258 156.607 37.7549 157.502C42.4168 158.3 46.8239 161.591 48.5542 166.427C51.0159 173.309 48.2897 180.81 46.4899 187.742C46.3476 188.287 46.2127 188.837 46.0825 189.39C44.1233 197.731 43.6063 206.607 46.3919 214.6C49.3613 223.122 56.7673 230.323 65.3572 230.469" stroke="#F4F4F4" stroke-miterlimit="10"/>
<path d="M-18.5325 60.211C-12.5209 62.6803 -6.67255 65.5887 -1.03187 68.8954C1.47509 70.3651 3.99172 71.9605 5.86944 74.2742C10.6693 80.1844 10.0962 88.9915 8.37001 96.4432C7.96003 98.2126 7.49925 99.9688 6.98803 101.709C5.51643 106.718 3.63468 111.59 1.37144 116.247C-1.64977 122.464 -5.393 128.397 -7.20568 135.271C-9.01799 142.142 -7.90958 149.977 -3.74399 155.278C-1.93106 157.585 -0.330273 159.688 1.82773 161.134C3.29745 162.121 4.93783 162.911 6.72267 163.383C7.53998 163.601 8.38891 163.759 9.27387 163.843C12.814 164.175 16.6754 163.172 20.3339 162.033C20.6956 161.921 21.0574 161.808 21.4195 161.692C27.0609 159.926 32.7919 158.594 38.2715 159.8C42.778 160.794 47.0838 163.902 48.807 168.596C51.2612 175.275 48.7685 182.542 47.195 189.237C47.0702 189.764 46.9527 190.294 46.8401 190.828C45.1478 198.878 44.8855 207.362 47.7801 214.943C50.8632 223.026 58.1825 229.775 66.5831 229.776" stroke="#EEEEEE" stroke-miterlimit="10"/>
<path d="M-20.3816 62.043C-14.4787 64.4405 -8.74343 67.2834 -3.22309 70.5308C-0.769118 71.9726 1.68983 73.5362 3.54284 75.7814C8.27289 81.516 7.87496 90.0017 6.3523 97.2256C5.99198 98.9431 5.58055 100.647 5.12098 102.336C3.79533 107.202 2.06602 111.943 -0.0359623 116.485C-2.84501 122.55 -6.35702 128.356 -8.05766 135.05C-9.75793 141.74 -8.55225 149.236 -4.76043 154.553C-2.96928 157.065 -1.62176 159.475 0.434997 161.221C1.83545 162.417 3.44744 163.432 5.26076 164.106C6.09151 164.418 6.96844 164.661 7.89598 164.821C11.6021 165.451 15.7713 164.506 19.697 163.444C20.0864 163.338 20.4757 163.232 20.865 163.127C26.9335 161.492 33.0551 160.552 38.7985 162.081C43.1457 163.237 47.3462 166.194 49.0644 170.747C51.5101 177.224 49.2545 184.255 47.9098 190.717C47.8052 191.225 47.703 191.737 47.6081 192.252C46.1886 200.012 46.1837 208.106 49.1823 215.276C52.3768 222.92 59.6083 229.222 67.8147 229.08" stroke="#E9E9E9" stroke-miterlimit="10"/>
<path d="M-22.2347 63.8842C-16.4436 66.2127 -10.824 68.99 -5.42337 72.1727C-3.02357 73.5866 -0.621319 75.1215 1.20101 77.2977C5.85663 82.8566 5.63831 91.0227 4.32386 98.0229C4.01156 99.6856 3.65272 101.339 3.24248 102.978C2.06464 107.701 0.492019 112.315 -1.44908 116.743C-4.04042 122.657 -7.32308 128.335 -8.90753 134.849C-10.4939 141.358 -9.21676 148.554 -5.77513 153.85C-4.00467 156.575 -2.91732 159.279 -0.960834 161.327C0.37246 162.727 1.94967 163.972 3.7972 164.844C4.64181 165.246 5.54658 165.576 6.51707 165.811C10.3905 166.738 14.8677 165.848 19.0682 164.862C19.4827 164.763 19.8994 164.667 20.3165 164.569C26.8132 163.065 33.3228 162.5 39.3382 164.362C43.5213 165.656 47.6192 168.485 49.3294 172.894C51.7659 179.17 49.7501 185.969 48.6375 192.194C48.5505 192.686 48.4692 193.176 48.3926 193.67C47.2469 201.138 47.5016 208.847 50.6068 215.608C53.9156 222.815 61.0531 228.675 69.0615 228.389" stroke="#E3E3E3" stroke-miterlimit="10"/>
<path d="M-24.0928 65.7153C-18.4156 67.9719 -12.9122 70.6868 -7.63679 73.8072C-5.29233 75.1931 -2.94759 76.6964 -1.15414 78.8041C3.42501 84.1878 3.38575 92.0326 2.28191 98.8102C2.02044 100.421 1.70954 102.023 1.35484 103.612C0.326569 108.192 -1.08963 112.676 -2.86548 116.993C-5.23624 122.757 -8.28374 128.308 -9.75314 134.644C-11.2244 140.973 -9.89771 147.897 -6.78884 153.147C-5.0439 156.094 -4.21461 159.076 -2.35959 161.422C-1.09724 163.027 0.450692 164.494 2.32699 165.566C3.18776 166.061 4.11833 166.474 5.13246 166.782C9.17437 168.002 13.9617 167.171 18.4367 166.257C18.8792 166.165 19.3239 166.076 19.7661 165.987C26.6945 164.611 33.5887 164.406 39.8865 166.617C43.9057 168.027 47.8958 170.749 49.5998 175.019C52.0284 181.097 50.2531 187.662 49.3749 193.654C49.306 194.127 49.2428 194.599 49.1844 195.074C48.3177 202.255 48.8322 209.577 52.0443 215.93C55.4675 222.701 62.5083 228.118 70.3143 227.689" stroke="#DEDEDE" stroke-miterlimit="10"/>
<path d="M-25.9542 67.5509C-20.3941 69.7385 -15.0116 72.3877 -9.86373 75.443C-7.57579 76.8009 -5.29241 78.2723 -3.52901 80.3144C0.971951 85.5209 1.11525 93.0519 0.222011 99.6048C0.0122817 101.162 -0.247501 102.712 -0.551689 104.253C-1.4287 108.691 -2.68396 113.047 -4.29512 117.253C-6.44519 122.868 -9.25443 128.292 -10.6047 134.45C-11.9592 140.599 -11.4484 147.874 -7.8137 152.453C-6.6686 155.896 -5.52374 158.881 -3.77397 161.523C-2.58299 163.329 -1.06549 165.023 0.842653 166.29C1.7174 166.874 2.67615 167.372 3.73385 167.755C7.9454 169.267 13.0476 168.494 17.7986 167.655C18.2689 167.573 18.7392 167.491 19.2095 167.409C26.5723 166.162 33.8538 166.297 40.4337 168.869C44.2913 170.378 48.1639 173.011 49.8613 177.138C52.279 183.016 50.7491 189.351 50.1077 195.111C50.0572 195.566 50.0123 196.019 49.9723 196.476C49.3851 203.368 50.1634 210.312 53.4825 216.257C57.0172 222.596 63.9605 227.576 71.56 227.004" stroke="#D8D8D8" stroke-miterlimit="10"/>
<path d="M-27.8218 69.3853C-22.3806 71.5012 -17.1218 74.0875 -12.1015 77.0807C-9.87115 78.4105 -7.64791 79.8531 -5.91452 81.8244C-1.49391 86.8567 -1.16881 94.0724 -1.8444 100.405C-2.00489 101.911 -2.21038 103.411 -2.4605 104.901C-3.18466 109.198 -4.28026 113.427 -5.72181 117.521C-7.646 122.988 -10.2141 128.286 -11.4493 134.266C-12.6833 140.238 -12.204 147.251 -8.8315 151.771C-7.80067 155.445 -6.83073 158.691 -5.18721 161.626C-4.06602 163.634 -2.58117 165.547 -0.643999 167.009C0.244441 167.684 1.23459 168.266 2.33354 168.722C6.71599 170.523 12.1329 169.805 17.1619 169.042C17.6579 168.966 18.1566 168.891 18.6576 168.819C26.4604 167.702 34.1291 168.156 40.996 171.105C44.6898 172.691 48.4456 175.254 50.133 179.242C52.5391 184.921 51.2575 191.025 50.8553 196.553C50.8232 196.99 50.7968 197.425 50.778 197.863C50.4754 204.472 51.5178 211.034 54.9461 216.577C58.5947 222.489 65.4356 227.027 72.8245 226.317" stroke="#D2D2D2" stroke-miterlimit="10"/>
<path d="M-29.6933 71.2206C-24.3734 73.265 -19.2406 75.7885 -14.3498 78.7167C-12.1754 80.0189 -10.0157 81.4295 -8.31638 83.3353C-3.97531 88.1945 -3.467 95.0965 -3.92784 101.207C-4.03558 102.659 -4.18891 104.108 -4.38747 105.551C-4.95728 109.707 -5.88848 113.809 -7.15896 117.793C-8.85479 123.112 -11.1817 128.285 -12.2951 134.089C-13.4102 139.884 -12.9606 146.639 -9.85361 151.1C-8.93538 155.003 -8.14494 158.509 -6.60563 161.732C-5.55716 163.937 -4.10604 166.073 -2.13402 167.727C-1.22879 168.491 -0.212705 169.156 0.930773 169.683C5.48524 171.772 11.2186 171.111 16.5303 170.42C17.0548 170.351 17.5821 170.283 18.1085 170.221C26.352 169.229 34.4183 169.982 41.5663 173.323C45.1007 174.975 48.7283 177.479 50.4078 181.328C52.8014 186.809 51.7702 192.685 51.6094 197.984C51.596 198.402 51.5882 198.819 51.5881 199.239C51.5703 205.562 52.881 211.747 56.4159 216.891C60.1759 222.375 66.9113 226.478 74.0889 225.626" stroke="#CDCDCD" stroke-miterlimit="10"/>
<path d="M-31.5687 73.0557C-26.37 75.0318 -21.3651 77.4896 -16.6118 80.355C-14.4969 81.6291 -12.4018 83.0078 -10.7316 84.8463C-6.47455 89.5328 -5.77906 96.1232 -6.02058 102.012C-6.07816 103.414 -6.17619 104.813 -6.31966 106.205C-6.73368 110.222 -7.50156 114.197 -8.59919 118.072C-10.0666 123.241 -12.1447 128.292 -13.1379 133.92C-14.1323 139.537 -13.7135 146.038 -10.8775 150.436C-10.0728 154.566 -9.46023 158.328 -8.02944 161.842C-7.05469 164.245 -5.6342 166.596 -3.63285 168.443C-2.71379 169.296 -1.6686 170.043 -0.480673 170.642C4.24688 173.016 10.3012 172.413 15.8915 171.795C16.4448 171.734 16.9977 171.675 17.5529 171.62C26.2391 170.756 34.7137 171.784 42.1388 175.535C45.5137 177.239 49.012 179.697 50.6834 183.406C53.066 188.692 52.288 194.339 52.3679 199.41C52.3733 199.81 52.3871 200.208 52.4031 200.61C52.6748 206.653 54.2561 212.461 57.895 217.205C61.769 222.263 68.3956 225.936 75.3556 224.944" stroke="#C7C7C7" stroke-miterlimit="10"/>
<path d="M-33.4441 74.8943C-28.3711 76.7991 -23.4966 79.1942 -18.8773 81.9946C-16.8229 83.2407 -14.791 84.5905 -13.156 86.3613C-8.98458 90.8757 -8.10298 97.1532 -8.12411 102.828C-8.12805 104.177 -8.173 105.526 -8.26432 106.873C-8.51852 110.751 -9.12464 114.602 -10.0474 118.366C-11.2819 123.388 -13.1135 128.315 -13.9827 133.769C-14.8559 139.21 -14.4703 145.453 -11.9032 149.792C-11.2155 154.146 -10.7826 158.163 -9.45776 161.961C-8.5546 164.56 -7.16803 167.127 -5.13417 169.163C-4.19814 170.102 -3.1267 170.932 -1.89405 171.603C3.00763 174.26 9.38236 173.711 15.2582 173.167C15.8377 173.113 16.4221 173.061 17.0059 173.015C26.1374 172.278 35.0338 173.56 42.724 177.737C45.9438 179.486 49.3018 181.904 50.9641 185.475C53.3328 190.565 52.8101 195.985 53.1354 200.829C53.1624 201.211 53.1925 201.591 53.2307 201.972C53.7917 207.733 55.645 213.169 59.3901 217.518C63.3778 222.155 69.8933 225.397 76.6319 224.269" stroke="#C2C2C2" stroke-miterlimit="10"/>
<path d="M-35.3206 76.7335C-30.3758 78.5699 -25.6333 80.8996 -21.1504 83.6379C-19.1575 84.8559 -17.1921 86.1739 -15.5875 87.878C-11.5035 92.221 -10.4323 98.1907 -10.2333 103.647C-10.1836 104.946 -10.1777 106.244 -10.2103 107.543C-10.3061 111.283 -10.7433 115.007 -11.4926 118.663C-12.4921 123.54 -14.0723 128.344 -14.8191 133.623C-15.5694 138.888 -15.2158 144.879 -12.9231 149.158C-12.3506 153.735 -12.1013 158.005 -10.8835 162.086C-10.0548 164.877 -8.69971 167.658 -6.63352 169.883C-5.68351 170.91 -4.58262 171.819 -3.30463 172.56C1.77217 175.496 8.4713 175.004 14.6291 174.531C15.2376 174.483 15.848 174.441 16.4608 174.402C26.0429 173.789 35.3744 175.301 43.3202 179.921C46.3868 181.706 49.6015 184.093 51.2516 187.527C53.6055 192.421 53.34 197.618 53.9124 202.236C53.9585 202.601 54.0078 202.963 54.0651 203.326C54.92 208.809 57.0444 213.873 60.8955 217.83C64.9941 222.047 71.3981 224.865 77.9099 223.595" stroke="#BCBCBC" stroke-miterlimit="10"/>
<path d="M-37.1973 78.5621C-32.3824 80.3277 -27.7745 82.5948 -23.4323 85.268C-21.5018 86.4581 -19.6015 87.7472 -18.0334 89.3843C-14.0381 93.5541 -12.7794 99.2202 -12.3533 104.459C-12.2518 105.706 -12.1894 106.955 -12.1687 108.207C-12.1048 111.809 -12.3748 115.411 -12.9461 118.958C-13.7112 123.69 -15.0377 128.371 -15.6611 133.477C-16.2854 138.569 -15.1997 144.028 -13.9535 148.523C-12.7073 153.017 -13.4293 157.837 -12.3247 162.198C-11.5712 165.182 -10.2505 168.174 -8.15153 170.585C-7.18709 171.696 -6.05428 172.688 -4.73379 173.498C0.518996 176.713 7.5413 176.277 13.9847 175.877C14.6219 175.838 15.2619 175.8 15.9007 175.77C25.9325 175.282 35.7212 176.999 43.9064 182.083C46.8246 183.896 49.885 186.259 51.5254 189.554C53.8638 194.254 53.8573 199.228 54.6789 203.62C54.7443 203.966 54.8128 204.311 54.8894 204.656C56.0374 209.863 58.4372 214.557 62.3938 218.126C66.6052 221.929 72.8931 224.32 79.1769 222.915" stroke="#B7B7B7" stroke-miterlimit="10"/>
<path d="M-39.0785 80.3994C-34.3957 82.0971 -29.9235 84.2964 -25.7219 86.9103C-23.8546 88.0724 -22.0199 89.3301 -20.4861 90.9008C-16.5787 94.9013 -15.1312 100.263 -14.4822 105.289C-14.326 106.483 -14.2097 107.686 -14.1321 108.889C-13.9075 112.355 -14.0059 115.833 -14.4009 119.272C-14.9271 123.86 -15.9977 128.419 -16.4968 133.353C-16.9964 138.27 -16.0076 143.543 -14.977 147.913C-13.8205 152.814 -14.7552 157.692 -13.7586 162.328C-13.0778 165.5 -11.7916 168.702 -9.65994 171.298C-8.67865 172.497 -7.51877 173.566 -6.15283 174.447C-0.723443 177.938 6.62429 177.553 13.3573 177.226C14.0211 177.194 14.69 177.165 15.3608 177.142C25.8443 176.779 36.1126 178.674 44.516 184.241C47.29 186.079 50.1912 188.42 51.821 191.581C54.1455 196.089 54.3979 200.838 55.4697 205.009C55.5544 205.338 55.645 205.665 55.7383 205.992C57.1844 210.923 59.8575 215.255 63.9229 218.433C68.2472 221.822 74.4162 223.792 80.4688 222.254" stroke="#B1B1B1" stroke-miterlimit="10"/>
<path d="M-40.9506 82.2341C-36.4015 83.8615 -32.065 85.9989 -28.008 88.548C-26.2048 89.6822 -24.4393 90.9082 -22.9408 92.4156C-19.1257 96.2474 -17.4858 101.307 -16.6095 106.119C-16.3985 107.265 -16.2272 108.416 -16.0955 109.572C-15.7091 112.902 -15.6375 116.257 -15.8522 119.59C-16.1377 124.036 -16.9531 128.473 -17.3243 133.236C-17.6987 137.982 -16.8205 143.06 -15.9949 147.315C-14.9959 152.464 -16.0768 157.552 -15.1895 162.465C-14.5849 165.825 -13.3308 169.235 -11.1686 172.013C-10.1728 173.294 -8.98338 174.443 -7.5718 175.394C-1.96473 179.158 5.71157 178.829 12.7301 178.57C13.4233 178.545 14.1188 178.522 14.8187 178.509C25.756 178.266 36.5309 180.318 45.1308 186.385C47.7624 188.243 50.4992 190.566 52.1153 193.592C54.4228 197.908 54.9377 202.438 56.2614 206.389C56.3656 206.7 56.4757 207.009 56.5913 207.319C58.334 211.978 61.2849 215.946 65.4553 218.74C69.8893 221.719 75.939 223.274 81.7581 221.598" stroke="#ABABAB" stroke-miterlimit="10"/>
<path d="M-42.8235 84.0687C-38.41 85.6261 -34.2137 87.7015 -30.3035 90.1887C-28.5651 91.295 -26.8673 92.4925 -25.4041 93.9315C-21.6827 97.5957 -19.8524 102.356 -18.7476 106.954C-18.4839 108.049 -18.2553 109.154 -18.0661 110.262C-17.5169 113.458 -17.2718 116.692 -17.3069 119.915C-17.3528 124.218 -17.9053 128.533 -18.1508 133.128C-18.3993 137.704 -17.6435 142.585 -17.0165 146.726C-16.1981 152.12 -17.4011 157.419 -16.6257 162.601C-16.0976 166.148 -14.8752 169.761 -12.6802 172.721C-11.6701 174.087 -10.4507 175.313 -8.99291 176.33C-3.20742 180.364 4.79588 180.09 12.1061 179.903C12.8287 179.884 13.5534 179.871 14.2801 179.863C25.675 179.744 36.985 181.922 45.7502 188.511C48.2467 190.388 50.8061 192.695 52.4109 195.584C54.7006 199.709 55.4797 204.021 57.0571 207.751C57.1809 208.044 57.3106 208.336 57.4457 208.628C59.4898 213.015 62.7165 216.625 66.9913 219.038C71.5373 221.61 77.4629 222.75 83.0448 220.943" stroke="#A6A6A6" stroke-miterlimit="10"/>
<path d="M-44.6819 85.9045C-40.4035 87.3954 -36.3516 89.4061 -32.5869 91.8293C-30.9139 92.9054 -29.2847 94.0744 -27.8607 95.4506C-24.2347 98.9482 -22.2103 103.409 -20.8793 107.801C-20.5603 108.847 -20.2788 109.901 -20.0322 110.964C-19.3194 114.026 -18.9022 117.139 -18.7518 120.258C-18.5538 124.42 -18.8475 128.615 -18.9636 133.042C-19.085 137.447 -18.4607 142.128 -18.0236 146.163C-17.4169 151.793 -18.7151 157.307 -18.0498 162.758C-17.5982 166.487 -16.4113 170.306 -14.183 173.444C-13.1554 174.892 -11.909 176.196 -10.4053 177.281C-4.44088 181.582 3.89294 181.363 11.4903 181.244C12.2398 181.231 12.994 181.225 13.7499 181.226C25.6014 181.226 37.4816 183.51 46.384 190.64C48.7469 192.532 51.1268 194.824 52.7167 197.581C54.9903 201.52 56.0328 205.611 57.8643 209.125C58.0078 209.401 58.1572 209.676 58.3124 209.948C60.656 214.067 64.1652 217.319 68.5411 219.355C73.1983 221.523 78.9969 222.254 84.3391 220.314" stroke="#A0A0A0" stroke-miterlimit="10"/>
<path d="M-46.5431 87.7398C-42.404 89.1616 -38.496 91.1109 -34.8816 93.4727C-33.2751 94.5212 -31.7179 95.6616 -30.3276 96.9708C-26.7984 100.303 -24.5825 104.468 -23.0181 108.652C-22.6459 109.647 -22.3066 110.657 -22.0019 111.672C-21.1248 114.602 -20.5317 117.594 -20.2003 120.609C-19.757 124.632 -19.7874 128.708 -19.7789 132.967C-19.7703 137.205 -19.288 141.673 -19.0359 145.617C-18.664 151.477 -20.0352 157.204 -19.4831 162.921C-19.1059 166.834 -17.9543 170.855 -15.6925 174.17C-14.6506 175.7 -13.3741 177.079 -11.8242 178.232C-5.68315 182.797 2.98235 182.63 10.8727 182.581C11.6518 182.575 12.4353 182.578 13.2212 182.584C25.5298 182.704 38.0199 185.063 47.0197 192.752C49.2558 194.663 51.4442 196.935 53.0237 199.564C55.278 203.314 56.5901 207.191 58.6744 210.49C58.8404 210.749 59.0095 211.006 59.1846 211.262C61.8321 215.113 65.6186 218.012 70.0981 219.671C74.8628 221.442 80.5354 221.762 85.6351 219.69" stroke="#9B9B9B" stroke-miterlimit="10"/>
<path d="M-48.385 89.5781C-44.3873 90.9338 -40.6218 92.8199 -37.1592 95.1183C-35.62 96.1395 -34.1326 97.2491 -32.7828 98.4965C-29.3489 101.663 -26.9416 105.538 -25.1485 109.514C-24.7206 110.462 -24.3253 111.421 -23.9654 112.392C-22.9232 115.19 -22.1566 118.065 -21.6402 120.975C-20.9531 124.86 -20.7189 128.818 -20.5798 132.912C-20.4429 136.982 -20.1055 141.23 -20.038 145.092C-19.9316 151.168 -21.3439 157.122 -20.9053 163.101C-20.6052 167.193 -19.4862 171.414 -17.1942 174.905C-16.1377 176.516 -14.8285 177.972 -13.2349 179.189C-6.91429 184.017 2.08003 183.903 10.2609 183.924C11.0692 183.927 11.88 183.933 12.6952 183.948C25.4614 184.187 38.5994 186.599 47.6617 194.868C49.7755 196.796 51.7673 199.052 53.331 201.548C55.5651 205.111 57.1452 208.777 59.4862 211.859C59.672 212.101 59.8606 212.344 60.0558 212.58C63.005 216.168 67.0725 218.715 71.6544 220.004C76.5288 221.377 82.0669 221.293 86.9238 219.092" stroke="#959595" stroke-miterlimit="10"/>
<path d="M-50.212 91.4123C-46.3572 92.6999 -42.7391 94.5256 -39.4276 96.7639C-37.9564 97.7581 -36.5423 98.8369 -35.2278 100.021C-31.8939 103.025 -29.2918 106.611 -27.267 110.384C-26.7828 111.282 -26.3321 112.197 -25.9136 113.122C-24.7059 115.79 -23.7648 118.546 -23.0629 121.355C-22.1283 125.103 -21.6281 128.945 -21.3606 132.875C-21.0954 136.781 -20.9083 140.8 -21.0195 144.59C-21.2045 150.875 -22.6354 157.057 -22.3086 163.301C-22.0863 167.573 -21.0002 171.992 -18.6749 175.657C-17.601 177.347 -16.2648 178.88 -14.6251 180.163C-8.12483 185.251 1.20121 185.192 9.67296 185.278C10.5082 185.288 11.3483 185.303 12.1931 185.324C25.4202 185.679 39.2466 188.126 48.3251 196.989C50.3232 198.941 52.1063 201.174 53.6561 203.54C55.8692 206.919 57.7184 210.372 60.316 213.246C60.5217 213.471 60.7302 213.697 60.9454 213.916C64.2001 217.241 68.5456 219.441 73.2318 220.363C78.215 221.343 83.6186 220.86 88.2276 218.529" stroke="#909090" stroke-miterlimit="10"/>
<path d="M-52.0218 93.2457C-41.4796 96.7171 -32.8846 104.56 -27.8605 113.858C-22.8365 123.155 -21.2036 133.797 -22.0005 144.107C-22.5018 150.587 -23.9276 157.011 -23.7123 163.513C-23.4971 170.015 -21.3567 176.871 -16.0194 181.145C-9.33974 186.492 0.315404 186.482 9.07749 186.637C23.487 186.892 39.3564 189.033 48.9829 199.11C53.779 204.129 56.5331 210.691 61.8294 215.257C69.1699 221.585 81.0616 222.756 89.5143 217.984" stroke="#8A8A8A" stroke-miterlimit="10"/>
</g>
<g style="mix-blend-mode:multiply">
<path d="M122.34 156.806C118.407 151.457 114.707 145.763 111.262 139.765C109.731 137.098 108.222 134.3 107.491 130.994C105.618 122.549 109.238 113.494 113.309 106.575C117.057 100.202 121.325 94.451 125.995 89.4831C130.624 84.5585 135.718 80.3059 139.442 74.0066C143.167 67.7043 145.26 58.5194 142.7 51.3362C141.177 47.0614 138.213 44.1244 135.01 42.6429C131.804 41.161 128.355 40.9963 124.961 41.1735C121.075 41.3767 116.984 41.9621 113.512 39.5956C109.917 37.1474 107.559 31.4922 107.737 25.7497C107.992 17.5806 112.651 11.1842 116.449 4.9369C121.273 -2.99997 125.241 -12.5153 125.902 -22.8758C126.565 -33.233 123.26 -44.4062 116.72 -48.7116" stroke="white" stroke-miterlimit="10"/>
<path d="M124.136 155.852C120.245 150.602 116.6 144.985 113.227 139.065C111.728 136.432 110.254 133.669 109.528 130.423C108.073 123.904 109.883 117.016 112.619 111.04C113.363 109.412 114.177 107.85 115.012 106.381C118.602 100.066 122.717 94.3457 127.236 89.3729C131.715 84.4467 136.681 80.1956 140.306 73.9495C142.338 70.4483 143.928 66.1546 144.594 61.7689C145.174 57.9476 145.036 54.0289 143.837 50.5587C143.623 49.938 143.379 49.3448 143.109 48.7799C141.438 45.2889 138.762 42.8749 135.906 41.5198C134.988 41.0851 134.052 40.7488 133.104 40.488C130.63 39.8103 128.073 39.638 125.56 39.608C121.573 39.5556 117.47 39.698 114.011 37.1181C110.551 34.5382 108.263 29.1267 108.417 23.5205C108.638 15.5441 113.079 9.25737 116.663 3.12641C116.944 2.64433 117.224 2.15307 117.499 1.66072C121.658 -5.81471 124.913 -14.5352 125.359 -23.8973C125.834 -33.8816 122.485 -44.571 116.044 -48.6298" stroke="#F9F9F9" stroke-miterlimit="10"/>
<path d="M125.729 154.892C121.848 149.739 118.231 144.208 114.901 138.361C113.42 135.763 111.971 133.034 111.246 129.851C109.79 123.456 111.503 116.703 114.126 110.817C114.839 109.212 115.622 107.67 116.425 106.214C119.884 99.9656 123.874 94.2818 128.275 89.3149C132.637 84.3949 137.508 80.1464 141.064 73.9712C143.156 70.3377 144.827 65.9436 145.565 61.4361C146.205 57.52 146.112 53.472 144.898 49.8862C144.681 49.2452 144.432 48.6283 144.152 48.039C142.434 44.4121 139.637 41.9352 136.655 40.4971C135.698 40.0362 134.722 39.6734 133.738 39.3839C131.168 38.6271 128.514 38.327 125.922 38.1393C121.802 37.8258 117.655 37.5346 114.174 34.7314C110.869 32.0696 108.586 26.8571 108.716 21.3921C108.902 13.6152 113.156 7.44672 116.549 1.43991C116.816 0.967684 117.08 0.485951 117.34 0.00346521C121.269 -7.31144 124.272 -15.7654 124.542 -24.7719C124.831 -34.372 121.406 -44.575 115.012 -48.3894" stroke="#F4F4F4" stroke-miterlimit="10"/>
<path d="M127.346 153.932C123.478 148.876 119.888 143.428 116.601 137.661C115.142 135.097 113.715 132.408 112.992 129.284C111.539 123.012 113.15 116.396 115.659 110.598C116.342 109.014 117.09 107.491 117.862 106.05C121.184 99.867 125.045 94.2195 129.327 89.2591C133.569 84.3455 138.341 80.0935 141.826 73.993C143.978 70.2248 145.733 65.7347 146.546 61.1097C147.247 57.0998 147.199 52.9202 145.969 49.2194C145.749 48.5554 145.495 47.918 145.207 47.3075C143.438 43.5483 140.518 41.0091 137.406 39.4881C136.411 39.0013 135.394 38.6121 134.372 38.2905C131.702 37.4545 128.951 37.0304 126.276 36.685C122.016 36.1135 117.833 35.3974 114.325 32.3623C111.154 29.6182 108.903 24.6068 109.008 19.2802C109.159 11.7032 113.222 5.65288 116.418 -0.229925C116.671 -0.692308 116.92 -1.1613 117.163 -1.63723C120.855 -8.79509 123.597 -16.983 123.686 -25.6284C123.783 -34.8446 120.281 -44.5585 113.936 -48.1283" stroke="#EEEEEE" stroke-miterlimit="10"/>
<path d="M129.001 152.974C125.148 148.019 121.589 142.651 118.35 136.962C116.911 134.433 115.513 131.782 114.789 128.72C113.34 122.573 114.845 116.091 117.234 110.381C117.885 108.82 118.599 107.314 119.337 105.889C122.518 99.7722 126.244 94.1604 130.396 89.2056C134.51 84.3007 139.172 80.0411 142.587 74.0184C144.799 70.1159 146.637 65.53 147.527 60.7884C148.293 56.6857 148.29 52.3782 147.043 48.5627C146.82 47.8786 146.56 47.2178 146.264 46.5864C144.445 42.6925 141.399 40.0909 138.157 38.4903C137.12 37.9802 136.065 37.5621 135.004 37.2116C132.236 36.294 129.386 35.7489 126.627 35.2435C122.229 34.4149 118.013 33.285 114.479 30.0127C111.443 27.1986 109.23 22.3736 109.311 17.1914C109.426 9.81392 113.286 3.88024 116.281 -1.8792C116.516 -2.33218 116.749 -2.79139 116.976 -3.25462C120.423 -10.2534 122.896 -18.1796 122.8 -26.4682C122.7 -35.3018 119.122 -44.5306 112.833 -47.8557" stroke="#E9E9E9" stroke-miterlimit="10"/>
<path d="M130.7 152.019C126.865 147.162 123.342 141.878 120.156 136.266C118.741 133.775 117.371 131.16 116.651 128.158C115.206 122.134 116.601 115.788 118.866 110.165C119.482 108.626 120.161 107.14 120.867 105.729C123.897 99.677 127.483 94.1035 131.499 89.1537C135.477 84.2537 140.023 79.9859 143.362 74.0433C145.63 70.0068 147.557 65.3263 148.523 60.4684C149.351 56.2729 149.397 51.8386 148.136 47.9065C147.911 47.1996 147.646 46.5184 147.342 45.8632C145.474 41.8356 142.302 39.1747 138.929 37.4889C137.854 36.9532 136.755 36.5085 135.658 36.1265C132.791 35.1307 129.839 34.4676 127 33.7973C122.461 32.7242 118.218 31.1793 114.66 27.6592C111.765 24.7907 109.594 20.1408 109.647 15.0989C109.725 7.92038 113.376 2.10267 116.159 -3.53478C116.378 -3.97808 116.593 -4.42793 116.805 -4.88146C119.997 -11.7223 122.19 -19.3887 121.904 -27.3188C121.603 -35.7742 117.948 -44.5136 111.724 -47.5964" stroke="#E3E3E3" stroke-miterlimit="10"/>
<path d="M132.433 151.068C128.619 146.31 125.135 141.11 122.007 135.58C120.617 133.125 119.275 130.547 118.558 127.605C117.12 121.706 118.401 115.493 120.534 109.956C121.115 108.437 121.757 106.97 122.427 105.573C125.304 99.5851 128.741 94.0462 132.614 89.1006C136.452 84.2053 140.868 79.9247 144.133 74.0629C146.459 69.89 148.473 65.1154 149.516 60.1449C150.411 55.8575 150.505 51.2966 149.228 47.2482C148.998 46.5182 148.729 45.817 148.417 45.1411C146.499 40.983 143.203 38.2577 139.698 36.4929C138.582 35.9313 137.444 35.4608 136.308 35.0501C133.34 33.9759 130.291 33.1901 127.367 32.3606C122.686 31.0319 118.418 29.0978 114.838 25.3191C112.083 22.4109 109.962 17.9216 109.991 13.0176C110.031 6.03762 113.464 0.334951 116.027 -5.18179C116.229 -5.61548 116.426 -6.05611 116.62 -6.49712C119.548 -13.1845 121.457 -20.5888 120.977 -28.1647C120.468 -36.2406 116.742 -44.4967 110.587 -47.3347" stroke="#DEDEDE" stroke-miterlimit="10"/>
<path d="M134.205 150.12C130.416 145.463 126.976 140.344 123.907 134.893C122.544 132.471 121.234 129.934 120.519 127.052C119.089 121.275 120.254 115.194 122.253 109.746C122.797 108.249 123.403 106.802 124.033 105.418C126.748 99.4936 130.032 93.9887 133.759 89.0474C137.45 84.1564 141.731 79.8598 144.919 74.084C147.299 69.7719 149.404 64.91 150.525 59.8245C151.485 55.4455 151.627 50.7558 150.339 46.5981C150.106 45.8484 149.832 45.1242 149.512 44.4277C147.547 40.1371 144.12 37.3528 140.486 35.5068C139.328 34.9193 138.151 34.4232 136.976 33.9809C133.91 32.8261 130.758 31.9203 127.754 30.933C122.934 29.35 118.64 27.0367 115.04 22.992C112.427 20.056 110.365 15.7136 110.366 10.9525C110.367 4.17339 113.577 -1.41807 115.914 -6.81465C116.097 -7.23916 116.279 -7.66987 116.454 -8.1017C119.111 -14.6335 120.724 -21.7807 120.046 -29.0008C119.327 -36.6984 115.529 -44.4728 109.449 -47.0631" stroke="#D8D8D8" stroke-miterlimit="10"/>
<path d="M136.013 149.168C132.252 144.61 128.856 139.576 125.85 134.206C124.516 131.821 123.238 129.322 122.528 126.502C121.107 120.848 122.161 114.905 124.013 109.541C124.521 108.067 125.085 106.636 125.677 105.265C128.228 99.4041 131.352 93.9327 134.925 88.9951C138.466 84.1081 142.602 79.7914 145.712 74.102C148.146 69.6543 150.34 64.7022 151.542 59.5028C152.57 55.0331 152.762 50.2183 151.458 45.9454C151.223 45.1732 150.942 44.4285 150.617 43.709C148.601 39.2891 145.048 36.441 141.282 34.5137C140.084 33.9009 138.866 33.3789 137.652 32.908C134.484 31.6755 131.235 30.648 128.147 29.5061C123.189 27.6698 118.869 24.9905 115.251 20.6691C112.78 17.7172 110.781 13.5129 110.754 8.8915C110.716 2.3099 113.694 -3.16834 115.8 -8.44558C115.966 -8.86061 116.127 -9.27927 116.285 -9.70162C118.663 -16.0788 119.975 -22.967 119.096 -29.8383C118.164 -37.1589 114.294 -44.4499 108.296 -46.7986" stroke="#D2D2D2" stroke-miterlimit="10"/>
<path d="M137.85 148.217C134.12 143.758 130.774 138.811 127.834 133.518C126.528 131.17 125.285 128.708 124.58 125.948C123.169 120.419 124.1 114.607 125.81 109.328C126.278 107.876 126.803 106.464 127.355 105.106C129.734 99.3076 132.696 93.8725 136.11 88.9353C139.491 84.0514 143.476 79.7142 146.507 74.114C148.993 69.5249 151.28 64.4898 152.563 59.1739C153.657 54.6136 153.901 49.6746 152.586 45.2876C152.348 44.4958 152.062 43.7255 151.729 42.9883C149.663 38.4369 145.982 35.5307 142.085 33.523C140.846 32.8874 139.585 32.3367 138.336 31.8349C135.068 30.5254 131.717 29.3759 128.549 28.0774C123.451 25.9888 119.103 22.956 115.476 18.3487C113.146 15.3924 111.221 11.3127 111.165 6.83064C111.088 0.44597 113.826 -4.92319 115.696 -10.0787C115.844 -10.4843 115.985 -10.8939 116.125 -11.3069C118.218 -17.5333 119.219 -24.1643 118.136 -30.6825C116.986 -37.6304 113.047 -44.4394 107.136 -46.5437" stroke="#CDCDCD" stroke-miterlimit="10"/>
<path d="M139.712 147.267C136.015 142.909 132.72 138.045 129.852 132.831C128.578 130.517 127.37 128.096 126.672 125.396C125.27 119.988 126.078 114.311 127.639 109.115C128.069 107.686 128.55 106.289 129.062 104.944C131.267 99.2082 134.059 93.8059 137.309 88.8716C140.528 83.9937 144.354 79.6293 147.305 74.1182C149.839 69.391 152.223 64.2708 153.586 58.842C154.749 54.1921 155.042 49.129 153.714 44.6312C153.475 43.8172 153.184 43.027 152.842 42.2695C150.729 37.5877 146.919 34.6208 142.886 32.535C141.607 31.8743 140.305 31.2979 139.017 30.7649C135.647 29.3755 132.198 28.1053 128.948 26.6533C123.711 24.3106 119.329 20.9394 115.7 16.037C113.512 13.0818 111.665 9.1242 111.583 4.78142C111.464 -1.40683 113.96 -6.66441 115.585 -11.6993C115.712 -12.0959 115.838 -12.4958 115.956 -12.8969C117.755 -18.9711 118.444 -25.3483 117.153 -31.5174C115.781 -38.0916 111.775 -44.4195 105.956 -46.2797" stroke="#C7C7C7" stroke-miterlimit="10"/>
<path d="M141.612 146.321C137.952 142.063 134.712 137.284 131.914 132.152C130.673 129.875 129.503 127.492 128.807 124.854C127.417 119.571 128.097 114.023 129.508 108.911C129.898 107.501 130.336 106.123 130.808 104.794C132.833 99.1203 135.451 93.7504 138.532 88.8216C141.584 83.9467 145.24 79.5569 148.113 74.1382C150.694 69.2703 153.174 64.0656 154.621 58.5277C155.852 53.7884 156.199 48.5997 154.857 43.9915C154.616 43.1554 154.319 42.3455 153.968 41.5645C151.805 36.7554 147.867 33.7286 143.7 31.5597C142.38 30.8735 141.038 30.2719 139.711 29.7109C136.241 28.2451 132.69 26.8539 129.359 25.2467C123.983 22.6538 119.561 18.9504 115.94 13.7496C113.89 10.8039 112.132 6.96085 112.019 2.75623C111.859 -3.23612 114.105 -8.38286 115.482 -13.3008C115.59 -13.6881 115.695 -14.0791 115.794 -14.4708C117.295 -20.3933 117.661 -26.5187 116.159 -32.3373C114.563 -38.5387 110.49 -44.3902 104.767 -46.0066" stroke="#C2C2C2" stroke-miterlimit="10"/>
<path d="M143.534 145.38C139.912 141.223 136.732 136.526 134.008 131.474C132.799 129.234 131.668 126.89 130.979 124.31C129.601 119.149 130.151 113.731 131.409 108.705C131.757 107.317 132.152 105.957 132.581 104.638C134.424 99.026 136.863 93.688 139.771 88.7616C142.651 83.8893 146.136 79.4714 148.925 74.1471C151.549 69.1356 154.131 63.8535 155.659 58.2039C156.961 53.376 157.36 48.065 156.007 43.3473C155.763 42.4921 155.462 41.6596 155.102 40.8585C152.89 35.9199 148.823 32.8331 144.524 30.5876C143.164 29.8765 141.778 29.2491 140.413 28.6575C136.844 27.1158 133.196 25.5962 129.779 23.8423C124.268 20.9862 119.794 16.9791 116.193 11.4656C114.282 8.53791 112.617 4.79789 112.476 0.731762C112.275 -5.06532 114.266 -10.102 115.389 -14.9037C115.478 -15.2818 115.561 -15.664 115.641 -16.0436C116.837 -21.8154 116.878 -27.6899 115.162 -33.1622C113.339 -38.9923 109.2 -44.366 103.58 -45.7419" stroke="#BCBCBC" stroke-miterlimit="10"/>
<path d="M145.475 144.429C141.895 140.371 138.772 135.759 136.128 130.79C134.955 128.584 133.862 126.281 133.181 123.761C131.818 118.724 132.234 113.435 133.335 108.492C133.64 107.125 133.992 105.782 134.376 104.478C136.032 98.927 138.288 93.6206 141.019 88.6964C143.724 83.8264 147.027 79.3795 149.735 74.1471C152.442 68.9147 155.085 63.6338 156.696 57.8734C158.067 52.9571 158.521 47.5248 157.155 42.6951C156.909 41.8179 156.603 40.9659 156.236 40.1449C153.976 35.0778 149.778 31.9341 145.345 29.6092C143.943 28.8759 142.517 28.2206 141.113 27.6012C137.441 25.9834 133.693 24.3443 130.196 22.4392C124.546 19.3323 120.012 15.0216 116.445 9.18708C114.668 6.27959 113.106 2.64371 112.938 -1.28431C112.694 -6.88667 114.425 -11.8141 115.289 -16.5003C115.357 -16.8696 115.422 -17.2421 115.48 -17.613C116.365 -23.2381 116.074 -28.86 114.142 -33.9874C112.089 -39.4506 107.886 -44.3479 102.37 -45.4781" stroke="#B7B7B7" stroke-miterlimit="10"/>
<path d="M147.447 143.482C143.91 139.524 140.851 134.998 138.287 130.108C137.148 127.94 136.097 125.674 135.422 123.216C134.074 118.3 134.354 113.142 135.296 108.285C135.558 106.937 135.864 105.615 136.204 104.324C137.667 98.8332 139.739 93.5614 142.288 88.6362C144.811 83.768 147.93 79.289 150.555 74.1542C153.18 69.0194 156.048 63.4219 157.745 57.5516C159.183 52.5503 159.692 46.9943 158.318 42.0538C158.068 41.1573 157.759 40.2834 157.384 39.4396C155.075 34.2473 150.747 31.0414 146.181 28.6377C144.739 27.8797 143.271 27.1993 141.829 26.5492C138.057 24.8533 134.208 23.0952 130.628 21.0393C124.839 17.6855 120.231 13.0789 116.715 6.91585C115.07 4.03376 113.621 0.497379 113.423 -3.29623C113.137 -8.7045 114.6 -13.5237 115.204 -18.0947C115.252 -18.4549 115.294 -18.8158 115.333 -19.1775C115.902 -24.6537 115.274 -30.0243 113.123 -34.8081C110.839 -39.9029 106.571 -44.3284 101.167 -45.2161" stroke="#B1B1B1" stroke-miterlimit="10"/>
<path d="M149.508 142.489C146.016 138.633 143.014 134.19 140.529 129.381C139.427 127.25 138.416 125.024 137.747 122.625C136.413 117.834 136.553 112.802 137.336 108.031C137.553 106.706 137.815 105.399 138.109 104.121C139.38 98.6926 141.261 93.4531 143.629 88.5315C145.971 83.6669 148.901 79.1597 151.444 74.118C154.188 68.6804 157.087 63.1718 158.869 57.1937C160.381 52.1071 160.944 46.4295 159.555 41.3853C159.303 40.4673 158.989 39.5744 158.605 38.711C156.247 33.3929 151.783 30.1313 147.074 27.6487C145.589 26.8659 144.079 26.1608 142.596 25.4832C138.717 23.7121 134.764 21.8356 131.101 19.6275C125.166 16.0283 120.466 11.1376 117.011 4.63934C115.491 1.78239 114.161 -1.65579 113.932 -5.3087C113.602 -10.5221 114.797 -15.2319 115.133 -19.6876C115.161 -20.0386 115.181 -20.3907 115.199 -20.7433C115.448 -26.0698 114.475 -31.1923 112.101 -35.6329C109.577 -40.3602 105.244 -44.3114 99.9486 -44.9604" stroke="#ABABAB" stroke-miterlimit="10"/>
<path d="M151.714 141.42C148.26 137.665 145.319 133.313 142.911 128.587C141.844 126.492 140.872 124.308 140.211 121.97C138.89 117.303 138.889 112.405 139.51 107.719C139.682 106.416 139.896 105.129 140.145 103.864C141.218 98.4996 142.911 93.2955 145.095 88.3825C147.254 83.5266 149.992 78.9876 152.457 74.0472C155.239 68.4694 158.257 62.8946 160.128 56.8097C161.713 51.6406 162.334 45.8485 160.932 40.698C160.676 39.7592 160.357 38.8477 159.964 37.9652C157.549 32.5268 152.945 29.2055 148.088 26.6483C146.556 25.841 145 25.1111 143.476 24.4037C139.487 22.5586 135.422 20.5648 131.667 18.2054C125.579 14.3635 120.757 9.19997 117.381 2.3633C115.985 -0.461811 114.779 -3.80254 114.518 -7.31652C114.143 -12.3305 115.065 -16.9324 115.13 -21.2714C115.134 -21.6135 115.134 -21.9564 115.131 -22.2968C115.054 -27.475 113.73 -32.3454 111.126 -36.44C108.357 -40.7994 103.951 -44.2805 98.7609 -44.689" stroke="#A6A6A6" stroke-miterlimit="10"/>
<path d="M153.925 140.342C150.513 136.688 147.632 132.423 145.308 127.781C144.276 125.724 143.346 123.58 142.691 121.302C141.384 116.759 141.238 111.993 141.692 107.392C141.818 106.109 141.985 104.841 142.19 103.59C143.063 98.2888 144.561 93.1193 146.553 88.2113C148.525 83.3611 151.063 78.7926 153.446 73.9529C156.263 68.2353 159.401 62.5922 161.362 56.4075C163.023 51.157 163.7 45.2509 162.282 39.9947C162.024 39.0379 161.699 38.1052 161.298 37.2009C158.828 31.6404 154.08 28.2652 149.078 25.6288C147.502 24.8003 145.9 24.043 144.333 23.3086C140.231 21.3868 136.059 19.2769 132.212 16.7729C125.97 12.6867 121.008 7.26083 117.735 0.0857222C116.459 -2.71129 115.385 -5.95103 115.094 -9.32916C114.674 -14.1476 115.318 -18.6395 115.106 -22.8627C115.089 -23.1956 115.068 -23.5293 115.041 -23.8609C114.629 -28.8896 112.95 -33.5124 110.113 -37.2657C107.098 -41.2621 102.62 -44.2696 97.5413 -44.4385" stroke="#A0A0A0" stroke-miterlimit="10"/>
<path d="M156.147 139.271C152.78 135.721 149.966 131.541 147.723 126.985C146.73 124.967 145.844 122.862 145.196 120.647C143.901 116.23 143.605 111.592 143.896 107.077C143.973 105.815 144.095 104.563 144.251 103.329C144.919 98.0905 146.219 92.9585 148.017 88.0528C149.795 83.2076 152.128 78.6093 154.431 73.8677C157.279 68.0079 160.541 62.3035 162.591 56.0165C164.326 50.6849 165.06 44.6656 163.628 39.3078C163.368 38.3304 163.037 37.3766 162.627 36.4564C160.104 30.7751 155.214 27.3437 150.065 24.6338C148.443 23.7812 146.798 22.9999 145.188 22.2358C140.977 20.2411 136.692 18.0151 132.757 15.3623C126.363 11.0363 121.238 5.35485 118.096 -2.16686C116.94 -4.93596 116.007 -8.07692 115.681 -11.315C115.215 -15.9388 115.575 -20.3217 115.081 -24.43C115.043 -24.7538 114.998 -25.0788 114.948 -25.4017C114.198 -30.2815 112.158 -34.6584 109.087 -38.0696C105.823 -41.7021 101.276 -44.2441 96.3139 -44.1741" stroke="#9B9B9B" stroke-miterlimit="10"/>
<path d="M158.379 138.197C155.06 134.747 152.312 130.655 150.159 126.182C149.204 124.199 148.364 122.137 147.722 119.982C146.445 115.687 146 111.181 146.119 106.749C146.149 105.51 146.223 104.277 146.329 103.052C146.789 97.8766 147.884 92.778 149.485 87.8775C151.067 83.0373 153.187 78.4088 155.408 73.7672C158.281 67.7653 161.671 62.0007 163.81 55.6122C165.621 50.2004 166.412 44.0688 164.968 38.6072C164.705 37.6122 164.367 36.6371 163.951 35.6986C161.374 29.8998 156.342 26.4126 151.049 23.6275C149.384 22.7513 147.691 21.9455 146.041 21.1551C141.721 19.0881 137.327 16.7472 133.303 13.9461C126.757 9.38191 121.448 3.44863 118.463 -4.41936C117.422 -7.16158 116.637 -10.2004 116.282 -13.3012C115.772 -17.7311 115.84 -22.0095 115.062 -26.0007C115 -26.3158 114.932 -26.6289 114.86 -26.9427C113.768 -31.6777 111.361 -35.8079 108.053 -38.8819C104.538 -42.1527 99.9248 -44.2287 95.0851 -43.9236" stroke="#959595" stroke-miterlimit="10"/>
<path d="M160.609 137.125C157.34 133.778 154.665 129.771 152.602 125.381C151.687 123.437 150.892 121.413 150.258 119.318C148.998 115.148 148.405 110.767 148.348 106.424C148.329 105.206 148.353 103.989 148.409 102.78C148.657 97.6663 149.546 92.6014 150.945 87.7054C152.327 82.8699 154.228 78.2078 156.366 73.666C159.257 67.5191 162.781 61.6983 165.009 55.209C166.894 49.7171 167.745 43.4714 166.286 37.912C166.021 36.8968 165.677 35.9037 165.25 34.9435C162.622 29.0255 157.45 25.4831 152.012 22.6229C150.302 21.7229 148.565 20.8934 146.873 20.0738C142.444 17.9318 137.944 15.48 133.83 12.5316C127.135 7.72795 121.615 1.54609 118.817 -6.66465C117.89 -9.38631 117.264 -12.3165 116.875 -15.284C116.32 -19.5213 116.094 -23.6926 115.027 -27.5709C114.943 -27.877 114.854 -28.181 114.757 -28.4863C113.318 -33.0747 110.541 -36.9596 106.996 -39.6982C103.226 -42.6099 98.551 -44.2247 93.8382 -43.6798" stroke="#909090" stroke-miterlimit="10"/>
<path d="M162.838 136.048C155.369 128.501 151.206 117.333 150.584 106.09C149.962 94.8465 152.683 83.5661 157.309 73.5559C160.215 67.2644 163.873 61.3878 166.192 54.7985C168.511 48.2093 169.355 40.5197 166.54 34.1842C163.016 26.252 154.952 22.5353 147.696 18.9931C135.762 13.1727 123.335 4.90116 119.168 -8.89902C117.093 -15.7721 117.312 -23.4047 114.644 -30.0178C110.944 -39.186 101.466 -44.9531 92.5764 -43.4402" stroke="#8A8A8A" stroke-miterlimit="10"/>
</g>
<g style="mix-blend-mode:multiply">
<path d="M-44.2419 260.072C-47.4065 253.767 -50.3038 247.178 -52.9143 240.356C-54.0734 237.323 -55.1971 234.165 -55.5008 230.707C-56.2798 221.87 -51.6409 213.841 -46.829 208.046C-42.397 202.706 -37.5355 198.118 -32.3776 194.405C-27.2666 190.726 -21.7876 187.831 -17.3872 182.558C-12.9865 177.282 -9.81613 168.735 -11.4205 160.965C-12.3749 156.343 -14.8949 152.671 -17.8288 150.38C-20.7626 148.089 -24.0975 147.033 -27.4209 146.334C-31.2252 145.532 -35.2779 145.055 -38.3646 141.82C-41.5577 138.471 -43.1555 132.267 -42.2722 126.631C-41.0165 118.613 -35.6943 113.487 -31.2306 108.285C-25.5587 101.674 -20.5245 93.2818 -18.6016 83.204C-16.6787 73.1262 -18.5155 61.2168 -24.3424 55.2734" stroke="#8A8A8A" stroke-miterlimit="10"/>
<path d="M-41.8715 259.554C-44.9592 253.358 -47.7665 246.865 -50.2746 240.135C-51.3905 237.142 -52.4634 234.029 -52.7619 230.629C-53.3598 223.799 -50.7775 217.436 -47.4204 212.211C-46.5066 210.787 -45.5355 209.446 -44.5539 208.206C-40.3347 202.866 -35.687 198.247 -30.7402 194.472C-25.8402 190.734 -20.5536 187.788 -16.3116 182.527C-13.9334 179.575 -11.88 175.73 -10.7029 171.55C-9.67876 167.909 -9.32951 163.993 -10.0535 160.25C-10.1835 159.583 -10.3438 158.931 -10.535 158.301C-11.7087 154.414 -13.9791 151.339 -16.5539 149.267C-17.3803 148.601 -18.239 148.03 -19.1151 147.531C-21.4039 146.229 -23.837 145.402 -26.2429 144.733C-30.0607 143.662 -34.0142 142.757 -37.0161 139.317C-39.9979 135.902 -41.5492 129.931 -40.7143 124.416C-39.5252 116.569 -34.4926 111.474 -30.3039 106.314C-29.9732 105.906 -29.6462 105.495 -29.3223 105.074C-24.4164 98.7276 -20.2239 90.9201 -18.6474 81.7555C-16.9666 71.9835 -18.868 60.5366 -24.5484 54.8716" stroke="#909090" stroke-miterlimit="10"/>
<path d="M-39.4935 259.043C-42.5025 252.956 -45.2199 246.559 -47.6303 239.92C-48.7016 236.971 -49.7279 233.898 -50.019 230.557C-50.6022 223.844 -48.1715 217.564 -44.9906 212.373C-44.1244 210.956 -43.2032 209.62 -42.2709 208.377C-38.2648 203.035 -33.8272 198.386 -29.0904 194.553C-24.398 190.757 -19.3084 187.752 -15.2205 182.509C-12.8135 179.422 -10.7098 175.478 -9.46672 171.185C-8.38785 167.455 -7.98165 163.409 -8.68277 159.547C-8.80711 158.856 -8.96579 158.182 -9.15682 157.527C-10.3256 153.497 -12.6462 150.34 -15.2685 148.166C-16.1087 147.469 -16.9806 146.864 -17.8678 146.332C-20.1855 144.939 -22.6381 143.98 -25.0482 143.146C-28.8755 141.807 -32.7285 140.481 -35.651 136.829C-38.5735 133.177 -39.931 127.613 -39.1418 122.218C-38.0168 114.542 -33.273 109.478 -29.3565 104.36C-29.0475 103.957 -28.742 103.548 -28.4379 103.132C-23.8593 96.848 -20.0098 89.2027 -18.655 80.3272C-17.2112 70.8652 -19.1791 59.8782 -24.7089 54.4928" stroke="#959595" stroke-miterlimit="10"/>
<path d="M-37.4378 258.508C-40.3949 252.531 -43.0455 246.232 -45.3771 239.691C-46.4125 236.784 -47.4016 233.759 -47.6879 230.475C-48.2618 223.88 -45.9632 217.693 -42.9345 212.54C-42.1087 211.131 -41.2298 209.799 -40.3395 208.557C-36.5119 203.222 -32.25 198.547 -27.6848 194.662C-23.1619 190.814 -18.2298 187.754 -14.2615 182.538C-11.8097 179.317 -9.63835 175.281 -8.32109 170.88C-7.17988 167.063 -6.71325 162.895 -7.39737 158.912C-7.51919 158.198 -7.67731 157.5 -7.86802 156.824C-9.04337 152.651 -11.4318 149.409 -14.1219 147.133C-14.9823 146.405 -15.8744 145.77 -16.779 145.198C-19.1433 143.712 -21.6362 142.617 -24.0673 141.617C-27.9358 140.006 -31.7142 138.267 -34.5841 134.39C-37.1798 130.883 -38.6481 125.346 -37.8966 120.076C-36.829 112.575 -32.3333 107.553 -28.6563 102.485C-28.3663 102.084 -28.08 101.68 -27.7951 101.27C-23.5058 95.0561 -19.9666 87.5792 -18.8243 79.0032C-17.605 69.8594 -19.6532 59.3363 -25.0799 54.2323" stroke="#9B9B9B" stroke-miterlimit="10"/>
<path d="M-35.5357 257.961C-38.4526 252.099 -41.0499 245.896 -43.3129 239.45C-44.3191 236.585 -45.2733 233.607 -45.5564 230.385C-46.1242 223.912 -43.9485 217.821 -41.057 212.708C-40.2686 211.309 -39.4282 209.983 -38.5758 208.74C-34.9107 203.415 -30.805 198.722 -26.3939 194.788C-22.0234 190.892 -17.227 187.774 -13.3584 182.597C-10.8529 179.242 -8.60295 175.119 -7.20363 170.611C-5.99756 166.71 -5.46835 162.42 -6.13872 158.318C-6.25889 157.583 -6.41518 156.862 -6.60817 156.162C-7.79356 151.847 -10.2607 148.521 -13.0308 146.145C-13.9173 145.385 -14.8333 144.716 -15.7598 144.111C-18.1815 142.532 -20.7238 141.303 -23.1884 140.132C-27.1152 138.248 -30.8348 136.108 -33.6658 131.997C-36.098 128.464 -37.5296 123.125 -36.8173 117.983C-35.8034 110.663 -31.5366 105.684 -28.0859 100.669C-27.8139 100.274 -27.5454 99.8728 -27.2782 99.4654C-23.2601 93.3232 -20.0173 86.0248 -19.0832 77.7491C-18.0862 68.9272 -20.2248 58.8738 -25.5702 54.0479" stroke="#A0A0A0" stroke-miterlimit="10"/>
<path d="M-33.6191 257.422C-36.4971 251.67 -39.039 245.566 -41.233 239.216C-42.2079 236.394 -43.1291 233.465 -43.4089 230.301C-43.9725 223.951 -41.9181 217.953 -39.1653 212.885C-38.4162 211.494 -37.6127 210.174 -36.7987 208.933C-33.2968 203.615 -29.3505 198.906 -25.0923 194.92C-20.8731 190.976 -16.2191 187.796 -12.4491 182.662C-9.88768 179.174 -7.55856 174.963 -6.08071 170.348C-4.80708 166.361 -4.21493 161.949 -4.87176 157.731C-4.98998 156.972 -5.14473 156.231 -5.34001 155.506C-6.53523 151.048 -9.08407 147.642 -11.9345 145.163C-12.8453 144.372 -13.7853 143.669 -14.7339 143.031C-17.2131 141.358 -19.8099 140 -22.3036 138.655C-26.2902 136.51 -29.9503 133.965 -32.7412 129.608C-35.0142 126.064 -36.4057 120.91 -35.7306 115.895C-34.7687 108.757 -30.7322 103.82 -27.5092 98.857C-27.2551 98.4653 -27.0047 98.0699 -26.7557 97.6683C-23.0087 91.6009 -20.0661 84.4775 -19.3414 76.5018C-18.5658 67.9989 -20.7956 58.4178 -26.063 53.8692" stroke="#A6A6A6" stroke-miterlimit="10"/>
<path d="M-31.7081 256.878C-34.547 251.238 -37.0311 245.233 -39.1556 238.979C-40.0992 236.202 -40.9847 233.317 -41.2631 230.211C-41.8204 223.984 -39.8881 218.079 -37.2766 213.052C-36.5653 211.673 -35.8029 210.357 -35.0254 209.116C-31.688 203.808 -27.9019 199.079 -23.798 195.045C-19.731 191.052 -15.2201 187.808 -11.5498 182.719C-8.93578 179.094 -6.52537 174.8 -4.9645 170.078C-3.62293 166.005 -2.96978 161.473 -3.6127 157.136C-3.72694 156.355 -3.88387 155.589 -4.07974 154.844C-5.28515 150.244 -7.9136 146.754 -10.847 144.174C-11.7822 143.353 -12.7464 142.616 -13.7169 141.941C-16.2541 140.175 -18.9007 138.68 -21.4269 137.171C-25.4725 134.753 -29.0727 131.825 -31.8246 127.217C-33.9407 123.672 -35.2885 118.693 -34.6508 113.805C-33.7432 106.847 -29.9385 101.953 -26.9428 97.0425C-26.7069 96.6566 -26.4725 96.2643 -26.2438 95.8681C-22.7717 89.8749 -20.1311 82.9263 -19.6151 75.2507C-19.0625 67.0694 -21.3857 57.9571 -26.5705 53.6865" stroke="#ABABAB" stroke-miterlimit="10"/>
<path d="M-29.7903 256.339C-32.5878 250.811 -35.0178 244.905 -37.0726 238.75C-37.9865 236.016 -38.8366 233.179 -39.1115 230.132C-39.6626 224.028 -37.8555 218.219 -35.386 213.229C-34.7124 211.859 -33.9893 210.548 -33.2508 209.309C-30.079 204.012 -26.4542 199.263 -22.5034 195.181C-18.5918 191.14 -14.2267 187.827 -10.6529 182.787C-7.98404 179.026 -5.4939 174.648 -3.85156 169.819C-2.44195 165.663 -1.72483 161.006 -2.35406 156.553C-2.46662 155.751 -2.62169 154.963 -2.81988 154.193C-4.03756 149.452 -6.74638 145.88 -9.75902 143.198C-10.7187 142.345 -11.7096 141.577 -12.7021 140.866C-15.2976 139.007 -17.9967 137.377 -20.5548 135.699C-24.6598 133.008 -28.2031 129.709 -30.9121 124.835C-32.8775 121.301 -34.1739 116.482 -33.5721 111.723C-32.7172 104.947 -29.1475 100.092 -26.3807 95.237C-26.1629 94.8539 -25.9469 94.4674 -25.7366 94.0769C-22.5412 88.1578 -20.2024 81.3839 -19.8984 74.0078C-19.5723 66.1475 -21.985 57.5015 -27.089 53.5114" stroke="#B1B1B1" stroke-miterlimit="10"/>
<path d="M-28.1086 255.784C-30.8875 250.369 -33.2793 244.565 -35.2792 238.507C-36.168 235.817 -36.9905 233.028 -37.2648 230.044C-37.8143 224.067 -36.1157 218.362 -33.7765 213.416C-33.1347 212.058 -32.4483 210.754 -31.744 209.518C-28.7195 204.237 -25.2299 199.475 -21.4076 195.347C-17.6231 191.263 -13.3778 187.884 -9.87216 182.903C-7.13033 179.007 -4.53983 174.554 -2.80141 169.623C-1.31472 165.386 -0.528708 160.613 -1.14669 156.042C-1.25819 155.217 -1.41265 154.406 -1.61506 153.615C-2.85281 148.736 -5.66332 145.08 -8.78326 142.296C-9.77507 141.413 -10.798 140.61 -11.8203 139.862C-14.4923 137.91 -17.2665 136.142 -19.8766 134.296C-24.0725 131.332 -27.5897 127.67 -30.2694 122.526C-32.0999 119.013 -33.3496 114.352 -32.7841 109.723C-31.9789 103.129 -28.6203 98.3254 -26.0655 93.5281C-25.8648 93.1511 -25.6655 92.7678 -25.4721 92.3805C-22.5343 86.5416 -20.485 79.9485 -20.3946 72.8766C-20.2943 65.3397 -22.8214 57.1687 -27.8813 53.4548" stroke="#B7B7B7" stroke-miterlimit="10"/>
<path d="M-26.5686 255.225C-29.34 249.927 -31.7061 244.223 -33.6594 238.267C-34.5268 235.621 -35.3255 232.884 -35.6002 229.961C-36.1514 224.113 -34.5602 218.51 -32.3407 213.614C-31.7304 212.267 -31.0766 210.97 -30.4043 209.739C-27.5152 204.477 -24.1509 199.705 -20.4434 195.539C-16.7721 191.416 -12.6304 187.974 -9.18125 183.057C-6.35407 179.026 -3.64525 174.506 -1.80521 169.479C-0.230984 165.164 0.628797 160.28 0.0145119 155.594C-0.0965132 154.747 -0.253536 153.916 -0.458624 153.1C-1.72296 148.081 -4.65361 144.344 -7.89427 141.46C-8.9237 140.546 -9.98445 139.709 -11.0423 138.927C-13.8076 136.881 -16.6677 134.975 -19.3458 132.965C-23.6549 129.727 -27.1675 125.714 -29.8265 120.289C-31.5347 116.805 -32.7373 112.293 -32.2052 107.799C-31.446 101.395 -28.2907 96.6428 -25.9423 91.9093C-25.7579 91.5357 -25.5753 91.1588 -25.3986 90.7779C-22.7121 85.0229 -20.951 78.6139 -21.0779 71.8492C-21.2096 64.6415 -23.864 56.9445 -28.9026 53.5088" stroke="#BCBCBC" stroke-miterlimit="10"/>
<path d="M-24.9771 254.668C-27.7392 249.485 -30.072 243.885 -31.9771 238.029C-32.8218 235.432 -33.5944 232.74 -33.8695 229.882C-34.4215 224.163 -32.9451 218.661 -30.8513 213.813C-30.2745 212.48 -29.655 211.19 -29.0161 209.961C-26.2701 204.718 -23.0387 199.936 -19.4535 195.727C-15.9055 191.564 -11.8769 188.053 -8.48598 183.201C-5.57643 179.037 -2.74903 174.449 -0.80206 169.325C0.860105 164.935 1.79327 159.934 1.18735 155.139C1.07904 154.27 0.91986 153.416 0.709522 152.579C-0.581099 147.425 -3.62995 143.608 -6.99508 140.621C-8.06205 139.675 -9.16076 138.808 -10.256 137.989C-13.1139 135.849 -16.0617 133.809 -18.8041 131.629C-23.2223 128.117 -26.7339 123.764 -29.3638 118.055C-30.9494 114.612 -32.0969 110.241 -31.5972 105.879C-30.8884 99.6629 -27.944 94.9619 -25.8127 90.2878C-25.6453 89.9176 -25.4801 89.547 -25.3208 89.1724C-22.8963 83.5001 -21.4341 77.2737 -21.7864 70.8143C-22.1589 63.9339 -24.941 56.7099 -29.9491 53.5499" stroke="#C2C2C2" stroke-miterlimit="10"/>
<path d="M-23.3339 254.119C-26.0835 249.05 -28.3815 243.554 -30.2306 237.799C-31.0528 235.247 -31.794 232.607 -32.071 229.811C-32.6229 224.218 -31.2666 218.821 -29.3019 214.019C-28.7598 212.697 -28.1784 211.414 -27.5728 210.189C-24.9768 204.964 -21.8853 200.168 -18.4306 195.922C-15.011 191.719 -11.1076 188.138 -7.77838 183.354C-4.78746 179.056 -1.84133 174.402 0.211206 169.18C1.96219 164.713 2.97121 159.601 2.37053 154.694C2.26267 153.805 2.10357 152.929 1.88837 152.07C0.569951 146.78 -2.59677 142.88 -6.08435 139.794C-7.18875 138.817 -8.32712 137.916 -9.4552 137.061C-12.4054 134.827 -15.4398 132.65 -18.2435 130.305C-22.7717 126.522 -26.2857 121.84 -28.873 115.835C-30.3373 112.435 -31.418 108.203 -30.9565 103.972C-30.3 97.9438 -27.5737 93.2929 -25.6679 88.6772C-25.5185 88.3133 -25.3709 87.946 -25.2276 87.578C-23.0751 81.9872 -21.9215 75.9418 -22.505 69.7865C-23.122 63.2293 -26.032 56.477 -31.0055 53.5951" stroke="#C7C7C7" stroke-miterlimit="10"/>
<path d="M-21.6437 253.569C-24.3753 248.615 -26.6372 243.219 -28.4298 237.573C-29.2259 235.065 -29.9381 232.474 -30.2149 229.742C-30.7686 224.278 -29.5339 218.981 -27.7044 214.23C-27.2006 212.917 -26.6548 211.644 -26.0857 210.42C-23.6459 205.211 -20.7017 200.407 -17.3836 196.116C-14.0992 191.873 -10.3276 188.218 -7.06534 183.504C-3.99576 179.07 -0.928853 174.352 1.23213 169.035C3.07251 164.491 4.15647 159.266 3.5657 154.25C3.45871 153.339 3.29738 152.443 3.08169 151.562C1.73811 146.139 -1.54686 142.159 -5.15614 138.967C-6.29974 137.957 -7.4737 137.025 -8.63693 136.137C-11.6789 133.811 -14.7941 131.489 -17.6658 128.991C-22.2967 124.923 -25.8277 119.935 -28.3574 113.631C-29.7012 110.282 -30.7088 106.178 -30.2848 102.081C-29.6802 96.2375 -27.1848 91.6379 -25.5101 87.0802C-25.379 86.7195 -25.2501 86.3584 -25.1252 85.9937C-23.2534 80.4803 -22.4201 74.6173 -23.238 68.765C-24.1054 62.5325 -27.1456 56.25 -32.0783 53.6432" stroke="#CDCDCD" stroke-miterlimit="10"/>
<path d="M-19.9071 253.023C-22.6204 248.188 -24.8388 242.894 -26.5735 237.348C-27.342 234.886 -28.0242 232.347 -28.3003 229.676C-28.853 224.34 -27.744 219.142 -26.0585 214.438C-25.5922 213.136 -25.0854 211.87 -24.5545 210.65C-22.2772 205.457 -19.484 200.641 -16.3113 196.31C-13.1705 192.026 -9.53746 188.295 -6.34221 183.653C-3.14695 179.01 -0.00471274 174.302 2.26105 168.888C4.18887 164.271 5.35297 158.934 4.77094 153.806C4.6671 152.874 4.50391 151.956 4.28323 151.054C2.91528 145.495 -0.487974 141.436 -4.22165 138.145C-5.40256 137.105 -6.61385 136.14 -7.81177 135.215C-10.9453 132.796 -14.1461 130.342 -17.0791 127.676C-21.8151 123.341 -25.3668 118.043 -27.825 111.429C-29.0489 108.134 -29.9761 104.158 -29.5907 100.192C-29.0421 94.5351 -26.783 89.9834 -25.3466 85.4829C-25.2325 85.1286 -25.1247 84.7703 -25.019 84.4117C-23.4347 78.9781 -22.9298 73.2931 -23.9892 67.7422C-25.1143 61.8327 -28.2807 56.0195 -33.167 53.6875" stroke="#D2D2D2" stroke-miterlimit="10"/>
<path d="M-18.1344 252.479C-20.8264 247.758 -23.0009 242.568 -24.6725 237.124C-25.4147 234.71 -26.0628 232.217 -26.3381 229.611C-26.8893 224.403 -25.9142 219.303 -24.3708 214.646C-23.9436 213.357 -23.4769 212.097 -22.9853 210.878C-20.8783 205.702 -18.2419 200.874 -15.2181 196.498C-12.2247 192.173 -8.74091 188.367 -5.61682 183.795C-2.49272 179.222 0.918826 174.246 3.2921 168.736C5.31028 164.042 6.55063 158.596 5.97796 153.358C5.8749 152.408 5.71215 151.467 5.48684 150.543C4.0947 144.851 0.570943 140.713 -3.28225 137.322C-4.50038 136.251 -5.75142 135.254 -6.98386 134.294C-10.2084 131.784 -13.4919 129.195 -16.4878 126.365C-21.3298 121.762 -24.9138 116.159 -27.2792 109.237C-28.3861 105.999 -29.2234 102.149 -28.8754 98.3129C-28.3823 92.8427 -26.369 88.3378 -25.1775 83.8936C-25.0828 83.5425 -24.9947 83.1902 -24.9088 82.8376C-23.6221 77.4825 -23.4514 71.9748 -24.7571 66.7267C-26.1427 61.1392 -29.4395 55.7931 -34.272 53.7361" stroke="#D8D8D8" stroke-miterlimit="10"/>
<path d="M-16.3174 251.935C-18.9833 247.329 -21.1137 242.243 -22.7195 236.901C-23.4318 234.532 -24.047 232.088 -24.3213 229.546C-24.8704 224.466 -24.0306 219.463 -22.636 214.856C-22.2487 213.577 -21.8257 212.324 -21.3727 211.108C-19.439 205.949 -16.967 201.108 -14.0979 196.69C-11.2573 192.323 -7.92821 188.439 -4.87937 183.939C-1.5887 179.084 1.85391 174.193 4.33719 168.591C6.44623 163.822 7.7661 158.265 7.20303 152.92C7.10115 151.947 6.93893 150.985 6.70873 150.041C5.29056 144.216 1.65095 139.997 -2.32645 136.508C-3.58175 135.407 -4.86997 134.378 -6.13715 133.384C-9.45023 130.783 -12.8207 128.062 -15.8766 125.07C-20.8213 120.2 -24.4529 114.304 -26.7093 107.064C-27.7004 103.882 -28.438 100.157 -28.1333 96.4534C-27.6993 91.1685 -25.9364 86.71 -24.9961 82.3216C-24.9215 81.9764 -24.8533 81.6273 -24.7877 81.2806C-23.806 76.0031 -23.9765 70.6685 -25.5305 65.7225C-27.1807 60.4526 -30.6061 55.5726 -35.3824 53.7928" stroke="#DEDEDE" stroke-miterlimit="10"/>
<path d="M-14.471 251.396C-17.1105 246.905 -19.192 241.924 -20.7272 236.684C-21.4084 234.361 -21.9877 231.969 -22.2626 229.487C-22.8092 224.535 -22.108 219.629 -20.8681 215.068C-20.5219 213.798 -20.1417 212.555 -19.7307 211.343C-17.9752 206.199 -15.6728 201.345 -12.961 196.882C-10.2805 192.474 -7.11145 188.507 -4.13954 184.083C-0.781916 179.086 2.79071 174.14 5.38258 168.444C7.58253 163.602 8.98032 157.934 8.42771 152.48C8.32709 151.485 8.16296 150.504 7.93048 149.538C6.48891 143.581 2.72902 139.282 -1.3702 135.695C-2.66259 134.564 -3.98789 133.502 -5.28933 132.473C-8.69281 129.78 -12.1449 126.926 -15.2601 123.772C-20.3086 118.637 -24.0025 112.447 -26.1277 104.89C-27.0069 101.766 -27.6377 98.1668 -27.3746 94.5919C-27.0011 89.4916 -25.4925 85.0764 -24.8117 80.7455C-24.7574 80.4034 -24.7077 80.0605 -24.6647 79.7165C-23.995 74.5158 -24.5138 69.3561 -26.322 64.7076C-28.2435 59.7564 -31.7974 55.3411 -36.5126 53.835" stroke="#E3E3E3" stroke-miterlimit="10"/>
<path d="M-12.5908 250.852C-15.2 246.479 -17.2299 241.599 -18.6971 236.464C-19.3483 234.185 -19.8903 231.843 -20.1637 229.424C-20.7073 224.6 -20.1477 219.79 -19.0641 215.275C-18.7625 214.017 -18.4234 212.778 -18.0553 211.569C-16.4827 206.441 -14.3544 201.574 -11.8074 197.069C-9.28957 192.618 -6.29046 188.572 -3.39386 184.22C0.0279683 179.079 3.73521 174.082 6.43618 168.292C8.72777 163.375 10.2064 157.597 9.66439 152.037C9.56706 151.024 9.40171 150.018 9.16444 149.032C7.70013 142.942 3.82145 138.568 -0.399239 134.882C-1.72868 133.721 -3.09359 132.628 -4.42922 131.564C-7.92286 128.781 -11.4585 125.793 -14.6322 122.478C-19.7837 117.079 -23.5606 110.603 -25.5297 102.728C-26.2962 99.6576 -26.8154 96.1842 -26.5951 92.7409C-26.2809 87.8221 -25.0375 83.4546 -24.6214 79.1778C-24.5882 78.8415 -24.5593 78.5016 -24.5375 78.1634C-24.1862 73.0387 -25.0598 68.0529 -27.1258 63.7006C-29.3203 59.0673 -33.0027 55.1151 -37.6526 53.8823" stroke="#E9E9E9" stroke-miterlimit="10"/>
<path d="M-10.6781 250.315C-13.2565 246.057 -15.2329 241.281 -16.6271 236.247C-17.2455 234.017 -17.7513 231.723 -18.0227 229.366C-18.5651 224.668 -18.1569 219.953 -17.2239 215.485C-16.9676 214.237 -16.6712 213.006 -16.3468 211.799C-14.961 206.682 -13.0115 201.801 -10.6338 197.254C-8.28363 192.764 -5.46116 188.632 -2.64301 184.352C0.840041 179.063 4.68174 174.019 7.49212 168.135C9.87298 163.146 11.433 157.259 10.9047 151.59C10.8088 150.556 10.6439 149.532 10.4022 148.523C8.91298 142.303 4.91634 137.848 0.574172 134.066C-0.792199 132.876 -2.19401 131.75 -3.56364 130.65C-7.14699 127.777 -10.7636 124.66 -13.9975 121.184C-19.2482 115.52 -23.1287 108.761 -24.9187 100.566C-25.5768 97.5496 -25.973 94.2063 -25.7961 90.8912C-25.5449 86.1558 -24.5698 81.8327 -24.4212 77.6097C-24.4092 77.2764 -24.4018 76.9423 -24.4015 76.6099C-24.3747 71.5605 -25.6113 66.747 -27.9361 62.69C-30.4091 58.37 -34.2203 54.8822 -38.7982 53.9227" stroke="#EEEEEE" stroke-miterlimit="10"/>
<path d="M-8.74082 249.781C-11.2865 245.637 -13.2074 240.966 -14.5267 236.034C-15.111 233.849 -15.5797 231.604 -15.8491 229.31C-16.3873 224.737 -16.1267 220.12 -15.3594 215.699C-15.1469 214.46 -14.8964 213.239 -14.6167 212.032C-13.4242 206.93 -11.6554 202.035 -9.45117 197.445C-7.27245 192.912 -4.63155 188.697 -1.89494 184.492C1.64393 179.055 5.62514 173.965 8.54769 167.988C11.0208 162.925 12.6624 156.932 12.1436 151.155C12.0492 150.1 11.8826 149.056 11.6389 148.026C10.1272 141.676 6.0122 137.145 1.54888 133.264C0.145599 132.044 -1.29308 130.886 -2.69696 129.754C-6.36985 126.791 -10.0691 123.542 -13.3603 119.906C-18.7121 113.98 -22.7195 106.936 -24.3011 98.4273C-24.8528 95.4609 -25.1215 92.2508 -24.9888 89.0634C-24.7994 84.5111 -24.1002 80.2316 -24.2241 76.0648C-24.2339 75.7373 -24.2481 75.406 -24.2695 75.0765C-24.5725 70.0989 -26.1757 65.46 -28.7649 61.6967C-31.5178 57.6918 -35.457 54.6613 -39.962 53.9769" stroke="#F4F4F4" stroke-miterlimit="10"/>
<path d="M-6.77452 249.248C-9.2832 245.219 -11.1488 240.652 -12.3887 235.821C-12.9379 233.682 -13.369 231.488 -13.6359 229.255C-14.1697 224.808 -14.0593 220.289 -13.4577 215.91C-13.2903 214.683 -13.0882 213.465 -12.852 212.261C-11.8545 207.173 -10.2726 202.265 -8.24572 197.629C-6.24486 193.053 -3.79005 188.755 -1.13544 184.624C2.45615 179.036 6.57897 173.903 9.61159 167.833C12.1771 162.697 13.8987 156.595 13.3945 150.711C13.3014 149.638 13.1361 148.57 12.8877 147.52C11.3541 141.041 7.1189 136.431 2.53483 132.451C1.0948 131.202 -0.380572 130.011 -1.82086 128.847C-5.58279 125.795 -9.36408 122.414 -12.7118 118.619C-18.1613 112.433 -22.319 105.1 -23.6643 96.281C-24.1091 93.3584 -24.246 90.2846 -24.1585 87.2273C-24.0343 82.8571 -23.6134 78.6209 -24.014 74.5068C-24.0457 74.1821 -24.0821 73.8566 -24.1235 73.5332C-24.7619 68.6295 -26.7365 64.1613 -29.5929 60.6904C-32.6287 56.9993 -36.6982 54.4269 -41.1259 54.0142" stroke="#F9F9F9" stroke-miterlimit="10"/>
<path d="M-4.78678 248.717C-10.5301 239.624 -12.6716 227.554 -11.5367 216.123C-10.3994 204.692 -6.17001 193.895 -0.378708 184.76C3.26016 179.019 7.53147 173.846 10.674 167.687C13.8165 161.527 15.7678 153.966 14.1334 147.027C12.0894 138.34 5.21337 132.975 -0.942061 127.957C-11.0662 119.7 -21.2751 108.88 -23.0208 94.1602C-23.8897 86.8287 -22.5255 79.1975 -23.9802 72.0124C-25.9959 62.0463 -33.8656 54.3411 -42.2992 54.0712" stroke="white" stroke-miterlimit="10"/>
</g>
<g style="mix-blend-mode:multiply">
<path d="M111.829 198.525C102.828 198.373 96.5788 188.018 96.4394 178.491C96.3026 168.964 100.38 160.031 103.425 151.063C106.47 142.094 108.45 131.789 104.343 123.31C99.0918 112.472 85.5956 108.143 80.7805 97.0803C77.0266 88.4578 79.8322 78.3728 84.4805 70.7965C87.108 66.5126 91.0235 63.119 93.9726 59.0907C107.345 40.8182 129.459 42.7285 134.972 26.3381C140.938 8.58828 133.836 -2.57504 128.457 -6.88861C121.565 -12.4151 103.14 -22.6561 87.2611 -6.60595C80.8107 -0.0859436 74.0106 6.28957 66.0818 10.6133C54.2113 17.0881 37.7106 14.586 30.1554 2.93705C24.9796 -5.04797 24.1869 -16.2505 16.9822 -22.2221C12.1416 -26.234 5.28887 -26.8005 -0.578246 -24.8364C-6.44276 -22.872 -11.4331 -18.6772 -15.6538 -13.9443" stroke="#8A8A8A" stroke-miterlimit="10"/>
<path d="M112.074 198.222C102.885 197.672 96.2583 187.3 95.9712 177.454C95.6902 167.842 99.7605 158.738 102.988 149.786C106.215 140.833 108.42 130.921 104.787 122.526C100.134 111.801 87.4303 107.092 82.7067 96.041C78.9691 87.24 81.2088 77.2263 85.4252 69.3794C87.8491 64.8715 91.6031 61.1152 94.6078 56.8792C107.344 38.9141 128.736 40.4587 134.145 24.4056C139.956 7.13813 133.316 -3.91927 128.059 -8.35931C121.396 -13.9868 103.675 -23.7941 88.1118 -8.69292C81.6955 -2.46652 74.8325 3.63445 66.9784 7.88389C55.4206 14.1703 39.5235 11.8813 31.9884 0.80891C26.7762 -6.85289 25.6788 -17.7167 18.5892 -23.6579C13.7465 -27.7326 7.03661 -28.5243 1.1892 -26.9127C-4.71269 -25.2896 -9.88828 -21.4942 -14.3334 -16.997" stroke="#909090" stroke-miterlimit="10"/>
<path d="M112.498 197.761C103.115 196.816 96.1032 186.43 95.6625 176.27C95.2411 166.583 99.3001 157.315 102.717 148.382C106.053 139.659 108.559 129.938 105.392 121.632C101.331 111.03 89.3771 105.95 84.7638 94.9054C81.02 85.9427 82.7081 75.9842 86.5044 67.8815C88.7232 63.1462 92.3266 59.039 95.3875 54.5949C107.526 36.9749 128.195 38.1331 133.507 22.4299C139.168 5.65568 132.977 -5.28345 127.837 -9.84995C121.398 -15.5721 104.345 -24.9472 89.0941 -10.8069C82.703 -4.87996 75.7734 0.93873 67.9821 5.11524C56.7217 11.2043 41.4057 9.12844 33.8881 -1.35522C28.6302 -8.68864 27.229 -19.2052 20.2488 -25.1148C15.3955 -29.2503 8.81783 -30.2682 2.98682 -29.0137C-2.96157 -27.7318 -8.32664 -24.3425 -12.9974 -20.0845" stroke="#959595" stroke-miterlimit="10"/>
<path d="M112.926 197.307C103.347 195.965 95.9582 185.569 95.3593 175.092C94.8009 165.328 98.8433 155.894 102.449 146.983C105.926 138.389 108.702 128.963 106 120.747C102.527 110.264 91.3413 104.81 86.8213 93.7774C83.0804 84.6458 84.205 74.7407 87.5858 66.3937C89.5981 61.4248 93.0528 56.9748 96.1731 52.3174C107.733 35.0624 127.662 35.8116 132.878 20.4587C138.388 4.17825 132.646 -6.64253 127.623 -11.3357C121.401 -17.148 105.006 -26.1003 90.0794 -12.9145C83.705 -7.28305 76.7069 -1.76982 68.9895 2.34942C58.0116 8.21046 43.2846 6.38038 35.788 -3.51901C30.4819 -10.524 28.7672 -20.6746 21.906 -26.568C17.0353 -30.7514 10.595 -32.0147 4.78457 -31.1088C-1.21486 -30.172 -6.76142 -27.1853 -11.6593 -23.1699" stroke="#9B9B9B" stroke-miterlimit="10"/>
<path d="M113.344 196.853C103.57 195.114 95.8081 184.706 95.0511 173.914C94.3612 164.072 98.3788 154.474 102.179 145.584C105.797 137.115 108.839 127.988 106.603 119.858C103.718 109.498 93.2961 103.667 88.8717 92.649C85.1337 83.3481 85.6893 73.487 88.6652 64.9026C90.4691 59.6967 93.7804 54.9071 96.9543 50.0379C107.955 33.1654 127.129 33.4885 132.246 18.486C137.604 2.69942 132.311 -7.99707 127.406 -12.8226C121.404 -18.7248 105.649 -27.2589 91.0626 -15.0239C84.7025 -9.68858 77.6477 -4.46815 69.9952 -0.416058C59.3099 5.23799 45.1554 3.63181 37.6845 -5.67907C32.3256 -12.3588 30.3151 -22.1517 23.5607 -28.0167C18.679 -32.2555 12.3648 -33.7606 6.57739 -33.2005C0.790002 -32.6405 -5.20019 -30.0256 -10.325 -26.2503" stroke="#A0A0A0" stroke-miterlimit="10"/>
<path d="M113.77 196.395C103.803 194.256 95.6668 183.838 94.7496 172.73C93.931 162.812 97.9214 153.049 101.912 144.179C105.668 135.836 108.995 127.003 107.209 118.968C104.931 108.723 95.2551 102.519 90.9183 91.515C87.1861 82.0423 87.1641 72.2213 89.74 63.4083C91.3317 57.9588 94.5038 52.8383 97.7317 47.7543C108.193 31.282 126.593 31.1613 131.613 16.5129C136.821 1.22151 131.974 -9.35367 127.187 -14.3089C121.401 -20.2988 106.271 -28.4221 92.0411 -17.1336C85.6902 -12.0957 78.5811 -7.16533 70.9965 -3.18568C60.6055 2.26415 47.0118 0.88054 39.5745 -7.84259C34.1573 -14.1946 31.8544 -23.6315 25.2121 -29.47C20.3224 -33.7667 14.1289 -35.5146 8.36678 -35.2977C2.25205 -35.0658 -3.64471 -32.8699 -8.99256 -29.3402" stroke="#A6A6A6" stroke-miterlimit="10"/>
<path d="M114.194 195.942C104.032 193.404 95.5303 182.975 94.4481 171.551C93.5038 161.557 97.4622 151.625 101.649 142.776C105.539 134.558 109.14 126.025 107.815 118.077C106.124 107.955 97.21 101.369 92.9654 90.383C89.2388 80.7411 88.6334 70.9534 90.8179 61.9129C92.1953 56.2192 95.2334 50.7709 98.5129 45.4687C108.451 29.4077 126.066 28.8325 130.987 14.5355C136.045 -0.257387 131.643 -10.7084 126.973 -15.7964C121.402 -21.8712 106.88 -29.597 93.0205 -19.2457C86.6708 -14.504 79.5185 -9.86525 71.9992 -5.9585C61.902 -0.713158 48.86 -1.8724 41.4644 -10.0087C35.9868 -16.0357 33.3973 -25.1154 26.8612 -30.9225C21.961 -35.2776 15.8862 -37.2746 10.1564 -37.3945C3.98261 -37.5216 -2.08512 -35.7171 -7.65869 -32.4281" stroke="#ABABAB" stroke-miterlimit="10"/>
<path d="M131.142 195.486C119.513 193.454 108.846 183.379 106.428 171.166C104.354 160.69 107.758 149.675 111.786 139.951C115.477 131.034 119.002 121.987 117.346 113.813C115.243 103.413 105.671 96.9206 100.127 85.8102C95.1651 75.8725 92.9786 65.7397 94.1321 55.821C94.8709 49.4572 97.5554 43.0932 100.717 36.951C109.674 19.556 128.043 16.7478 132.095 1.60163C136.207 -13.9256 130.936 -24.3752 125.475 -29.4029C119.044 -35.3301 103.093 -41.6296 89.1434 -30.3559C82.5615 -25.0377 75.058 -19.736 67.216 -14.9448C56.9017 -8.64591 43.0945 -8.35786 34.3548 -15.547C27.7565 -20.9743 23.8293 -29.8526 16.2536 -35.2726C10.4678 -39.4122 3.72794 -41.1734 -2.57149 -41.0686C-9.46357 -40.9521 -16.1842 -38.8264 -22.2758 -35.0322" stroke="#B1B1B1" stroke-miterlimit="10"/>
<path d="M115.038 195.034C104.493 191.7 95.2646 181.246 93.8508 169.189C92.6613 159.041 96.5397 148.774 101.124 139.972C105.273 132.002 109.429 124.074 109.02 116.303C108.502 106.425 101.112 99.0748 97.0434 88.123C93.3315 78.1369 91.5346 68.4124 92.9639 58.9282C93.8968 52.7371 96.6926 46.6442 100.071 40.8985C109.007 25.6995 125.01 24.1758 129.738 10.5866C134.494 -3.2131 130.975 -13.4075 126.546 -18.7689C121.4 -25.0034 108.042 -31.9795 94.9765 -23.473C88.6091 -19.3277 81.3911 -15.2675 74.0024 -11.5068C64.4932 -6.6655 52.5247 -7.37369 45.2367 -14.3416C39.6195 -19.7116 36.4753 -28.0814 30.1537 -33.8281C25.2353 -38.2996 19.3947 -40.8131 13.7277 -41.5915C7.42837 -42.4561 1.0258 -41.418 -4.99443 -38.6134" stroke="#B7B7B7" stroke-miterlimit="10"/>
<path d="M115.392 194.58C104.659 190.844 95.0807 180.378 93.4991 168.002C92.191 157.776 96.0233 147.335 100.807 138.555C105.08 130.708 109.514 123.079 109.564 115.393C109.629 105.636 103.005 97.8986 99.0229 86.9606C95.3223 76.7971 92.9217 67.1002 93.9869 57.3974C94.6922 50.9517 97.3757 44.5428 100.797 38.5696C109.249 23.8112 124.424 21.8019 129.052 8.55916C133.657 -4.74639 130.578 -14.8109 126.276 -20.3143C121.34 -26.6281 108.546 -33.256 95.9101 -25.6458C89.527 -21.8024 82.2925 -18.0274 74.9694 -14.3364C65.7563 -9.69614 54.317 -10.1714 47.099 -16.5619C41.4061 -21.6039 37.9981 -29.6225 31.7878 -35.3387C26.8622 -39.8725 21.1416 -42.648 15.5081 -43.7507C9.15066 -44.9931 2.58184 -44.3275 -3.65645 -41.7659" stroke="#BCBCBC" stroke-miterlimit="10"/>
<path d="M115.714 194.127C104.8 189.99 94.8722 179.508 93.1214 166.811C91.7009 156.504 95.4788 145.889 100.461 137.131C104.858 129.402 109.563 122.077 110.073 114.478C110.719 104.841 104.863 96.7147 100.968 85.7924C97.2816 75.4535 94.2723 65.7825 94.9779 55.8548C95.4535 49.1559 98.0328 42.428 101.491 36.2257C109.471 21.9176 123.805 19.4081 128.337 6.51759C132.791 -6.29411 130.148 -16.227 125.972 -21.876C121.247 -28.267 108.998 -34.5664 96.8102 -27.8368C90.4028 -24.2997 83.1604 -20.8032 75.9074 -17.1867C66.9935 -12.7443 56.0728 -12.9822 48.9347 -18.802C43.1614 -23.5108 39.4997 -31.1826 33.3963 -36.8666C28.4667 -41.4599 22.8659 -44.5096 17.266 -45.929C10.8527 -47.5554 4.12183 -47.2597 -2.33542 -44.9387" stroke="#C2C2C2" stroke-miterlimit="10"/>
<path d="M116.023 193.67C104.927 189.131 94.6599 178.634 92.7356 165.614C91.201 155.225 94.9272 144.433 100.109 135.7C104.623 128.089 109.605 121.071 110.572 113.552C111.795 104.038 106.707 95.5196 102.899 84.61C99.228 74.0923 95.6072 64.449 95.9593 54.2993C96.2011 47.3459 98.6838 40.3022 102.176 33.8668C109.695 20.0167 123.18 16.999 127.613 4.45783C131.915 -7.85663 129.706 -17.6613 125.659 -23.4558C121.142 -29.9248 109.423 -35.9174 97.7023 -30.0498C91.2645 -26.8262 84.024 -23.5989 76.8391 -20.0572C68.2267 -15.8125 57.8124 -15.8059 50.7632 -21.0611C44.9042 -25.4286 40.9937 -32.761 35.0002 -38.4153C30.065 -43.0715 24.5868 -46.3957 19.0231 -48.1291C12.5558 -50.1459 5.66092 -50.2155 -1.01086 -48.1378" stroke="#C7C7C7" stroke-miterlimit="10"/>
<path d="M116.328 193.217C105.053 188.273 94.4467 177.763 92.3526 164.42C90.7095 153.95 94.3739 142.979 99.7558 134.27C104.387 126.775 109.643 120.064 111.066 112.632C112.863 103.237 108.542 94.3255 104.818 83.4336C101.162 72.7365 96.927 63.1232 96.933 52.7461C96.939 45.54 99.3331 38.1809 102.858 31.5087C109.926 18.1218 122.579 14.6 126.889 2.39927C131.199 -9.80143 129.261 -19.0907 125.344 -25.034C121.03 -31.5761 109.825 -37.2919 98.587 -32.2605C92.1104 -29.3608 84.882 -26.3959 77.7654 -22.9291C69.4537 -18.8797 59.5357 -18.621 52.5871 -23.32C46.6377 -27.3436 42.4876 -34.3375 36.6037 -39.9593C31.6658 -44.6782 26.3107 -48.2802 20.7781 -50.3264C14.2579 -52.7371 7.20257 -53.1695 0.31476 -51.3331" stroke="#CDCDCD" stroke-miterlimit="10"/>
<path d="M116.622 192.761C105.169 187.415 94.2303 176.887 91.9618 163.222C90.2112 152.668 93.8134 141.52 99.3974 132.836C104.142 125.459 109.673 119.052 111.548 111.707C113.917 102.431 110.361 93.1255 106.722 82.2485C103.085 71.3719 98.2296 61.7903 97.8986 51.1865C97.6648 43.7264 99.9804 36.0555 103.53 29.142C110.155 16.2258 121.95 12.1832 126.158 0.335343C130.367 -11.5125 128.806 -20.525 125.021 -26.6171C120.911 -33.2325 110.204 -38.699 99.464 -34.4772C92.9406 -31.9146 85.7333 -29.1971 78.6856 -25.8082C70.6716 -21.9549 61.2446 -21.4328 54.4006 -25.5855C48.3548 -29.2539 43.9703 -35.9194 38.1964 -41.5115C33.2563 -46.2933 28.0274 -50.179 22.5258 -52.5329C15.9594 -55.3432 8.73643 -56.1346 1.63698 -54.5422" stroke="#D2D2D2" stroke-miterlimit="10"/>
<path d="M116.911 192.308C105.282 186.558 94.0141 176.014 91.5697 162.025C89.7122 151.386 93.2477 140.058 99.0372 131.402C103.895 124.137 109.696 118.042 112.027 110.78C114.965 101.624 112.172 91.9232 108.616 81.0637C104.998 70.0071 99.5234 60.46 98.8577 49.6235C98.3848 41.9116 100.63 33.9294 104.196 26.7672C110.393 14.3274 121.317 9.75817 125.428 -1.73865C129.296 -12.5558 128.346 -21.9659 124.695 -28.2096C120.783 -34.8993 110.567 -40.1455 100.336 -36.7049C93.763 -34.4949 86.5831 -32.0102 79.6017 -28.6967C71.8895 -25.0364 62.9407 -24.2437 56.2076 -27.8592C50.0596 -31.1615 45.4513 -37.5105 39.7841 -43.0678C34.8447 -47.9122 29.7399 -52.0853 24.2665 -54.7453C17.6554 -57.9614 10.2677 -59.1038 2.95543 -57.7562" stroke="#D8D8D8" stroke-miterlimit="10"/>
<path d="M117.191 191.854C105.388 185.699 93.7943 175.135 91.1773 160.826C89.2161 150.103 92.6827 138.59 98.6736 129.965C103.641 122.815 109.716 117.028 112.497 109.853C115.999 100.816 113.969 90.7197 110.498 79.875C106.898 68.6353 100.804 59.128 99.8076 48.0588C99.0917 40.0939 101.277 31.8013 104.855 24.3918C110.629 12.4331 120.68 7.33551 124.693 -3.80953C128.408 -14.1289 127.88 -23.3998 124.364 -29.7981C120.649 -36.5597 110.913 -41.6207 101.196 -38.9308C94.5672 -37.0978 87.4195 -34.82 80.5077 -31.5874C73.0939 -28.1209 64.62 -27.0433 58.0019 -30.1341C51.748 -33.0557 46.9214 -39.1011 41.3633 -44.6231C36.4227 -49.5334 31.4465 -53.9911 25.9996 -56.9609C19.35 -60.5857 11.7937 -62.0804 4.26975 -60.9752" stroke="#DEDEDE" stroke-miterlimit="10"/>
<path d="M117.472 191.397C105.495 184.834 93.5811 174.254 90.7877 159.62C88.726 148.813 92.1214 137.115 98.315 128.521C103.389 121.48 109.736 116.008 112.968 108.917C117.032 99.9964 115.764 89.5062 112.371 78.6782C108.793 67.2555 102.075 57.7871 100.755 46.4829C99.7936 38.2697 101.931 29.6679 105.512 22.0035C110.874 10.5313 120.047 4.89734 123.961 -5.89519C127.524 -15.7157 127.412 -24.848 124.035 -31.4007C120.513 -38.2318 111.256 -43.1416 102.057 -41.1747C95.3684 -39.7429 88.2601 -37.6459 81.4156 -34.4946C74.5712 -31.3433 66.2965 -29.8425 59.7955 -32.4243C53.2944 -35.006 48.3926 -40.7055 42.9412 -46.1953C37.9994 -51.1689 33.1551 -55.9169 27.7342 -59.1916C21.0468 -63.2259 13.3207 -65.0741 5.58944 -64.2141" stroke="#E3E3E3" stroke-miterlimit="10"/>
<path d="M117.746 190.946C105.598 183.977 93.3667 173.377 90.3977 158.421C88.2334 147.529 91.5558 135.643 97.953 127.083C103.133 120.154 109.74 114.988 113.43 107.992C118.039 99.1792 117.544 88.3021 114.232 77.4886C110.677 65.8823 103.339 56.4594 101.695 44.9165C100.49 36.4547 102.588 27.5443 106.166 19.6237C111.123 8.64001 119.396 2.45943 123.232 -7.97108C126.625 -17.2971 126.943 -26.2851 123.705 -32.9924C120.468 -39.6998 111.597 -44.6856 102.911 -43.407C96.1656 -42.414 89.0972 -40.4609 82.3179 -37.3944C75.5386 -34.3279 67.9633 -32.6232 61.5802 -34.706C55.1971 -36.7888 49.8567 -42.2999 44.5115 -47.7546C39.5717 -52.7939 34.8588 -57.8328 29.4588 -61.411C22.7401 -65.8605 14.8421 -68.0574 6.90199 -67.4406" stroke="#E9E9E9" stroke-miterlimit="10"/>
<path d="M118.013 190.489C105.694 183.114 93.1518 172.493 90.0028 157.216C87.7395 146.237 90.9865 134.161 97.5882 125.639C102.871 118.816 109.752 113.967 113.886 107.057C119.053 98.3642 119.312 87.0853 116.08 76.2919C112.549 64.5023 104.587 55.1268 102.628 43.3405C101.181 34.6297 103.252 25.4177 106.812 17.2324C111.375 6.73992 118.763 0.0190478 122.5 -10.0545C125.744 -18.879 126.466 -27.7264 123.372 -34.5908C120.23 -41.5623 111.944 -46.2715 103.759 -45.6471C96.9622 -45.1275 89.9296 -43.285 83.2152 -40.3006C76.5008 -37.3162 69.6276 -35.3923 63.3567 -36.9931C56.7794 -38.6722 51.3173 -43.9003 46.0755 -49.3203C41.1383 -54.4282 36.5588 -59.7554 31.1801 -63.6377C24.433 -68.5028 16.3591 -71.0472 8.21457 -70.6764" stroke="#EEEEEE" stroke-miterlimit="10"/>
<path d="M118.278 190.039C105.793 182.254 92.9386 171.617 89.6111 156.017C87.2518 144.95 90.4186 132.685 97.2236 124.2C102.609 117.486 109.761 112.955 114.334 106.132C120.057 97.5554 121.087 85.8712 117.914 75.1006C114.43 63.1193 105.825 53.7997 103.551 41.7723C101.856 32.817 103.919 23.2998 107.449 14.8448C111.623 4.84519 118.126 -2.41711 121.765 -12.1357C124.86 -20.4574 125.983 -29.164 123.033 -36.1856C120.075 -43.2284 112.303 -47.8852 104.595 -47.8857C97.7576 -47.8844 90.7494 -46.1032 84.1009 -43.2095C77.885 -40.5039 71.2808 -38.1522 65.1181 -39.2819C58.4389 -40.508 52.7708 -45.5112 47.6279 -50.8827C42.702 -56.0665 38.2499 -61.6779 32.8871 -65.8628C26.1152 -71.1466 17.8666 -74.039 9.51634 -73.915" stroke="#F4F4F4" stroke-miterlimit="10"/>
<path d="M118.546 189.582C105.893 181.389 92.7535 170.724 89.2291 154.81C86.7878 143.653 89.8618 131.198 96.871 122.754C102.358 116.144 109.782 111.937 114.792 105.2C121.07 96.7438 122.836 84.6598 119.748 73.9047C116.282 61.7411 107.065 52.4738 104.479 40.1965C102.539 30.9963 104.607 21.1814 108.093 12.4509C111.888 2.94412 117.504 -4.85873 121.043 -14.2218C123.986 -22.0401 125.506 -30.6032 122.704 -37.7845C119.926 -44.8963 112.698 -49.5303 105.439 -50.1325C98.5814 -50.699 91.581 -48.9273 84.9989 -46.1274C79.0805 -43.609 72.9543 -40.9079 66.8882 -41.5788C60.1153 -42.3296 54.2253 -47.1129 49.1885 -52.4546C44.2599 -57.7024 39.9513 -63.6074 34.6026 -68.0987C27.8091 -73.8016 19.3821 -77.0434 10.8298 -77.1635" stroke="#F9F9F9" stroke-miterlimit="10"/>
<path d="M118.81 189.125C105.99 180.524 92.5301 169.845 88.8452 153.602C86.2958 142.362 89.2992 129.706 96.5159 121.306C102.102 114.803 109.796 110.916 115.242 104.265C122.071 95.9258 124.574 83.4446 121.572 72.7023C118.122 60.359 108.299 51.1416 105.401 38.6169C103.216 29.1716 105.309 19.0671 108.734 10.0523C112.159 1.04041 116.882 -7.30486 120.326 -16.3081C123.12 -23.6186 125.033 -32.044 122.379 -39.3825C119.781 -46.5661 113.132 -51.1972 106.283 -52.377C99.4333 -53.5569 92.4122 -51.7505 85.8936 -49.0422C80.2714 -46.7085 74.6324 -43.6471 68.6541 -43.871C61.7984 -44.1269 55.6745 -48.7059 50.746 -54.0173C45.8175 -59.3288 41.6499 -65.5312 36.3177 -70.3263C29.5059 -76.4516 20.9015 -80.0405 12.1464 -80.4082" stroke="white" stroke-miterlimit="10"/>
</g>
<g style="mix-blend-mode:multiply">
<path d="M196.466 71.3046C190.27 77.7921 177.572 76.6384 169.67 71.4798C161.768 66.3211 157.201 58.4144 151.904 51.2415C146.606 44.0686 139.499 36.9359 129.78 35.253C117.357 33.1042 104.705 40.5671 92.391 37.9754C82.7935 35.9552 76.4209 28.3417 73.3469 20.7663C71.6084 16.482 71.4704 11.7518 70.1561 7.37615C64.2002 -12.4712 80.6853 -27.5604 70.9708 -40.6318C60.4526 -54.7853 46.5133 -55.7628 39.3505 -54.2167C30.1751 -52.2359 9.35111 -44.4398 11.7952 -23.987C12.7868 -15.678 13.4242 -7.19764 11.6209 0.976464C8.92177 13.2173 -4.26101 23.881 -18.9027 22.9647C-28.9361 22.3368 -38.6522 16.7324 -48.4047 18.695C-54.9574 20.0131 -60.0438 24.7046 -62.3904 30.0692C-64.7369 35.4338 -64.6643 41.3918 -63.6328 47.0885" stroke="white" stroke-miterlimit="10"/>
<path d="M196.489 70.6056C189.827 77.0147 176.85 76.1472 168.591 70.9394C160.529 65.8561 155.825 57.8731 150.675 50.587C145.586 43.3871 138.898 36.2372 129.565 34.271C117.635 31.7682 105.189 38.4565 92.9424 35.8227C83.2086 33.7082 76.5198 26.5632 72.9433 19.1647C70.89 14.9139 70.3553 10.1043 68.9166 5.57698C62.8151 -13.6139 78.5471 -28.3876 69.0575 -41.1739C58.8453 -54.9225 45.2985 -56.156 38.1076 -54.7585C28.9941 -52.9904 8.97524 -45.4413 10.8197 -25.7627C11.5812 -17.6507 11.9349 -9.27982 10.1042 -1.20197C7.4359 10.7014 -5.18811 21.0527 -19.3503 20.4616C-29.1492 20.0528 -38.7892 14.8762 -48.4477 16.7832C-55.061 18.0778 -60.245 22.5437 -62.88 27.7014C-65.5394 32.9057 -65.9346 38.7758 -65.2559 44.4973" stroke="#FBFBFB" stroke-miterlimit="10"/>
<path d="M196.512 69.9701C189.383 76.3056 176.134 75.7212 167.511 70.462C158.889 65.2028 154.449 57.3928 149.449 49.9889C144.566 42.7618 138.302 35.5903 129.354 33.3407C117.92 30.4841 105.67 36.423 93.4986 33.7271C83.6238 31.537 76.6116 24.8337 72.5474 17.6109C70.1713 13.3888 69.2481 8.50191 67.6821 3.82381C61.4721 -14.7193 76.4143 -29.1823 67.1515 -41.6885C57.2478 -55.0377 44.0978 -56.5243 36.8772 -55.2797C27.8315 -53.7176 8.60587 -46.4141 9.86075 -27.5048C10.3875 -19.5796 10.4606 -11.3222 8.60223 -3.3377C5.9643 8.23301 -6.10585 18.2779 -19.7836 18.0113C-29.3497 17.8232 -38.909 13.0694 -48.4755 14.9237C-55.1461 16.1956 -60.4367 20.4419 -63.3541 25.3908C-66.2715 30.3396 -67.1872 36.219 -66.8655 41.9716" stroke="#F6F6F6" stroke-miterlimit="10"/>
<path d="M196.528 69.3368C188.935 75.5961 175.41 75.2914 166.426 69.9843C158.053 65.037 153.068 56.9136 148.214 49.3951C143.534 42.1411 137.696 34.9492 129.136 32.4174C118.199 29.2057 106.149 34.3869 94.05 31.6389C84.0351 29.3639 76.6862 23.1105 72.1452 16.0651C69.4403 11.8713 68.1368 6.90877 66.4407 2.07796C60.149 -15.8236 74.274 -29.9685 65.2379 -42.1938C55.6424 -55.1431 42.889 -56.8821 35.6409 -55.7874C26.6628 -54.4311 8.21465 -47.3653 8.89255 -29.234C9.18092 -21.4915 8.95139 -13.3581 7.09372 -5.46178C4.44924 5.76903 -7.03397 15.5208 -20.223 15.5687C-29.5567 15.6032 -39.0292 11.2898 -48.5097 13.0709C-55.237 14.3349 -60.6381 18.3465 -63.8353 23.0867C-67.1368 27.9825 -68.4506 33.6704 -68.4825 39.4489" stroke="#F2F2F2" stroke-miterlimit="10"/>
<path d="M196.55 68.7013C188.49 74.8863 174.696 74.8592 165.345 69.5064C156.819 64.6266 151.686 56.4397 146.985 48.8008C142.505 41.5252 137.097 34.309 128.922 31.493C118.479 27.9295 106.628 32.3494 94.602 29.5523C84.4471 27.1902 76.7519 21.3899 71.7394 14.5228C68.6995 10.3569 67.0268 5.32057 65.1946 0.337122C58.8479 -16.9272 72.1289 -30.7518 63.319 -42.6936C54.0288 -55.2433 41.6777 -57.2333 34.3966 -56.2913C25.4884 -55.1376 7.80254 -48.3039 7.91907 -30.9605C7.96851 -23.3986 7.45666 -15.3896 5.57676 -7.58452C2.95402 3.31209 -7.97358 12.7671 -20.6708 13.129C-29.7781 13.3873 -39.1642 9.49629 -48.5521 11.2174C-55.3373 12.461 -60.8567 16.2495 -64.3281 20.7819C-67.7995 25.3143 -69.7235 31.1211 -70.1124 36.9271" stroke="#EEEEEE" stroke-miterlimit="10"/>
<path d="M196.569 68.0728C188.041 74.1805 173.98 74.4305 164.26 69.0349C155.583 64.2184 150.3 55.9735 145.751 48.2152C141.47 40.9187 136.5 33.6673 128.706 30.5824C118.767 26.6523 107.108 30.3263 95.1505 27.4825C84.8551 25.0339 76.7982 19.6892 71.332 12.9952C67.9539 8.85715 65.9147 3.74566 63.9454 -1.38475C57.5677 -18.0166 69.9797 -31.5135 61.3968 -43.1762C52.4148 -55.3258 40.4626 -57.5638 33.1483 -56.7744C24.3098 -55.8228 7.37058 -49.2132 6.94064 -32.663C6.74708 -25.2748 5.95345 -17.3954 4.05456 -9.68419C1.45353 0.878104 -8.92217 10.0431 -21.1201 10.7093C-30.0045 11.1954 -39.2979 7.72178 -48.5964 9.38493C-55.4398 10.6081 -61.0809 14.1758 -64.8209 18.4988C-68.7894 23.0879 -70.9995 28.5904 -71.7427 34.4236" stroke="#E9E9E9" stroke-miterlimit="10"/>
<path d="M196.587 67.4394C187.593 73.4726 173.262 73.9912 163.171 68.5554C154.344 63.7998 148.905 55.4994 144.511 47.6227C140.43 40.308 135.894 33.0289 128.482 29.6662C119.042 25.3848 107.58 28.3007 95.6941 25.4131C85.2609 22.8786 76.8334 17.9876 70.9189 11.4672C67.1929 7.36095 64.7987 2.17361 62.6929 -3.108C56.3078 -19.1105 67.8266 -32.2778 59.4704 -43.6593C50.7969 -55.4094 39.2434 -57.8923 31.8993 -57.2594C23.1326 -56.5044 6.92007 -50.1185 5.95839 -34.3655C5.51837 -27.1488 4.44881 -19.4009 2.52839 -11.7863C-0.0506392 -1.56027 -9.87842 7.32447 -21.5759 8.28922C-30.2405 9.00451 -39.4405 5.94503 -48.6436 7.54858C-55.5453 8.75133 -61.3166 12.0953 -65.3171 16.2126C-69.6269 20.6478 -72.2772 26.0596 -73.3778 31.9194" stroke="#E5E5E5" stroke-miterlimit="10"/>
<path d="M196.601 66.8137C187.138 72.7699 172.543 73.5596 162.079 68.086C153.105 63.3913 147.507 55.04 143.267 47.0424C139.379 39.7089 135.283 32.4028 128.256 28.7634C119.314 24.1313 108.051 26.2891 96.2338 23.3575C85.6601 20.7346 76.8549 16.3049 70.5011 9.9538C66.4241 5.87886 63.6837 0.614412 61.4321 -4.8166C55.0583 -20.1969 65.665 -33.0303 57.5358 -44.1315C49.1718 -55.4856 38.0195 -58.2076 30.6398 -57.7315C21.9445 -57.1701 4.04227 -51.0619 4.96833 -36.0512C5.40397 -28.9686 2.93617 -21.391 0.993465 -13.8679C-1.56118 -3.97444 -10.8471 4.63504 -22.0392 5.88824C-30.4868 6.83421 -39.5868 4.18355 -48.7008 5.73184C-55.6635 6.91388 -61.5681 10.0344 -65.8237 13.9473C-70.4808 18.2283 -73.5688 23.5502 -75.0239 29.4344" stroke="#E1E1E1" stroke-miterlimit="10"/>
<path d="M196.616 66.1869C186.685 72.0666 171.828 73.1269 160.988 67.6151C151.868 62.9763 146.106 54.5756 142.027 46.4581C138.333 39.108 134.677 31.7746 128.036 27.8566C119.594 22.875 108.528 24.2764 96.7827 21.3012C86.0719 18.5879 76.8798 14.622 70.0901 8.43497C65.6559 4.39287 62.575 -0.95045 60.1772 -6.52828C53.8303 -21.2917 63.5092 -33.7896 55.6076 -44.6116C47.5533 -55.5689 36.8029 -58.5318 29.3908 -58.2141C20.7699 -57.8454 3.35619 -52.0065 3.98591 -37.7436C4.29502 -30.793 1.43018 -23.3841 -0.531659 -15.954C-3.05918 -6.39149 -11.81 1.95281 -22.4892 3.4872C-30.7233 4.67016 -39.7217 2.41988 -48.7432 3.91105C-55.7641 5.07282 -61.8076 7.96749 -66.316 11.6795C-71.326 15.8039 -74.8435 21.0371 -76.6598 26.9502" stroke="#DCDCDC" stroke-miterlimit="10"/>
<path d="M196.63 65.562C186.232 71.3683 171.109 72.6907 159.893 67.143C150.626 62.5598 144.699 54.1145 140.783 45.8724C137.283 38.5055 134.068 31.1448 127.81 26.9486C119.866 21.6202 109.003 22.263 97.3234 19.246C86.4722 16.4446 76.8925 12.946 69.6737 6.91593C64.8814 2.91129 61.4662 -2.51496 58.9168 -8.24244C52.6155 -22.3961 61.3475 -34.5545 53.6739 -45.0983C45.9298 -55.66 35.5843 -58.8606 28.1341 -58.7016C19.5871 -58.5202 2.68414 -52.9596 2.9986 -39.437C3.15876 -32.6056 -0.0780187 -25.379 -2.06516 -18.0398C-4.56569 -8.8071 -12.7791 -0.719535 -22.9492 1.08507C-30.9702 2.50928 -39.8659 0.653485 -48.7951 2.09013C-55.8738 3.2293 -62.0619 5.89814 -66.8176 9.41048C-72.1834 13.376 -76.1315 18.5258 -78.3032 24.466" stroke="#D8D8D8" stroke-miterlimit="10"/>
<path d="M196.644 64.9381C185.777 70.6686 170.396 72.2535 158.8 66.6743C149.391 62.1468 143.295 53.6564 139.541 45.2921C136.229 37.91 133.459 30.5197 127.59 26.0441C120.147 20.37 109.481 20.2556 97.871 17.1971C86.883 14.3033 76.906 11.2769 69.2637 5.40387C64.107 1.43822 60.3696 -4.07441 57.6622 -9.94959C51.4221 -23.4987 59.1915 -35.3156 51.7468 -45.5846C44.3135 -55.7521 34.3729 -59.1873 26.8853 -59.1915C18.4147 -59.1942 2.04775 -53.9203 2.01905 -41.1291C2.00206 -34.4051 -1.57935 -27.3691 -3.5915 -20.1227C-6.06517 -11.2187 -13.7452 -3.3777 -23.4016 -1.31038C-31.213 0.361384 -40.0014 -1.11025 -48.8385 0.274453C-55.9778 1.39079 -62.3104 3.83206 -67.3114 7.15049C-73.0383 10.9521 -77.4122 16.0245 -79.9392 21.9894" stroke="#D4D4D4" stroke-miterlimit="10"/>
<path d="M196.655 64.3138C185.318 69.9712 169.678 71.8153 157.705 66.2049C148.153 61.728 141.882 53.1964 138.297 44.7084C135.173 37.3109 132.851 29.8935 127.366 25.1384C120.421 19.119 109.956 18.2472 98.4169 15.1523C86.8779 12.0574 76.914 9.61761 68.8524 3.8918C63.3304 -0.0302854 59.2745 -5.63609 56.4084 -11.654C50.2421 -24.6039 57.0361 -36.0771 49.8203 -46.0699C42.6984 -55.8444 33.1629 -59.5139 25.6408 -59.6804C17.2467 -59.8668 4.28969 -54.5377 1.04097 -42.817C-0.7454 -36.3785 -3.07939 -29.3563 -5.11697 -22.1998C-7.56103 -13.6231 -14.7091 -6.01581 -23.849 -3.70076C-31.4483 -1.77686 -40.1316 -2.86805 -48.8728 -1.53958C-56.0699 -0.44565 -62.5553 1.76529 -67.7965 4.89345C-73.8906 8.53112 -78.6816 13.5248 -81.5677 19.5192" stroke="#CFCFCF" stroke-miterlimit="10"/>
<path d="M196.661 63.6871C184.857 69.2697 168.957 71.37 156.604 65.7304C146.909 61.3038 140.463 52.7333 137.045 44.1187C134.106 36.7077 132.235 29.2587 127.137 24.2273C120.69 17.8656 110.426 16.2357 98.9561 13.1018C87.6914 10.0255 76.9122 7.9536 68.4315 2.37206C62.5408 -1.50462 58.1728 -7.20771 55.1421 -13.3688C49.0622 -25.7249 54.8933 -36.8638 47.8817 -46.5697C40.87 -56.2756 31.941 -59.851 24.3819 -60.1821C16.0608 -60.5474 3.67223 -55.4318 0.0512055 -44.514C-2.03609 -38.2227 -4.58907 -31.3486 -6.65433 -24.2868C-9.06602 -16.036 -15.6831 -8.65199 -24.3108 -6.09757C-31.6962 -3.91216 -40.2751 -4.63617 -48.9239 -3.35928C-56.1815 -2.288 -62.8163 -0.311221 -68.2986 2.63203C-74.759 6.09904 -79.9717 11.0238 -83.2135 17.0433" stroke="#CBCBCB" stroke-miterlimit="10"/>
<path d="M196.665 63.0696C184.39 68.5798 168.235 70.9336 155.497 65.2668C145.661 60.8903 139.034 52.2803 135.79 43.5404C133.034 36.1154 131.615 28.637 126.904 23.3276C120.956 16.622 110.895 14.2361 99.4943 11.0655C88.0932 7.89487 76.9087 6.30765 68.0123 0.865496C61.7525 -2.96355 57.0815 -8.76759 53.8771 -15.0703C47.8937 -26.8403 52.7268 -37.6304 45.9473 -47.0591C39.4718 -56.0633 30.7236 -60.1759 23.1282 -60.6761C14.8828 -61.217 3.02561 -56.3188 -0.936261 -46.2006C-3.34202 -40.0579 -6.09691 -33.3296 -8.19025 -26.3596C-10.5697 -18.4339 -16.6516 -11.2599 -24.7701 -8.48164C-31.9427 -6.02571 -40.4151 -6.3954 -48.9714 -5.16995C-56.2896 -4.12124 -63.0736 -2.38042 -68.7975 0.380786C-75.627 3.67487 -81.2563 8.53387 -84.8573 14.5805" stroke="#C7C7C7" stroke-miterlimit="10"/>
<path d="M196.668 62.4423C183.923 67.878 167.512 70.485 154.393 64.7936C144.417 60.4649 137.606 51.8172 134.537 42.9543C131.961 35.5149 130.996 28.0075 126.676 22.4208C121.227 15.3742 111.367 12.2314 100.035 9.0241C88.4951 5.75889 76.9104 4.66067 67.5957 -0.645288C60.9659 -4.42212 55.9988 -10.3359 52.6138 -16.7736C46.7363 -27.9606 50.5615 -38.3991 44.0121 -47.5543C37.8494 -56.169 29.5063 -60.5073 21.877 -61.1735C13.7069 -61.8872 2.35092 -57.2165 -1.91811 -47.8894C-4.65988 -41.8969 -7.5967 -35.3115 -9.71817 -28.433C-12.0626 -20.831 -17.6071 -13.8588 -25.2207 -10.8651C-32.1726 -8.13099 -40.5491 -8.15328 -49.0098 -6.97879C-56.3854 -5.95464 -63.3244 -4.44988 -69.2875 -1.86749C-76.4889 1.25143 -82.5354 6.04741 -86.4926 12.1193" stroke="#C2C2C2" stroke-miterlimit="10"/>
<path d="M196.672 61.8277C183.456 67.1893 166.789 70.0489 153.289 64.3304C143.172 60.0466 136.176 51.3656 133.286 42.3752C130.889 34.921 130.38 27.3841 126.447 21.5178C121.495 14.1304 111.842 10.2327 100.576 6.99077C88.8998 3.63135 76.9089 3.02273 67.1795 -2.15205C60.1797 -5.87698 54.9226 -11.9023 51.3512 -18.4756C45.5894 -29.0852 48.3969 -39.1696 42.0783 -48.0548C36.2289 -56.2813 28.2904 -60.8402 20.6256 -61.6796C12.5281 -62.5662 1.64299 -58.1329 -2.9005 -49.5812C-6.0009 -43.7458 -9.09712 -37.2975 -11.25 -30.508C-13.5595 -23.2285 -18.5566 -16.4442 -25.6721 -13.2457C-32.3956 -10.2235 -40.68 -9.91173 -49.0482 -8.78596C-56.4838 -7.78658 -63.5777 -6.51964 -69.7776 -4.11282C-77.3504 -1.17329 -83.8118 3.56275 -88.1289 9.66456" stroke="#BEBEBE" stroke-miterlimit="10"/>
<path d="M196.67 61.2056C182.987 66.4961 166.065 69.6007 152.178 63.8614C141.921 59.6226 134.732 50.905 132.027 41.7903C129.807 34.3232 129.756 26.7549 126.214 20.6122C121.758 12.8845 112.313 8.23121 101.116 4.95501C89.3062 1.49949 76.9053 1.38623 66.7589 -3.66281C59.3882 -7.33121 53.8509 -13.4765 50.0865 -20.181C44.4501 -30.2184 46.2269 -39.9439 40.1423 -48.5594C34.6037 -56.3989 27.0701 -61.1781 19.3722 -62.1876C11.6742 -63.197 0.903413 -59.0658 -3.88788 -51.2725C-7.37171 -45.6061 -10.6004 -39.2795 -12.7873 -32.5813C-14.9743 -25.883 -19.5037 -19.0184 -26.1308 -15.6266C-32.6156 -12.3058 -40.8205 -11.672 -49.0901 -10.5965C-56.5858 -9.62185 -63.831 -8.59666 -70.2715 -6.36056C-78.2152 -3.60477 -85.0956 1.07839 -89.7693 7.20568" stroke="#BABABA" stroke-miterlimit="10"/>
<path d="M196.669 60.5898C182.515 65.8067 165.341 69.1585 151.068 63.3989C140.674 59.2025 133.291 50.4529 130.767 41.2113C128.725 33.729 129.114 26.1366 125.978 19.7126C122.001 11.6503 112.781 6.23779 101.65 2.927C89.7048 -0.624799 76.8992 -0.240707 66.3357 -5.16436C58.5908 -8.77437 52.7858 -15.0453 48.8157 -21.8751C43.309 -31.3485 44.0348 -40.7012 38.2004 -49.0556C32.9567 -56.4988 25.8466 -61.503 18.1166 -62.6894C10.3866 -63.8757 0.135599 -60.0117 -4.87462 -52.9547C-8.76602 -47.4741 -12.1005 -41.2511 -14.3244 -34.6443C-16.5483 -28.0374 -20.4371 -21.5723 -26.5891 -17.9938C-32.8215 -14.3663 -40.957 -13.4219 -49.1341 -12.3925C-56.69 -11.4425 -64.0866 -10.6585 -70.7679 -8.59273C-79.0824 -6.02263 -86.3795 -1.38949 -91.4132 4.7654" stroke="#B5B5B5" stroke-miterlimit="10"/>
<path d="M196.666 59.9686C182.04 65.1146 164.615 68.7085 149.957 62.9283C139.422 58.7738 131.845 49.9921 129.508 40.6265C127.637 33.1304 128.492 25.5046 125.747 18.8074C122.27 10.4039 113.254 4.23834 102.193 0.895625C90.1114 -2.75475 76.9006 -1.86955 65.9206 -6.67301C57.8039 -10.2221 51.7412 -16.6272 47.553 -23.5788C42.1854 -32.491 41.8699 -41.4806 36.2669 -49.5648C31.3377 -56.6227 24.6291 -61.8397 16.867 -63.2026C8.98488 -64.5865 -0.645914 -60.9919 -5.85837 -54.6457C-10.1862 -49.3756 -13.5984 -43.2284 -15.8586 -36.7172C-18.1188 -30.206 -21.3534 -24.1306 -27.0407 -20.3718C-33.0071 -16.4294 -41.0894 -15.1817 -49.1705 -14.2028C-56.786 -13.2796 -64.331 -12.7384 -71.2567 -10.8381C-79.9416 -8.45794 -87.6588 -3.87248 -93.0497 2.31048" stroke="#B1B1B1" stroke-miterlimit="10"/>
<path d="M196.661 59.3498C181.567 64.4232 163.888 68.2584 148.844 62.4623C138.171 58.3498 130.394 49.5351 128.248 40.0436C126.549 32.5312 127.871 24.8745 125.512 17.9039C122.532 9.15927 113.729 2.22602 102.728 -1.13025C90.523 -4.89952 76.8953 -3.49375 65.4988 -8.17737C57.013 -11.6655 50.7022 -18.2107 46.2833 -25.2782C41.0588 -33.6351 39.6979 -42.2581 34.3266 -50.0728C29.7123 -56.7464 23.4025 -62.1761 15.6145 -63.717C7.82652 -65.2578 -1.44288 -62.0053 -6.84222 -56.335C-11.635 -51.3021 -15.0935 -45.205 -17.3908 -38.7845C-19.5421 -32.7803 -22.2533 -26.6779 -27.493 -22.7411C-33.171 -18.4744 -41.2228 -16.9485 -49.2073 -16.0028C-56.8869 -15.1167 -64.5759 -14.8075 -71.7458 -13.0746C-80.7983 -10.8837 -88.9362 -6.34335 -94.6874 -0.132544" stroke="#ADADAD" stroke-miterlimit="10"/>
<path d="M196.652 58.7307C181.086 63.7337 163.165 67.7895 147.723 61.9955C136.92 57.9113 128.932 49.0792 126.98 39.4597C125.452 31.9334 127.24 24.243 125.273 16.9977C122.794 7.91286 114.193 0.238867 103.26 -3.15917C90.9155 -7.01994 76.8887 -5.11676 65.0702 -9.68386C56.2117 -13.1067 49.6723 -19.8065 45.0094 -26.9792C39.9321 -34.7887 37.522 -43.0416 32.3823 -50.5851C28.0835 -56.8776 22.1716 -62.5126 14.3552 -64.2338C6.60981 -65.9396 -2.24703 -63.0564 -7.83589 -58.0247C-13.1173 -53.2698 -16.5933 -47.1782 -18.936 -40.8514C-21.0417 -35.1622 -23.1486 -29.2242 -27.9575 -25.1116C-33.327 -20.5166 -41.3646 -18.7003 -49.2558 -17.8051C-56.9929 -16.9407 -64.8323 -16.8808 -72.2472 -15.3102C-81.6669 -13.3129 -90.2292 -8.81298 -96.3376 -2.57636" stroke="#A8A8A8" stroke-miterlimit="10"/>
<path d="M196.642 58.1158C180.604 63.0466 162.424 67.3594 146.606 61.5308C135.657 57.497 127.471 48.6217 125.712 38.8787C124.351 31.3348 126.611 23.6134 125.032 16.0954C123.053 6.67031 114.654 -1.74626 103.794 -5.18321C91.3125 -9.13287 76.8844 -6.73577 64.6472 -11.1889C55.419 -14.5466 48.664 -21.4094 43.738 -28.6777C38.8119 -35.9459 35.3484 -43.823 30.4414 -51.1011C26.4582 -57.0113 20.945 -62.854 13.1005 -64.7576C5.42032 -66.6208 -3.03443 -64.1531 -8.82184 -59.7184C-14.6089 -55.2861 -18.0856 -49.1543 -20.4739 -42.9205C-22.534 -37.5452 -24.0183 -31.7737 -28.4117 -27.4799C-33.4518 -22.5569 -41.496 -20.4482 -49.29 -19.6078C-57.087 -18.7677 -65.0738 -18.9562 -72.7342 -17.5451C-82.5207 -15.7432 -91.5047 -11.2831 -97.974 -5.01584" stroke="#A4A4A4" stroke-miterlimit="10"/>
</g>
</svg>
