<svg width="16" height="16" viewBox="0 0 16 16" fill="none" xmlns="http://www.w3.org/2000/svg">
<g clip-path="url(#clip0_3103_1325)">
<path d="M3.69319 13.9334C3.31319 13.9334 2.95986 13.8001 2.69986 13.5601C2.37319 13.2534 2.21986 12.7867 2.27986 12.2934L2.52653 10.1334C2.57319 9.74675 2.80653 9.23341 3.07986 8.94674L8.55319 3.14674C9.87319 1.74674 11.2532 1.71341 12.6465 3.03341C13.4132 3.76008 13.7799 4.51341 13.7265 5.26674C13.6865 5.88008 13.3665 6.49341 12.7599 7.13341L7.28653 12.9267C7.01319 13.2134 6.51986 13.4801 6.13319 13.5467L3.98653 13.9134C3.88653 13.9334 3.78653 13.9401 3.68653 13.9401L3.69319 13.9334ZM9.13319 3.70008L3.65986 9.49341C3.50653 9.65341 3.34653 10.0001 3.31986 10.2201L3.07319 12.3801C3.04653 12.6334 3.10653 12.8401 3.25319 12.9801C3.39319 13.1134 3.61319 13.1667 3.85986 13.1201L6.00653 12.7534C6.21986 12.7201 6.55986 12.5334 6.71319 12.3734L12.1865 6.58008C12.6599 6.08008 12.9065 5.63341 12.9332 5.20674C12.9665 4.70008 12.6999 4.17341 12.0999 3.61341C11.0199 2.58674 10.1599 2.61341 9.13319 3.69341V3.70008Z" fill="#009CB5" stroke="#009CB5" stroke-width="0.5" stroke-linejoin="bevel"/>
<path d="M11.5602 8.21967C11.5602 8.21967 11.5335 8.21967 11.5202 8.21967C9.48686 8.01967 7.84686 6.473 7.53353 4.453C7.50019 4.233 7.64686 4.033 7.86686 3.993C8.08019 3.95967 8.28686 4.10633 8.32686 4.32633C8.58686 5.98633 9.93353 7.25967 11.6002 7.41967C11.8202 7.43967 11.9802 7.63967 11.9602 7.85967C11.9402 8.06633 11.7669 8.21967 11.5602 8.21967Z" fill="#009CB5" stroke="#009CB5" stroke-width="0.5" stroke-linejoin="bevel"/>
</g>
<defs>
<clipPath id="clip0_3103_1325">
<rect width="16" height="16" fill="white"/>
</clipPath>
</defs>
</svg>
