<svg width="24" height="28" viewBox="0 0 24 28" fill="none" xmlns="http://www.w3.org/2000/svg">
<rect x="0.5" y="0.5" width="23" height="27" rx="3.5" fill="white"/>
<rect x="0.5" y="0.5" width="23" height="27" rx="3.5" stroke="#E7EBEB"/>
<path fill-rule="evenodd" clip-rule="evenodd" d="M6.58615 8.11243C9.73337 5.21695 14.6159 5.3021 17.6568 8.34301C20.7811 11.4673 20.7811 16.5324 17.6568 19.6567C14.5327 22.7808 9.46723 22.7808 6.34312 19.6567C4.89547 18.209 4 16.209 4 13.9999C4 13.4509 4.83414 13.4509 4.83414 13.9999C4.83414 17.9575 8.04233 21.1658 12 21.1658C15.9578 21.1658 19.166 17.9575 19.166 13.9999C19.166 8.72666 13.6669 5.29961 8.95967 7.50727C8.28873 7.82194 7.67433 8.23776 7.13655 8.73483H8.86385C9.41301 8.73483 9.41301 9.56897 8.86385 9.56897H6.16908C5.93868 9.56897 5.75201 9.3823 5.75201 9.1519V6.45695C5.75201 5.90797 6.58615 5.90797 6.58615 6.45695V8.11243Z" fill="black"/>
</svg>
