<svg width="32" height="32" viewBox="0 0 32 32" fill="none" xmlns="http://www.w3.org/2000/svg">
<g clip-path="url(#clip0_3050_27916)">
<path d="M15.3704 24.9596C11.1304 24.9596 7.69043 21.5096 7.69043 17.2796C7.69043 13.0496 11.1404 9.59961 15.3704 9.59961C19.6004 9.59961 22.8304 12.7996 23.0404 16.8896C23.0504 17.1696 22.8404 17.3996 22.5704 17.4096C22.2504 17.4296 22.0604 17.2096 22.0504 16.9396C21.8704 13.3896 18.9404 10.5996 15.3804 10.5996C11.8204 10.5996 8.70043 13.5996 8.70043 17.2796C8.70043 20.9596 11.7004 23.9596 15.3804 23.9596C15.8504 23.9596 16.3104 23.9096 16.7604 23.8196C17.0304 23.7596 17.3004 23.9396 17.3504 24.2096C17.4104 24.4796 17.2304 24.7496 16.9604 24.7996C16.4404 24.9096 15.9104 24.9596 15.3704 24.9596Z" fill="black"/>
<path d="M15.3701 27.3302C9.83008 27.3302 5.33008 22.8202 5.33008 17.2802C5.33008 11.7402 9.84008 7.24023 15.3701 7.24023C20.9001 7.24023 25.4101 11.7502 25.4101 17.2802C25.4101 17.5802 25.4001 17.8802 25.3701 18.1702C25.3501 18.4502 25.1201 18.6602 24.8301 18.6202C24.5601 18.6002 24.3501 18.3502 24.3801 18.0802C24.4001 17.8202 24.4201 17.5502 24.4201 17.2802C24.4201 12.2902 20.3601 8.24023 15.3801 8.24023C10.4001 8.24023 6.34008 12.3002 6.34008 17.2802C6.34008 22.2602 10.4001 26.3302 15.3801 26.3302C16.4201 26.3302 17.4401 26.1502 18.4101 25.8102C18.6701 25.7202 18.9601 25.8502 19.0501 26.1102C19.1401 26.3702 19.0101 26.6602 18.7501 26.7502C17.6701 27.1302 16.5401 27.3302 15.3801 27.3302H15.3701Z" fill="black"/>
<path d="M15.3701 8.23992C15.0901 8.23992 14.8701 8.01992 14.8701 7.73992V5.16992C14.8701 4.88992 15.0901 4.66992 15.3701 4.66992C15.6501 4.66992 15.8701 4.88992 15.8701 5.16992V7.73992C15.8701 8.01992 15.6501 8.23992 15.3701 8.23992Z" fill="black"/>
<path d="M18.2699 5.66992H12.3799C12.0999 5.66992 11.8799 5.44992 11.8799 5.16992C11.8799 4.88992 12.0999 4.66992 12.3799 4.66992H18.2699C18.5499 4.66992 18.7699 4.88992 18.7699 5.16992C18.7699 5.44992 18.5499 5.66992 18.2699 5.66992Z" fill="black"/>
<path d="M23.4998 12.7696C23.3598 12.7696 23.2298 12.7096 23.1298 12.5996C22.9498 12.3896 22.9598 12.0796 23.1698 11.8896L24.1998 10.9696L21.4798 8.27957L20.4498 9.31957C20.2598 9.51957 19.9398 9.51957 19.7398 9.31957C19.5398 9.12957 19.5398 8.80957 19.7398 8.60957L21.1198 7.20957C21.2098 7.11957 21.3398 7.05957 21.4698 7.05957C21.5998 7.05957 21.7298 7.10957 21.8198 7.19957L25.2798 10.6196C25.3798 10.7196 25.4298 10.8496 25.4298 10.9896C25.4298 11.1296 25.3698 11.2596 25.2598 11.3496L23.8398 12.6296C23.7398 12.7196 23.6298 12.7596 23.5098 12.7596L23.4998 12.7696Z" fill="black"/>
<path d="M15.1396 18.4496C15.0496 18.4496 14.9496 18.4196 14.8696 18.3696L12.3396 16.7296C12.1096 16.5796 12.0396 16.2696 12.1896 16.0396C12.3396 15.8096 12.6496 15.7396 12.8796 15.8896L15.1296 17.3496L19.5196 14.3096C19.7496 14.1496 20.0596 14.2096 20.2196 14.4396C20.3796 14.6696 20.3196 14.9796 20.0896 15.1396L15.4296 18.3696C15.3396 18.4296 15.2396 18.4596 15.1396 18.4596V18.4496Z" fill="black"/>
<path d="M21.1201 16.9397L21.3201 26.8297C21.3201 26.8297 26.2501 26.8997 26.1201 21.1397C25.0101 16.7497 21.1201 16.9397 21.1201 16.9397Z" fill="url(#paint0_linear_3050_27916)"/>
<path d="M21.2205 27.3297C18.2205 27.3297 15.7705 24.8897 15.7705 21.8797C15.7705 18.8697 18.2105 16.4297 21.2205 16.4297C24.2305 16.4297 26.6705 18.8697 26.6705 21.8797C26.6705 24.8897 24.2305 27.3297 21.2205 27.3297ZM21.2205 17.4397C18.7705 17.4397 16.7705 19.4297 16.7705 21.8897C16.7705 24.3497 18.7605 26.3397 21.2205 26.3397C23.6805 26.3397 25.6705 24.3497 25.6705 21.8897C25.6705 19.4297 23.6805 17.4397 21.2205 17.4397Z" fill="black"/>
<path d="M23.2903 19.8799H19.7803C19.5003 19.8799 19.2803 19.6599 19.2803 19.3799C19.2803 19.0999 19.5003 18.8799 19.7803 18.8799H23.2903C23.5703 18.8799 23.7903 19.0999 23.7903 19.3799C23.7903 19.6599 23.5703 19.8799 23.2903 19.8799Z" fill="black"/>
<path d="M23.2902 21.6396H19.1602C18.8802 21.6396 18.6602 21.4196 18.6602 21.1396C18.6602 20.8596 18.8802 20.6396 19.1602 20.6396H23.2902C23.5702 20.6396 23.7902 20.8596 23.7902 21.1396C23.7902 21.4196 23.5702 21.6396 23.2902 21.6396Z" fill="black"/>
<path d="M21.9298 25.6098C21.8098 25.6098 21.6898 25.5698 21.5998 25.4898L18.8398 23.0498C18.6298 22.8698 18.6098 22.5498 18.7998 22.3398C18.9798 22.1298 19.2998 22.1098 19.5098 22.2998L22.2698 24.7398C22.4798 24.9198 22.4998 25.2398 22.3098 25.4498C22.2098 25.5598 22.0698 25.6198 21.9298 25.6198V25.6098Z" fill="black"/>
<path d="M19.7802 23.1701H19.1602C18.8802 23.1701 18.6602 22.9501 18.6602 22.6701C18.6602 22.3901 18.8802 22.1701 19.1602 22.1701H19.7802C20.4102 22.1701 20.9302 21.6501 20.9302 21.0201C20.9302 20.3901 20.4102 19.8701 19.7802 19.8701H19.1602C18.8802 19.8701 18.6602 19.6501 18.6602 19.3701C18.6602 19.0901 18.8802 18.8701 19.1602 18.8701H19.7802C20.9602 18.8701 21.9302 19.8301 21.9302 21.0201C21.9302 22.2101 20.9702 23.1701 19.7802 23.1701Z" fill="black"/>
</g>
<defs>
<linearGradient id="paint0_linear_3050_27916" x1="23.2301" y1="27.4797" x2="23.6801" y2="18.0797" gradientUnits="userSpaceOnUse">
<stop stop-color="#009CB5"/>
<stop offset="1" stop-color="#71C6AC"/>
</linearGradient>
<clipPath id="clip0_3050_27916">
<rect width="32" height="32" fill="white"/>
</clipPath>
</defs>
</svg>
