<svg width="32" height="32" viewBox="0 0 32 32" fill="none" xmlns="http://www.w3.org/2000/svg">
<g clip-path="url(#clip0_3050_24009)">
<path d="M19.46 5.43969H19.77C21.11 5.43969 22.19 6.52969 22.19 7.85969C22.19 9.19969 21.1 10.2797 19.77 10.2797H19.46V5.42969V5.43969Z" fill="url(#paint0_linear_3050_24009)"/>
<path d="M12.2598 12.6098V26.7298C12.2598 26.7298 15.6298 27.5998 15.6298 24.8798C15.6298 22.1598 15.6298 22.3098 15.6298 22.3098C15.6298 22.3098 15.1498 21.6198 16.9398 21.4098C18.7298 21.1998 17.4798 13.7798 17.4798 13.7798C17.4798 13.7798 15.9698 12.3198 14.1198 12.4698C12.2698 12.6198 12.2698 12.6198 12.2698 12.6198L12.2598 12.6098Z" fill="url(#paint1_linear_3050_24009)"/>
<path d="M12.2305 11.0998C10.4805 11.0998 9.06055 9.67977 9.06055 7.92977C9.06055 6.17977 10.4805 4.75977 12.2305 4.75977C13.9805 4.75977 15.4005 6.17977 15.4005 7.92977C15.4005 9.67977 13.9805 11.0998 12.2305 11.0998ZM12.2305 5.76977C11.0405 5.76977 10.0605 6.73977 10.0605 7.93977C10.0605 9.13977 11.0305 10.1098 12.2305 10.1098C13.4305 10.1098 14.4005 9.13977 14.4005 7.93977C14.4005 6.73977 13.4305 5.76977 12.2305 5.76977Z" fill="#0D1B1C"/>
<path d="M14.3102 27.2294H10.2102C9.21016 27.2294 8.39016 26.4094 8.39016 25.3994V22.3094C7.27016 22.1294 6.41016 21.1494 6.41016 19.9794V14.4694C6.41016 13.1694 7.47016 12.1094 8.77016 12.1094H15.7402C17.0402 12.1094 18.1002 13.1694 18.1002 14.4694V19.9794C18.1002 21.1494 17.2402 22.1294 16.1202 22.3094V25.3994C16.1202 26.4094 15.3002 27.2294 14.3002 27.2294H14.3102ZM8.77016 13.1094C8.02016 13.1094 7.41016 13.7194 7.41016 14.4694V19.9794C7.41016 20.7294 8.02016 21.3394 8.77016 21.3394H8.89016C9.17016 21.3394 9.39016 21.5594 9.39016 21.8394V25.3994C9.39016 25.8594 9.76016 26.2294 10.2102 26.2294H14.3102C14.7602 26.2294 15.1302 25.8594 15.1302 25.3994V21.8394C15.1302 21.5594 15.3502 21.3394 15.6302 21.3394H15.7502C16.5002 21.3394 17.1102 20.7294 17.1102 19.9794V14.4694C17.1102 13.7194 16.5002 13.1094 15.7502 13.1094H8.78016H8.77016Z" fill="#0D1B1C"/>
<path d="M19.7198 11.0998C17.9698 11.0998 16.5498 9.67977 16.5498 7.92977C16.5498 6.17977 17.9698 4.75977 19.7198 4.75977C21.4698 4.75977 22.8898 6.17977 22.8898 7.92977C22.8898 9.67977 21.4698 11.0998 19.7198 11.0998ZM19.7198 5.76977C18.5298 5.76977 17.5498 6.73977 17.5498 7.93977C17.5498 9.13977 18.5198 10.1098 19.7198 10.1098C20.9198 10.1098 21.8898 9.13977 21.8898 7.93977C21.8898 6.73977 20.9198 5.76977 19.7198 5.76977Z" fill="#0D1B1C"/>
<path d="M21.7904 27.2294H17.6904C17.4104 27.2294 17.1904 27.0094 17.1904 26.7294C17.1904 26.4494 17.4104 26.2294 17.6904 26.2294H21.7904C22.2404 26.2294 22.6104 25.8594 22.6104 25.3994V21.8394C22.6104 21.5594 22.8304 21.3394 23.1104 21.3394H23.2304C23.9804 21.3394 24.5904 20.7294 24.5904 19.9794V14.4694C24.5904 13.7194 23.9804 13.1094 23.2304 13.1094H18.9404C18.6604 13.1094 18.4404 12.8894 18.4404 12.6094C18.4404 12.3294 18.6604 12.1094 18.9404 12.1094H23.2304C24.5304 12.1094 25.5904 13.1694 25.5904 14.4694V19.9794C25.5904 21.1494 24.7304 22.1294 23.6104 22.3094V25.3994C23.6104 26.4094 22.7904 27.2294 21.7904 27.2294Z" fill="#0D1B1C"/>
</g>
<defs>
<linearGradient id="paint0_linear_3050_24009" x1="21.94" y1="11.1397" x2="19.45" y2="5.89969" gradientUnits="userSpaceOnUse">
<stop stop-color="#009CB5"/>
<stop offset="1" stop-color="#71C6AC"/>
</linearGradient>
<linearGradient id="paint1_linear_3050_24009" x1="16.5798" y1="25.8798" x2="12.2498" y2="11.6498" gradientUnits="userSpaceOnUse">
<stop stop-color="#009CB5"/>
<stop offset="1" stop-color="#71C6AC"/>
</linearGradient>
<clipPath id="clip0_3050_24009">
<rect width="32" height="32" fill="white"/>
</clipPath>
</defs>
</svg>
