<svg width="22" height="21" viewBox="0 0 22 21" fill="none" xmlns="http://www.w3.org/2000/svg">
<path d="M18.3111 14.252L17.0789 13.0623C17.6643 12.6019 18.1886 12.1011 18.6515 11.5598C19.1523 10.9741 19.5801 10.3087 19.9354 9.56441L19.9668 9.49861L19.9344 9.43326C19.0892 7.72581 17.8749 6.36739 16.293 5.36076C14.7097 4.35318 12.9441 3.8498 11 3.8498C10.5097 3.8498 10.0277 3.88362 9.55379 3.95131C9.10957 4.01477 8.67272 4.10799 8.24329 4.23096L6.91647 2.90414C7.52427 2.66631 8.14511 2.48478 8.77909 2.35946C9.48551 2.21982 10.2257 2.1498 11 2.1498C13.4871 2.1498 15.6982 2.83684 17.6384 4.20975C19.5653 5.57332 20.9646 7.33606 21.8386 9.50039C21.4628 10.4504 20.9724 11.3327 20.3671 12.1479C19.7761 12.9437 19.0909 13.645 18.3111 14.252ZM3.25702 4.8947L0.611181 2.20076L1.8 1.01194L19.9879 19.1998L18.7994 20.3883L14.7054 16.3431L14.6412 16.2796L14.555 16.3067C13.9787 16.4878 13.3986 16.6236 12.8145 16.7141C12.2309 16.8045 11.6261 16.8498 11 16.8498C8.5129 16.8498 6.3018 16.1628 4.36165 14.7899C2.43481 13.4264 1.03563 11.6638 0.161561 9.49966C0.503743 8.6481 0.932473 7.85618 1.44769 7.1236C1.97433 6.37479 2.57474 5.70453 3.24897 5.11252L3.36816 5.00786L3.25702 4.8947ZM4.65478 6.29247L4.55436 6.19444L4.44987 6.28812C3.95974 6.72754 3.5119 7.2092 3.10639 7.73298C2.69962 8.25839 2.35227 8.82606 2.06436 9.43575L2.03339 9.50135L2.06557 9.56635C2.91084 11.2738 4.12512 12.6322 5.70697 13.6389C7.29031 14.6464 9.05594 15.1498 11 15.1498C11.3396 15.1498 11.6711 15.1286 11.9946 15.086C12.3122 15.0442 12.6381 14.9983 12.9723 14.9481L13.2567 14.9055L13.0589 14.6966L12.1589 13.7466L12.0971 13.6815L12.0105 13.7051C11.8322 13.7537 11.6629 13.7899 11.5027 13.814C11.3441 13.8378 11.1765 13.8498 11 13.8498C9.78933 13.8498 8.76512 13.4278 7.91857 12.5812C7.07202 11.7347 6.65 10.7105 6.65 9.49981C6.65 9.32328 6.66204 9.15575 6.68584 8.99706C6.70987 8.83687 6.74607 8.66764 6.79471 8.48927L6.81794 8.40412L6.75478 8.34247L4.65478 6.29247ZM9.46095 5.44863C9.67069 5.36233 9.88233 5.29486 10.0959 5.24603C10.3755 5.18214 10.6767 5.14981 11 5.14981C12.2107 5.14981 13.2349 5.57182 14.0814 6.41837C14.928 7.26492 15.35 8.28913 15.35 9.49981C15.35 9.82315 15.3177 10.1243 15.2538 10.4039C15.2049 10.6175 15.1375 10.8291 15.0512 11.0389L13.8113 9.79896C13.9415 8.99327 13.6936 8.2409 13.0877 7.55083C12.4678 6.84477 11.6661 6.55889 10.7028 6.69043L9.46095 5.44863Z" fill="#C4C4C4" stroke="white" stroke-width="0.3"/>
</svg>
