<svg width="112" height="112" viewBox="0 0 112 112" fill="none" xmlns="http://www.w3.org/2000/svg">
<g opacity="0.3">
<mask id="mask0_3050_29325" style="mask-type:luminance" maskUnits="userSpaceOnUse" x="-85" y="-90" width="331" height="259">
<path d="M-32.9279 168.061L245.204 90.6738L193.313 -89.2487L-84.8188 -11.8617L-32.9279 168.061Z" fill="white"/>
</mask>
<g mask="url(#mask0_3050_29325)">
<g style="mix-blend-mode:multiply">
<path d="M99.435 157.512C98.5525 148.11 98.2718 138.651 98.589 129.206C98.7315 125.007 99.0152 120.712 100.765 116.839C105.244 106.939 117.665 102.742 128.918 101.027C139.282 99.4439 149.837 99.0284 160.286 99.7891C170.641 100.542 181.067 102.445 191.344 100.901C201.617 99.3573 212.082 93.3 214.581 83.7713C216.066 78.1028 214.496 72.0227 211.388 67.0023C208.281 61.9818 203.747 57.8958 199.007 54.1862C193.576 49.9384 187.554 45.8068 184.816 39.6692C181.984 33.3146 183.49 25.4258 188.499 20.3498C195.626 13.1278 207.246 12.5666 217.573 11.1525C230.694 9.35955 243.967 5.13676 253.466 -3.62981C262.963 -12.3997 267.768 -26.4413 262.49 -37.8608" stroke="white" stroke-miterlimit="10"/>
<path d="M102.61 158.962C101.728 149.753 101.455 140.489 101.785 131.243C101.934 127.133 102.221 122.929 103.915 119.132C108.237 109.423 120.158 105.16 131.006 103.283C133.581 102.837 136.171 102.468 138.77 102.172C146.253 101.323 153.809 101.097 161.324 101.5C171.356 102.043 181.474 103.699 191.459 102.082C201.441 100.47 211.241 94.469 214.205 85.381C215.319 81.9611 215.701 78.5382 215.181 75.1403C214.829 72.8265 214.126 70.531 213.095 68.3552C212.624 67.3601 212.092 66.3844 211.495 65.4259C209.098 61.5942 205.663 58.1916 202.104 55.05C201.753 54.7378 201.399 54.4302 201.04 54.1203C195.514 49.3195 189.749 44.4486 187.241 37.9109C184.734 31.3732 186.119 24.0098 190.967 19.0149C197.863 11.9056 209.043 11.1502 218.941 9.55733C219.72 9.43256 220.499 9.29651 221.279 9.15257C233.064 6.97624 244.662 2.62872 253.012 -5.50439C261.915 -14.1741 266.252 -27.8423 260.943 -38.9014" stroke="#F9F9F9" stroke-miterlimit="10"/>
<path d="M105.777 160.423C104.894 151.41 104.632 142.336 104.979 133.289C105.135 129.266 105.428 125.157 107.061 121.431C111.23 111.914 122.652 107.582 133.097 105.55C135.578 105.068 138.072 104.657 140.576 104.318C147.79 103.348 155.089 102.983 162.362 103.226C172.07 103.555 181.881 104.965 191.571 103.281C201.259 101.601 210.468 95.6512 213.829 87.0082C215.184 83.5218 216.133 80.2114 216.052 76.7694C215.997 74.4223 215.596 72.0396 214.796 69.7176C214.432 68.6559 213.987 67.598 213.455 66.5529C211.324 62.3659 207.771 58.5803 204.143 55.0934C203.784 54.746 203.422 54.403 203.06 54.0601C197.438 48.7035 191.926 43.1192 189.643 36.146C187.607 29.9287 188.723 22.5919 193.409 17.672C200.077 10.6719 210.818 9.72313 220.281 7.95786C221.026 7.81973 221.771 7.67028 222.517 7.51293C233.773 5.13313 244.742 0.665044 252.535 -7.37463C260.843 -15.9458 264.721 -29.2362 259.382 -39.9297" stroke="#F4F4F4" stroke-miterlimit="10"/>
<path d="M108.933 161.88C108.053 153.058 107.803 144.182 108.163 135.331C108.323 131.397 108.628 127.379 110.202 123.73C114.221 114.406 125.146 110.011 135.183 107.819C137.567 107.299 139.967 106.849 142.38 106.47C149.326 105.379 156.369 104.872 163.399 104.958C172.782 105.074 182.288 106.241 191.687 104.49C201.083 102.74 209.768 96.8407 213.463 88.6487C215.07 85.0836 216.568 81.8975 216.923 78.4067C217.168 76.0277 217.066 73.5533 216.492 71.0851C216.231 69.954 215.878 68.8188 215.413 67.6821C213.55 63.1361 209.879 58.969 206.177 55.1294C205.81 54.7499 205.444 54.3703 205.074 53.9919C199.352 48.0778 194.092 41.8019 192.038 34.3653C190.349 28.2484 191.324 21.1542 195.852 16.3169C202.291 9.43168 212.596 8.28918 221.628 6.34771C222.34 6.19626 223.051 6.03349 223.763 5.86278C234.495 3.28262 244.834 -1.30692 252.074 -9.25591C259.795 -17.7277 263.21 -30.6357 257.843 -40.9661" stroke="#EEEEEE" stroke-miterlimit="10"/>
<path d="M112.081 163.344C111.202 154.718 110.963 146.038 111.347 137.385C111.515 133.54 111.826 129.618 113.34 126.04C117.209 116.906 127.639 112.449 137.272 110.105C139.561 109.546 141.867 109.056 144.184 108.635C150.863 107.424 157.649 106.779 164.434 106.706C173.495 106.613 182.692 107.531 191.802 105.713C200.908 103.897 209.131 98.0529 213.096 90.3114C214.969 86.6542 217.002 83.6 217.788 80.0638C218.331 77.6521 218.524 75.0861 218.179 72.4728C218.025 71.2738 217.758 70.0586 217.359 68.8295C215.758 63.9234 211.973 59.3684 208.201 55.1799C207.827 54.7647 207.453 54.3494 207.078 53.9342C201.257 47.4551 196.236 40.5061 194.417 32.5816C193.038 26.5842 193.912 19.7176 198.28 14.9603C204.493 8.19114 214.36 6.85669 222.966 4.73841C223.642 4.5703 224.32 4.39764 224.998 4.21362C235.208 1.43044 244.918 -3.27935 251.61 -11.1292C258.746 -19.4952 261.704 -32.0231 256.315 -41.9906" stroke="#E9E9E9" stroke-miterlimit="10"/>
<path d="M115.228 164.794C114.355 156.364 114.129 147.88 114.528 139.425C114.704 135.668 115.025 131.838 116.482 128.339C120.203 119.4 130.14 114.878 139.371 112.378C141.564 111.784 143.774 111.252 146.002 110.791C152.414 109.459 158.945 108.673 165.487 108.445C174.224 108.138 183.115 108.814 191.935 106.928C200.748 105.047 208.574 99.2693 212.749 91.9656C214.897 88.2086 217.453 85.2962 218.671 81.7091C219.506 79.2617 220.001 76.6076 219.878 73.8422C219.826 72.5761 219.648 71.2791 219.316 69.957C217.975 64.6884 214.073 59.748 210.23 55.2019C209.848 54.7543 209.47 54.302 209.087 53.8509C203.169 46.8071 198.369 39.1971 196.794 30.7668C195.698 24.9046 196.497 18.2471 200.705 13.5752C206.692 6.92322 216.126 5.39614 224.299 3.10383C224.945 2.92132 225.584 2.73317 226.225 2.53705C235.911 -0.444015 244.999 -5.2742 251.145 -13.0267C257.697 -21.2887 260.208 -33.4318 254.794 -43.0342" stroke="#E3E3E3" stroke-miterlimit="10"/>
<path d="M118.364 166.246C117.494 158.013 117.283 149.721 117.703 141.468C117.889 137.8 118.216 134.063 119.615 130.639C123.191 121.896 132.633 117.316 141.464 114.659C143.563 114.027 145.681 113.46 147.812 112.954C153.958 111.502 160.234 110.578 166.535 110.19C174.949 109.671 183.533 110.101 192.065 108.149C200.59 106.204 208.065 100.506 212.406 93.6299C214.845 89.7698 217.901 87.0027 219.547 83.3638C220.678 80.8824 221.465 78.1347 221.568 75.2218C221.619 73.8834 221.528 72.5086 221.259 71.0942C220.176 65.4607 216.16 60.1317 212.242 55.2308C211.853 54.7471 211.466 54.2587 211.081 53.7738C205.061 46.1636 200.47 37.9035 199.153 28.9437C198.312 23.226 199.065 16.7693 203.116 12.1791C208.881 5.6408 217.881 3.92605 225.626 1.45892C226.238 1.26322 226.844 1.06186 227.451 0.852504C236.618 -2.33052 245.083 -7.27555 250.683 -14.9279C256.654 -23.0842 258.718 -34.8389 253.282 -44.075" stroke="#DEDEDE" stroke-miterlimit="10"/>
<path d="M121.477 167.71C120.615 159.675 120.419 151.581 120.858 143.53C121.053 139.952 121.388 136.312 122.734 132.963C126.162 124.419 135.117 119.775 143.548 116.968C145.55 116.297 147.574 115.692 149.616 115.146C155.496 113.574 161.515 112.51 167.577 111.965C175.67 111.237 183.948 111.421 192.191 109.402C200.426 107.394 208.843 102.456 212.061 95.3343C215.477 91.9034 218.345 88.7441 220.419 85.0559C221.841 82.5411 222.923 79.6967 223.247 76.633C223.399 75.2264 223.397 73.7687 223.192 72.2602C222.366 66.2597 218.235 60.5368 214.247 55.2779C213.854 54.7567 213.46 54.2356 213.066 53.7145C206.949 45.5336 202.541 36.6313 201.501 27.1319C200.892 21.5626 201.624 15.3075 205.516 10.8009C211.059 4.38226 219.627 2.47567 226.947 -0.165933C227.525 -0.374815 228.097 -0.589357 228.671 -0.811915C237.318 -4.19185 245.169 -9.25653 250.226 -16.8072C255.621 -24.8526 257.245 -36.221 251.789 -45.0895" stroke="#D8D8D8" stroke-miterlimit="10"/>
<path d="M124.585 169.164C123.729 161.328 123.552 153.431 124.013 145.58C124.218 142.091 124.563 138.544 125.849 135.273C129.135 126.928 137.604 122.226 145.636 119.26C147.546 118.554 149.476 117.907 151.423 117.319C157.039 115.628 162.806 114.425 168.626 113.722C176.397 112.781 184.369 112.719 192.327 110.64C200.274 108.564 208.402 103.797 211.727 97.0236C215.498 93.5845 218.793 90.4744 221.293 86.7362C223.006 84.1829 224.377 81.2468 224.925 78.0335C225.181 76.5571 225.261 75.0137 225.123 73.414C224.551 67.0441 220.304 60.9298 216.245 55.3111C215.845 54.7569 215.443 54.1993 215.044 53.6372C208.827 44.8791 204.582 35.3449 203.837 25.2887C203.435 19.8799 204.169 13.8122 207.908 9.39231C213.23 3.09431 221.365 0.997213 228.26 -1.81869C228.805 -2.04073 229.344 -2.26844 229.882 -2.50761C238.013 -6.08881 245.247 -11.2667 249.768 -18.7188C254.593 -26.6565 255.774 -37.6304 250.304 -46.1312" stroke="#D2D2D2" stroke-miterlimit="10"/>
<path d="M127.686 170.621C126.837 162.984 126.68 155.285 127.16 147.635C127.374 144.233 127.728 140.784 128.963 137.592C132.107 129.444 140.091 124.685 147.725 121.569C149.539 120.826 151.376 120.14 153.234 119.512C158.587 117.701 164.098 116.359 169.679 115.495C177.13 114.342 184.797 114.037 192.468 111.891C200.13 109.752 207.974 105.152 211.406 98.7293C215.529 95.2782 219.253 92.2197 222.173 88.4287C224.172 85.841 225.838 82.81 226.601 79.4405C226.956 77.8916 227.125 76.2677 227.047 74.574C226.728 67.8327 222.368 61.3238 218.234 55.341C217.826 54.7502 217.416 54.1561 217.014 53.5595C210.696 44.2258 206.585 34.0576 206.159 23.4402C205.948 18.1901 206.703 12.3162 210.288 7.98051C215.39 1.80438 223.098 -0.484219 229.57 -3.47428C230.081 -3.70946 230.587 -3.95033 231.092 -4.20268C238.707 -7.98031 245.329 -13.2753 249.318 -20.6241C253.574 -28.4478 254.32 -39.0259 248.833 -47.1599" stroke="#CDCDCD" stroke-miterlimit="10"/>
<path d="M130.778 172.075C129.939 164.635 129.799 157.137 130.305 149.694C130.53 146.383 130.892 143.033 132.071 139.915C135.076 131.968 142.577 127.149 149.813 123.879C151.536 123.101 153.28 122.374 155.044 121.704C160.134 119.774 165.392 118.294 170.735 117.271C177.864 115.909 185.229 115.353 192.616 113.144C199.99 110.944 207.555 106.511 211.092 100.446C215.565 96.9826 219.712 93.9733 223.056 90.1301C225.344 87.5066 227.294 84.379 228.279 80.8581C228.736 79.2385 228.988 77.5314 228.974 75.742C228.905 68.6273 224.432 61.7183 220.229 55.3753C219.813 54.7477 219.4 54.1189 218.99 53.4856C212.574 43.572 208.567 32.7691 208.485 21.5814C208.448 16.4965 209.24 10.8082 212.669 6.55862C217.556 0.500941 224.834 -1.9779 230.886 -5.1386C231.364 -5.38692 231.835 -5.64437 232.309 -5.90645C239.412 -9.88498 245.423 -15.2954 248.88 -22.5347C252.57 -30.2465 252.888 -40.4275 247.387 -48.1898" stroke="#C7C7C7" stroke-miterlimit="10"/>
<path d="M133.849 173.535C133.018 166.297 132.9 158.998 133.427 151.759C133.663 148.539 134.037 145.283 135.162 142.247C138.03 134.502 145.048 129.629 151.895 126.204C153.522 125.388 155.174 124.622 156.854 123.912C161.681 121.859 166.692 120.245 171.793 119.062C178.603 117.488 185.665 116.687 192.769 114.413C199.86 112.151 207.141 107.893 210.786 102.178C215.607 98.7066 220.178 95.7455 223.936 91.8486C226.51 89.1855 228.748 85.9631 229.947 82.2876C230.501 80.5947 230.84 78.8062 230.89 76.9206C231.07 69.4304 226.482 62.1241 222.208 55.412C221.785 54.7509 221.363 54.0817 220.948 53.4101C214.436 42.9137 210.499 31.4719 210.793 19.7153C210.916 14.793 211.76 9.2978 215.037 5.13402C219.708 -0.799432 226.558 -3.46851 232.191 -6.80328C232.635 -7.06819 233.074 -7.33534 233.51 -7.61284C240.102 -11.7876 245.508 -17.3141 248.439 -24.4473C251.567 -32.0458 251.459 -41.8262 245.949 -49.2164" stroke="#C2C2C2" stroke-miterlimit="10"/>
<path d="M136.911 174.994C136.093 167.957 135.994 160.861 136.546 153.825C136.793 150.697 137.177 147.54 138.247 144.579C140.979 137.039 147.518 132.107 153.973 128.532C155.509 127.678 157.071 126.877 158.656 126.122C163.223 123.949 167.981 122.194 172.848 120.855C179.34 119.067 186.099 118.019 192.921 115.684C199.728 113.361 206.733 109.274 210.486 103.915C215.653 100.431 220.646 97.5222 224.819 93.57C227.676 90.8719 230.197 87.5507 231.613 83.7187C232.269 81.9543 232.69 80.0817 232.799 78.1007C233.227 70.2333 228.526 62.5229 224.181 55.448C223.75 54.7497 223.325 54.0456 222.902 53.3368C216.288 42.2524 212.39 30.1679 213.088 17.8402C213.359 13.0814 214.266 7.77688 217.395 3.70317C221.851 -2.10487 228.278 -4.96545 233.494 -8.47435C233.905 -8.75239 234.312 -9.03269 234.714 -9.32336C240.8 -13.699 245.602 -19.3365 248.012 -26.3625C250.582 -33.8427 250.053 -43.2247 244.529 -50.2355" stroke="#BCBCBC" stroke-miterlimit="10"/>
<path d="M139.949 176.446C139.142 169.614 139.066 162.72 139.642 155.893C139.9 152.857 140.296 149.796 141.315 146.918C143.908 139.584 149.977 134.597 156.04 130.866C157.482 129.978 158.951 129.135 160.449 128.34C164.757 126.048 169.268 124.155 173.896 122.655C180.073 120.657 186.531 119.361 193.072 116.965C199.598 114.578 205.524 109.924 210.187 105.672C214.85 101.42 221.106 99.3166 225.694 95.316C228.835 92.5815 231.64 89.1645 233.268 85.1766C234.021 83.3417 234.526 81.38 234.698 79.3053C235.372 71.059 230.561 62.9461 226.146 55.502C225.711 54.7652 225.274 54.0249 224.848 53.281C218.138 41.6081 214.237 28.8691 215.377 15.9731C215.783 11.3753 216.768 6.26925 219.743 2.2842C223.987 -3.39721 229.994 -6.44938 234.792 -10.1313C235.17 -10.4225 235.544 -10.7159 235.914 -11.0198C241.496 -15.5929 245.697 -21.3445 247.589 -28.2619C249.608 -35.6274 248.656 -44.6026 243.127 -51.2383" stroke="#B7B7B7" stroke-miterlimit="10"/>
<path d="M142.986 177.911C142.192 171.283 142.133 164.594 142.739 157.972C143.009 155.029 143.414 152.065 144.38 149.266C146.84 142.136 152.438 137.095 158.115 133.213C159.463 132.288 160.845 131.405 162.251 130.569C166.301 128.157 170.563 126.123 174.957 124.466C180.82 122.254 186.977 120.709 193.24 118.252C199.483 115.805 205.253 111.365 209.905 107.434C215.124 103.024 221.584 101.12 226.579 97.0653C229.997 94.292 233.084 90.779 234.926 86.6332C235.778 84.7228 236.365 82.6798 236.599 80.5075C237.52 71.8794 232.593 63.3644 228.108 55.5459C227.666 54.775 227.225 53.996 226.79 53.2111C219.985 40.9467 216.039 27.5413 217.66 14.0868C218.196 9.64505 219.262 4.74082 222.09 0.843978C226.125 -4.7144 231.708 -7.95248 236.097 -11.81C236.442 -12.1144 236.782 -12.4244 237.121 -12.738C242.199 -17.5111 245.809 -23.3756 247.179 -30.1844C248.647 -37.4327 247.28 -46.0002 241.746 -52.2592" stroke="#B1B1B1" stroke-miterlimit="10"/>
<path d="M146.008 179.364C145.227 172.941 145.191 166.454 145.822 160.043C146.103 157.193 146.519 154.331 147.436 151.611C149.765 144.69 154.894 139.592 160.183 135.556C161.441 134.593 162.73 133.673 164.049 132.797C167.843 130.266 171.857 128.094 176.018 126.275C181.567 123.849 187.426 122.059 193.411 119.537C199.378 117.03 204.989 112.827 209.635 109.198C215.259 104.807 222.066 102.927 227.472 98.8157C231.171 96.0061 234.537 92.3933 236.59 88.0938C237.537 86.1123 238.208 83.983 238.505 81.7129C239.668 72.7027 234.63 63.778 230.075 55.5916C229.626 54.7831 229.178 53.9698 228.739 53.1459C221.835 40.2888 217.804 26.1975 219.943 12.1958C220.6 7.90996 221.756 3.20976 224.439 -0.594544C228.265 -6.02401 233.432 -9.45408 237.41 -13.4862C237.723 -13.8037 238.031 -14.127 238.336 -14.4572C242.917 -19.4281 245.933 -25.4063 246.792 -32.1044C247.714 -39.2309 245.938 -47.3929 240.394 -53.2711" stroke="#ABABAB" stroke-miterlimit="10"/>
<path d="M149.003 180.823C148.234 174.607 148.223 168.326 148.883 162.127C149.177 159.37 149.606 156.605 150.469 153.968C152.667 147.256 157.331 142.105 162.235 137.917C163.402 136.92 164.603 135.957 165.831 135.039C169.371 132.388 173.14 130.074 177.064 128.099C182.303 125.462 187.86 123.42 193.572 120.837C199.264 118.269 204.72 114.319 209.357 110.984C215.397 106.638 222.538 104.753 228.346 100.591C232.324 97.7447 235.964 94.0332 238.229 89.575C239.275 87.521 240.026 85.3063 240.381 82.9392C241.785 73.5456 236.639 64.2131 232.015 55.649C231.558 54.8026 231.106 53.9502 230.66 53.092C223.661 39.6348 219.496 24.8415 222.203 10.3111C222.973 6.17282 224.227 1.69061 226.761 -2.02263C230.38 -7.32205 235.133 -10.9444 238.7 -15.1501C238.981 -15.4808 239.256 -15.8172 239.529 -16.1607C243.612 -21.3319 246.042 -27.4214 246.394 -34.0077C246.774 -41.0148 244.589 -48.7645 239.043 -54.2626" stroke="#A6A6A6" stroke-miterlimit="10"/>
<path d="M151.992 182.277C151.239 176.265 151.251 170.196 151.936 164.207C152.239 161.547 152.682 158.879 153.498 156.325C155.568 149.826 159.765 144.62 164.295 140.28C165.372 139.244 166.482 138.247 167.624 137.286C170.91 134.515 174.435 132.063 178.127 129.923C183.056 127.071 188.318 124.782 193.756 122.135C199.171 119.509 204.473 115.826 209.104 112.77C215.568 108.51 223.032 106.582 229.244 102.366C233.496 99.485 237.417 95.6758 239.888 91.0597C241.029 88.9308 241.864 86.6328 242.279 84.1672C243.924 74.3893 238.669 64.6438 233.976 55.7089C233.512 54.828 233.052 53.9377 232.602 53.0402C225.506 38.9856 221.163 23.4605 224.479 8.41939C225.359 4.4273 226.715 0.163182 229.106 -3.45587C232.521 -8.62877 236.857 -12.4377 240.023 -16.8196C240.272 -17.1635 240.515 -17.5131 240.753 -17.8686C244.344 -23.2381 246.187 -29.4445 246.036 -35.9145C245.877 -42.801 243.292 -50.1373 237.741 -55.2524" stroke="#A0A0A0" stroke-miterlimit="10"/>
<path d="M154.973 183.726C154.233 177.925 154.271 172.063 154.986 166.289C155.302 163.724 155.759 161.158 156.52 158.684C158.464 152.397 162.202 147.14 166.35 142.643C167.337 141.573 168.361 140.533 169.413 139.53C172.448 136.639 175.728 134.045 179.192 131.747C183.814 128.679 188.782 126.139 193.949 123.436C199.091 120.747 204.229 117.352 208.868 114.561C215.763 110.416 223.536 108.42 230.15 104.152C234.677 101.232 238.874 97.3263 241.551 92.5521C242.789 90.3505 243.703 87.9668 244.18 85.4025C246.064 75.2427 240.698 65.0841 235.937 55.7689C235.465 54.8499 235.002 53.9202 234.54 52.9858C227.351 38.3304 222.774 22.045 226.749 6.52427C227.738 2.66762 229.193 -1.36066 231.443 -4.89296C234.654 -9.93352 238.581 -13.9387 241.345 -18.4924C241.561 -18.853 241.773 -19.2159 241.978 -19.5846C245.078 -25.1549 246.342 -31.4724 245.688 -37.8274C244.999 -44.5901 242.008 -51.5118 236.452 -56.2423" stroke="#9B9B9B" stroke-miterlimit="10"/>
<path d="M157.937 185.183C157.215 179.591 157.275 173.938 158.017 168.381C158.346 165.911 158.813 163.446 159.53 161.056C161.344 154.982 164.629 149.672 168.401 145.025C169.3 143.916 170.233 142.839 171.2 141.796C173.985 138.786 177.027 136.052 180.261 133.593C184.578 130.312 189.253 127.52 194.15 124.755C199.019 122.008 203.985 118.91 208.642 116.377C215.97 112.391 224.049 110.28 231.06 105.963C235.859 103.009 240.329 99.0037 243.217 94.0736C244.549 91.8005 245.544 89.3262 246.078 86.6677C248.201 76.1221 242.728 65.5517 237.901 55.8587C237.425 54.9003 236.952 53.9371 236.486 52.9632C229.205 37.7056 224.346 20.628 229.027 4.65263C230.119 0.926627 231.681 -2.86328 233.789 -6.29855C236.797 -11.2056 240.319 -15.4038 242.679 -20.1317C242.864 -20.5055 243.047 -20.8829 243.218 -21.2636C245.833 -27.0326 246.518 -33.4632 245.368 -39.7034C244.147 -46.3435 240.759 -52.8428 235.202 -57.1916" stroke="#959595" stroke-miterlimit="10"/>
<path d="M160.894 186.638C160.186 181.259 160.274 175.817 161.045 170.474C161.387 168.1 161.867 165.74 162.533 163.43C164.223 157.572 167.055 152.207 170.455 147.406C171.264 146.26 172.113 145.143 172.992 144.058C175.529 140.927 178.331 138.056 181.338 135.433C185.352 131.936 189.737 128.893 194.366 126.068C198.968 123.262 203.753 120.475 208.435 118.188C216.201 114.395 224.577 112.141 231.99 107.77C237.062 104.781 241.805 100.676 244.897 95.5878C246.321 93.2396 247.399 90.6818 247.994 87.9244C250.354 76.9927 244.774 66.0061 239.877 55.9359C239.395 54.9426 238.918 53.9399 238.444 52.9277C231.067 37.0645 225.882 19.1584 231.319 2.76903C232.516 -0.838354 234.184 -4.37198 236.151 -7.71415C238.96 -12.4865 242.075 -16.8767 244.041 -21.7814C244.194 -22.1685 244.346 -22.5591 244.486 -22.953C246.615 -28.9232 246.729 -35.4645 245.085 -41.5925C243.336 -48.1089 239.556 -54.1883 233.995 -58.149" stroke="#909090" stroke-miterlimit="10"/>
<path d="M163.846 188.089C161.883 173.411 166.398 158.231 174.788 146.336C183.179 134.441 195.203 125.689 208.251 120.021C216.452 116.459 225.129 114.024 232.935 109.602C240.742 105.179 247.848 98.2559 249.925 89.2111C252.521 77.8934 246.833 66.4948 241.87 56.0456C233.708 38.8621 226.989 18.7444 233.624 0.913241C236.928 -7.96972 243.315 -15.4298 245.772 -24.6129C249.177 -37.3404 243.614 -52.138 232.821 -59.0627" stroke="#8A8A8A" stroke-miterlimit="10"/>
</g>
<g style="mix-blend-mode:multiply">
<path d="M162.428 -83.772C158.969 -74.8403 154.925 -66.1122 150.327 -57.6441C148.281 -53.8803 146.063 -50.0878 142.659 -47.2934C133.965 -40.1482 120.45 -41.5158 109.149 -44.6536C98.7417 -47.5426 88.6897 -51.5698 79.2736 -56.6265C69.9406 -61.6369 61.063 -67.7247 50.7614 -70.6106C40.4561 -73.4956 27.9229 -72.3498 21.249 -64.7214C17.2774 -60.1811 15.9774 -53.9865 16.595 -48.121C17.2137 -42.252 19.588 -36.6373 22.3289 -31.2802C25.4684 -25.1447 29.2172 -18.868 28.9777 -12.1376C28.7322 -5.16993 23.7336 1.38617 16.74 3.91561C6.79066 7.51269 -4.32347 3.17475 -14.618 0.144797C-27.6957 -3.70272 -42.0214 -5.40354 -54.8917 -1.38391C-67.7593 2.6313 -78.6445 13.4123 -78.9137 26.0151" stroke="white" stroke-miterlimit="10"/>
<path d="M160.248 -86.0802C156.867 -77.3012 152.867 -68.7349 148.301 -60.4511C146.27 -56.7698 144.065 -53.0631 140.727 -50.3136C134.021 -44.7923 124.447 -44.2947 115.274 -45.7208C112.775 -46.1065 110.304 -46.6375 107.929 -47.2454C97.7161 -49.8659 87.824 -53.6154 78.524 -58.3759C69.3099 -63.0947 60.5401 -68.9215 50.3838 -71.6312C44.6911 -73.1496 38.3797 -73.5754 32.6452 -72.4833C27.6493 -71.5305 23.0706 -69.3857 19.8162 -65.7711C19.2336 -65.1254 18.7064 -64.4451 18.2323 -63.7372C15.3037 -59.36 14.4088 -53.9104 14.9129 -48.6931C15.0756 -47.0175 15.3697 -45.3603 15.7631 -43.7209C16.7924 -39.4453 18.4868 -35.2864 20.3186 -31.2672C23.2199 -24.8866 26.4394 -18.4186 25.929 -11.6377C25.4187 -4.8569 20.6543 1.44615 13.8422 3.95324C4.14927 7.51856 -6.66226 3.52786 -16.6501 0.827664C-17.4352 0.615887 -18.2305 0.410423 -19.0224 0.215345C-31.0442 -2.74182 -43.8817 -3.64732 -55.3974 0.239491C-67.6786 4.38463 -77.9591 14.9711 -78.02 27.2301" stroke="#F9F9F9" stroke-miterlimit="10"/>
<path d="M157.886 -88.3966C154.594 -79.7739 150.658 -71.3781 146.131 -63.2756C144.122 -59.6742 141.932 -56.0565 138.664 -53.3506C132.1 -47.9162 122.769 -47.2719 113.803 -48.4808C111.359 -48.8068 108.939 -49.2734 106.608 -49.8151C96.5903 -52.1556 86.8556 -55.6072 77.6741 -60.0562C68.5773 -64.4672 59.9068 -70.0074 49.9062 -72.5352C44.0217 -74.0226 37.5397 -74.475 31.6103 -73.4103C26.4605 -72.482 21.6937 -70.3406 18.3065 -66.6698C17.701 -66.0139 17.1481 -65.3192 16.6506 -64.5901C13.5865 -60.1093 12.6927 -54.5038 13.1761 -49.1207C13.332 -47.3935 13.6191 -45.6849 13.9993 -44.0003C14.9922 -39.5997 16.593 -35.2915 18.282 -31.1366C20.9491 -24.5239 23.6618 -17.8818 22.8832 -11.043C22.1434 -4.55039 17.6025 1.59809 10.9785 4.08878C1.55144 7.63081 -8.95716 4.00405 -18.6367 1.64794C-19.3979 1.46207 -20.1682 1.28597 -20.9362 1.11678C-32.5744 -1.43569 -44.8887 -1.97288 -55.8465 2.04388C-67.5269 6.32441 -77.1866 16.7221 -77.023 28.6246" stroke="#F4F4F4" stroke-miterlimit="10"/>
<path d="M155.495 -90.7138C152.292 -82.2488 148.417 -74.0168 143.938 -66.0951C141.945 -62.5752 139.779 -59.0439 136.578 -56.3834C130.152 -51.0374 121.069 -50.2446 112.307 -51.2402C109.913 -51.5093 107.545 -51.9085 105.258 -52.3844C95.4393 -54.443 85.8639 -57.5985 76.8014 -61.7413C67.8236 -65.8464 59.2475 -71.0967 49.4066 -73.4482C43.3286 -74.8994 36.6792 -75.3816 30.5598 -74.3437C25.2567 -73.4386 20.3002 -71.2944 16.7816 -67.5664C16.1494 -66.899 15.5749 -66.1905 15.0569 -65.4444C11.8636 -60.8562 10.9713 -55.0977 11.4354 -49.5483C11.5837 -47.7727 11.8641 -46.0126 12.2291 -44.2782C13.1877 -39.7486 14.6975 -35.2982 16.246 -31.0034C18.6855 -24.1547 20.8967 -17.3514 19.8424 -10.4425C18.8898 -4.19444 14.5543 1.75667 8.11528 4.23207C-1.04513 7.75101 -11.2489 4.48559 -20.6182 2.47117C-21.3555 2.31102 -22.098 2.1597 -22.8446 2.02063C-34.0997 -0.125606 -45.8887 -0.297407 -56.2799 3.84594C-67.3583 8.26034 -76.3933 18.4688 -76.0058 30.0174" stroke="#EEEEEE" stroke-miterlimit="10"/>
<path d="M153.086 -93.0201C149.974 -84.7079 146.156 -76.6364 141.718 -68.8922C139.747 -65.4502 137.598 -62.0101 134.469 -59.3887C128.184 -54.1313 119.347 -53.1911 110.789 -53.9759C108.451 -54.1864 106.132 -54.5214 103.893 -54.9332C94.2726 -56.7165 84.8582 -59.5791 75.9177 -63.4158C67.0647 -67.2194 58.5834 -72.1754 48.9049 -74.3613C42.6342 -75.7764 35.8192 -76.2849 29.5089 -75.2765C24.0519 -74.3975 18.9099 -72.2505 15.2614 -68.4603C14.6065 -67.7823 14.0067 -67.0589 13.4683 -66.2955C10.1428 -61.5976 9.25348 -55.6815 9.70259 -49.9653C9.8483 -48.1385 10.1175 -46.3289 10.471 -44.545C11.3908 -39.8878 12.815 -35.2914 14.2199 -30.854C16.433 -23.7667 18.1527 -16.808 16.818 -9.8172C15.6677 -3.81063 11.5177 1.94909 5.26968 4.40327C-3.62441 7.89833 -13.5204 4.99342 -22.5789 3.31348C-23.291 3.18221 -24.0094 3.05632 -24.7281 2.94171C-35.5955 1.19283 -46.8615 1.38298 -56.69 5.65143C-67.1665 10.1971 -75.5825 20.2175 -74.974 31.4158" stroke="#E9E9E9" stroke-miterlimit="10"/>
<path d="M150.672 -95.3187C147.647 -87.1563 143.886 -79.2476 139.49 -71.6788C137.539 -68.3172 135.409 -64.9606 132.346 -62.384C126.197 -57.2136 117.61 -56.1289 109.258 -56.7053C106.974 -56.8577 104.708 -57.1302 102.513 -57.481C93.0941 -58.9883 83.8449 -61.5656 75.0284 -65.0993C66.2993 -68.6 57.9148 -73.2651 48.4033 -75.2887C41.942 -76.6646 34.9596 -77.2062 28.4602 -76.2233C22.8507 -75.3664 17.5226 -73.2191 13.7398 -69.3682C13.0586 -68.6783 12.4373 -67.9407 11.8748 -67.1589C8.41662 -62.3533 7.53449 -56.2794 7.96158 -50.3933C8.1 -48.5172 8.36393 -46.6517 8.70132 -44.8205C9.5864 -40.0354 10.9305 -35.2889 12.1838 -30.7088C14.1864 -23.3843 15.4121 -16.2655 13.7827 -9.18592C12.4522 -3.42271 8.47011 2.14704 2.41139 4.58723C-6.2168 8.05755 -15.8044 5.50591 -24.5496 4.16051C-25.2374 4.0544 -25.9304 3.9571 -26.6248 3.86765C-37.1029 2.51211 -47.8435 3.0636 -57.1059 7.45384C-66.9844 12.1292 -74.7753 21.963 -73.9533 32.8117" stroke="#E3E3E3" stroke-miterlimit="10"/>
<path d="M148.253 -97.6061C145.314 -89.5917 141.612 -81.8407 137.258 -74.4499C135.326 -71.168 133.214 -67.8941 130.217 -65.3586C124.208 -60.2757 115.868 -59.0473 107.724 -59.4138C105.493 -59.5077 103.279 -59.7182 101.129 -60.0051C91.9119 -61.2425 82.8269 -63.5325 74.1372 -66.7624C65.5326 -69.9664 57.2462 -74.3319 47.8995 -76.2059C41.2448 -77.5417 34.0956 -78.1163 27.4112 -77.1593C21.6486 -76.3276 16.1359 -74.1756 12.2206 -70.2595C11.5142 -69.554 10.8704 -68.8055 10.2877 -68.006C6.7024 -63.089 5.81936 -56.8575 6.23234 -50.8021C6.36473 -48.8729 6.62136 -46.9581 6.94758 -45.0766C7.79945 -40.1589 9.05416 -35.266 10.1663 -30.5366C11.9457 -22.9651 12.706 -15.6972 10.769 -8.5189C9.27804 -2.99457 5.44307 2.38747 -0.432632 4.80721C-8.79532 8.25198 -18.0729 6.05029 -26.5022 5.03995C-27.1657 4.95877 -27.8332 4.88986 -28.4996 4.82436C-38.5892 3.8631 -48.802 4.76463 -57.5023 9.27552C-66.7785 14.0808 -73.956 23.7228 -72.9183 34.227" stroke="#DEDEDE" stroke-miterlimit="10"/>
<path d="M145.825 -99.8908C142.975 -92.024 139.324 -84.4314 135.01 -77.2129C133.094 -74.0056 131.002 -70.8182 128.072 -68.3236C122.198 -63.327 114.105 -61.9563 106.172 -62.1193C103.997 -62.1562 101.835 -62.3086 99.7321 -62.5288C90.7187 -63.4949 81.7993 -65.5 73.2358 -68.4353C64.7574 -71.3448 56.5673 -75.4124 47.3934 -77.1407C40.5438 -78.4322 33.2346 -79.0453 26.362 -78.1128C20.4478 -77.3024 14.7475 -75.1441 10.7052 -71.1704C9.97639 -70.4536 9.30761 -69.6895 8.70481 -68.8723C4.9881 -63.8451 4.1142 -57.45 4.50863 -51.2264C4.63513 -49.2437 4.88457 -47.279 5.19605 -45.3458C6.0102 -40.2968 7.18204 -35.2503 8.15136 -30.3769C9.70739 -22.5593 10.0159 -15.1386 7.76089 -7.85598C6.12439 -2.56893 2.41442 2.62415 -3.27008 5.02429C-11.3641 8.44165 -20.3338 6.58794 -28.4471 5.90662C-29.0851 5.85361 -29.7293 5.806 -30.3701 5.76867C-40.0672 5.19416 -49.7528 6.45043 -57.8878 11.079C-66.5633 16.0087 -73.1288 25.4618 -71.8744 35.6226" stroke="#D8D8D8" stroke-miterlimit="10"/>
<path d="M143.376 -102.171C140.609 -94.4493 137.015 -87.0116 132.742 -79.9651C130.844 -76.8361 128.77 -73.7303 125.908 -71.281C120.169 -66.3704 112.326 -64.8745 104.606 -64.8207C102.486 -64.8045 100.375 -64.8915 98.3179 -65.0487C89.5085 -65.7488 80.7563 -67.471 72.3217 -70.1102C63.971 -72.7273 55.8774 -76.4911 46.8749 -78.0824C39.8351 -79.3306 32.3639 -79.9778 25.3026 -79.0727C19.2362 -78.2868 13.3525 -76.1223 9.1787 -72.0813C8.42386 -71.3521 7.73505 -70.5698 7.10742 -69.737C3.26488 -64.596 2.39086 -58.041 2.76835 -51.6446C2.88795 -49.6114 3.13145 -47.5931 3.43203 -45.6087C4.21367 -40.4248 5.29719 -35.2291 6.12916 -30.2079C7.46298 -22.1419 7.33563 -14.5692 4.74997 -7.17233C2.98301 -2.12135 -0.614186 2.8863 -6.11151 5.26725C-13.941 8.65738 -22.598 7.14816 -30.3941 6.79366C-31.0075 6.76521 -31.6223 6.74459 -32.2385 6.73182C-41.5419 6.54145 -50.6969 8.14532 -58.2746 12.8917C-66.35 17.9438 -72.3021 27.2066 -70.8409 37.0278" stroke="#D2D2D2" stroke-miterlimit="10"/>
<path d="M140.933 -104.453C138.248 -96.8755 134.711 -89.5959 130.471 -82.7183C128.592 -79.664 126.533 -76.6427 123.737 -74.2342C118.136 -69.4106 110.541 -67.775 103.03 -67.5198C100.966 -67.4473 98.9093 -67.4737 96.8978 -67.5684C88.2947 -68.0008 79.7133 -69.4462 71.4054 -71.7901C63.185 -74.1131 55.1895 -77.5751 46.3617 -79.0355C39.1263 -80.2352 31.4988 -80.9254 24.2468 -80.043C18.0298 -79.2779 11.9622 -77.1101 7.65626 -73.0043C6.87915 -72.2635 6.16188 -71.4643 5.51805 -70.6142C1.5466 -65.3574 0.681295 -58.64 1.04104 -52.0729C1.15867 -49.9865 1.39267 -47.913 1.67761 -45.8795C2.42589 -40.563 3.42384 -35.21 4.11423 -30.0419C5.22685 -21.7251 4.68189 -13.9946 1.74823 -6.48744C-0.133099 -1.66827 -3.64059 3.14913 -8.95118 5.51026C-16.5167 8.87227 -24.8623 7.70965 -32.3377 7.67555C-32.9265 7.67151 -33.5156 7.67873 -34.1072 7.69037C-43.0194 7.88275 -51.6421 9.83511 -58.6558 14.6956C-66.1357 19.8693 -71.4769 28.941 -69.8078 38.423" stroke="#CDCDCD" stroke-miterlimit="10"/>
<path d="M138.48 -106.72C135.88 -99.2869 132.393 -92.1591 128.188 -85.4542C126.323 -82.4764 124.284 -79.5369 121.552 -77.1726C116.085 -72.4316 108.74 -70.6653 101.441 -70.2028C99.4327 -70.0779 97.4271 -70.0396 95.4618 -70.0721C87.0649 -70.2416 78.6531 -71.4072 70.477 -73.4584C62.3908 -75.4932 54.4899 -78.646 45.8362 -79.9804C38.4113 -81.1291 30.6232 -81.8648 23.1849 -81.0058C16.8166 -80.2647 10.5679 -78.0861 6.13416 -73.9157C5.33122 -73.162 4.59298 -72.3477 3.92936 -71.4792C-0.171439 -66.1089 -1.03132 -59.2271 -0.682926 -52.4823C-0.571966 -50.3445 -0.343678 -48.2166 -0.0730885 -46.13C0.639631 -40.6755 1.55027 -35.1707 2.10455 -29.8519C2.9934 -21.2811 2.05284 -13.3882 -1.24478 -5.77129C-3.23162 -1.17796 -6.6553 3.44712 -11.7807 5.78445C-19.0829 9.11754 -27.1133 8.29523 -34.266 8.5833C-34.829 8.60696 -35.3945 8.63503 -35.9566 8.67336C-44.4718 9.24895 -52.5676 11.5419 -59.0219 16.516C-65.9022 21.8121 -70.6362 30.6883 -68.7616 39.8324" stroke="#C7C7C7" stroke-miterlimit="10"/>
<path d="M136.021 -108.996C133.502 -101.705 130.067 -94.7329 125.902 -88.194C124.054 -85.2936 122.029 -82.438 119.368 -80.1121C114.036 -75.4581 106.94 -73.5542 99.8513 -72.8925C97.8958 -72.7109 95.9442 -72.6126 94.028 -72.5876C85.8393 -72.492 77.5983 -73.3791 69.5589 -75.1398C61.6046 -76.8865 53.8059 -79.7256 45.3281 -80.9432C37.7122 -82.0365 29.7642 -82.8178 22.1428 -81.9865C15.6249 -81.2657 9.19 -79.0815 4.63011 -74.8422C3.80145 -74.0756 3.04239 -73.246 2.35657 -72.3546C-1.86801 -66.8672 -2.7233 -59.8233 -2.39435 -52.901C-2.2888 -50.7082 -2.06725 -48.5288 -1.8072 -46.3898C-1.12718 -40.8006 -0.301017 -35.1359 0.113001 -29.6674C0.782872 -20.8414 -0.541149 -12.7755 -4.21241 -5.05466C-6.29218 -0.68245 -9.64762 3.7433 -14.5859 6.0631C-21.6253 9.36647 -29.3396 8.88286 -36.1724 9.4927C-36.7107 9.54052 -37.2503 9.59619 -37.7876 9.65868C-45.906 10.6124 -53.4724 13.2509 -59.3645 18.3361C-65.6473 23.7496 -69.779 32.434 -67.7012 41.241" stroke="#C2C2C2" stroke-miterlimit="10"/>
<path d="M133.564 -111.269C131.127 -104.122 127.739 -97.3035 123.608 -90.9326C121.778 -88.1059 119.768 -85.334 117.171 -83.0489C111.972 -78.4811 105.123 -76.4407 98.2494 -75.5816C96.3508 -75.3448 94.4534 -75.1867 92.5802 -75.099C84.5994 -74.7429 76.5301 -75.3526 68.625 -76.8228C60.8038 -78.2827 53.1038 -80.8117 44.8072 -81.9113C36.9989 -82.945 28.8966 -83.781 21.0901 -82.9726C14.422 -82.2755 7.8062 -80.083 3.11954 -75.7774C2.26892 -74.9988 1.48542 -74.1528 0.780026 -73.2427C-3.57143 -67.6364 -4.42075 -60.4259 -4.1048 -53.3304C-4.00573 -51.0855 -3.78848 -48.8474 -3.54372 -46.6581C-2.89617 -40.9331 -2.16736 -35.1111 -1.8797 -29.4878C-1.44732 -20.4027 -3.11112 -12.1545 -7.18167 -4.3353C-9.34302 -0.18319 -12.646 4.04744 -17.4 6.34226C-24.1774 9.61501 -31.5747 9.46861 -38.087 10.3989C-38.6005 10.4708 -39.1141 10.554 -39.623 10.6395C-47.3439 11.9698 -54.382 14.9488 -59.7165 20.1447C-65.4031 25.6741 -68.9315 34.1647 -66.6567 42.6361" stroke="#BCBCBC" stroke-miterlimit="10"/>
<path d="M131.095 -113.544C128.736 -106.537 125.399 -99.8702 121.304 -93.6714C119.486 -90.9207 117.495 -88.23 114.961 -85.9893C109.897 -81.5088 103.297 -79.3325 96.6353 -78.2726C94.7937 -77.9806 92.9459 -77.7654 91.1244 -77.6138C83.3523 -76.998 75.4557 -77.3313 67.6861 -78.5119C59.9991 -79.6858 52.4016 -81.8986 44.2806 -82.8872C36.1596 -83.8757 28.0249 -84.752 20.0341 -83.9664C13.2176 -83.2894 6.42055 -81.0915 1.60523 -76.7147C0.729112 -75.9228 -0.0750426 -75.0613 -0.799896 -74.1323C-5.27865 -68.4095 -6.11803 -61.0324 -5.81721 -53.7581C-5.71969 -51.4585 -5.51267 -49.1672 -5.27824 -46.9247C-4.66169 -41.0595 -4.01754 -35.0786 -3.86524 -29.304C-3.65338 -19.9584 -5.65212 -11.5155 -10.14 -3.60537C-12.3765 0.336378 -15.6313 4.3617 -20.2016 6.63098C-26.7176 9.87236 -33.7972 10.062 -39.9883 11.3118C-40.4758 11.4111 -40.9658 11.5149 -41.4486 11.6278C-48.7738 13.3378 -55.2799 16.655 -60.058 21.9604C-65.1531 27.6054 -68.0809 35.9011 -65.6041 44.0354" stroke="#B7B7B7" stroke-miterlimit="10"/>
<path d="M128.614 -115.812C126.332 -108.947 123.044 -102.434 118.982 -96.4028C117.181 -93.7255 115.203 -91.1183 112.737 -88.9197C107.802 -84.5258 101.454 -82.2155 95.0086 -80.9598C93.2204 -80.6119 91.4307 -80.3384 89.6563 -80.1255C82.0946 -79.2474 74.3741 -79.3093 66.7374 -80.2001C59.1868 -81.0853 51.6894 -82.9817 43.7504 -83.8658C35.8115 -84.7499 27.1526 -85.7227 18.977 -84.9632C12.0163 -84.3073 5.0361 -82.0993 0.0903346 -77.6572C-0.806358 -76.8496 -1.63587 -75.9748 -2.38374 -75.0258C-6.98435 -69.1832 -7.82087 -61.6366 -7.53608 -54.1858C-7.44486 -51.8335 -7.24316 -49.4862 -7.02264 -47.1891C-6.44166 -41.1852 -5.88172 -35.0443 -5.863 -29.1137C-5.86699 -19.5066 -8.18146 -10.8496 -13.1071 -2.86291C-15.4097 0.873555 -18.6283 4.68531 -23.0179 6.93292C-29.2732 10.1421 -36.0334 10.6702 -41.9041 12.2352C-42.3667 12.3584 -42.827 12.4885 -43.2849 12.6253C-50.2115 14.7097 -56.1856 18.3637 -60.4086 23.7775C-64.9099 29.5358 -67.2433 37.6364 -64.5705 45.4349" stroke="#B1B1B1" stroke-miterlimit="10"/>
<path d="M126.112 -118.135C123.912 -111.415 120.673 -105.047 116.644 -99.1814C114.859 -96.5804 112.897 -94.0527 110.495 -91.8946C105.696 -87.5873 99.5957 -85.1368 93.3659 -83.6881C91.6354 -83.285 89.897 -82.951 88.1702 -82.6765C80.8202 -81.5387 73.2769 -81.3207 65.778 -81.9254C58.365 -82.5246 50.9749 -84.1016 43.2123 -84.8786C34.8396 -85.7181 26.276 -86.7282 17.9194 -85.9898C10.8119 -85.356 3.65126 -83.1359 -1.41261 -78.6219C-2.3342 -77.8006 -3.18378 -76.9098 -3.9505 -75.9413C-8.67472 -69.9791 -9.49884 -62.2631 -9.22566 -54.6272C-9.13893 -52.2181 -8.94306 -49.8177 -8.73218 -47.4666C-8.18032 -41.3201 -7.70269 -35.0174 -7.82027 -28.9314C-8.03661 -19.0598 -10.6424 -10.1724 -16.0207 -2.11509C-18.3853 1.42734 -21.573 5.02056 -25.7737 7.24487C-31.7671 10.4225 -38.2069 11.286 -43.754 13.1702C-44.1916 13.3174 -44.6257 13.4748 -45.0586 13.6357C-51.5843 16.0949 -57.0271 20.0906 -60.6941 25.6129C-64.5997 31.4881 -66.3367 39.3892 -63.4726 46.8532" stroke="#ABABAB" stroke-miterlimit="10"/>
<path d="M123.585 -120.555C121.465 -113.972 118.282 -107.755 114.29 -102.054C112.519 -99.5269 110.577 -97.0786 108.24 -94.9636C103.575 -90.7401 97.7312 -88.1533 91.718 -86.5057C90.046 -86.0471 88.3636 -85.6531 86.6853 -85.3167C79.5518 -83.914 72.1869 -83.4214 64.8341 -83.7361C57.5659 -84.0488 50.2805 -85.2995 42.703 -85.9741C34.148 -86.7355 25.4357 -87.8123 16.8987 -87.0914C9.64896 -86.4741 2.31472 -84.2435 -2.87149 -79.6558C-3.81719 -78.8202 -4.68604 -77.9128 -5.47086 -76.9244C-10.3091 -70.8366 -11.1258 -62.9496 -10.8587 -55.1304C-10.7754 -52.6637 -10.5833 -50.2059 -10.3859 -47.8022C-9.86194 -41.5144 -9.4638 -35.0475 -9.71335 -28.8C-10.1381 -18.663 -13.004 -9.51394 -18.8536 -1.40715C-21.2701 1.94405 -24.4317 5.31426 -28.4455 7.51727C-34.1711 10.6636 -40.291 11.8649 -45.5115 14.0695C-45.9227 14.2442 -46.3315 14.4257 -46.7355 14.6096C-52.8603 17.4463 -57.7665 21.7806 -60.8723 27.4112C-64.1815 33.4009 -65.3245 41.1075 -62.2664 48.2364" stroke="#A6A6A6" stroke-miterlimit="10"/>
<path d="M121.052 -122.966C119.011 -116.521 115.881 -110.452 111.922 -104.918C110.17 -102.463 108.242 -100.096 105.97 -98.0212C101.439 -93.882 95.8525 -91.1564 90.0561 -89.3106C88.439 -88.7956 86.8126 -88.3419 85.1817 -87.9471C78.2641 -86.2837 71.0798 -85.5137 63.8718 -85.5347C56.7459 -85.5607 49.5715 -86.4834 42.1794 -87.0568C33.4449 -87.7371 24.5813 -88.8803 15.871 -88.1826C8.47875 -87.5856 0.973008 -85.341 -4.33371 -80.6756C-5.29977 -79.8266 -6.19145 -78.9015 -6.99788 -77.8919C-11.9531 -71.6765 -12.754 -63.6158 -12.5013 -55.6128C-12.4191 -53.0925 -12.2344 -50.5758 -12.0457 -48.1166C-11.5519 -41.6815 -11.2342 -35.0522 -11.6078 -28.6436C-12.2424 -18.2339 -15.3442 -8.80098 -21.6801 -0.667744C-24.1496 2.50348 -27.285 5.64233 -31.1176 7.82084C-36.5803 10.9359 -42.3763 12.4729 -47.27 14.9974C-47.656 15.1961 -48.0395 15.4016 -48.4171 15.6129C-54.1361 18.8287 -58.5102 23.5016 -61.0607 29.2405C-63.7795 35.3444 -64.3254 42.853 -61.0765 49.6469" stroke="#A0A0A0" stroke-miterlimit="10"/>
<path d="M118.528 -125.377C116.568 -119.07 113.484 -113.151 109.564 -107.778C107.828 -105.399 105.915 -103.114 103.711 -101.081C99.3162 -97.024 93.9845 -94.1559 88.4013 -92.1228C86.844 -91.5492 85.2688 -91.0383 83.6902 -90.583C76.99 -88.656 69.9893 -87.6137 62.9223 -87.3438C55.9408 -87.0802 48.8789 -87.6754 41.6662 -88.1547C32.7513 -88.7495 23.7422 -89.969 14.8571 -89.2905C7.32442 -88.7106 -0.351946 -86.4521 -5.77617 -81.713C-6.76612 -80.8495 -7.68047 -79.9064 -8.50117 -78.8777C-13.574 -72.5371 -14.363 -64.3004 -14.1164 -56.1109C-14.0377 -53.5321 -13.8579 -50.9604 -13.6815 -48.4442C-13.2156 -41.865 -12.9755 -35.065 -13.4812 -28.4951C-14.3211 -17.8113 -17.6359 -8.06462 -24.4854 0.0714086C-27.0074 3.06588 -30.1239 5.96693 -33.7666 8.12486C-38.9678 11.2073 -44.4396 13.0796 -49.0068 15.9234C-49.3674 16.1461 -49.7246 16.379 -50.0757 16.6177C-55.3904 20.2086 -59.2334 25.2194 -61.2273 31.0644C-63.3548 37.2803 -63.315 44.5915 -59.8785 51.05" stroke="#9B9B9B" stroke-miterlimit="10"/>
<path d="M116.008 -127.795C114.123 -121.627 111.089 -115.855 107.201 -110.65C105.478 -108.342 103.582 -106.141 101.442 -104.148C97.1778 -100.177 92.1011 -97.1752 86.7345 -94.9451C85.2357 -94.3165 83.7153 -93.7496 82.183 -93.2282C75.6992 -91.0416 68.8812 -89.7196 61.9584 -89.1638C55.1209 -88.6143 48.1738 -88.8788 41.144 -89.2662C32.0527 -89.769 22.8963 -91.0726 13.8374 -90.4137C6.16372 -89.8549 -1.68248 -87.5826 -7.2274 -82.7682C-8.23753 -81.8913 -9.17329 -80.9268 -10.013 -79.8811C-15.1982 -73.4124 -15.9755 -64.9986 -15.7399 -56.6236C-15.666 -53.9893 -15.4889 -51.3553 -15.3224 -48.7862C-14.8844 -42.0619 -14.7229 -35.0932 -15.3589 -28.3572C-16.4034 -17.397 -19.912 -7.30598 -27.2915 0.805617C-29.8632 3.63326 -32.9609 6.28782 -36.4209 8.41855C-41.3631 11.4639 -46.5122 13.6788 -50.7505 16.8371C-51.0848 17.0871 -51.413 17.3429 -51.7389 17.6056C-56.6534 21.5722 -59.962 26.9227 -61.4056 32.8738C-62.9445 39.2006 -62.3195 46.3117 -58.702 52.4354" stroke="#959595" stroke-miterlimit="10"/>
<path d="M113.494 -130.21C111.687 -124.181 108.697 -118.56 104.839 -113.521C103.131 -111.288 101.25 -109.167 99.1738 -107.215C95.0422 -103.332 90.2125 -100.194 85.0694 -97.7695C83.629 -97.086 82.1611 -96.4586 80.6811 -95.8769C74.4148 -93.4276 67.7775 -91.8331 61.0007 -90.9881C54.3077 -90.1531 47.4739 -90.0825 40.6255 -90.3823C31.3581 -90.7856 22.0563 -92.182 12.8244 -91.5434C5.01162 -91.0027 -3.00847 -88.7191 -8.66526 -83.8279C-9.69911 -82.9363 -10.6538 -81.9548 -11.5137 -80.8842C-16.8157 -74.2892 -17.5815 -65.6973 -17.356 -57.1323C-17.2858 -54.4387 -17.1136 -51.7489 -16.9595 -49.122C-16.5519 -42.247 -16.4665 -35.113 -17.2323 -28.2096C-18.4842 -16.9701 -22.1663 -6.5007 -30.09 1.55438C-32.7169 4.22376 -35.7934 6.61843 -39.074 8.72568C-43.7575 11.7362 -48.5829 14.2856 -52.4954 17.7626C-52.8045 18.0366 -53.1075 18.3163 -53.407 18.6064C-57.9182 22.9474 -60.6952 28.6337 -61.5911 34.6899C-62.5431 41.1301 -61.3419 48.0371 -57.539 53.8232" stroke="#909090" stroke-miterlimit="10"/>
<path d="M110.98 -132.615C106.948 -118.927 96.3958 -107.508 83.3961 -100.588C70.3965 -93.6678 55.1259 -91.0154 40.1036 -91.4954C30.6624 -91.7959 21.216 -93.2861 11.8106 -92.6716C2.40516 -92.0571 -7.33144 -88.9529 -13.0157 -81.8931C-20.1333 -73.0553 -19.1988 -60.6915 -18.5936 -49.4579C-17.5928 -30.987 -19.1873 -10.5477 -32.8781 2.30913C-39.6966 8.71239 -48.9481 12.5888 -55.0619 19.6109C-63.5372 29.3466 -64.1073 44.6405 -56.3837 55.2156" stroke="#8A8A8A" stroke-miterlimit="10"/>
</g>
<g style="mix-blend-mode:multiply">
<path d="M349.63 98.1737C344.468 106.385 338.764 114.298 332.567 121.857C329.81 125.215 326.877 128.576 322.971 130.745C312.989 136.293 299.907 132.616 289.366 127.576C279.655 122.934 270.52 117.229 262.209 110.617C253.974 104.065 246.4 96.5328 236.792 91.9108C227.18 87.2896 214.582 86.2576 206.496 92.6348C201.686 96.4279 199.187 102.314 198.649 108.207C198.112 114.099 199.354 120.047 201.011 125.805C202.909 132.395 205.38 139.234 203.83 145.832C202.222 152.66 196.003 158.268 188.601 159.556C178.071 161.39 167.947 155.194 158.377 150.434C146.215 144.387 132.403 140.241 118.91 141.984C105.417 143.727 92.5555 152.487 89.823 164.864" stroke="#8A8A8A" stroke-miterlimit="10"/>
<path d="M348.139 95.6175C343.059 103.7 337.411 111.463 331.256 118.848C328.519 122.133 325.605 125.406 321.764 127.54C314.049 131.824 304.493 130.642 295.713 127.633C293.322 126.814 290.986 125.861 288.763 124.842C279.196 120.468 270.168 115.038 261.924 108.708C253.76 102.437 246.25 95.1472 236.76 90.6968C231.438 88.2025 225.291 86.6756 219.405 86.7546C214.279 86.8254 209.334 88.1411 205.404 91.1424C204.704 91.6791 204.046 92.2582 203.436 92.8779C199.673 96.69 197.709 101.917 197.173 107.162C196.999 108.846 196.964 110.537 197.028 112.222C197.198 116.623 198.044 121.033 199.058 125.322C200.657 132.132 202.555 139.085 200.706 145.695C198.871 152.259 192.901 157.7 185.678 158.988C175.398 160.819 165.51 154.985 156.182 150.573C155.445 150.225 154.706 149.885 153.958 149.555C142.671 144.534 130.173 141.395 118.026 143.224C105.074 145.174 92.8204 153.837 90.3301 165.936" stroke="#909090" stroke-miterlimit="10"/>
<path d="M346.644 93.056C341.645 101.007 336.055 108.621 329.943 115.84C327.228 119.047 324.332 122.239 320.556 124.335C312.97 128.544 303.619 127.518 295.002 124.717C292.651 123.956 290.355 123.064 288.162 122.11C278.739 118.006 269.817 112.848 261.644 106.799C253.549 100.806 246.099 93.7693 236.732 89.4814C231.215 86.957 224.906 85.3506 218.83 85.3479C213.552 85.347 208.406 86.6202 204.319 89.6509C203.587 90.1913 202.902 90.7804 202.263 91.4146C198.329 95.3061 196.313 100.697 195.701 106.116C195.503 107.853 195.441 109.598 195.477 111.334C195.568 115.869 196.28 120.42 197.108 124.84C198.407 131.867 199.742 138.929 197.589 145.562C195.436 152.195 189.812 157.14 182.762 158.425C172.731 160.249 163.081 154.782 153.993 150.719C153.277 150.398 152.556 150.086 151.828 149.78C140.844 145.176 128.785 142.443 117.145 144.463C104.736 146.617 93.089 155.194 90.8394 167.009" stroke="#959595" stroke-miterlimit="10"/>
<path d="M345.055 90.4491C340.15 98.2672 334.627 105.729 328.573 112.774C325.882 115.904 323.016 119.013 319.306 121.074C311.854 125.211 302.712 124.354 294.254 121.78C291.942 121.08 289.684 120.254 287.523 119.366C278.241 115.546 269.419 110.682 261.312 104.931C253.281 99.2332 245.881 92.4721 236.634 88.3597C230.924 85.8178 224.451 84.1371 218.19 84.0582C212.759 83.9923 207.422 85.2214 203.178 88.2831C202.416 88.8309 201.702 89.4309 201.038 90.0752C196.939 94.049 194.874 99.5993 194.191 105.188C193.973 106.976 193.89 108.772 193.893 110.557C193.909 115.222 194.489 119.912 195.136 124.453C196.143 131.689 196.929 138.837 194.469 145.497C192.244 151.521 186.737 156.641 179.864 157.926C170.085 159.758 160.67 154.672 151.821 150.974C151.123 150.683 150.423 150.4 149.716 150.122C139.033 145.954 127.408 143.647 116.287 145.872C104.428 148.243 93.3974 156.734 91.4089 168.255" stroke="#9B9B9B" stroke-miterlimit="10"/>
<path d="M343.392 87.8066C338.59 95.4852 333.139 102.797 327.144 109.669C324.481 112.724 321.642 115.747 318.003 117.772C310.693 121.838 301.762 121.157 293.458 118.813C291.189 118.176 288.967 117.418 286.836 116.6C277.694 113.071 268.973 108.506 260.93 103.066C252.962 97.6755 245.603 91.2014 236.484 87.2634C230.575 84.7139 223.942 82.9599 217.492 82.8062C211.914 82.6814 206.384 83.87 201.986 86.9631C201.198 87.5175 200.455 88.1249 199.763 88.7837C195.501 92.836 193.391 98.5435 192.647 104.297C192.409 106.138 192.303 107.984 192.281 109.817C192.226 114.606 192.68 119.428 193.147 124.091C193.866 131.531 194.123 138.75 191.35 145.442C188.967 151.19 183.666 156.146 176.979 157.441C167.458 159.285 158.274 154.589 149.664 151.268C148.986 151.006 148.303 150.753 147.614 150.505C137.227 146.784 126.045 144.91 115.442 147.347C104.138 149.943 93.7354 158.348 92.0112 169.566" stroke="#A0A0A0" stroke-miterlimit="10"/>
<path d="M341.718 85.1469C337.016 92.6906 331.638 99.8476 325.703 106.547C323.066 109.524 320.259 112.464 316.687 114.454C309.52 118.452 300.796 117.943 292.654 115.828C290.425 115.258 288.239 114.564 286.14 113.815C277.135 110.579 268.521 106.314 260.537 101.182C252.632 96.0952 245.312 89.9191 236.323 86.1508C230.217 83.5903 223.422 81.7633 216.786 81.5421C211.056 81.356 205.332 82.5043 200.785 85.6281C199.967 86.19 199.198 86.804 198.48 87.4771C194.051 91.6091 191.906 97.4753 191.095 103.394C190.838 105.285 190.708 107.181 190.661 109.061C190.535 113.976 190.874 118.934 191.149 123.714C191.597 131.354 191.321 138.646 188.22 145.373C185.7 150.849 180.589 155.641 174.082 156.943C164.819 158.794 155.865 154.489 147.495 151.544C146.834 151.312 146.172 151.088 145.504 150.87C135.417 147.59 124.675 146.152 114.59 148.8C103.837 151.619 94.0653 159.937 92.6072 170.859" stroke="#A6A6A6" stroke-miterlimit="10"/>
<path d="M340.059 82.5055C335.457 89.9143 330.152 96.9136 324.276 103.44C321.668 106.338 318.886 109.193 315.382 111.152C308.357 115.079 299.838 114.742 291.856 112.86C289.671 112.352 287.522 111.729 285.451 111.046C276.587 108.101 268.075 104.137 260.155 99.3119C252.313 94.5283 245.029 88.6509 236.175 85.051C229.868 82.4877 222.915 80.5833 216.091 80.2879C210.209 80.0407 204.297 81.1515 199.596 84.307C198.748 84.873 197.951 85.5015 197.208 86.1847C192.617 90.3954 190.427 96.4186 189.555 102.506C189.279 104.446 189.125 106.393 189.05 108.32C188.853 113.36 189.063 118.45 189.164 123.348C189.325 131.192 188.541 138.548 185.107 145.315C182.465 150.519 177.528 155.148 171.202 156.456C162.197 158.318 153.475 154.403 145.343 151.83C144.703 151.627 144.057 151.43 143.411 151.244C133.625 148.408 123.324 147.406 113.756 150.261C103.557 153.3 94.4138 161.535 93.2194 172.154" stroke="#ABABAB" stroke-miterlimit="10"/>
<path d="M338.397 79.8654C333.894 87.1359 328.663 93.9847 322.85 100.338C320.27 103.161 317.518 105.929 314.082 107.854C307.198 111.71 298.891 111.547 291.065 109.898C288.919 109.453 286.807 108.898 284.769 108.283C276.046 105.629 267.637 101.965 259.78 97.4432C252.001 92.966 244.752 87.3912 236.034 83.9515C229.526 81.382 222.416 79.4041 215.404 79.0382C209.374 78.7292 203.265 79.8011 198.414 82.9875C197.54 83.5601 196.714 84.1961 195.943 84.8938C191.191 89.1869 188.961 95.3661 188.023 101.615C187.726 103.605 187.554 105.605 187.451 107.58C187.184 112.746 187.269 117.97 187.188 122.987C187.064 131.035 185.788 138.454 182 145.264C179.255 150.202 174.47 154.662 168.326 155.973C159.579 157.843 151.085 154.32 143.196 152.118C142.574 151.946 141.949 151.777 141.324 151.62C131.839 149.228 121.978 148.657 112.929 151.722C103.285 154.984 94.764 163.129 93.8377 173.448" stroke="#B1B1B1" stroke-miterlimit="10"/>
<path d="M336.608 77.1854C332.214 84.3183 327.066 91.0114 321.322 97.1913C318.772 99.9369 316.053 102.623 312.691 104.514C305.955 108.302 297.863 108.31 290.196 106.911C288.092 106.527 286.019 106.046 284.014 105.502C275.433 103.153 267.126 99.7986 259.327 95.5968C251.609 91.4349 244.389 86.184 235.809 82.9092C229.096 80.3483 221.832 78.3026 214.634 77.8713C208.454 77.5121 202.159 78.5492 197.156 81.767C196.254 82.3475 195.399 82.9913 194.606 83.7026C189.699 88.0754 187.433 94.407 186.441 100.818C186.128 102.855 185.935 104.904 185.806 106.925C185.473 112.207 185.438 117.564 185.186 122.694C184.785 130.938 183.041 138.419 178.898 145.26C176.068 149.932 171.432 154.218 165.474 155.544C156.986 157.432 148.728 154.31 141.078 152.489C140.477 152.346 139.87 152.209 139.262 152.082C130.08 150.145 120.662 150.014 112.139 153.294C103.052 156.783 95.1755 164.843 94.5252 174.852" stroke="#B7B7B7" stroke-miterlimit="10"/>
<path d="M334.707 74.498C330.432 81.4884 325.371 88.031 319.701 94.0392C317.183 96.7073 314.504 99.3109 311.214 101.17C304.632 104.893 296.751 105.085 289.248 103.933C287.185 103.617 285.148 103.207 283.177 102.735C274.739 100.695 266.535 97.659 258.799 93.7827C251.143 89.9427 243.951 85.0223 235.509 81.9226C228.59 79.3817 221.173 77.2675 213.796 76.7832C207.467 76.376 200.99 77.3831 195.844 80.6407C194.914 81.2296 194.037 81.8842 193.214 82.6077C188.153 87.0626 185.863 93.5472 184.823 100.11C184.495 102.194 184.283 104.29 184.134 106.355C183.742 111.754 183.589 117.235 183.175 122.478C182.506 130.914 180.318 138.46 175.809 145.333C172.912 149.748 168.412 153.858 162.643 155.197C154.423 157.104 146.397 154.392 138.993 152.955C138.41 152.843 137.824 152.736 137.237 152.64C128.361 151.162 119.39 151.476 111.397 154.969C102.878 158.685 95.6481 166.656 95.2843 176.351" stroke="#BCBCBC" stroke-miterlimit="10"/>
<path d="M332.804 71.821C328.644 78.6755 323.67 85.0614 318.075 90.9033C315.593 93.4939 312.944 96.0179 309.731 97.8445C303.301 101.502 295.635 101.88 288.296 100.972C286.277 100.721 284.279 100.381 282.338 99.9824C274.045 98.247 265.946 95.5266 258.271 91.9733C250.679 88.4549 243.511 83.8665 235.21 80.9309C228.087 78.4126 220.518 76.2295 212.957 75.6863C206.484 75.23 199.817 76.2132 194.532 79.5038C193.573 80.0979 192.669 80.7642 191.824 81.5019C186.615 86.0394 184.299 92.675 183.21 99.4C182.866 101.531 182.64 103.674 182.468 105.788C182.017 111.306 181.752 116.915 181.168 122.271C180.227 130.9 177.614 138.521 172.729 145.426C169.781 149.589 165.402 153.52 159.819 154.869C151.866 156.797 144.075 154.486 136.916 153.435C136.35 153.353 135.785 153.276 135.22 153.21C126.651 152.187 118.13 152.941 110.668 156.648C102.718 160.592 96.1336 168.474 96.0488 177.855" stroke="#C2C2C2" stroke-miterlimit="10"/>
<path d="M330.887 69.1627C326.841 75.8829 321.953 82.1175 316.429 87.7877C313.98 90.3057 311.367 92.742 308.227 94.5406C301.946 98.1343 294.502 98.6935 287.324 98.0245C285.346 97.8387 283.387 97.573 281.479 97.2415C273.333 95.8078 265.338 93.4007 257.732 90.165C250.206 86.9616 243.066 82.7089 234.911 79.93C227.584 77.4336 219.863 75.181 212.12 74.5823C205.498 74.0779 198.649 75.0323 193.222 78.3649C192.24 78.9668 191.308 79.6417 190.439 80.3947C185.082 85.0195 182.738 91.8087 181.602 98.6927C181.244 100.872 180.999 103.067 180.803 105.223C180.293 110.862 179.913 116.602 179.162 122.069C177.955 130.897 174.932 138.604 169.647 145.534C166.655 149.457 162.387 153.197 156.992 154.562C149.306 156.509 141.751 154.593 134.838 153.923C134.294 153.871 133.747 153.824 133.202 153.784C124.943 153.213 116.873 154.403 109.942 158.321C102.556 162.488 96.6149 170.281 96.8113 179.353" stroke="#C7C7C7" stroke-miterlimit="10"/>
<path d="M328.957 66.5135C325.023 73.0974 320.219 79.1863 314.773 84.6876C312.355 87.1303 309.776 89.4871 306.712 91.2532C300.583 94.7855 293.354 95.5227 286.345 95.0886C284.41 94.9713 282.492 94.7706 280.615 94.5106C272.614 93.377 264.731 91.2786 257.19 88.3599C249.73 85.4688 242.618 81.5498 234.612 78.9242C227.08 76.4535 219.211 74.1263 211.284 73.4688C204.514 72.9162 197.481 73.8466 191.915 77.2142C190.905 77.8251 189.951 78.5112 189.054 79.2728C183.549 83.9827 181.181 90.9259 179.991 97.9726C179.616 100.205 179.355 102.445 179.139 104.647C178.571 110.407 178.062 116.275 177.163 121.862C175.669 130.89 172.275 138.703 166.58 145.646C163.555 149.334 159.381 152.884 154.176 154.26C146.752 156.222 139.44 154.704 132.775 154.409C132.248 154.388 131.723 154.371 131.196 154.361C123.245 154.238 115.631 155.863 109.231 159.987C102.412 164.374 97.1142 172.08 97.5855 180.846" stroke="#CDCDCD" stroke-miterlimit="10"/>
<path d="M327.012 63.8691C323.193 70.3204 318.469 76.258 313.095 81.5966C310.707 83.9644 308.166 86.2413 305.173 87.9759C299.195 91.4431 292.181 92.3568 285.341 92.1636C283.447 92.1108 281.568 91.9792 279.726 91.789C271.875 90.9525 264.101 89.158 256.631 86.5564C249.242 83.9789 242.158 80.3912 234.301 77.9097C226.444 75.4282 218.546 73.0584 210.438 72.3488C203.526 71.7506 196.307 72.6505 190.599 76.0584C189.56 76.6748 188.581 77.3734 187.663 78.1496C182.006 82.9468 179.615 90.0452 178.38 97.2578C177.99 99.5389 177.711 101.828 177.471 104.077C176.845 109.961 176.225 115.963 175.158 121.669C173.398 130.897 169.632 138.831 163.504 145.781C160.451 149.241 156.369 152.596 151.349 153.982C144.192 155.961 137.12 154.835 130.703 154.913C130.197 154.918 129.691 154.934 129.186 154.953C121.547 155.273 114.388 157.331 108.519 161.662C102.269 166.27 97.6095 173.882 98.3532 182.344" stroke="#D2D2D2" stroke-miterlimit="10"/>
<path d="M325.065 61.246C321.356 67.5666 316.716 73.3561 311.41 78.5296C309.058 80.8253 306.544 83.021 303.627 84.723C297.799 88.1251 291.003 89.2206 284.33 89.2564C282.482 89.2667 280.642 89.2036 278.831 89.084C271.132 88.546 263.469 87.0535 256.067 84.7646C248.748 82.4952 241.698 79.2437 233.99 76.9043C226.281 74.5649 217.884 72.0019 209.594 71.2368C202.536 70.5902 195.136 71.4659 189.288 74.9147C188.225 75.5395 187.218 76.2471 186.275 77.0391C180.472 81.9236 178.058 89.1821 176.773 96.556C176.368 98.8865 176.076 101.229 175.813 103.525C175.129 109.533 174.393 115.667 173.163 121.497C171.139 130.933 167.018 139.008 160.443 145.941C157.369 149.184 153.369 152.334 148.535 153.727C141.643 155.717 134.813 154.984 128.647 155.434C128.159 155.469 127.675 155.514 127.191 155.562C119.867 156.325 113.163 158.81 107.828 163.346C102.146 168.169 98.1246 175.693 99.1371 183.849" stroke="#D8D8D8" stroke-miterlimit="10"/>
<path d="M323.093 58.6213C319.493 64.8086 314.937 70.4542 309.699 75.463C307.377 77.6844 304.896 79.8017 302.053 81.471C296.375 84.8077 289.796 86.0804 283.295 86.3463C281.489 86.4203 279.69 86.4289 277.914 86.375C270.367 86.1307 262.817 84.942 255.488 82.9632C248.242 81.0002 241.222 78.0843 233.668 75.8842C225.516 73.5087 217.212 70.9298 208.745 70.1045C201.539 69.4095 193.956 70.2588 187.97 73.7483C186.881 74.3824 185.847 75.0993 184.883 75.9064C178.935 80.8825 176.492 88.2964 175.163 95.839C174.744 98.2193 174.433 100.612 174.151 102.956C173.408 109.086 172.564 115.36 171.17 121.311C168.882 130.953 164.428 139.193 157.388 146.098C154.293 149.132 150.369 152.067 145.724 153.472C139.099 155.477 132.512 155.132 126.596 155.951C126.13 156.015 125.664 156.089 125.203 156.167C118.195 157.37 111.942 160.281 107.141 165.017C102.022 170.054 98.6361 177.486 99.9199 185.34" stroke="#DEDEDE" stroke-miterlimit="10"/>
<path d="M321.138 55.9998C317.646 62.0578 313.172 67.5566 308 72.3978C305.708 74.545 303.261 76.5795 300.49 78.2205C294.961 81.4916 288.6 82.9404 282.269 83.4396C280.506 83.577 278.75 83.6525 277.01 83.6673C269.616 83.7153 262.181 82.829 254.922 81.1565C247.75 79.5021 240.76 76.9211 233.362 74.8544C225.006 72.5185 216.558 69.8469 207.911 68.9658C200.563 68.2212 192.797 69.0477 186.671 72.5795C185.554 73.2231 184.498 73.9518 183.509 74.7716C177.415 79.8368 174.947 87.4142 173.572 95.1233C173.139 97.5538 172.81 99.9976 172.505 102.39C171.705 108.648 170.746 115.057 169.189 121.13C166.638 130.984 161.865 139.414 154.344 146.268C151.235 149.102 147.382 151.816 142.923 153.229C136.563 155.248 130.215 155.287 124.557 156.477C124.109 156.57 123.664 156.67 123.222 156.781C116.532 158.423 110.735 161.758 106.464 166.696C101.912 171.949 99.1598 179.287 100.709 186.842" stroke="#E3E3E3" stroke-miterlimit="10"/>
<path d="M319.155 53.389C315.773 59.3137 311.376 64.6671 306.276 69.3468C304.013 71.4235 301.597 73.3764 298.9 74.9844C293.52 78.1896 287.377 79.8134 281.216 80.5415C279.5 80.7446 277.779 80.8852 276.075 80.9687C268.836 81.3078 261.516 80.7228 254.334 79.3578C247.237 78.0074 240.283 75.7662 233.037 73.8255C224.475 71.5333 215.885 68.7607 207.058 67.8235C199.564 67.0302 191.615 67.8306 185.354 71.4044C184.212 72.0531 183.127 72.7958 182.117 73.6308C175.874 78.787 173.387 86.5235 171.964 94.4014C171.516 96.8826 171.175 99.3803 170.846 101.822C169.989 108.208 168.917 114.756 167.197 120.954C164.386 131.022 159.316 139.672 151.296 146.448C148.169 149.087 144.386 151.577 140.115 152.997C134.016 155.026 127.919 155.452 122.514 157.012C122.089 157.134 121.662 157.264 121.243 157.403C114.871 159.483 109.53 163.24 105.789 168.38C101.803 173.844 99.6818 181.088 101.494 188.343" stroke="#E9E9E9" stroke-miterlimit="10"/>
<path d="M317.174 50.7823C313.898 56.5784 309.581 61.7857 304.546 66.3016C302.316 68.3033 299.931 70.1781 297.304 71.754C292.073 74.8963 286.152 76.7047 280.157 77.647C278.485 77.9165 276.807 78.12 275.135 78.2728C268.048 78.9031 260.845 78.6184 253.74 77.5599C246.722 76.5115 239.801 74.6146 232.706 72.7986C223.937 70.5541 215.21 67.6788 206.203 66.6854C198.569 65.8455 190.437 66.62 184.035 70.2337C182.867 70.8921 181.759 71.6434 180.724 72.4948C174.338 77.7451 171.825 85.6437 170.358 93.6907C169.896 96.2229 169.536 98.7725 169.185 101.263C168.271 107.779 167.089 114.464 165.208 120.791C162.131 131.073 156.783 139.973 148.249 146.647C145.107 149.102 141.391 151.353 137.305 152.78C131.47 154.821 125.619 155.63 120.469 157.556C120.062 157.708 119.657 157.866 119.26 158.034C113.208 160.55 108.325 164.732 105.112 170.068C101.688 175.747 100.2 182.894 102.271 189.847" stroke="#EEEEEE" stroke-miterlimit="10"/>
<path d="M315.187 48.1796C312.017 53.8475 307.779 58.9088 302.809 63.261C300.607 65.1888 298.252 66.9853 295.7 68.5279C290.612 71.6046 284.913 73.5855 279.094 74.7577C277.465 75.0899 275.83 75.3595 274.192 75.5815C267.262 76.5048 260.176 76.516 253.149 75.7634C246.209 75.0173 239.325 73.4629 232.386 71.7695C223.414 69.5794 214.546 66.594 205.36 65.5407C197.581 64.6516 189.271 65.3992 182.731 69.0602C181.536 69.7285 180.406 70.4919 179.346 71.3563C172.815 76.6981 170.28 84.7589 168.765 92.977C168.29 95.5606 167.912 98.1625 167.542 100.702C166.571 107.348 165.277 114.175 163.234 120.629C159.898 131.129 154.285 140.316 145.225 146.852C142.066 149.131 138.418 151.138 134.517 152.572C128.945 154.62 123.343 155.815 118.45 158.106C118.066 158.286 117.68 158.474 117.301 158.671C111.566 161.624 107.144 166.225 104.459 171.76C101.6 177.648 100.734 184.7 103.068 191.352" stroke="#F4F4F4" stroke-miterlimit="10"/>
<path d="M313.195 45.5734C310.128 51.1097 305.969 56.0285 301.061 60.2134C298.887 62.0672 296.567 63.7845 294.084 65.2945C289.142 68.3041 283.666 70.4568 278.014 71.8567C276.432 72.2504 274.836 72.5916 273.233 72.8781C266.459 74.0902 259.493 74.4002 252.542 73.9538C245.681 73.5126 238.836 72.3002 232.052 70.7249C222.874 68.5932 213.869 65.4927 204.505 64.3826C196.582 63.444 188.092 64.1691 181.412 67.871C180.194 68.548 179.034 69.3222 177.953 70.2023C171.279 75.6361 168.719 83.8644 167.157 92.2547C166.667 94.8901 166.272 97.5445 165.883 100.137C164.856 106.913 163.45 113.884 161.247 120.466C157.65 131.183 151.785 140.692 142.184 147.059C139.001 149.167 135.424 150.926 131.71 152.364C126.402 154.422 121.047 156 116.41 158.655C116.044 158.864 115.681 159.081 115.323 159.303C109.909 162.691 105.945 167.711 103.787 173.444C101.491 179.54 101.251 186.498 103.841 192.852" stroke="#F9F9F9" stroke-miterlimit="10"/>
<path d="M311.208 42.9712C304.325 55.5348 291.388 64.6671 276.943 68.9632C262.496 73.2559 246.663 72.9681 231.733 69.6795C222.35 67.6139 213.209 64.3862 203.67 63.2179C194.132 62.0497 183.745 63.2389 176.586 69.0443C167.625 76.3085 165.982 88.5204 164.254 99.563C161.407 117.727 155.557 137.321 139.18 147.267C131.022 152.219 120.958 154.253 113.382 159.937C102.871 167.818 99.1212 182.596 104.646 194.341" stroke="white" stroke-miterlimit="10"/>
</g>
<g style="mix-blend-mode:multiply">
<path d="M195.744 -95.7333C201.343 -84.502 192.997 -70.8138 181.715 -65.1651C170.432 -59.5198 157.152 -59.4334 144.492 -58.0482C131.833 -56.6629 118.261 -53.1913 110.78 -43.233C101.215 -30.5025 104.715 -11.3053 94.6023 1.01492C86.7214 10.6185 72.883 12.9418 60.8556 11.5415C54.0556 10.7509 47.491 7.85373 40.7894 6.51801C10.3938 0.46497 -1.52572 -28.0116 -24.6282 -25.416C-49.6445 -22.6006 -58.4081 -7.39117 -60.1026 1.74776C-62.2731 13.4574 -62.6658 42.1541 -33.313 52.5884C-21.3892 56.8269 -9.41341 61.5813 0.838227 68.9124C16.1884 79.8872 23.7972 101.754 14.7449 117.804C8.5378 128.801 -4.32396 136.222 -6.82511 148.574C-8.50528 156.873 -4.78122 165.682 1.33028 171.817C7.44056 177.949 15.6515 181.716 24.0106 184.221" stroke="#8A8A8A" stroke-miterlimit="10"/>
<path d="M195.101 -96.0764C200.356 -84.3674 192.241 -70.2016 180.675 -64.1993C169.385 -58.3388 155.903 -58.1659 143.143 -57.0335C130.382 -55.9011 117.135 -52.9514 109.454 -43.6331C99.6472 -31.7127 102.201 -13.2591 92.0511 -1.06437C83.9524 8.6173 70.5614 11.5823 58.4845 10.8537C51.5455 10.4331 44.6478 7.93202 37.6597 6.63518C8.02671 1.14338 -3.89118 -26.2685 -26.5286 -23.7704C-50.8737 -21.0741 -59.7982 -6.49992 -61.7147 2.56596C-64.1444 14.0548 -64.4485 41.6535 -36.4148 52.293C-24.8566 56.6789 -13.1608 61.6907 -3.03691 68.9933C11.9004 79.7205 19.3954 100.746 11.0291 116.439C5.23859 127.296 -7.02028 134.887 -9.54975 147.086C-11.297 155.427 -7.92538 164.202 -2.24047 170.529C3.49333 176.917 11.3521 181.158 19.5787 184.091" stroke="#909090" stroke-miterlimit="10"/>
<path d="M194.442 -96.5811C199.355 -84.3955 191.476 -69.7441 179.636 -63.3775C168.348 -57.3058 154.674 -57.034 141.814 -56.1575C129.257 -55.3012 116.043 -52.8422 108.171 -44.1545C98.133 -33.0414 99.7687 -15.2971 89.5588 -3.24509C81.274 6.53491 68.3034 10.1444 56.1898 10.0745C49.1104 10.0335 41.889 7.91422 34.615 6.66122C5.77287 1.6905 -6.15306 -24.623 -28.3127 -22.2209C-51.9745 -19.6371 -61.0426 -5.68862 -63.1823 3.30603C-65.8647 14.5748 -66.0722 41.108 -39.3784 51.9347C-28.1906 56.4711 -16.7852 61.7377 -6.78457 69.0144C7.73194 79.5008 15.1165 99.6972 7.44643 115.032C2.08075 125.758 -9.56668 133.52 -12.1243 145.568C-13.9344 153.96 -10.9138 162.706 -5.66244 169.224C-0.302583 175.872 7.19638 180.588 15.285 183.946" stroke="#959595" stroke-miterlimit="10"/>
<path d="M193.778 -97.0798C198.35 -84.4147 190.707 -69.2897 178.591 -62.5511C167.299 -56.2706 153.437 -55.8934 140.48 -55.2737C127.984 -54.6745 114.948 -52.7291 106.885 -44.6716C96.6145 -34.3608 97.3161 -17.3474 87.0639 -5.42087C78.5783 4.45033 66.0342 8.72101 53.8954 9.29791C46.6694 9.64182 39.133 7.89712 31.5645 6.68663C3.52526 2.20248 -8.42431 -22.9782 -30.1056 -20.6718C-53.0836 -18.2003 -62.295 -4.87717 -64.6583 4.0462C-67.584 15.0996 -67.7001 40.5852 -42.3467 51.5791C-31.5189 56.2739 -20.4302 61.811 -10.5414 69.039C3.52713 79.32 10.8343 98.6581 3.85307 113.633C-1.08615 124.231 -12.0933 132.169 -14.704 144.063C-16.5568 152.506 -13.9137 161.227 -9.08825 167.926C-4.10397 174.841 3.03446 180.021 10.9824 183.806" stroke="#9B9B9B" stroke-miterlimit="10"/>
<path d="M193.121 -97.5775C197.35 -84.4333 189.938 -68.8373 177.549 -61.7284C166.252 -55.2464 152.208 -54.7546 139.149 -54.3974C126.71 -54.0541 113.858 -52.6194 105.599 -45.1942C95.0989 -35.6863 94.8635 -19.3991 84.571 -7.60259C75.8845 2.35959 63.7599 7.30472 51.5974 8.51182C44.2221 9.24484 36.3714 7.8663 28.5141 6.7039C1.28609 2.67296 -10.6968 -21.3459 -31.8982 -19.1318C-54.1904 -16.7689 -63.5393 -4.07652 -66.1334 4.77777C-69.3039 15.6124 -69.3245 40.0728 -45.3166 51.2118C-34.848 56.0682 -24.0684 61.8538 -14.2972 69.0503C-0.658318 79.1008 6.55552 97.6131 0.26495 112.221C-4.24852 122.7 -14.6364 130.796 -17.2775 142.544C-19.1864 151.034 -16.9092 159.743 -12.5079 166.617C-8.10651 173.491 -1.12244 179.442 6.68793 183.655" stroke="#A0A0A0" stroke-miterlimit="10"/>
<path d="M192.459 -98.0828C196.342 -84.4623 189.165 -68.3932 176.504 -60.9108C165.2 -54.2308 150.974 -53.6213 137.815 -53.5229C125.435 -53.4318 112.748 -52.5283 104.315 -45.7187C93.5618 -37.0361 92.4067 -21.4575 82.0778 -9.78056C73.1853 0.2702 61.4817 5.90427 49.3036 7.73084C41.7741 8.86174 33.6166 7.83872 25.4668 6.72541C-0.941179 3.11445 -12.9648 -19.7071 -33.6832 -17.5896C-55.29 -15.3385 -64.7783 -3.27176 -67.6 5.51233C-71.0106 16.1306 -70.9347 39.5898 -48.2788 50.848C-38.1676 55.8727 -27.6953 61.902 -18.0502 69.0657C-4.83906 78.8814 2.28659 96.5824 -3.31949 110.815C-7.40071 121.18 -17.1734 129.432 -19.8509 141.029C-21.8205 149.564 -19.9073 158.267 -15.9283 165.312C-11.7037 172.786 -5.27664 178.869 2.3875 183.506" stroke="#A6A6A6" stroke-miterlimit="10"/>
<path d="M191.799 -98.5859C195.339 -84.4874 188.391 -67.9547 175.459 -60.0925C164.147 -53.2181 149.739 -52.483 136.476 -52.6502C124.157 -52.8077 111.651 -52.4245 103.024 -46.2429C92.0401 -38.3655 89.9433 -23.5114 79.579 -11.962C70.4838 -1.82398 59.1977 4.51114 47 6.94635C39.317 8.47817 30.8535 7.80226 22.4083 6.74244C-3.17562 3.52731 -15.2452 -18.0774 -35.4824 -16.0518C-56.3995 -13.9133 -66.0236 -2.47295 -69.0765 6.24203C-72.7239 16.6429 -72.5567 39.1301 -51.251 50.4832C-41.4905 55.6852 -31.3342 61.9453 -21.8141 69.0797C-9.03106 78.6606 -1.98617 95.56 -6.91412 109.408C-10.565 119.665 -19.7244 128.066 -22.4289 139.516C-24.4581 148.1 -22.9151 156.803 -19.3556 164.005C-15.5175 171.764 -9.44357 178.29 -1.91777 183.354" stroke="#ABABAB" stroke-miterlimit="10"/>
<path d="M216.372 -100.218C217.675 -82.0001 208.225 -63.4305 193.21 -56.9759C180.331 -51.439 164.899 -54.1441 150.927 -58.0964C138.117 -61.7152 125.194 -65.0517 115.158 -60.6737C102.387 -55.1084 97.2116 -39.0225 84.6849 -28.0426C73.4813 -18.2181 61.0849 -12.5868 47.8354 -12.1043C39.335 -11.7928 30.1753 -14.4524 21.1418 -17.8907C-4.44273 -27.633 -14.3036 -55.0496 -35.3117 -57.8106C-56.8342 -60.577 -68.5967 -50.1638 -73.2657 -40.6874C-78.7723 -29.5252 -81.5382 -3.74207 -62.1989 15.0097C-53.0755 23.8575 -43.6615 34.1165 -34.7945 45.0078C-23.1359 59.3336 -18.0872 80.3528 -24.4482 95.3255C-29.2501 106.629 -39.4306 114.635 -43.892 127.43C-47.2997 137.201 -47.3009 147.892 -45.032 157.488C-42.5472 167.986 -37.5157 177.768 -30.5341 186.212" stroke="#B1B1B1" stroke-miterlimit="10"/>
<path d="M190.483 -99.5828C193.333 -84.5329 186.836 -67.0761 173.368 -58.4532C162.032 -51.1963 147.273 -50.1922 133.805 -50.9017C121.612 -51.5422 109.462 -52.2155 100.457 -47.2839C89.0089 -41.0178 85.0245 -27.6189 74.5932 -16.314C65.0834 -6.00309 54.6458 1.77062 42.4063 5.38387C34.4167 7.74268 25.3382 7.72211 16.2969 6.77786C-7.61982 4.28001 -19.798 -14.8129 -39.0701 -12.9785C-58.6113 -11.0588 -68.4946 -0.869991 -72.0237 7.70317C-76.1296 17.6685 -75.8036 38.2985 -57.1971 49.7543C-48.1298 55.3375 -38.6132 62.0299 -29.3436 69.1058C-17.4119 78.2115 -10.5084 93.5418 -14.1025 106.596C-16.8721 116.657 -24.8213 125.34 -27.5843 136.494C-29.7345 145.172 -28.9518 153.887 -26.2115 161.398C-23.1648 169.747 -17.7813 177.141 -10.5382 183.054" stroke="#B7B7B7" stroke-miterlimit="10"/>
<path d="M189.845 -100.077C192.345 -84.5513 186.069 -66.6455 172.331 -57.6406C160.981 -50.1988 146.042 -49.0539 132.467 -50.0409C120.337 -50.9199 108.364 -52.1232 99.1624 -47.8198C87.4817 -42.3591 82.5454 -29.6921 72.0789 -18.5069C62.354 -8.11274 52.3429 0.392944 40.0783 4.57405C31.9322 7.3544 22.5476 7.64365 13.2048 6.76436C-9.87911 4.59231 -22.1134 -13.2175 -40.9103 -11.4749C-59.7671 -9.66773 -69.777 -0.106238 -73.5529 8.39256C-77.885 18.1424 -77.4972 37.885 -60.2284 49.3413C-51.5059 55.1294 -42.3132 62.0195 -33.1632 69.0679C-21.6557 77.9374 -14.8073 92.4925 -17.7514 105.136C-20.0754 115.109 -27.4314 123.92 -30.2244 134.922C-32.4397 143.648 -32.0422 152.368 -29.7058 160.03C-27.0667 168.674 -22.0146 176.499 -14.915 182.835" stroke="#BCBCBC" stroke-miterlimit="10"/>
<path d="M189.196 -100.569C191.346 -84.5745 185.288 -66.2166 171.28 -56.828C159.908 -49.208 144.794 -47.9139 131.113 -49.1785C119.041 -50.295 107.249 -52.0257 97.8529 -48.3548C85.9388 -43.6995 80.0476 -31.7684 69.5482 -20.7048C59.609 -10.2331 50.027 -0.986586 37.7272 3.75987C29.4281 6.96309 19.7288 7.55213 10.0858 6.74416C-12.1613 4.87685 -24.4598 -11.6256 -42.7775 -9.98448C-60.9503 -8.28994 -71.0828 0.646289 -75.11 9.07119C-79.6657 18.6038 -79.228 37.4931 -63.2887 48.9196C-54.9103 54.9269 -46.0382 62.0016 -37.0159 69.0213C-25.9304 77.6499 -19.1249 91.4417 -21.4327 103.668C-23.3016 113.557 -30.0754 122.486 -32.893 133.342C-35.1717 142.111 -35.1736 150.844 -33.2312 158.652C-31.008 167.594 -26.2857 175.844 -19.3254 182.603" stroke="#C2C2C2" stroke-miterlimit="10"/>
<path d="M188.559 -101.058C190.36 -84.5913 184.515 -65.7926 170.237 -56.0145C158.844 -48.2134 143.55 -46.773 129.765 -48.3198C117.753 -49.6667 106.142 -51.9355 96.5464 -48.8912C84.4037 -45.0383 77.5515 -33.8455 67.0152 -22.9026C56.8572 -12.3529 47.7097 -2.36081 35.375 2.942C26.9244 6.57412 16.9092 7.45081 6.96287 6.71829C-14.4445 5.13952 -26.8108 -10.0413 -44.6512 -8.49687C-62.1357 -6.91592 -72.3933 1.39993 -76.6736 9.74722C-81.4522 19.0659 -80.9806 37.1345 -66.3624 48.4929C-58.3321 54.7315 -49.7755 61.9733 -40.88 68.9678C-30.218 77.3521 -23.4393 90.3916 -25.1242 102.194C-26.5243 112.004 -32.7273 121.051 -35.5746 131.757C-37.9195 140.573 -38.3227 149.315 -36.773 157.265C-34.9738 166.506 -30.5741 175.181 -23.7584 182.361" stroke="#C7C7C7" stroke-miterlimit="10"/>
<path d="M187.923 -101.549C189.369 -84.6137 183.741 -65.3726 169.191 -55.2093C157.774 -47.2346 142.304 -45.6348 128.412 -47.4669C116.458 -49.043 105.031 -51.8459 95.2409 -49.4333C82.8661 -46.3811 75.0519 -35.9264 64.4867 -25.1033C54.1091 -14.476 45.4018 -3.73351 33.0218 2.12007C24.4236 6.18261 14.088 7.33598 3.83539 6.68304C-16.7327 5.37786 -29.1717 -8.50462 -46.5293 -7.02033C-63.8869 -5.53605 -73.7035 2.14211 -78.2411 10.4127C-83.2346 19.5186 -82.7556 36.8025 -69.4371 48.0581C-61.7616 54.5446 -53.5189 61.9373 -44.7503 68.9064C-34.5088 77.0454 -27.7422 89.3405 -28.8219 100.711C-29.7466 110.447 -35.3854 119.603 -38.259 130.159C-40.6717 139.018 -41.4806 147.77 -40.3184 155.866C-38.948 165.407 -34.8696 174.501 -28.1944 182.104" stroke="#CDCDCD" stroke-miterlimit="10"/>
<path d="M187.29 -102.031C188.383 -84.6259 182.962 -64.9477 168.145 -54.3945C156.7 -46.2454 141.057 -44.4878 127.059 -46.6087C115.167 -48.4115 103.919 -51.7501 93.9361 -49.9652C81.3296 -47.7131 72.5511 -37.9998 61.9532 -27.2955C51.3541 -16.5946 43.0937 -5.09341 30.6639 1.2997C21.9196 5.79871 11.2615 7.21322 0.701913 6.6508C-19.0226 5.60661 -31.5354 -6.93377 -48.4097 -5.54365C-65.284 -4.15353 -75.0135 2.8887 -79.8101 11.0789C-85.019 19.9721 -84.5557 36.506 -72.5165 47.6209C-65.2062 54.3729 -57.265 61.8968 -48.6271 68.8417C-38.8053 76.739 -32.0348 88.2896 -32.5236 99.2297C-32.9556 108.894 -38.0451 118.16 -40.9486 128.567C-43.4294 137.47 -44.6532 146.23 -43.8724 154.47C-42.9414 164.304 -39.1747 173.826 -32.6456 181.849" stroke="#D2D2D2" stroke-miterlimit="10"/>
<path d="M186.655 -102.53C187.394 -84.66 182.18 -64.5453 167.096 -53.5997C155.623 -45.2768 139.804 -43.3539 125.7 -45.7713C113.864 -47.7984 102.805 -51.6709 92.6234 -50.519C79.7855 -49.0662 70.0416 -40.0942 59.4144 -29.5098C48.5931 -18.7356 40.7842 -6.47438 28.2966 0.459568C19.4091 5.39312 8.42391 7.05782 -2.44679 6.59794C-21.3291 5.79651 -33.9134 -5.38198 -50.3084 -4.08811C-65.735 -2.87226 -76.3358 3.61739 -81.3966 11.7248C-86.8186 20.412 -86.4014 36.2216 -75.6152 47.1636C-68.6863 54.193 -61.0333 61.832 -52.5216 68.7551C-43.1189 76.4028 -36.3283 87.2201 -36.2416 97.7285C-36.1636 107.324 -40.7245 116.696 -43.6497 126.955C-46.2001 135.897 -47.842 144.67 -47.4387 153.055C-46.9555 163.186 -43.492 173.127 -37.1085 181.572" stroke="#D8D8D8" stroke-miterlimit="10"/>
<path d="M186.022 -103.012C186.406 -84.6731 181.394 -64.1247 166.044 -52.7922C154.54 -44.2992 138.545 -42.2071 124.34 -44.9186C112.564 -47.1675 101.689 -51.5789 91.3137 -51.057C78.2459 -50.3995 67.5346 -42.1721 56.8745 -31.7064C45.8268 -20.8584 38.4774 -7.83659 25.93 -0.366142C16.9008 5.00802 5.58286 6.90852 -5.59364 6.55645C-23.6314 5.98987 -36.2863 -3.82186 -52.2012 -2.62398C-66.9375 -1.51573 -77.6469 4.35458 -82.976 12.3801C-88.608 20.8603 -88.273 35.977 -78.7076 46.7195C-72.1849 54.0483 -64.7922 61.7819 -56.4153 68.6819C-47.431 76.0836 -40.6018 86.1632 -39.9573 96.2428C-39.3494 105.768 -43.4002 115.248 -46.3483 125.356C-48.971 134.342 -51.0306 143.119 -51.0082 151.654C-50.9798 162.073 -47.8183 172.44 -41.5777 181.306" stroke="#DEDEDE" stroke-miterlimit="10"/>
<path d="M185.395 -103.498C185.419 -84.6911 180.61 -63.7141 164.992 -51.9875C153.457 -43.3284 137.284 -41.0641 122.977 -44.0731C111.256 -46.5379 100.573 -51.4897 90 -51.5996C76.6994 -51.7356 65.022 -44.257 54.3348 -33.9045C43.0589 -22.9864 36.1724 -9.19461 23.5585 -1.19431C14.3951 4.62088 2.73751 6.73941 -8.74776 6.51054C-25.9411 6.1641 -38.6705 -2.26694 -54.1044 -1.16479C-68.1491 -0.163671 -78.9644 5.09469 -84.5647 13.0313C-90.402 21.3068 -90.1893 35.7515 -81.8156 46.2693C-75.7251 53.9161 -68.5662 61.7205 -60.3231 68.6009C-52.0801 75.4813 -44.8678 85.0929 -43.6857 94.7514C-42.5036 104.41 -46.0871 113.795 -49.0605 123.756C-51.7522 132.785 -54.2388 141.565 -54.5909 150.247C-55.0187 160.954 -52.1591 171.749 -46.0669 181.034" stroke="#E3E3E3" stroke-miterlimit="10"/>
<path d="M184.766 -103.992C184.432 -84.7224 179.823 -63.3161 163.939 -51.1974C152.373 -42.3688 136.02 -39.9285 121.615 -43.2392C109.953 -45.9209 99.456 -51.3953 88.6916 -52.1536C75.1587 -53.0594 62.5145 -46.3524 51.7955 -36.1153C40.2908 -25.1274 33.8729 -10.5719 21.1893 -2.03802C11.891 4.21745 -0.110515 6.5431 -11.9027 6.44375C-28.2529 6.31081 -41.0534 -0.705169 -56.0077 0.272052C-69.3547 1.19158 -80.2801 5.81362 -86.152 13.6612C-92.0239 21.5088 -92.1457 35.5224 -84.9192 45.8007C-79.3074 53.7824 -72.3387 61.6362 -64.2322 68.5016C-56.1258 75.367 -49.1205 84.0012 -47.4138 93.2439C-45.7071 102.487 -48.7723 112.326 -51.7673 122.141C-54.5331 131.21 -57.4474 139.991 -58.169 148.826C-59.0637 159.817 -56.4987 171.04 -50.5511 180.744" stroke="#E9E9E9" stroke-miterlimit="10"/>
<path d="M184.146 -104.471C183.452 -84.7355 179.037 -62.9059 162.893 -50.3902C151.291 -41.395 134.759 -38.7757 120.257 -42.3925C108.649 -45.2853 98.3433 -51.3055 87.3867 -52.6921C73.6245 -54.3945 60.0067 -48.4305 49.2631 -38.3109C37.528 -27.257 31.5856 -11.9293 18.8208 -2.87077C9.38683 3.82422 -2.95836 6.33707 -15.0581 6.38942C-30.5686 6.45649 -43.4395 0.837666 -57.9072 1.71875C-70.5612 2.52876 -81.5843 6.54929 -87.7342 14.302C-93.9804 22.1753 -94.1468 35.3091 -88.0205 45.3398C-82.9315 53.6692 -76.1106 61.559 -68.1375 68.4082C-60.1643 75.2575 -53.3511 82.8998 -51.1364 91.7446C-48.8134 101.022 -51.4552 110.865 -54.4707 120.535C-57.3143 129.645 -60.6547 138.424 -61.7467 147.411C-63.1108 158.681 -60.8355 170.338 -55.0381 180.459" stroke="#EEEEEE" stroke-miterlimit="10"/>
<path d="M183.529 -104.959C182.471 -84.7612 178.256 -62.5074 161.848 -49.5944C150.209 -40.4361 133.5 -37.6314 118.902 -41.5542C107.351 -44.6589 97.238 -51.2242 86.091 -53.2353C72.0966 -55.7324 57.4879 -50.5364 46.7365 -40.509C34.7467 -29.4124 29.3035 -13.2901 16.4616 -3.7053C6.90083 3.43317 -5.80421 6.11096 -18.2096 6.33264C-32.8803 6.59661 -45.8221 2.37636 -59.8058 3.16282C-71.7653 3.8639 -82.8855 7.28353 -89.3136 14.9413C-95.762 22.6205 -96.1952 35.0878 -91.1192 44.8814C-86.6141 53.5683 -79.8747 61.4811 -72.0459 68.3176C-64.7262 74.7093 -57.5726 81.7912 -54.8606 90.2504C-51.9231 99.4194 -54.155 109.406 -57.1717 118.931C-60.1077 128.076 -63.8655 136.857 -65.3227 146C-67.162 157.546 -65.1776 169.637 -59.5301 180.177" stroke="#F4F4F4" stroke-miterlimit="10"/>
<path d="M182.904 -105.449C181.484 -84.7873 177.438 -62.1336 160.791 -48.8056C149.1 -39.4996 132.223 -36.4941 117.532 -40.7271C106.032 -44.0415 96.1186 -51.1568 84.7816 -53.7918C70.5581 -57.0874 54.9865 -52.6229 44.2012 -42.7174C31.9871 -31.5462 27.0189 -14.6641 14.0884 -4.55067C4.40008 3.03055 -8.66557 5.84996 -21.3737 6.26197C-35.2118 6.71054 -48.2189 3.89604 -61.7163 4.59164C-72.979 5.18778 -84.1907 8.00942 -90.9035 15.5664C-97.5495 23.0538 -98.3053 34.8311 -94.2347 44.4067C-90.3855 53.4531 -83.6549 61.3818 -75.9744 68.2066C-69.0673 74.3426 -61.8053 80.642 -58.6032 88.7379C-55.0299 97.7782 -56.8466 107.934 -59.8919 117.315C-62.8968 126.505 -67.0941 135.271 -68.9199 144.576C-71.2368 156.394 -69.5421 168.924 -64.0428 179.879" stroke="#F9F9F9" stroke-miterlimit="10"/>
<path d="M182.287 -105.932C180.505 -84.8074 176.669 -61.7141 159.741 -48.0086C148.026 -38.5252 130.953 -35.3413 116.17 -39.8924C104.726 -43.4139 95.006 -51.0763 83.4785 -54.3381C69.0242 -58.4271 52.4904 -54.7019 41.6676 -44.9171C29.2324 -33.6728 24.7354 -16.0303 11.7191 -5.39003C1.90242 2.63325 -11.5269 5.56424 -24.5372 6.19204C-37.5438 6.81874 -50.6143 5.41825 -63.6234 6.01548C-74.1854 6.50278 -85.4941 8.73263 -92.4883 16.1876C-99.3355 23.4844 -100.463 34.5345 -97.3428 43.9274C-94.2228 53.3204 -87.4295 61.277 -79.8928 68.0924C-73.3953 73.9719 -66.0191 79.4695 -62.3352 87.2211C-58.1096 96.1099 -59.5215 106.462 -62.5965 115.694C-65.6716 124.927 -70.3116 133.682 -72.5044 143.143C-75.305 155.23 -73.8974 168.198 -68.5498 179.572" stroke="white" stroke-miterlimit="10"/>
</g>
<g style="mix-blend-mode:multiply">
<path d="M12.313 -147.456C23.9801 -144.756 29.266 -129.116 26.8309 -116.278C24.3959 -103.44 16.6401 -92.5747 10.2198 -81.3696C3.79946 -70.1646 -1.60401 -56.8741 1.41067 -44.3438C5.26661 -28.3305 21.6344 -18.7717 24.8617 -2.57504C27.3766 10.0486 20.9617 22.8175 12.8365 31.7069C8.24138 36.7343 2.2177 40.2041 -2.72142 44.7999C-25.128 65.6392 -53.3706 56.9375 -65.0382 77.4275C-77.672 99.6134 -71.4972 116.579 -65.684 123.865C-58.2369 133.197 -37.081 152.068 -12.0209 134.907C-1.83951 127.937 8.75172 121.261 20.25 117.65C37.4679 112.241 58.2447 120.181 64.873 137.924C69.415 150.083 67.3732 165.352 75.1047 175.371C80.2986 182.103 89.0588 184.763 97.2254 183.752C105.392 182.741 113.033 178.488 119.826 173.299" stroke="white" stroke-miterlimit="10"/>
<path d="M11.4413 -147.216C23.2602 -143.921 29.0543 -128.156 26.7353 -114.861C24.4718 -101.884 16.6777 -90.7996 10.0203 -79.6827C3.44185 -68.6966 -2.22017 -55.8778 0.215194 -43.5992C3.34199 -27.9104 18.6023 -18.0554 21.7285 -1.90563C24.1862 10.9453 18.5308 23.7615 10.8903 33.1196C6.49964 38.4944 0.57888 42.4866 -4.49606 47.3372C-26.0066 67.9015 -53.4499 59.8688 -64.8918 79.9066C-77.1904 101.462 -71.5647 118.15 -65.9304 125.572C-58.7938 134.98 -38.3881 153.079 -13.9803 137.145C-3.91937 130.576 6.69278 124.302 18.0906 120.784C34.8706 115.567 54.9521 123.065 61.7346 140.023C66.4277 151.755 64.8844 166.641 72.4906 176.588C77.6843 183.407 86.2084 186.335 94.267 185.802C102.399 185.264 110.183 181.616 117.204 176.817" stroke="#FBFBFB" stroke-miterlimit="10"/>
<path d="M10.5956 -146.938C22.5711 -143.049 28.8693 -127.162 26.6684 -113.404C24.4675 -99.6463 16.7462 -88.9877 9.84777 -77.9586C3.11516 -67.1902 -2.81009 -54.8469 -0.951849 -42.8182C1.44609 -27.4597 15.6354 -17.3112 18.6335 -1.20338C21.0621 11.8668 16.1394 24.7554 8.97666 34.5644C4.78977 40.2986 -1.02886 44.8015 -6.23572 49.9089C-26.8733 70.157 -53.5023 62.8365 -64.7198 82.4204C-76.6846 103.344 -71.6043 119.747 -66.1536 127.31C-59.3214 136.782 -39.6569 154.123 -15.9088 139.407C-5.95601 133.238 4.66724 127.367 15.9662 123.943C32.3108 118.916 51.7061 125.978 58.6427 142.142C63.492 153.449 62.4423 167.947 69.929 177.823C75.1222 184.724 83.4215 187.929 91.3644 187.869C99.3074 187.81 107.387 184.759 114.643 180.353" stroke="#F6F6F6" stroke-miterlimit="10"/>
<path d="M9.74502 -146.655C21.872 -142.174 28.6714 -126.16 26.5906 -111.943C24.6505 -98.6909 16.8038 -87.1706 9.66921 -76.227C2.78383 -65.6727 -3.40535 -53.8086 -2.12496 -42.0333C-0.458745 -27.0039 12.6454 -16.56 15.5287 -0.49888C17.9147 12.7963 13.7418 25.7671 7.05226 36.013C3.0712 42.1143 -2.6486 47.1174 -7.98936 52.4868C-27.7772 72.3917 -53.5684 65.8107 -64.5614 84.9408C-76.1925 105.232 -71.6573 121.351 -66.388 129.05C-59.8605 138.587 -40.9183 155.183 -17.848 141.676C-7.99592 135.909 2.6368 130.473 13.829 127.105C29.7488 122.318 48.4579 128.894 55.534 144.268C60.5424 155.147 60.0059 169.238 67.3496 179.065C72.5608 186.037 80.6173 189.533 88.4433 189.944C96.5258 190.367 104.575 187.913 112.059 183.898" stroke="#F2F2F2" stroke-miterlimit="10"/>
<path d="M8.89054 -146.38C21.1728 -141.304 28.4661 -125.171 26.5107 -110.489C24.7294 -97.1021 16.867 -85.3594 9.4845 -74.5046C2.45438 -64.1635 -4.00605 -52.7799 -3.30528 -41.2533C-2.36578 -26.5508 9.64715 -15.8088 12.4188 0.20455C14.7589 13.7263 11.3451 26.788 5.1261 37.4644C1.3529 43.9402 -4.27248 49.4297 -9.74476 55.0683C-28.703 74.6019 -53.6401 68.7904 -64.4053 87.4654C-75.7015 107.128 -71.7133 122.955 -66.6266 130.8C-60.4014 140.397 -42.1661 156.262 -19.7957 143.951C-10.0411 138.585 0.589851 133.561 11.6839 130.279C27.1713 125.694 45.2064 131.823 52.4205 146.403C57.5933 156.861 57.5473 170.558 64.7612 180.318C69.9747 187.372 77.8072 191.161 85.5139 192.035C93.2206 192.909 101.753 191.08 109.47 187.459" stroke="#EEEEEE" stroke-miterlimit="10"/>
<path d="M8.02804 -146.099C20.4617 -140.427 28.248 -124.174 26.4211 -109.028C24.7906 -95.5058 16.9205 -83.5396 9.29047 -72.7737C2.1159 -62.6457 -4.63412 -51.7437 -4.49145 -40.4701C-4.30456 -26.0965 6.63985 -15.0567 9.30418 0.911484C11.5982 14.6604 8.95481 27.8289 3.18956 38.9187C-0.374891 45.773 -5.91024 51.7469 -11.5072 57.6525C-29.6548 76.79 -53.7161 71.772 -64.26 89.9944C-75.2224 109.025 -71.7764 124.562 -66.8723 132.553C-60.9495 142.21 -43.4021 157.357 -21.7471 146.23C-12.0792 141.265 -1.45699 136.656 9.53422 133.456C24.5892 129.074 41.9614 134.756 49.2978 148.539C54.6424 158.578 55.0777 171.876 62.1659 181.571C67.3816 188.707 74.9945 192.791 82.5761 194.123C90.6237 195.535 98.9205 194.251 106.867 191.021" stroke="#E9E9E9" stroke-miterlimit="10"/>
<path d="M7.15744 -145.812C19.7444 -139.547 28.0142 -123.168 26.32 -107.553C24.8367 -93.8954 16.9633 -81.7031 9.08496 -71.0298C1.76948 -61.1166 -5.2587 -50.6969 -5.68686 -39.6714C-6.23082 -25.6313 3.62491 -14.2896 6.18421 1.6286C8.43101 15.6013 6.56051 28.8879 1.24629 40.3843C-2.09975 47.6258 -7.55288 54.0715 -13.281 60.2467C-30.634 78.962 -53.8047 74.7644 -64.1242 92.5328C-74.7531 110.931 -71.8455 126.176 -67.1317 134.312C-61.5055 144.024 -44.6345 158.475 -23.7099 148.519C-14.1243 143.957 -3.51654 139.758 7.36959 136.646C21.9891 132.467 38.7134 137.701 46.1652 150.69C51.6858 160.31 52.5985 173.211 59.5558 182.836C64.7734 190.054 72.1667 194.445 79.6234 196.224C87.6559 198.14 96.0744 197.43 104.252 194.595" stroke="#E5E5E5" stroke-miterlimit="10"/>
<path d="M6.30162 -145.523C19.0394 -138.66 27.7934 -122.162 26.2349 -106.081C24.8976 -92.2904 17.0286 -79.8709 8.89982 -69.2856C1.4457 -59.5803 -5.86251 -49.6506 -6.86199 -38.8773C-8.13496 -25.1678 0.628838 -13.5268 3.0843 2.34483C5.28164 16.5462 4.19862 29.9532 -0.675045 41.8486C-3.80191 49.4811 -9.17962 56.3895 -15.0323 62.8439C-31.6081 81.1192 -53.873 77.7606 -63.9682 95.0746C-74.2673 112.841 -71.892 127.788 -67.3661 136.076C-62.0328 145.841 -44.6283 162.458 -25.6468 150.809C-16.6899 145.313 -5.55339 142.862 5.23447 139.836C19.4212 135.856 35.5073 140.645 43.0603 152.84C48.7612 162.045 50.1421 174.544 56.9773 184.103C62.1981 191.406 69.373 196.109 76.7027 198.326C84.7224 200.754 93.2613 200.616 101.665 198.173" stroke="#E1E1E1" stroke-miterlimit="10"/>
<path d="M5.43894 -145.242C18.3276 -137.78 27.5644 -121.167 26.1425 -104.616C24.9444 -90.6899 17.0849 -78.0373 8.70265 -67.551C1.11325 -58.0551 -6.47481 -48.616 -8.04834 -38.0943C-10.0507 -24.7197 -2.3765 -12.7762 -0.0257936 3.04489C2.11775 17.4726 1.83133 31.0084 -2.61008 43.302C-5.51261 51.3318 -10.8207 58.6972 -16.7946 65.4295C-32.6062 83.2493 -53.9547 80.7463 -63.8261 97.6054C-73.7924 114.738 -71.9521 129.388 -67.6182 137.825C-62.5786 147.639 -45.7844 163.873 -27.598 153.087C-18.7364 147.827 -7.60081 145.954 3.08468 143.011C16.8383 139.226 32.3025 143.571 39.9447 154.969C45.837 163.757 47.6757 175.858 54.3848 185.349C59.6077 192.734 66.5636 197.756 73.7686 200.409C81.7744 203.357 90.4304 203.779 99.0691 201.735" stroke="#DCDCDC" stroke-miterlimit="10"/>
<path d="M4.57717 -144.962C17.6189 -136.906 27.3304 -120.167 26.0482 -103.147C24.9891 -89.0857 17.1457 -76.2025 8.5034 -65.8129C0.778769 -56.5268 -7.0889 -47.5789 -9.23484 -37.3056C-11.9614 -24.2642 -5.38459 -12.0233 -3.13301 3.75293C-1.03881 18.4093 -0.522783 32.0716 -4.54459 44.7604C-7.21645 53.1851 -12.4638 61.0032 -18.5602 68.0221C-33.625 85.3684 -54.0419 83.7398 -63.6897 100.144C-73.3236 116.642 -72.0154 130.989 -67.8713 139.583C-63.1182 149.443 -46.9577 165.274 -29.549 155.369C-20.7551 150.363 -9.65228 149.049 0.936559 146.195C14.2576 142.605 29.1097 146.499 36.8302 157.11C42.9204 165.479 45.2101 177.183 51.7965 186.604C57.0183 194.073 63.7574 199.422 70.8358 202.502C78.8255 205.976 87.6053 206.957 96.4734 205.305" stroke="#D8D8D8" stroke-miterlimit="10"/>
<path d="M3.71282 -144.675C16.9053 -136.02 27.088 -119.165 25.953 -101.675C25.0316 -87.4819 17.2052 -74.3645 8.30631 -64.0732C0.451968 -54.9912 -7.69948 -46.5373 -10.4228 -36.5189C-13.874 -23.8149 -8.39128 -11.2698 -6.23977 4.45766C-4.20258 19.3415 -2.87166 33.1375 -6.47653 46.2146C-8.91257 55.0405 -14.1105 63.2996 -20.3238 70.6111C-34.6547 87.4683 -54.1293 86.7305 -63.5571 102.68C-72.8589 118.544 -72.079 132.587 -68.1309 141.34C-63.662 151.241 -48.1595 166.645 -31.5046 157.649C-22.7486 152.922 -11.7047 152.14 -1.2156 149.376C11.6735 145.982 25.9287 149.422 33.7166 159.247C40.0158 167.196 42.7417 178.505 49.209 187.855C54.4308 195.41 60.9502 201.088 67.9076 204.589C75.8769 208.598 84.7848 210.129 93.8787 208.872" stroke="#D4D4D4" stroke-miterlimit="10"/>
<path d="M2.85799 -144.397C16.2046 -135.145 26.8559 -118.169 25.8668 -100.212C25.0764 -85.885 17.2756 -72.5287 8.11478 -62.3418C0.130758 -53.4643 -8.30203 -45.5097 -11.6 -35.7395C-15.7741 -23.3701 -11.3889 -10.5234 -9.33182 5.1489C-7.2747 20.8212 -5.19545 34.1899 -8.3982 47.6571C-10.5921 56.8818 -15.7517 65.5825 -22.0754 73.1841C-35.6841 89.5403 -54.2066 89.7061 -63.4114 105.2C-72.3815 120.429 -72.1294 134.166 -68.3782 143.075C-64.1931 153.017 -50.4195 164.394 -33.4448 159.91C-24.1193 157.449 -13.7448 155.215 -3.35184 152.54C9.10467 149.337 22.7804 152.316 30.616 161.362C37.1297 168.884 40.2893 179.804 46.63 189.081C51.8509 196.719 58.1507 202.737 64.9885 206.652C72.9395 211.204 81.9688 213.275 91.2963 212.413" stroke="#CFCFCF" stroke-miterlimit="10"/>
<path d="M1.98319 -144.108C15.4794 -134.259 26.5958 -117.161 25.7569 -98.7348C25.0972 -84.274 17.3253 -70.68 7.90039 -60.593C-0.208886 -51.9178 -8.93058 -44.4641 -12.8005 -34.9474C-17.6936 -22.9144 -14.4083 -9.76536 -12.4476 5.8564C-10.5199 21.1975 -7.53926 35.2609 -10.3436 49.1198C-12.2913 58.7459 -17.4215 67.8838 -23.8535 75.7826C-36.7518 91.6258 -54.341 92.687 -63.2945 107.745C-72.248 122.803 -72.2017 135.768 -68.6495 144.837C-64.7401 154.82 -51.5446 165.682 -35.4081 162.195C-26.1092 160.185 -15.8055 158.308 -5.514 155.729C6.50942 152.713 19.6196 155.226 27.4954 163.503C34.2357 170.59 37.8133 181.129 44.0355 190.334C49.2565 198.059 55.3292 204.416 62.0541 208.742C69.9771 213.841 79.1422 216.452 88.6953 215.984" stroke="#CBCBCB" stroke-miterlimit="10"/>
<path d="M1.13456 -143.812C14.7848 -133.365 26.3616 -116.147 25.6769 -97.2489C25.148 -82.654 17.4068 -68.8152 7.71476 -58.839C-0.51863 -50.3628 -9.52563 -43.4116 -13.9703 -34.1477C-19.5851 -22.4504 -17.3998 -9.00284 -15.5323 6.5669C-13.6647 22.1367 -9.84594 36.3327 -12.26 50.5825C-13.9584 60.6089 -19.0694 70.176 -25.603 78.3818C-37.8047 93.7048 -54.4234 95.6917 -63.1521 110.288C-71.487 124.229 -72.2449 137.365 -68.8981 146.597C-65.262 156.617 -52.6298 167.01 -37.3461 164.48C-28.0673 162.945 -17.8406 161.403 -7.64721 158.918C3.94357 156.09 16.5033 158.122 24.4018 165.645C31.3818 172.29 35.3607 182.455 41.4643 191.588C46.6855 199.4 52.5282 206.097 59.1436 210.834C67.0362 216.485 76.3381 219.626 86.1211 219.556" stroke="#C7C7C7" stroke-miterlimit="10"/>
<path d="M0.258984 -143.527C14.0599 -132.479 26.0968 -115.142 25.5684 -95.7768C25.1657 -81.0501 17.4596 -66.9641 7.50377 -57.1002C-0.852629 -48.8195 -10.1458 -42.375 -15.166 -33.3678C-21.4986 -22.008 -20.4146 -8.25752 -18.6401 7.25998C-16.8316 23.062 -12.1708 37.3811 -14.1973 52.0269C-15.64 62.4513 -20.7472 72.4457 -27.3705 80.9619C-38.8827 95.7551 -54.5221 98.6767 -63.0285 112.816C-71.0325 126.121 -72.3068 138.946 -69.163 148.336C-65.7966 158.391 -53.725 168.357 -39.303 166.742C-30.0377 165.702 -19.8957 164.471 -9.80003 162.079C1.35748 159.436 13.3762 160.979 21.2898 167.758C28.5163 173.948 32.8939 183.755 38.8781 192.813C44.0952 200.709 49.7101 207.754 56.2184 212.895C64.0785 219.104 73.5204 222.775 83.5288 223.1" stroke="#C2C2C2" stroke-miterlimit="10"/>
<path d="M-0.597372 -143.247C13.3543 -131.599 25.8513 -114.142 25.4758 -94.3085C25.197 -79.4453 17.5323 -65.1146 7.30507 -55.3644C-1.17435 -47.2795 -10.7537 -41.3421 -16.3511 -32.5872C-23.3999 -21.5619 -23.4186 -7.51607 -21.7325 7.95118C-19.984 23.9817 -14.4764 38.4299 -16.1233 53.4709C-17.3107 64.2935 -22.4197 74.7094 -29.1305 83.5431C-39.9638 97.7981 -54.6152 101.664 -62.9028 115.347C-70.5762 128.016 -72.3599 140.527 -69.4277 150.082C-66.3297 160.175 -54.8158 169.758 -41.2545 169.008C-32.0006 168.496 -21.9482 167.545 -11.9458 165.25C-1.22098 162.79 10.2697 163.823 18.1888 169.874C25.6716 175.591 30.4335 185.054 36.303 194.038C41.5172 202.022 46.9013 209.417 53.3048 214.958C61.1259 221.727 70.7101 225.923 80.9516 226.645" stroke="#BEBEBE" stroke-miterlimit="10"/>
<path d="M-1.46506 -142.959C12.6395 -130.715 25.5864 -113.135 25.3757 -92.8297C25.2195 -77.8335 17.5961 -63.246 7.09874 -53.6181C-1.49928 -45.7268 -11.3689 -40.2993 -17.5409 -31.8019C-25.3054 -21.1117 -26.4294 -6.76951 -24.8327 8.64373C-23.1486 24.9004 -16.7837 39.4777 -18.0569 54.9203C-18.9826 66.1387 -24.11 76.9706 -30.8997 86.1267C-41.0644 99.8351 -54.7146 104.656 -62.7846 117.88C-70.1266 129.915 -72.4192 142.112 -69.6962 151.827C-66.9732 161.542 -55.9144 171.203 -43.2074 171.277C-33.9683 171.33 -23.9998 170.617 -14.0926 168.423C-4.1854 166.229 7.1697 166.655 15.0855 171.996C22.8335 177.222 27.9716 186.364 33.7211 195.268C38.9324 203.34 44.0781 211.082 50.3846 217.025C58.1602 224.357 67.8975 229.079 78.3643 230.197" stroke="#BABABA" stroke-miterlimit="10"/>
<path d="M-2.31856 -142.672C11.9366 -129.827 25.3354 -112.128 25.2881 -91.3542C25.2512 -76.2238 17.6756 -61.3819 6.906 -51.8716C-1.81388 -44.173 -11.9539 -39.239 -18.7154 -31.0138C-27.1787 -20.6413 -29.4236 -6.02093 -27.9151 9.34174C-26.2943 25.8282 -19.0715 40.5263 -19.9714 56.3707C-20.6312 67.9876 -25.7913 79.2251 -32.6457 88.7142C-42.1533 101.876 -54.7737 107.666 -62.645 120.417C-69.6338 131.83 -72.4514 143.694 -69.9473 153.573C-67.4433 163.452 -57.007 172.694 -45.1425 173.542C-35.9283 174.202 -26.0346 173.683 -16.2214 171.594C-6.40823 169.504 4.09314 169.462 12.0046 174.114C20.0224 178.825 25.5276 187.666 31.1659 196.495C36.3744 204.654 41.282 212.745 47.4916 219.09C55.2183 226.986 65.1108 232.229 75.807 233.745" stroke="#B5B5B5" stroke-miterlimit="10"/>
<path d="M-3.19468 -142.386C11.2144 -128.941 25.0584 -111.121 25.1744 -89.8784C25.2578 -74.6102 17.7298 -59.514 6.68918 -50.13C-2.14709 -42.6182 -12.5825 -38.2008 -19.9145 -30.2352C-29.097 -20.2009 -32.4445 -5.28131 -31.0219 10.0257C-29.4677 26.743 -21.381 41.5597 -21.9143 57.8086C-22.3064 69.8191 -27.5158 81.4567 -34.4239 91.2907C-43.2815 103.896 -54.8896 110.65 -62.5392 122.943C-69.1981 133.719 -72.5128 145.268 -70.2276 155.311C-67.9068 165.509 -58.149 174.216 -47.1042 175.802C-37.9326 177.119 -28.0925 176.742 -18.3797 174.76C-8.667 172.778 0.986008 172.244 8.89106 176.224C17.183 180.399 23.0552 188.962 28.5749 197.715C33.7772 205.963 38.4425 214.4 44.5629 221.147C52.2343 229.611 62.2865 235.376 73.211 237.287" stroke="#B1B1B1" stroke-miterlimit="10"/>
<path d="M-4.05966 -142.099C10.4989 -128.057 24.7891 -110.112 25.0749 -88.4033C25.2774 -73.0009 17.799 -57.6431 6.48301 -48.388C-2.47293 -41.0619 -13.2014 -37.1662 -21.1015 -29.4533C-31.0016 -19.7543 -35.4763 -4.53395 -34.1109 10.7141C-32.6562 27.6631 -23.673 42.5976 -23.8402 59.2514C-23.9658 71.6521 -29.2377 83.6827 -36.1855 93.8725C-44.4012 105.921 -54.9902 113.64 -62.4184 125.475C-68.7476 135.613 -72.558 146.85 -70.4968 157.051C-68.4356 167.252 -59.3157 175.778 -49.0547 178.061C-39.9468 180.087 -30.1433 179.797 -20.5242 177.92C-11.5275 176.168 -2.10851 175.001 5.79683 178.329C14.3642 181.935 20.5832 190.265 26.0064 198.928C31.1917 207.278 35.6258 216.048 41.6539 223.199C49.2688 232.226 59.4839 238.514 70.6378 240.824" stroke="#ADADAD" stroke-miterlimit="10"/>
<path d="M-4.91984 -141.802C9.79257 -127.159 24.4957 -109.089 24.9807 -86.9135C25.2803 -71.3765 17.8777 -55.7552 6.28219 -46.6314C-2.79009 -39.4924 -13.8136 -36.1138 -22.2868 -28.6601C-32.9052 -19.3002 -38.468 -3.78641 -37.2005 11.4144C-35.8012 28.594 -25.9606 43.6415 -25.7631 60.7087C-25.6147 73.501 -30.9787 85.9122 -37.9454 96.4657C-45.5306 107.957 -55.0937 116.644 -62.2973 128.019C-68.3002 137.521 -72.5961 148.441 -70.7611 158.804C-68.9432 169.074 -60.524 177.379 -50.9979 180.336C-41.9957 183.129 -32.1856 182.861 -22.6602 181.101C-14.0953 179.517 -5.20345 177.757 2.70879 180.455C11.5473 183.466 18.1382 191.572 23.4441 200.162C28.6289 208.594 32.8121 217.718 38.7546 225.271C46.3065 234.864 56.692 241.676 68.0707 244.383" stroke="#A8A8A8" stroke-miterlimit="10"/>
<path d="M-5.78996 -141.51C9.07326 -126.266 24.2466 -108.077 24.8727 -85.4318C25.3065 -69.7587 17.9401 -53.8706 6.07154 -44.881C-3.11832 -37.9207 -14.4358 -35.0681 -23.4775 -27.8714C-34.8139 -18.8512 -41.4664 -3.03947 -40.2955 12.1051C-38.9494 29.5103 -28.2538 44.6756 -27.6961 62.1539C-27.275 75.334 -32.7487 88.1166 -39.7115 99.049C-46.6743 109.982 -55.2016 119.637 -62.1874 130.554C-67.861 139.418 -72.6453 150.022 -71.0396 160.55C-69.4668 170.856 -61.8039 178.987 -52.9548 182.598C-44.1089 186.211 -34.2412 185.913 -24.8091 184.269C-16.6757 182.853 -8.32337 180.481 -0.388608 182.563C8.71037 184.953 15.6872 192.859 20.8684 201.374C26.0507 209.894 29.9823 219.367 35.8425 227.32C43.3283 237.482 53.8833 244.813 65.4946 247.918" stroke="#A4A4A4" stroke-miterlimit="10"/>
</g>
</g>
</g>
</svg>
