<svg width="24" height="24" viewBox="0 0 24 24" fill="none" xmlns="http://www.w3.org/2000/svg">
<g clip-path="url(#clip0_3215_151)">
<path d="M14.025 17.558C13.9 17.558 13.7667 17.508 13.675 17.408C13.4833 17.2163 13.4833 16.8996 13.675 16.6996L18.3833 11.9913L13.675 7.28296C13.4833 7.09129 13.4833 6.77463 13.675 6.57463C13.8667 6.37463 14.1833 6.38296 14.3833 6.57463L19.4417 11.633C19.6333 11.8246 19.6333 12.1413 19.4417 12.3413L14.3833 17.3996C14.2833 17.4996 14.1583 17.5496 14.0333 17.5496L14.025 17.558Z" fill="white"/>
<path d="M18.941 12.5H4.91602C4.64102 12.5 4.41602 12.275 4.41602 12C4.41602 11.725 4.64102 11.5 4.91602 11.5H18.941C19.216 11.5 19.441 11.725 19.441 12C19.441 12.275 19.216 12.5 18.941 12.5Z" fill="white"/>
</g>
<defs>
<clipPath id="clip0_3215_151">
<rect width="20" height="20" fill="white" transform="translate(2 2)"/>
</clipPath>
</defs>
</svg>
